<?xml version="1.0" encoding="utf-8"?>
<svg xmlns="http://www.w3.org/2000/svg" xmlns:xlink="http://www.w3.org/1999/xlink" version="1.1" id="Layer_1" x="0px" y="0px" viewBox="0 0 20 22" style="enable-background:new 0 0 20 22;">
<style type="text/css">
	.st0{opacity:0.87;}
	.st1{fill:#050708;}
	.st2{fill:#929292;}
	.st3{fill:#F79522;}
</style>
<g class="st0">
	<path class="st1" d="M14.6,2.3C14.6,2.3,14.6,2.3,14.6,2.3C14.6,2.3,14.6,2.3,14.6,2.3l-3.2-1.9c0,0,0,0,0,0c0,0,0,0,0,0&#xD;&#xA;		C11.1,1.1,9.6,8.1,12,16.3C11.2,10.9,13.3,5,14.6,2.3z"/>
	<path class="st1" d="M10.7,21.8c0.7-0.1,1.4-0.2,2.1-0.4c0,0,0,0,0,0c0,0,0,0,0,0c-0.9-0.9-2.2-2.9-3.1-4.6&#xD;&#xA;		C10.2,18.6,10.6,20.7,10.7,21.8C10.7,21.8,10.7,21.8,10.7,21.8z"/>
	<path class="st2" d="M13.6,21.2c-4.5-7.4-3.8-17.8-3.3-21c0,0,0,0,0,0c0,0,0,0,0,0c-0.6,0.2-4.6,1.9-5,2c0,0,0,0,0,0c0,0,0,0,0,0&#xD;&#xA;		C6,6,8.1,14.8,13.6,21.2z"/>
	<path class="st2" d="M7.4,21.4L7.4,21.4C7.4,21.5,7.4,21.5,7.4,21.4c0.8,0.3,1.6,0.4,2.5,0.4c0,0,0,0,0,0c-0.1-1.8-0.5-5.5-2-8.7&#xD;&#xA;		C8.4,16.4,7.9,19.8,7.4,21.4z"/>
	<path class="st3" d="M6.2,21.1C6.3,21.1,6.3,21.1,6.2,21.1c0.1-0.1,0.1-0.2,0.1-0.3v0c0,0,0,0,0,0c-3.3-1.4-5.4-5.2-5.4-9&#xD;&#xA;		c0-3,1.3-6.2,3.4-7.9c0,0,0,0,0,0v0c0,0,0-0.2-0.1-0.2c0,0,0,0,0,0c0,0,0,0,0,0C1.7,5.3,0,8.3,0,11.7C0,16,2.6,19.6,6.2,21.1&#xD;&#xA;		C6.2,21.1,6.2,21.1,6.2,21.1z"/>
	<path class="st3" d="M15.5,3.3C15.5,3.3,15.5,3.3,15.5,3.3C15.5,3.3,15.4,3.3,15.5,3.3l-0.2,0.2c0,0,0,0,0,0c0,0,0,0,0,0&#xD;&#xA;		c2.4,1.7,3.8,5,3.8,8.1c0,3.5-1.7,7.1-4.6,8.6c0,0,0,0,0,0c0,0,0,0,0,0l0.1,0.2c0,0,0,0,0,0c0,0,0,0,0,0c3.1-1.7,5.3-5,5.3-8.9&#xD;&#xA;		C20,8.2,18.2,5.1,15.5,3.3z"/>
	<path class="st1" d="M17.5,20.9h0.2v0.7h0.1v-0.7h0.2v-0.1L17.5,20.9L17.5,20.9z"/>
	<path class="st1" d="M18.8,20.8l-0.3,0.7l-0.3-0.7h-0.1v0.8h0.1V21l0.2,0.6h0.1l0.2-0.6v0.6H19v-0.8H18.8z"/>
</g>
</svg>