<?xml version="1.0" encoding="utf-8"?>
<svg xmlns="http://www.w3.org/2000/svg" width="14.864" height="14.789" viewBox="0 0 14.864 14.789">
  <g id="Group_4292" data-name="Group 4292" transform="translate(143.43 221.945)">
    <path id="Path_3718" data-name="Path 3718" d="M61.5,66.041a3.539,3.539,0,0,0,.027-1.361A9.839,9.839,0,0,1,60.221,66.2a10.442,10.442,0,0,1-1.96-.082,5.055,5.055,0,0,0,1.062.789,3.452,3.452,0,0,1-1.252.517,7.269,7.269,0,0,0,5.254-2.069,6.991,6.991,0,0,1-1.824.681" transform="translate(-194.15 -274.588)" fill="#939393"/>
    <path id="Path_3719" data-name="Path 3719" d="M43.924,61.583a14.582,14.582,0,0,1-1.633-.817,18.977,18.977,0,0,1,.3-2.232,9.675,9.675,0,0,1-1.742,1.334c-.572-.408-1.171-.871-1.77-1.388a10.072,10.072,0,0,0,.844,1.851,2.8,2.8,0,0,1-1.552.163,3.832,3.832,0,0,0,2.368,1.034,3.564,3.564,0,0,0,1.8,1.252,2.019,2.019,0,0,1-.272-1.116c.517,0,1.062-.027,1.661-.082" transform="translate(-179.813 -270.076)" fill="#939393"/>
    <path id="Path_3720" data-name="Path 3720" d="M34.663,42.46a10.89,10.89,0,0,0-1.906.191,14.09,14.09,0,0,1-.163-1.47,6.956,6.956,0,0,0-.817,1.715,1.938,1.938,0,0,0-.708.408,2.45,2.45,0,0,0,.49.844,4.386,4.386,0,0,0,.354,2.123,4.084,4.084,0,0,1,.517-1.307,9.4,9.4,0,0,0,1.361.9,8.82,8.82,0,0,1-.735-1.824,11.364,11.364,0,0,1,1.606-1.579" transform="translate(-174.5 -257.486)" fill="#939393"/>
    <path id="Path_3721" data-name="Path 3721" d="M33.1,28.176a14.088,14.088,0,0,1,1.416-1.171,4.939,4.939,0,0,0-1.062.136,5.578,5.578,0,0,1,.762-1.361,7.365,7.365,0,0,0-2.75,4.574,5.472,5.472,0,0,1,.844-1.334,5.57,5.57,0,0,0,.572.953,7.059,7.059,0,0,1,.218-1.8" transform="translate(-174.791 -246.278)" fill="#939393"/>
    <path id="Path_3722" data-name="Path 3722" d="M48.831,21.884a10.906,10.906,0,0,0-1.742-.681,3.708,3.708,0,0,1,1.334-.735,7.154,7.154,0,0,0-2.858.49,5.867,5.867,0,0,0-1.96.109,2.153,2.153,0,0,1,.49.653,6.329,6.329,0,0,0-1.525,1.416,12.068,12.068,0,0,1,1.878-.708c.082.136.136.245.218.381a6.991,6.991,0,0,0,.871,1.116,5.208,5.208,0,0,1,.762-1.878,18.191,18.191,0,0,1,2.532-.163" transform="translate(-182.869 -242.41)" fill="#939393"/>
    <path id="Path_3723" data-name="Path 3723" d="M70.661,28.892a5.352,5.352,0,0,0-1.5-1.96,5.11,5.11,0,0,0-1.089-1.552,1.745,1.745,0,0,1-.082.817,7.01,7.01,0,0,0-2.423-.735A9.672,9.672,0,0,1,67.5,27.15a10.375,10.375,0,0,1-1.2,1.552,11.034,11.034,0,0,1,2.178-.3,17.544,17.544,0,0,1,1.361,2.232,8.534,8.534,0,0,0-.191-2.151,1.618,1.618,0,0,1,1.007.408" transform="translate(-199.608 -245.987)" fill="#939393"/>
    <path id="Path_3724" data-name="Path 3724" d="M73.516,45.987a1.906,1.906,0,0,1-.953.762,20.416,20.416,0,0,0-.218-2.069,20.35,20.35,0,0,1-1.034,2.4,8.924,8.924,0,0,1-2.341-.027,9.8,9.8,0,0,0,1.525,1.525,14.978,14.978,0,0,1-1.034,1.552,5.652,5.652,0,0,0,2.042-.9,2.082,2.082,0,0,1,.6.6,3.5,3.5,0,0,0,.463-1.606,5.27,5.27,0,0,0,.953-2.232" transform="translate(-202.082 -260.033)" fill="#939393"/>
    <path id="Path_3725" data-name="Path 3725" d="M48.19,38.119h0c-.436.681-.9,1.388-1.28,2.123a13.394,13.394,0,0,1-.436-2.641c-.735-.245-1.47-.517-2.205-.844a21.053,21.053,0,0,1,2.178-.926,12.145,12.145,0,0,1,.381-2.532,22.381,22.381,0,0,0,1.225,1.96c.844-.272,1.77-.544,2.777-.762,0,0-.735.926-1.661,2.232A21.111,21.111,0,0,0,51.021,38.8c-.027-.027-1.225-.245-2.831-.681" transform="translate(-184.107 -251.751)" fill="#939393"/>
  </g>
</svg>