<?xml version="1.0" encoding="utf-8"?>
<svg xmlns="http://www.w3.org/2000/svg" id="Layer_2" data-name="Layer 2" viewBox="0 0 906.73 1229.17">
  <defs>
    <style>
      .cls-1 {
        fill: #2b2721;
      }

      .cls-1, .cls-2, .cls-3, .cls-4, .cls-5 {
        stroke-width: 0px;
      }

      .cls-2 {
        fill: #01802d;
      }

      .cls-3 {
        fill: #d20301;
      }

      .cls-4 {
        fill: #fff;
      }

      .cls-5 {
        fill: #ebb201;
      }
    </style>
  </defs>
  <g id="Layer_1-2" data-name="Layer 1">
    <path class="cls-4" d="M341.59,63.83h227.52c176.36,0,319.53,143.18,319.53,319.53v810.75H22.05V383.36C22.05,207,165.23,63.83,341.59,63.83Z"/>
    <g>
      <path class="cls-1" d="M452.21,1229.16c-123.46,0-246.91.02-370.37-.01-54.18-.02-81.76-27.43-81.76-81.33-.03-230.08-.18-460.16.04-690.24C.33,231.2,159.38,43.42,382.16,6.03c244.54-41.05,482.41,132.34,518.57,377.86,3.98,27.02,5.97,54.14,5.98,81.41.03,227.05.03,454.11.01,681.16,0,55.32-27.24,82.69-82.32,82.7-124.06.03-248.12.01-372.18,0ZM758.8,771.52c1.11,6.67,4.98,2.67,10.83,1.67-5.56-.66-8.37-1-11.18-1.33,2.83-4.59,3.72-10.3,12-9.99,2.86.11,10.25-8.9,4.25-13.56-6.04-4.69-14.96-.63-22.55-.02-4.62.37-4.53,5.12-4.18,8.53.7,6.87.92,14.48,10.84,14.69ZM334.04,688.36c4.72.58,9.49,1.9,14.17,1.62,52.93-3.12,105.89-2.43,158.86-1.64,22.18.33,44.32,4.46,66.56.84,2.47.06,4.94.12,7.42.18,25.04,1.12,50.07,2.25,75.11,3.37,13.44,2.35,26.96,2.93,40.54,1.56,19.57,6.79,40.02,3.08,60,4.99,36.59,4.56,73.19,9.11,109.78,13.67.28-1.49.56-2.97.85-4.46-29.88-13.61-61.96-21.16-92.9-31.88,3.38-5.72,6.68-11.49,10.15-17.16,52.39-85.8,71.19-178.83,51.4-277.02-26.97-133.86-102.38-230.2-229.39-285.84-47.62-20.86-96.27-32.57-147.23-32.78-126.07-.53-230.58,48.41-309.72,146.43-69.94,86.63-95.68,186.96-81.78,297.6,7.86,62.56,31.77,118.69,65.81,171.04-31.94,6.82-62.4,18.24-92.62,32.69,36.4-3.46,72.79-6.91,109.19-10.37,17.88-4.96,36.9,0,54.62-6.36,15.46,1.44,30.81.07,46.13-1.87,23.67-1.28,47.34-2.57,71.05-3.83,4-.27,8-.54,12-.81ZM49.93,1050.21c0,37.52.53,75.05-.3,112.56-.27,12.28,3.75,14.88,15.26,14.8,73.79-.49,147.59-.47,221.38,0,11.4.07,15.51-2.35,15.41-14.74-.59-75.04-.59-150.09,0-225.12.09-11.79-3.77-13.76-14.41-13.69-74.4.44-148.8.58-223.2-.1-12.85-.12-14.54,4.61-14.37,15.56.57,36.91.22,73.83.22,110.74ZM528.16,837.35c-17.28-31.85-32.24-60.79-48.51-88.96-12.38-21.44-48.12-21.06-60.99.35-9.33,15.53-17.43,31.8-25.96,47.8-6.91,12.96-13.64,26.01-21.49,41.03,20.6-2.03,41.88,8.13,49.86-18.2,1.55-5.12,6.83-4.02,10.96-4.04,9.69-.06,19.44.71,29.04-.21,11.11-1.07,18.64,1.81,21.77,13.32,1.79,6.59,6.16,9.53,13.47,9.06,9.54-.61,19.15-.15,31.85-.15ZM654.27,735.06c0,.16,0,.33,0,.49-13.88,0-27.83-.89-41.61.25-13.61,1.12-24.67,6.87-24.73,23.24-.08,22.95-.07,45.9-.01,68.85,0,3.41-1.05,8.7,3.37,9.03,10.78.8,22.26,2.37,32.31-.47,7.86-2.22,2.5-12.67,3.78-19.32.34-1.75.28-3.65.01-5.42-1.73-11.31,1.94-16.12,14.4-15.24,16.22,1.14,32.59-.16,48.87.44,9.32.34,12.61-2.49,12.61-12.22,0-9.75-4.65-10.71-12.26-10.59-16.9.27-33.8.22-50.7,0-5.47-.07-12.98,2.38-12.48-7.85.41-8.49,6.21-9.28,12.61-9.31,16.9-.07,33.81-.27,50.7.04,7.64.14,12.19-.78,12.39-10.49.22-10.46-4.47-11.91-13.04-11.56-12.05.49-24.14.12-36.21.12ZM266.08,735.07c0,.15,0,.3,0,.46-13.31,0-26.68-.74-39.93.17-22.28,1.53-28.39,8.58-28.56,30.75-.09,11.51-.04,23.01-.01,34.52.06,27.92,6.63,35.28,35.04,36.29,22.97.82,46-.17,68.99.39,9.26.23,12.72-2.31,12.66-12.12-.06-9.85-4.92-10.75-12.49-10.39-7.25.34-14.52.07-21.79.07-45.31,0-45.04.02-41.97-45.49.64-9.43,4.06-12.87,13.16-12.7,16.34.32,32.7-.38,49.02.25,9.16.35,12.73-2,12.65-11.94-.08-9.77-4.64-10.62-12.26-10.36-11.49.4-23,.1-34.5.1ZM499.51,1145.95c-1.14.18-2.29.37-3.43.55-3.42-9.56-7.06-19.05-10.18-28.71-2.18-6.75-7.04-7.57-12.84-6.85-6.33.78-4.92,5.84-4.95,9.77-.12,15.7-.05,31.4-.03,47.1,0,3.72.21,7.29,5.21,7.73,6.09.53,6.81-3.26,6.77-7.98-.09-9.24-.03-18.48-.03-27.72,6.62,9.33,10.42,19.19,13.71,29.22,2.27,6.9,7.42,7.12,13.04,6.48,6.6-.76,4.52-6.2,4.58-9.88.26-15.09.14-30.19.07-45.29-.02-4.09.82-9.11-5.42-9.39-7.67-.34-6.33,5.7-6.45,10.23-.21,8.24-.06,16.49-.06,24.74ZM348.53,980.09c-.19,2.46-2.37,6.72,2.57,8.15,4.24,1.23,8,.11,10.33-4.7,7.07-14.59,14.35-13.94,21.08.32,2.28,4.84,6.44,5.88,10.45,4.24,4.23-1.74,2.63-6.17,1.74-9.54-4.14-15.67-8.67-31.25-12.58-46.97-1.38-5.55-3.76-7.94-9.71-8-6.48-.06-9.52,2.04-11.07,8.62-3.72,15.77-8.31,31.34-12.79,47.88ZM718.88,1144.27c-1.14.19-2.28.38-3.41.57-3.27-8.8-6.87-17.49-9.7-26.42-2.05-6.48-6.1-8.34-12.27-7.51-6.09.82-5.43,5.49-5.45,9.6-.07,15.69.02,31.38-.05,47.07-.02,4.7.63,8.51,6.73,8.01,4.9-.4,5.41-3.78,5.4-7.62-.02-8.96,0-17.92,0-26.88,6.83,9.46,10.7,18.83,13.72,28.47,1.97,6.28,6.36,6.28,11.3,6.06,6.23-.28,5.83-4.91,5.84-9.14.03-15.69,0-31.38-.05-47.07-.01-4.52-.83-8.65-6.75-8.22-4.81.35-5.3,3.97-5.3,7.77,0,8.43,0,16.87,0,25.3ZM441.28,1044.83c.23,0,.47,0,.7,0,0-5.45-.03-10.9,0-16.34.04-5.44,1.1-11.4-7.55-11.02-7.74.33-6.08,5.95-6.14,10.51-.11,9.68.25,19.38-.15,29.05-.25,6.12,2.65,15.43-6.97,15.88-9.99.47-7.62-8.96-7.84-15.08-.39-10.88-.28-21.79-.05-32.68.11-5.28-1.7-8.01-7.23-7.63-4.16.29-6.64,1.87-6.52,6.64.36,14.51-.18,29.08.92,43.54.82,10.81,8.82,15.32,19,15.62,10.71.31,19.64-3.37,21.57-14.95,1.28-7.64.24-15.66.24-23.52ZM445.65,955.98c0,5.44-.76,11.02.21,16.28,1.03,5.58-4.91,15.16,5.57,15.95,11.22.84,6.1-9.15,7.28-14.76.99-4.73-2.48-12.1,6.43-12.08,7.31.02,8.1,5.9,8.46,11.58.19,3.01.39,6.03.57,9.04.32,5.46,3.46,7.19,8.52,6.64,5.44-.6,4.34-4.26,4.22-7.97-.45-13.95-6.01-27.44-.68-42.07,2.7-7.4-4.44-12.78-12.65-14.48-23.54-4.87-27.88-1.41-27.94,22.81,0,3.02,0,6.04.01,9.06ZM349.32,1142.95c.24,3.77.43,6.77.61,9.77.81,13.33,5.09,23.59,20.79,24.2,15.38.6,20.7-8.29,22.65-22.01,1.38-9.78-.23-18.95-1.62-28.44-2.27-15.47-12.85-18.3-25.02-15.97-18.69,3.59-15.72,19.9-17.4,32.45ZM679.01,1144.54c0-3.61.13-7.22-.02-10.82-.56-13.64-5.68-23.43-21.09-23.81-15.27-.38-21.48,8.87-22.44,22.55-.71,10.15-1.72,20.53,1.55,30.43,4.84,14.68,27.09,19.26,36.7,7.56,6.17-7.51,5.4-16.9,5.31-25.91ZM759.4,1109.88c-10.69.2-19.69,5.4-21.95,15.18-2.73,11.85,5.49,19.22,16.06,24.26,5.49,2.62,17.33,2.24,12.74,12.17-2.35,5.09-11.94,6.33-16.54-3.18-1.32-2.73-6.94-2.16-9.76.09-2.91,2.32-3.78,6.37-1.09,9.48,8.66,10.02,19.88,10.95,31.48,7.02,10.64-3.61,12.13-12.7,10.43-22.34-1.78-10.07-11.12-11.69-18.53-15.38-5.38-2.68-12.68-5.63-8.46-12.99,4.35-7.59,9.24-4.93,13.27,2.01,2.44,4.22,7.83,4.37,11.06,1.14,3.89-3.88-.05-8.02-2.41-11.05-3.97-5.1-9.92-6.57-16.29-6.4ZM592.23,974.98c5.01-.11,9.26.08,9.77,6,.66,7.6,6.09,9.24,11.59,7.06,5.78-2.29,1.51-7.27.58-10.95-3.7-14.62-7.88-29.13-11.34-43.81-1.42-6.04-3.43-9.55-10.49-9.71-6.96-.16-9.62,3.12-11.13,9.08-3.84,15.21-8.04,30.34-11.75,45.58-.83,3.41-4.94,8.43,2.23,10.12,4.48,1.06,8.67.32,9.6-5.29,1.11-6.74,5.01-9.18,10.93-8.09ZM362.93,1053.59c0-4.31-.05-4.91,0-5.51.69-7.53-2.39-17.29,6.3-21.06,8.81-3.83,7.01,7.52,11.28,10.54,2.13,1.5,5.9,2.07,8.4,1.31,3.32-1.01,3.12-4.66,2.5-7.74-1.77-8.79-7.38-13.81-16.02-14.87-10.55-1.29-19.85,1.76-23.22,12.7-4.16,13.5-3.82,27.54-.29,41.21,2.23,8.64,9.13,12.51,17.63,13.1,8.28.58,16-1.33,19.89-9.5,2.41-5.05,6.74-11.97-.85-15.59-6.64-3.17-9.32,2.48-10.43,8.49-.71,3.83-2.86,6.94-7.2,6.64-5.27-.36-6.7-4.74-7.31-8.96-.69-4.76-.62-9.63-.68-10.75ZM541.65,1162.6c6.97-1.23,9.59,2.36,11.06,8.67,1.26,5.39,6.48,4.95,10.55,4.08,4.24-.91,2.85-4.63,2.13-7.37-4.46-16.93-9.22-33.78-13.52-50.74-1.34-5.27-4.59-6.35-9.24-6.52-5.44-.2-9.01,1.12-10.53,7.2-4.08,16.4-8.81,32.63-13.04,48.99-.79,3.07-2.89,7.44,2.7,8.51,3.55.68,7.54.8,9.15-3.54,1.93-5.22,3.29-10.76,10.75-9.28ZM533.79,956.78h-.39c0-1.82-.07-3.64.01-5.45.32-6.57-1.28-14.97,5.62-18.04,8.84-3.93,7.92,5.99,11.09,10.27,2.48,3.34,6.67,2.91,9.89,1.22,3.22-1.69,2.31-5.22,1.61-8.14-2.32-9.75-9.21-13.93-18.59-14.12-9.87-.2-18.01,3.16-20.83,13.73-3.51,13.13-3.48,26.41-.06,39.54,2.49,9.56,9.58,13.41,18.97,13.78,8.58.33,15.76-2.4,19.23-10.69,1.94-4.65,5.72-11.15-.56-14.38-5.6-2.88-10.26.39-11.12,7.54-.55,4.58-2.94,8.28-8.37,7.19-5.05-1.02-6.11-5.43-6.43-9.75-.31-4.21-.07-8.46-.07-12.7ZM402.43,1143.82c0,6.65-.36,13.32.12,19.94.34,4.63-3.03,11.76,6.29,11.86,8.84.09,6.93-6.48,7.12-11.58.3-8.02-2.8-18.08,11.57-16.33,3.92.48,9.73,1.08,9.87-4.81.18-7.45-6.45-5.25-10.84-5.76-3.99-.46-9.17,1.21-10.31-4.6-.54-2.73-.31-6.69,1.33-8.54,3.55-4.01,9.02-1.68,13.66-2.17,3.57-.37,7.55.08,7.63-5.19.07-4.89-3.36-5.26-7.18-5.94-24.83-4.44-29.25-.88-29.27,24.04,0,3.02,0,6.04.02,9.07ZM450.29,1049.79c0,6.65-.25,13.32.08,19.96.24,4.86-2.47,11.69,6.42,12.12,8.97.44,7.69-6.29,7.06-11.27-1.34-10.56,1.93-15.26,13.31-15.38,7.96-.08,12.97-6.13,13.87-14.32,1.48-13.44-2.91-22.68-18.04-23.36-12.57-.56-26.88-3.47-22.84,17.76.89,4.67.13,9.65.14,14.49ZM402.43,956.28c0,6.63-.44,13.31.15,19.89.41,4.58-3.31,12.03,5.83,12.31,9.92.31,7.52-7.47,7.45-12.98-.12-8.81-1.05-17.44,12.46-15.13,3.85.66,9.31.97,9.28-5.33-.03-6.36-5.49-5.57-9.37-5.23-8.92.8-14.83-1.55-11.68-11.65,1.92-6.15,8.29-2.56,12.64-3.28,3.93-.65,9.05.93,9.54-5.33.53-6.81-4.79-5.38-8.74-5.79q-27.5-2.81-27.54,25.29c0,2.41,0,4.82-.01,7.24ZM605.9,1115.53c-.74-1.08-1.64-3.6-2.62-3.63-11.91-.39-23.84-.57-35.75-.27-1.1.03-2.79,3.63-2.99,5.69-.26,2.72,2.29,4.47,4.67,4.33,10.99-.65,8.79,7.2,8.89,13.46.13,8.41-.52,16.88.24,25.22.5,5.54-4.45,15.11,6.77,15.05,11.48-.06,4.64-9.82,6.47-15.04,4.76-13.53-11.77-34.04,13.42-40.98.53-.15.54-2.15.92-3.82ZM511.11,956.46c0-8.41-.13-16.82.05-25.23.11-5.4-2.3-7.56-7.57-7.33-4.57.2-6.16,2.66-6.15,6.88.02,16.82.05,33.64-.07,50.46-.04,5.29,2.19,7.73,7.55,7.45,5.93-.31,6.28-4.27,6.22-8.79-.09-7.81-.03-15.62-.04-23.43ZM612.87,1143.53c0,7.85-.03,15.7.01,23.54.02,4.21-.49,8.65,5.98,8.67,5.64.02,7.22-2.97,7.2-7.95-.07-16.3-.08-32.6.01-48.9.03-5.17-2.05-7.85-7.43-7.87-6.75-.02-5.6,5.02-5.7,8.96-.2,7.84-.06,15.69-.08,23.54Z"/>
      <path class="cls-3" d="M756.7,699.29c-19.98-1.91-40.43,1.8-60-4.99-1.24-12.33-2.49-24.66-4.12-40.88-13.82,14.92-25.12,27.12-36.42,39.32-25.04-1.12-50.07-2.25-75.13-3.36,24.89-11.57,46.84-27.51,65.41-47.55,107.51-115.95,100.97-278.27-15.46-391.98,28.5-9.54,42.94-41.08,32.36-73.73-10.59-32.68-36.97-47.99-67.65-45.27-38.03,3.37-62.04,31.68-60.58,65.21-36.38-10.88-73.34-15.18-111.17-9.96-106.15,14.64-182.04,70.7-220.87,170.42-38.59,99.1-20.22,191.3,46.84,273.56,8.9,10.92,17.27,23.02,31.13,28.85,7.21,2.63,10.79,11.36,19.45,11.55,2.76,11.31,15.06,11.6,21.52,18.64-23.67,1.28-47.34,2.57-71.01,3.87-12.87-13.68-25.73-27.38-39.22-41.76-7.84,15.06-3.34,29.95-6.9,43.62-17.71,6.35-36.74,1.4-54.63,6.37-4.15-8.45-9.85-15.77-16.56-22.33-34.04-52.35-57.95-108.48-65.81-171.04-13.9-110.64,11.84-210.97,81.78-297.6C228.78,112.23,333.29,63.3,459.37,63.83c50.96.21,99.61,11.92,147.23,32.78,127.01,55.64,202.42,151.99,229.39,285.84,19.78,98.19.99,191.22-51.4,277.02-3.46,5.67-6.77,11.44-10.13,17.16-6.01,7.48-13.78,13.58-17.75,22.67ZM133.81,595.13c10.1,22.57,20.06,42.18,34.24,60.1,20.07-44.3,18.34-48.05-26.38-59.09-1.63-.4-3.36-.44-7.86-1.01ZM770.52,598.58c-16.57,4.82-29.18,8.45-41.77,12.16-3.71,1.09-7,2.99-5.85,7.58,3.36,13.47,6.98,26.87,11.61,44.57,14.17-22.49,26.9-39.87,36-64.31ZM744.13,567.12c14.91-6.42,26.38-11.33,37.83-16.31,4.04-1.76,8.53-4.03,4.72-9.2-7.9-10.76-14.17-23.03-25.99-31.65-5.36,18.5-10.31,35.59-16.56,57.15ZM159.27,562.23c-2.67-9.37-4.8-17.36-7.22-25.26-3.17-10.38-1.34-22.19-8.97-31.28-7.06,9.47-13.94,19.09-21.24,28.37-5.45,6.93-2.7,10.39,4.26,13.32,10.48,4.41,20.78,9.27,33.17,14.85Z"/>
      <path class="cls-5" d="M300.47,670.5c-8.65-.19-12.24-8.92-19.45-11.55-.15-8.79-6.27-13.6-11.9-19.22-46.89-46.77-74.07-103.42-76.71-169.44-4.42-110.41,41.51-195.78,139.34-247.53,98.64-52.18,195.39-40.07,283.72,26.34,113.25,85.14,132.46,252.69,44.29,366.28-23.7,30.54-53.85,53.38-86.14,73.81-22.23,3.62-44.37-.51-66.56-.84-52.97-.79-105.93-1.49-158.86,1.64-4.67.28-9.44-1.04-14.16-1.62-11.42-5.51-20.7-15.07-33.58-17.86ZM454.58,634.65c14.31,34.02,3.73,30.12,46.24,27.26,3.56-.24,7.19-1.89,10.62-1.48,20.42,2.44,29.53-10.68,37.02-26.25,14.07-11.23,21.54-26.03,23.62-43.74-.56-9.37,4.52-13.73,12.95-16.7,13.97-4.93,20.72-14.26,17.26-30.18-3.62-16.63-1.5-33.61-1.28-50.51.18-14.57,6.57-23.16,17.48-31.09,18.74-13.61,34.17-30.55,45.97-50.61,5.6-9.52,9.92-19.35,5.85-30.96-12.44,2.59-24.64,5.29-36.91,7.63-5.73,1.09-12.06,4.15-17.04-1.43-25.87-29-47.5-60.36-54.22-99.79,1.44-3.28,2.87-6.56,4.33-9.83,6.94-15.53.49-28.72-9.76-39.01-10.2-10.23-24.64-13.51-38.05-7.03-13.25,6.42-26.91,14.47-23.51,33.46-4.03.88-9.69-2.29-12.01,1.74-8.45,14.67-18.62,6.3-27.89,2.34-9.87-4.21-23.61-4.4-23.7-20.61-.05-9.84-6.09-13.48-15.65-12.95-39.37,2.17-77.82,4.76-110.84,31.83-52.26,42.85-82.33,78.21-24.03,145.89,1.54,1.79,1.99,4.71,3.75,6.07,12.66,9.82,25.13,22.51,43.05,13.43,21.89-11.1,44.3-8.61,66.92-4.84,14.19,2.36,21.78,11.08,18.85,25.59-2.24,11.09,1.39,18.44,7.52,27.67,11.45,17.25,25.47,36.76,15.8,58.31-9.45,21.06-8.04,39.29,2.04,58.44,3.7,13.09,8.96,25.52,15.63,37.37ZM651.72,540.17c-4.63,3.96-8.57,8.96-13.73,11.46-24.05,11.63-25.35,34.62-28.78,56.43-.74,4.67-2.89,12.27,5.39,12.64,5.52.25,12.86.01,14.9-7.45,4.5-16.48,15.09-30.01,21.49-45.48,3.59-8.68,6.82-18.22.72-27.6Z"/>
      <path class="cls-5" d="M204.86,694.87c3.56-13.67-.94-28.56,6.9-43.62,13.5,14.38,26.36,28.08,39.22,41.76-15.32,1.92-30.66,3.29-46.12,1.86Z"/>
      <path class="cls-5" d="M656.16,692.74c11.3-12.2,22.6-24.4,36.42-39.32,1.63,16.23,2.88,28.56,4.12,40.88-13.58,1.36-27.1.79-40.54-1.57Z"/>
      <path class="cls-5" d="M630.98,249.85c-29.03-23.17-60.72-41.6-95.89-53.79-1.44-33.53,22.56-61.84,60.59-65.21,30.68-2.72,57.06,12.59,67.65,45.27,10.59,32.65-3.85,64.19-32.36,73.73Z"/>
      <path class="cls-5" d="M133.81,595.13c4.51.56,6.23.6,7.86,1.01,44.73,11.04,46.46,14.8,26.38,59.09-14.19-17.92-24.14-37.52-34.24-60.1Z"/>
      <path class="cls-5" d="M770.52,598.58c-9.1,24.44-21.83,41.82-36,64.31-4.64-17.7-8.25-31.1-11.61-44.57-1.15-4.59,2.14-6.48,5.85-7.58,12.59-3.71,25.2-7.35,41.77-12.16Z"/>
      <path class="cls-5" d="M744.13,567.12c6.25-21.57,11.2-38.65,16.56-57.15,11.82,8.62,18.09,20.89,25.99,31.65,3.8,5.17-.69,7.44-4.72,9.2-11.45,4.98-22.92,9.89-37.83,16.31Z"/>
      <path class="cls-5" d="M159.27,562.23c-12.39-5.57-22.68-10.43-33.17-14.85-6.96-2.93-9.71-6.39-4.26-13.32,7.3-9.28,14.18-18.9,21.24-28.37,7.63,9.09,5.8,20.91,8.97,31.28,2.42,7.9,4.55,15.89,7.22,25.26Z"/>
      <path class="cls-2" d="M438.95,597.28c-10.08-19.15-11.49-37.39-2.04-58.44,9.67-21.55-4.35-41.06-15.8-58.31-6.12-9.23-9.76-16.57-7.52-27.67,2.93-14.5-4.66-23.22-18.85-25.59-22.62-3.77-45.03-6.26-66.92,4.84-17.91,9.08-30.39-3.61-43.05-13.43-1.76-1.36-2.21-4.28-3.75-6.07-58.3-67.68-28.23-103.04,24.03-145.89,33.02-27.07,71.47-29.66,110.84-31.83,9.56-.53,15.6,3.11,15.65,12.95.09,16.21,13.83,16.4,23.7,20.61,9.27,3.95,19.44,12.33,27.89-2.34,2.32-4.03,7.98-.85,11.99-1.75,14.05,2.22,28.15,6.34,42.19,6.14,13.35-.19,21.06,3.91,24.82,16.28,6.72,39.43,28.35,70.79,54.22,99.79,4.98,5.58,11.31,2.52,17.04,1.43,12.27-2.34,24.47-5.04,36.91-7.63,4.07,11.62-.26,21.44-5.85,30.96-11.79,20.07-27.23,37-45.97,50.61-10.92,7.93-17.3,16.51-17.48,31.09-.21,16.9-2.33,33.88,1.28,50.51,3.46,15.92-3.29,25.26-17.26,30.18-8.43,2.97-13.51,7.33-12.95,16.7-26.53,10.74-53.73,7.69-81.06,4.37-17.41-2.12-35.16-7.44-52.07,2.48ZM514.68,284.41c-7.39,2.33-19.77-4.48-22.13,4.33-2.3,8.62,10.23,11.34,17.48,14.75,8.89,4.19,18.72,4.98,27.56.67,4.73-2.31,3.72-9,1.6-13.02-5.49-10.44-16.03-4.49-24.52-6.73Z"/>
      <path class="cls-1" d="M438.95,597.28c16.91-9.92,34.65-4.6,52.07-2.48,27.33,3.32,54.54,6.37,81.06-4.37-2.08,17.72-9.55,32.52-23.62,43.75-31.29.16-62.59.32-93.88.48-6.67-11.85-11.93-24.28-15.63-37.37Z"/>
      <path class="cls-2" d="M454.58,634.65c31.3-.16,62.59-.32,93.88-.48-7.5,15.58-16.61,28.69-37.02,26.25-3.43-.41-7.05,1.24-10.62,1.48-42.52,2.87-31.94,6.77-46.24-27.26Z"/>
      <path class="cls-1" d="M651.72,540.17c6.09,9.37,2.87,18.92-.72,27.6-6.4,15.47-16.99,29-21.49,45.48-2.04,7.47-9.38,7.7-14.9,7.45-8.29-.37-6.13-7.97-5.39-12.64,3.44-21.82,4.73-44.8,28.78-56.43,5.16-2.49,9.1-7.5,13.73-11.46Z"/>
      <path class="cls-3" d="M128.68,1052.86c-4.47-18.45-18.88-21.66-34.67-22.31-11.18-.46-21.95-2.28-19.73-16.68,2.03-13.12,12.53-14.57,23.78-12.55,25.71,4.62,51.42,9.22,77.12,13.83,6.06,2.31,11.97,5.41,18.82,3.74,14.81,8.11,30.23.33,45.3,1.75.74,7.06,1.48,14.13,2.22,21.19-17.08,4.47-34.23.84-51.35.39-6.5-.62-13.01-1.24-19.51-1.87-3.48-.56-7.09-.72-10.43-1.74-12.57-3.84-15.8,1.17-12.52,12.75-6.34.5-12.69,1.01-19.03,1.51Z"/>
      <path class="cls-2" d="M194,1018.88c-6.85,1.67-12.76-1.43-18.82-3.74,15.55-24.75,54.27-38.53,80.55-28.66,17.47,6.56,23.7,18.75,18.58,36.36-7.73.85-12.3-6.24-19.13-7.64-19.38-16.04-45.49-14.46-61.19,3.69Z"/>
      <path class="cls-5" d="M200.26,1055.61c15.38,6.72,31.13,7.1,47.12,2.63,5.05-1.41,10.22-1.8,12.44,3.76,2.66,6.64-2.1,10.23-7.54,12.19-20.24,7.3-40.52,10.51-60.49-1-.85-7.63,6.04-11.53,8.47-17.57Z"/>
      <path class="cls-3" d="M206.82,1113.44c4.5-1.97,7.87-4.88,14.09-4.36,13.23,1.1,26.86-.72,39.76,2.93,3.87,1.1,6.77,3.46,10.62.8-.91.51-2.34.82-2.62,1.56-.82,2.15-1.17,4.48-1.7,6.73-5.64-3.62-9.09,5.4-14.61,2.53-1.58-.82-3.94-2.66-4.69-2.16-16.07,10.73-27.98,8.83-35.19-10.51-.54-1.45-4.39-.06-5.92,2.15,0,0,.26.33.26.33Z"/>
      <path class="cls-1" d="M255.19,1015.19c6.84,1.4,11.4,8.5,19.13,7.64-5.2,16.29-18.74,18.13-32.82,19-.71-7.07-1.46-14.14-2.2-21.2,5.99.2,12.13.88,15.89-5.44Z"/>
      <path class="cls-2" d="M200.26,1055.61c-2.43,6.05-9.32,9.95-8.47,17.57-12.28-7.58-21.51-17.12-21.15-32.84,6.52.62,13.03,1.25,19.53,1.87,3.36,4.46,6.72,8.93,10.09,13.39Z"/>
      <path class="cls-5" d="M147.47,1119.47c-12.82,7.35-24.71,7.06-35.27-4.27,0,0,.03-.1.03-.1,9.91-8.44,23.35-5.93,34.33-11.09.31,5.15.61,10.31.91,15.46Z"/>
      <path class="cls-5" d="M128.68,1052.86c6.34-.5,12.69-1,19.03-1.51,1.84,9.61,11.67,23.96-3.56,26.63-14.75,2.58-11.93-15.37-15.47-25.12Z"/>
      <path class="cls-3" d="M112.24,1115.1s-.03.1-.03.1c-7.86,2.05-13.53,15.64-23.74,4.82-3.12-3.31-2.88-9.76-.13-11.39,9.45-5.62,15.86,4.21,23.9,6.47Z"/>
      <path class="cls-3" d="M165.42,1105.76c-2.85.6-5.7,1.2-8.54,1.8,4.51,4.73-.25,14.68,9.32,16.57-6.3-1.28-14.2,3.95-18.71-4.64-.31-5.17-.61-10.33-.92-15.48,6.33.03,13.14-5.07,18.85,1.75Z"/>
      <path class="cls-5" d="M186.56,1120.64c.05-2.42.09-4.85.14-7.27,6.75-10.52,13.43-2.84,20.13.07,0,0-.26-.33-.26-.33-1.18,17.11-10.94,11.39-20,7.52Z"/>
      <path class="cls-1" d="M449.21,759.93c5.9,12.14,10.4,21.4,15.65,32.2h-30.86c4.9-10.38,9.29-19.66,15.21-32.2Z"/>
      <path class="cls-1" d="M463.99,952.09c-7.21-1.75-4.93-7.32-5.18-11.64-.31-5.21,2.13-7.77,7.56-6.72,5.64,1.1,8.11,4.93,7.4,10.23-.74,5.48-5,7.56-9.78,8.13Z"/>
      <path class="cls-1" d="M381.07,1143.71c-2,8.52,3.27,22.7-8.71,22.76-13.42.07-9.1-14.44-9.13-23.16-.03-8.24-4.02-22.21,8.08-22.32,13.96-.12,7.26,14.69,9.76,22.72Z"/>
      <path class="cls-1" d="M647.48,1144.69c4.01-8.68-4.08-24.24,10.29-23.62,12.39.53,8.25,15.4,8.25,24.09,0,7.93,3.27,21.9-9.32,21.31-12.54-.59-5.06-14.86-9.23-21.78Z"/>
      <path class="cls-1" d="M593.65,941.52c.78,4.24,1.77,8.21,2.17,12.25.31,3.16,4.1,6.76-.44,9.48-1.37.82-3.73,1.04-5.2.45-6.03-2.4-2.23-7.16-1.98-10.83.28-4.06.19-8.65,5.46-11.35Z"/>
      <path class="cls-1" d="M542.6,1128.84c.12,7.62,8,14.26,2.31,21.7-.76.99-5.81.6-6.27-.38-3.66-7.76,1.39-14.42,3.96-21.32Z"/>
      <path class="cls-1" d="M463.98,1035.76c.4-4.23-.78-9.49,6.13-8.48,5.67.83,8.37,4.46,8.19,10.1-.19,5.84-3.84,9.3-9.18,9.2-8.07-.15-3.86-7.08-5.14-10.81Z"/>
      <path class="cls-5" d="M514.68,284.41c8.48,2.24,19.03-3.71,24.52,6.73,2.12,4.03,3.12,10.71-1.6,13.02-8.83,4.32-18.66,3.52-27.56-.67-7.25-3.41-19.78-6.13-17.48-14.75,2.35-8.81,14.74-2.01,22.13-4.33Z"/>
    </g>
  </g>
</svg>