<?xml version="1.0" encoding="utf-8"?>
<svg xmlns="http://www.w3.org/2000/svg" id="Layer_2" data-name="Layer 2" viewBox="0 0 1030.17 1030.17">
  <defs>
    <style>
      .cls-1 {
        fill: #395078;
      }

      .cls-1, .cls-2, .cls-3, .cls-4, .cls-5, .cls-6 {
        stroke-width: 0px;
      }

      .cls-2 {
        fill: #6a6789;
      }

      .cls-3 {
        fill: #17143c;
      }

      .cls-4 {
        fill: #ecedf2;
      }

      .cls-5 {
        fill: #faf9fa;
      }

      .cls-6 {
        fill: #b0cbe5;
      }
    </style>
  </defs>
  <g id="Layer_1-2" data-name="Layer 1">
    <circle class="cls-3" cx="515.09" cy="515.09" r="515.09"/>
    <g>
      <path class="cls-5" d="M843.47,842.43c-4.33,7.44-7.92,15.18-9.65,23.68-7.03,21.27-18.74,40.33-28.42,60.35-14.27,16.02-31.66,27.12-52.26,33.18-57.32,2.82-111.44-11.75-164.82-30.31-117.28-44.06-226.66-103.09-329.93-173.72-1.91-1.31-3.71-2.78-5.55-4.18,2.62-7.65,4.11-15.95,8.1-22.8,7.76-13.31,5.67-24.05-2.34-36.96-40.49-65.26-70.1-134.66-75.14-212.51-.54-8.33-5.04-11.6-11.69-12.46-19.69-2.55-37.37-11.74-56.45-16.39-11.57-2.83-24.13-4.34-33.61-13.04,45.81-56.85,103.16-100.6,162.39-142.07,27.46-19.23,54.92-38.57,84.79-54.08,8.13,4.09,9.61,12.71,13.27,19.78,2.45,4.73,3.8,8.86,11.2,7.8,48.72-6.98,96.73.73,144.89,7.13,11.06,1.47,23.15,11.03,34.36-.38,9.69,4.12,19.39,8.22,27.51,15.19-.02,1.21-.03,2.43-.05,3.64-15.53,2.72-29.53-4.63-44.32-6.72-52.74-7.47-105.63-12.77-159.03-11.9-9.49.16-16.6,2.85-23.25,9.28-50.32,48.63-93.76,102.64-129.72,162.78-10.21,17.07-11.43,34.13-8.82,53.3,8.85,65.1,36.89,122.34,67.87,179.19,12.84,23.55,29.42,32.08,53.7,32.19,22.82,24.69,41.17,28.28,71.27,13.95,18.86,6.7,38.96,4.46,58.25,8.07-8.95,29.33-38.21,43.16-53.78,68.36,33.5,6.03,65.91,6.08,98.34,5.82,4.07-.03,8.57.61,10.22-4.32,1.86-5.54-2.79-6.69-6.43-8.37-1.05-.48-2-1.53-3.05-1.6-13.38-.98-14.84-16.06-25.08-21.14,10.76-11.83,21.55-23.68,32.33-35.54,2.08-1.12,4.15-2.25,6.23-3.37,8.42,4.11,16.71,5.37,23.98-2.14,21.4-22.08,43.82-43.31,63.75-66.65,27.26-31.92,51.87-66,75.17-100.99,13.53-20.31,12.5-46.96-3.9-68.35.42-1,.75-2.03,1-3.09,9.77-7.17,21.15-12.91,29.02-21.77,26.37-29.7,56.66-41.08,95.66-27.74,19.11,6.53,34.05-7.34,48.13-17.08,6.64-4.59,10.12-17.63,3.44-24.9-10.15-11.05-19.08-22.85-28.38-34.5-4.3-5.38-15.6-4.31-15.29-14.47.42-13.67-7.69-19.62-19.27-22.28-17.55-4.03-18.32-12.65-10.19-27.2,11.12-19.9,8.74-28.68-10.3-39.28-10.85-6.04-25.19-11.56-35.73-3.71-10.14,7.55-20.38,18.3-23.25,31.7-3.67,17.11-13.04,14.74-23.83,8.86-16.3-8.87-32.26-18.37-48.36-27.6,2.4-4.58,4.81-9.15,7.21-13.73,4.29-1.67,9.26-2.44,12.75-5.14,23.81-18.4,46.76-37.96,71.07-55.65,21.9-15.93,20.8-33.8,13.55-57.48-6.31-20.61-22.71-35.06-27.57-55.61,1.04-.47,2.11-.83,3.22-1.08,3.56.15,7.12.3,10.68.44.73,4.5.07,9.95,2.41,13.35,14.97,21.78,24.15,45.72,28.62,71.59,1.37,7.94,4.02,15.83,13.33,15.11,7.97-.62,13.35-7.22,14.56-15.21,3.77-24.8,5.06-49.78,3.9-74.86,7.02,4.79,14.04,9.58,21.07,14.36,29.88,43.28,43.58,92.77,54.9,143.16,18.04,96.79,23.5,194.55,22.69,292.8-.87,71.88-6.27,143.39-18.6,214.25-4.84,27.81-11.14,55.37-16.77,83.05Z"/>
      <path class="cls-1" d="M427.51,38.4c67.51-13.98,135.23-16.76,202.85-1.6,27.52,6.17,48.69,22.38,62.71,47.27-13.03,3.48-26.06,6.96-39.09,10.45-6.22,1.22-12.58,1.98-18.64,3.73-65.52,18.97-128.03,45.49-188.5,76.75-38.57,19.94-76.42,41.27-114.6,61.97-14.28-28.94-27.09-58.44-35.82-89.64-2.77-9.9,2.44-16.13,6.69-23.79,7.2-12.97,23.34-20.56,22.96-38,3.46-.28,7-.17,10.37-.9,14.32-3.1,19.56,1.68,17.98,16.84-1.54,14.75-.33,29.79-.33,48.94,6.6-18.97,12.69-33.43,16.53-48.46,3.11-12.18,8.08-11.32,16.72-5.96,12.68,7.88,25.78,15.07,38.7,22.56-9.11-15.08-20.18-27.5-31.9-39.28-6.08-6.11-5.52-9.64,1.26-14.84,10.92-8.38,23.62-14.67,32.12-26.04Z"/>
      <path class="cls-6" d="M81.7,437.29c9.49,8.7,22.04,10.21,33.61,13.04,19.08,4.66,36.76,13.84,56.45,16.39,6.65.86,11.15,4.13,11.69,12.46,5.04,77.84,34.66,147.24,75.14,212.51,8.01,12.91,10.1,23.65,2.34,36.96-3.99,6.85-5.48,15.15-8.1,22.8-1.17.15-2.33.3-3.49.46-14.37-10.3-28.29-21.14-42.16-32.14-61.02-48.42-120.89-97.69-159.24-167.55-16.44-46.43,6.01-81.45,33.75-114.92Z"/>
      <path class="cls-2" d="M1025.22,523.13c1.04,53.44-8.69,105.14-25.46,155.67-4.15,12.49-37.56,31.56-49.51,28.2-7.78-2.19-5.54-9.23-6.29-14.56-5.82-40.87-10.83-82.29-27.56-120.2-9.22-20.89-8.22-37.64-.19-58.33,20.4-52.56,21.71-107.7,15.22-163.18-.54-4.62-.59-9.31-1.4-13.87-1.9-10.76,2.14-15.48,13.15-13.69.57.09,1.16.12,1.73.2,48.11,6.97,40.41-4.01,57.37,47.15,16.41,49.51,23.82,100.47,22.94,152.62Z"/>
      <path class="cls-6" d="M332.25,236.97c38.17-20.71,76.03-42.03,114.6-61.97,60.47-31.26,122.98-57.78,188.5-76.75,6.07-1.76,12.42-2.51,18.64-3.73-2.72,10.3,3.25,20.28,2.37,29.81-4.21,45.52-15.12,90.02-22.7,135.04-2.4,4.58-4.81,9.15-7.21,13.73-2.27-.27-4.55-.54-6.83-.81-41.12-20.03-84.13-34.25-129.37-41.16-11.98-1.83-23.82-2-35.32,5.13-8.11,5.03-8.8,11.07-5.44,17.36,5,9.33,9.18,1.55,12.95-2.18,5.26-5.21,14.85-3.62,15.23-.42,2.9,24.28,18.55,7.91,27.66,8.66,12.35,1.02,22.34,3.25,27.28,15.78-11.21,11.4-23.3,1.85-34.36.38-48.16-6.4-96.17-14.1-144.89-7.13-7.4,1.06-8.75-3.07-11.2-7.8-3.66-7.07-5.14-15.69-13.27-19.78,1.12-1.39,2.24-2.77,3.37-4.16Z"/>
      <path class="cls-1" d="M47.95,552.21c38.35,69.85,98.22,119.12,159.24,167.55,13.87,11,27.79,21.84,42.16,32.14-7.99,27.26-16.45,54.39-23.72,81.84-2.75,10.37-8.86,8.41-15.91,7.5-54.48-7-87.38-40.04-110.66-87.48-27.88-56.81-47.44-115.77-54.78-178.62-.89-7.64-3.75-16.31,3.68-22.93Z"/>
      <path class="cls-2" d="M588.33,929.34c53.38,18.56,107.5,33.13,164.82,30.31-23.2,18.58-51.55,25.75-78.92,34.54-61.25,19.67-124.39,22.72-188.09,18.51-12.81-.85-25.04-2.53-32.9-15.65-5.61-9.36-3.63-11.15,6.19-12.61,40.65-6.05,79.42-17.68,113.64-41.46,5.61-3.9,12.43-6.58,15.26-13.64Z"/>
      <path class="cls-2" d="M843.47,842.43c5.63-27.68,11.93-55.23,16.77-83.05,12.33-70.86,17.72-142.37,18.6-214.25,13.51-.53,20.15,6.45,24.98,18.87,17.81,45.75,26.17,93.38,30.94,141.89.7,7.1-.28,13.63-3.46,20.16-20.46,42.07-48.93,78.42-80.28,112.72-1.75,1.92-5.01,2.47-7.56,3.66Z"/>
      <path class="cls-2" d="M856.15,252.34c-11.32-50.39-25.02-99.87-54.9-143.16,35.71,17.06,63.23,44.59,89.99,72.49,33.86,35.3,61.49,75.28,83.32,119.26,6.27,12.63,4.11,14.26-9.79,14.97-29.03,1.48-50.61-8.07-69.01-30.93-10.48-13.02-23.2-25.68-39.62-32.64Z"/>
      <path class="cls-4" d="M633.65,259.36c7.58-45.02,18.49-89.52,22.7-135.04.88-9.53-5.08-19.51-2.37-29.81,13.03-3.48,26.06-6.96,39.09-10.45,3.46.47,6.92.94,10.38,1.41,4.86,20.55,21.26,35,27.57,55.61,7.25,23.69,8.35,41.55-13.55,57.48-24.31,17.69-47.26,37.25-71.07,55.65-3.49,2.7-8.46,3.47-12.75,5.14Z"/>
      <path class="cls-2" d="M805.4,926.46c9.68-20.02,21.39-39.09,28.42-60.35,40.89-35.41,72.19-78.8,98.47-125.28,12.71-22.48,31.85-27.51,55.51-35.11-6.74,23.93-18.15,42.52-28.66,61.49-35.03,63.26-83.68,114.05-142.69,155.3-3.26,2.28-6.46,5.19-11.05,3.95Z"/>
      <path class="cls-2" d="M158.51,838.88c20.28,4.66,40.52,9.46,60.84,13.91,6.39,1.4,9.7,6.24,13.24,10.65,49.44,61.6,112.08,102.2,189.85,117.81,14.39,2.89,17.57,12.56,23.44,25.87-116.58-24.26-212.31-78.4-287.16-168.41,0,0-.2.18-.2.18Z"/>
      <path class="cls-4" d="M427.51,38.4c-8.5,11.37-21.19,17.66-32.12,26.04-6.78,5.2-7.34,8.73-1.26,14.84,11.72,11.78,22.78,24.2,31.9,39.28-12.92-7.49-26.02-14.68-38.7-22.56-8.64-5.37-13.61-6.22-16.72,5.96-3.84,15.04-9.93,29.5-16.53,48.46,0-19.15-1.2-34.19.33-48.94,1.58-15.17-3.67-19.95-17.98-16.84-3.36.73-6.91.62-10.37.9-3.26.39-6.52.78-9.78,1.16-3.88.57-7.68.69-10.94-2.06,10.37-9.44,23.75-13.43,36.18-18.65,9.24-3.88,12.47-7.75,9.85-17.8-2.55-9.75-2.94-20.06-4.39-30.95,14.09,9.24,14.45,32.08,30.38,33.56,13.95,1.3,28.79-7.21,43.27-11.3,2.22-.63,4.57-.75,6.87-1.11Z"/>
      <path class="cls-4" d="M780.18,94.82c1.16,25.08-.13,50.07-3.9,74.86-1.21,7.99-6.59,14.59-14.56,15.21-9.32.73-11.96-7.17-13.33-15.11-4.47-25.87-13.66-49.81-28.62-71.59-2.33-3.4-1.68-8.85-2.41-13.35,12.99-.37,25.99-.73,38.98-1.1,8.35,2.84,17.23,4.52,23.85,11.07Z"/>
      <path class="cls-4" d="M259.52,126.88c-10.35,9.76-10.86,17.17,4.14,22.97,9.12,3.53,17.41,9.19,26.1,13.86,2.58,1.39,5.76,2.88,4.06,6.3-1.48,2.97-5.78,2.89-7.63,1.53-8.7-6.37-19.74-3.14-29-8.08-8.97-4.78-15.13-2.61-14.15,10.05,1.01,13.05.22,26.24-3.05,39.87-4.05-12.97-8.61-25.82-11.99-38.96-2.51-9.76-5.55-13.59-16.33-8.32-8.36,4.09-16.84,10-30.29,8.71,7.23-6.59,12.04-12.65,18.27-16.34,17.03-10.09,17.17-22.02,5.91-36.35-1.76-2.24-2.8-5.03-4.63-8.42,8.93-3.36,14.16,3.13,18.65,7.83,8.71,9.13,15.54,8.16,24.64.22,7.66-6.69,15.76-13.65,26.21-16.31-.44,8.76-8.99,13.4-10.9,21.41Z"/>
      <path class="cls-4" d="M104.99,278.53c9.54-17.51,32.65-34.85-.76-55.18,27.84,18.53,39.72-.07,51.43-17.93,1.77,2.83,2.92,3.84,2.75,4.5q-7.06,26.94,19.47,34c2.97.8,7.42-.17,8.35,6.14-6,5.04-13.85,2.12-20.56,2.23-11.99.19-17.38,2.33-11.54,15.83,3.19,7.38,7.75,15.68,3.89,25.18-1.37-.87-2.41-1.16-2.73-1.8-5.42-10.85-10.7-25.08-20.72-28.56-9.75-3.39-15.75,14.47-29.58,15.6Z"/>
      <path class="cls-1" d="M259.52,126.88c1.91-8.01,10.45-12.65,10.9-21.41,9.9-9.87,22.07-15.92,34.94-20.82,3.26,2.74,7.05,2.63,10.94,2.06-5.87,17.48-18.79,30.23-30.81,43.07-10.58,11.3-20.57,9.15-25.95-2.89Z"/>
      <path class="cls-2" d="M756.33,83.74c-12.99.37-25.99.73-38.98,1.1-3.56-.15-7.12-.3-10.68-.44-1.68-15.73-18.59-19.7-26.53-35.77,27.47,12.17,54.82,16.57,76.19,35.11Z"/>
      <path class="cls-1" d="M43.5,475.69c1.3-21.78,4.88-41.8,11.05-64.54,5.79,24.5,10.24,45.6-11.05,64.54Z"/>
      <path class="cls-2" d="M158.72,838.7c-.36-.25-.72-.51-1.08-.76.29.31.59.63.88.95,0,0,.2-.18.2-.18Z"/>
      <path class="cls-6" d="M316.49,712.41c-24.28-.11-40.86-8.64-53.7-32.19-30.98-56.85-59.02-114.08-67.87-179.19-2.61-19.16-1.38-36.22,8.82-53.3,35.95-60.13,79.39-114.14,129.72-162.78,6.65-6.43,13.76-9.12,23.25-9.28,53.4-.87,106.29,4.43,159.03,11.9,14.79,2.1,28.79,9.44,44.32,6.72,6.83,5.36,16.19,8.37,17.5,18.85-1.93,2.07-5.81,4.52-5.49,6.15,4.05,20.54-8.03,36.44-15.95,52.98-7.52,15.72-2.92,38.44-25.14,46.14.26,15.76-21.7,13.12-22.91,27.66-2.28.79-4.55,1.58-6.83,2.37-6.12-5.85-8.49-1.28-10.68,3.83-8.44,6.61-19.25,7.82-28.55,12.46-15.44,7.69-34.23,8.3-45.59,24.98-4.19,6.16-13.71,5.44-22.01-.18-19.14-12.96-39.84-22.2-64.03-20.96-15.15.77-29.73,4.55-44.59,6.56-12.11,1.64-19.61,8.99-19.13,18.61.44,8.76,12.19,9.93,20.28,13,13.27,5.02,30.92-8.3,40.94,9.81.01.02,3.22-1.13,4.22-2.33,7.3-8.79,12.01-1.8,16.82,2.79,8.39,8,16.25,16.58,24.83,24.36,10.55,9.57,23.4,14.07,36.9,8.75,24.8-9.78,50.24-10.22,76.12-8.28,1.05,14.04-6.31,23.81-15.94,32.85-11.77,11.04-25.78,21.01-33.76,34.44-10.99,18.5-26.28,29.46-44.66,38-29.36-18.63-59.12-14.1-75.4,11.11-11.69,18.1-8.61,36.04-.52,54.17Z"/>
      <path class="cls-3" d="M577.56,313.14c-1.3-10.48-10.67-13.49-17.5-18.85.02-1.21.03-2.43.05-3.64,3.14-4.39,6.9-2.43,10.77-1.24,24.65,7.6,33.06,4.61,48.73-17.13,2.28.27,4.55.54,6.83.81,16.1,9.23,32.06,18.73,48.36,27.6,10.8,5.87,20.16,8.25,23.83-8.86,2.87-13.4,13.12-24.15,23.25-31.7,10.55-7.85,24.88-2.33,35.73,3.71,19.03,10.6,21.42,19.38,10.3,39.28-8.13,14.55-7.36,23.16,10.19,27.2,11.58,2.66,19.7,8.61,19.27,22.28-.32,10.15,10.99,9.08,15.29,14.47,9.3,11.65,18.23,23.45,28.38,34.5,6.68,7.26,3.2,20.31-3.44,24.9-14.09,9.73-29.02,23.61-48.13,17.08-39-13.33-69.29-1.95-95.66,27.74-7.87,8.86-19.25,14.6-29.02,21.77-8.71-18.9-15.07-38.8-22.6-58.11-7.24-18.59-16.67-36.97-19.44-57.28,2.25-3.59,7.03-6.31,1.87-11.62-16.46-16.93-27.88-38.36-47.06-52.9ZM750.83,347.29c-6.13,13.46,2.96,32.04,16.12,33.63,3.13.38,7.7,2.2,8.95-1.89.85-2.79-.49-8.84-2.15-9.38-11.41-3.67-14.82-15.32-22.92-22.36Z"/>
      <path class="cls-2" d="M622.76,377.66c2.77,20.31,12.19,38.68,19.44,57.28,7.52,19.31,13.88,39.21,22.6,58.11-.24,1.06-.57,2.09-1,3.09-5.46,1.86-7.71,6.13-9.84,11.25-15.46,37.26-23.26,77.67-52.33,109.19-14.62,15.85-22.99,37.47-34.11,56.52-2.63,4.5-4.59,9.54-9.61,12.04-22.5,11.21-36.47,31.61-53.11,49.14-2.08,1.12-4.15,2.25-6.23,3.37-15.98-.99-32.22.22-47.66-5.49,10.67-21.99,18.52-46.02,42.49-58.38,4.29-2.21,6.07-6.72,8.78-10.46,25.56-35.21,33.59-76.32,40.44-117.91,1.02-6.17.47-10.25-6.83-10.5-1.59-12.11,1.78-22.69,9.77-31.87,9.63-11.06,14.62-24.2,19.39-37.97,4.52-13.05,4.04-29.6,21.35-36.34,4.28-1.66,8.32-10.08,1.39-16.16,11.69-11.63,23.38-23.27,35.07-34.9Z"/>
      <path class="cls-4" d="M535.79,534.89c7.3.26,7.85,4.33,6.83,10.5-6.85,41.59-14.88,82.7-40.44,117.91-2.71,3.74-4.49,8.25-8.78,10.46-23.97,12.36-31.82,36.39-42.49,58.38-1.63.76-3.26,1.52-4.9,2.28-19.29-3.61-39.39-1.37-58.25-8.07,26.95-27.19,28.28-49.83,4.65-79.24,18.39-8.54,33.67-19.51,44.66-38,7.98-13.43,21.99-23.41,33.76-34.44,9.64-9.04,16.99-18.81,15.94-32.85,16.34-2.31,32.67-4.62,49.01-6.93Z"/>
      <path class="cls-3" d="M392.42,647.12c23.63,29.41,22.3,52.05-4.65,79.24-30.1,14.33-48.45,10.73-71.27-13.95-8.09-18.14-11.17-36.08.52-54.18,16.29-25.21,46.04-29.74,75.4-11.11Z"/>
      <path class="cls-4" d="M504.8,734.26c16.64-17.53,30.61-37.92,53.11-49.14,5.02-2.5,6.98-7.54,9.61-12.04,11.12-19.05,19.49-40.67,34.11-56.52,29.07-31.52,36.87-71.92,52.33-109.19,2.12-5.12,4.38-9.39,9.84-11.25,16.4,21.39,17.43,48.03,3.9,68.35-23.3,34.99-47.91,69.07-75.17,100.99-19.93,23.34-42.36,44.57-63.75,66.65-7.27,7.5-15.55,6.25-23.98,2.14Z"/>
      <path class="cls-1" d="M619.61,272.28c-15.68,21.74-24.09,24.73-48.73,17.13-3.87-1.19-7.63-3.15-10.77,1.24-8.12-6.97-17.82-11.07-27.51-15.19-4.94-12.53-14.94-14.76-27.28-15.78-9.12-.75-24.76,15.61-27.66-8.66-.38-3.2-9.97-4.79-15.23.42-3.76,3.73-7.95,11.51-12.95,2.18-3.36-6.28-2.67-12.33,5.44-17.36,11.5-7.14,23.34-6.96,35.32-5.13,45.25,6.9,88.26,21.13,129.37,41.16Z"/>
      <path class="cls-3" d="M446.02,734.43c1.63-.76,3.26-1.52,4.9-2.28,15.44,5.7,31.67,4.49,47.66,5.48-10.79,11.86-21.57,23.71-32.33,35.54,10.24,5.08,11.7,20.16,25.08,21.14,1.05.08,2,1.12,3.05,1.6,3.64,1.68,8.29,2.83,6.43,8.37-1.65,4.93-6.14,4.29-10.22,4.32-32.43.26-64.84.21-98.34-5.82,15.57-25.2,44.84-39.03,53.78-68.36Z"/>
      <path class="cls-1" d="M535.79,534.89c-16.34,2.31-32.67,4.62-49.01,6.93-25.88-1.94-51.32-1.5-76.12,8.28-13.5,5.32-26.35.83-36.9-8.75-8.58-7.79-16.44-16.36-24.83-24.36-4.82-4.6-9.53-11.58-16.82-2.79-1,1.2-4.2,2.36-4.22,2.33-10.02-18.11-27.67-4.79-40.94-9.81-8.1-3.06-19.85-4.23-20.28-13-.48-9.62,7.02-16.97,19.13-18.61,14.86-2.01,29.44-5.79,44.59-6.56,24.19-1.23,44.89,8.01,64.03,20.96,8.3,5.62,17.82,6.33,22.01.18,11.36-16.68,30.16-17.29,45.59-24.98,9.3-4.63,20.1-5.84,28.55-12.46,3.56-1.27,7.12-2.55,10.68-3.83,2.28-.79,4.55-1.58,6.83-2.37,17.73-7.67,35.62-15.91,54.63-18.59,11.58-1.63,18.83-6.29,24.99-14.92,6.94,6.09,2.89,14.5-1.39,16.16-17.32,6.73-16.83,23.28-21.35,36.34-4.77,13.77-9.76,26.91-19.39,37.97-7.99,9.18-11.36,19.76-9.77,31.87Z"/>
      <path class="cls-4" d="M587.69,412.56c-6.15,8.63-13.4,13.29-24.99,14.92-19.01,2.67-36.9,10.91-54.63,18.59,1.21-14.54,23.17-11.9,22.91-27.66,22.22-7.7,17.62-30.42,25.14-46.14,7.92-16.54,20-32.44,15.95-52.98-.32-1.63,3.56-4.08,5.49-6.15,19.18,14.54,30.6,35.97,47.06,52.9,5.16,5.31.38,8.03-1.87,11.62-11.69,11.63-23.38,23.27-35.07,34.9Z"/>
      <path class="cls-4" d="M501.25,448.44c-3.56,1.28-7.12,2.55-10.68,3.83,2.18-5.11,4.56-9.68,10.68-3.83Z"/>
      <path class="cls-4" d="M750.83,347.29c8.1,7.04,11.51,18.69,22.92,22.36,1.67.54,3,6.59,2.15,9.38-1.25,4.1-5.82,2.27-8.95,1.89-13.16-1.59-22.25-20.17-16.12-33.63Z"/>
    </g>
  </g>
</svg>