<?xml version="1.0" encoding="utf-8"?>
<svg xmlns="http://www.w3.org/2000/svg" xmlns:xlink="http://www.w3.org/1999/xlink" id="Layer_1" data-name="Layer 1" viewBox="0 0 2000 2000">
  <defs>
    <style>
      .cls-1 {
        fill: url(#linear-gradient);
      }

      .cls-1, .cls-2 {
        stroke-width: 0px;
      }

      .cls-2 {
        fill: url(#linear-gradient-2);
      }
    </style>
    <linearGradient id="linear-gradient" x1="235.6" y1="1137.88" x2="1764.06" y2="1137.88" gradientUnits="userSpaceOnUse">
      <stop offset=".08" stop-color="#db9bc5"/>
      <stop offset=".82" stop-color="#e80f6f"/>
    </linearGradient>
    <linearGradient id="linear-gradient-2" x1="543.43" y1="218.61" x2="1350.67" y2="218.61" xlink:href="#linear-gradient"/>
  </defs>
  <path class="cls-1" d="M1248.85,362.31c2.75.12,4.78-.14,6.62.35,67.03,17.57,131.85,40.55,189.59,79.97,15.61,10.66,30.24,22.81,44.72,34.99,3.69,3.1,6.71,8.74,7.28,13.54,5.79,48.78,24.23,93.42,44.02,137.66,1.29,2.89,2.52,5.8,2.54,9.65-1.17-.79-2.49-1.43-3.49-2.39-56.72-54.88-120.59-99.86-189.99-137.17-7.19-3.86-14.85-6.84-22.17-10.49-5.38-2.68-7.39-.9-8.54,4.66-3.22,15.53-6.53,31.06-10.6,46.38-1.77,6.68-5.54,12.83-8.27,19.27-2.67,6.3-6.34,6.17-11.51,2.65-17.39-11.85-34.56-24.11-52.56-35-29.39-17.78-59.51-34.36-89.03-51.94-15.34-9.14-30.93-9.23-47.96-6.03-64.42,12.1-125.83,32.1-181.78,66.91-12.89,8.02-25.11,17.12-37.44,26.02-6.64,4.79-6.46,6.54-.28,11.59,8.16,6.66,16.33,13.29,24.45,20,5.55,4.58,5.35,6.76-1.13,8.99-44.32,15.24-80.05,42.91-111.36,76.95-1.45,1.58-2.1,3.91-3.12,5.88,2,.77,3.95,1.92,6.02,2.25,17.09,2.71,34.18,5.36,51.31,7.8,4.62.66,7.09,2.61,7.71,7.4,9.1,71.12,55.75,108.06,118.96,128.88,30.65,10.09,62.81,8.42,94.63,7.82,51.85-.98,103.84-5.77,155.29,4.98,10.28,2.15,20.4,5.04,30.6,7.57,3.32.83,6.65,1.61,11.32,2.74-1.74-2.52-2.51-3.91-3.54-5.09-32.8-37.33-68.61-71.61-105.95-104.33-13.79-12.08-30.83-15.37-48.29-16.16-16.55-.75-33.19-.71-49.75-.1-39.5,1.47-75.82-9.06-110.1-27.89-8.2-4.5-16.27-9.23-24.43-13.8-4.55-2.55-4.66-5.19-.68-8.55,32.16-27.08,68.4-46.76,109.2-56.68,10.46-2.54,23.16-.75,33.66,2.65,35.89,11.63,70.28,26.95,101.28,48.91,4.73,3.35,7.97,3.09,12.25-.58,16.09-13.78,34.5-23.1,55.28-27.55,1.37-.29,2.81-.85,4.13-.67,2.09.28,4.12,1.08,6.17,1.67-.93,1.75-1.59,3.72-2.83,5.21-14.81,17.67-24.14,37.32-20.87,61,.61,4.44,3.27,9.32,6.45,12.58,34.12,35,68.66,69.58,102.74,104.62,5.34,5.49,9.48,7.19,16.9,3.83,25.98-11.73,53.78-15.08,81.98-16.44,34.1-1.65,67.79.08,100.61,10.36,6.57,2.06,12.91,4.81,20.38,6.1-1.71-2.26-3.27-4.66-5.16-6.76-24.37-27.07-52.32-50.19-80.94-72.51-17.36-13.54-31.82-29.05-42.67-48.6-8.34-15.01-19.91-28.23-30.07-42.21-1.47-2.02-3.13-3.89-4.7-5.84.28-.61.56-1.23.84-1.84,2.39.53,4.93.69,7.15,1.63,19.89,8.45,38.63,18.87,55.51,32.49,7.11,5.74,8.08,5.58,14.32-1.34,11.47-12.72,26.13-20.19,42-25.73,5.08-1.77,9.22-.36,12.72,3.32,13.27,13.95,21.75,30.43,24.46,49.48.5,3.5-1.62,8.02-3.85,11.11-2.67,3.71-6.68,6.49-10.26,9.49-7.28,6.1-7.52,7.74-1.15,14.5,15.25,16.16,30.57,32.27,45.86,48.39,2.85,3.01,5.72,6,8.59,9,.75-.04,1.5-.07,2.25-.11,2.16-14.16,4.32-28.32,6.62-43.4,2.14,1.41,3.54,1.88,4.22,2.85,53.61,76.83,99.47,157.68,129.71,246.85,29.39,86.69,42.77,175.59,38.55,267.05-3.54,76.68-19.81,150.91-43.75,223.62-.51,1.54-1.18,3.04-1.92,4.49-.28.56-.96.92-4.04,3.79-1.13-2.35-1.78-5.15-3.47-7-18.26-20.07-36.66-40.01-55.12-59.9-1.28-1.38-3.35-2.03-5.05-3.02-.81,1.52-2.18,2.99-2.34,4.57-4.71,48.13-15.29,95.01-30.64,140.79-37.28,111.13-102.5,203.15-192.19,277.96-21.88,18.25-45.45,34.49-68.42,51.4-7.77,5.72-9.3,4.98-11.7-4.19-7.64-29.15-15.19-58.33-22.79-87.49-2.34-8.98-3-9.26-10.37-4.22-84.49,57.7-178.03,92.21-278.62,108.5-11.04,1.79-22.34,2.57-33.53,2.69-39.55.42-79.11.43-118.66.43-38.1,0-74.52-9.59-110.68-20.18-31.03-9.09-60.7-21.7-89.39-36.58-10.44-5.41-11.27-7.28-8.87-18.89,11.25-54.28,20.77-108.84,25.93-164.08,8.17-87.53,1.14-173.74-22.84-258.44-1.74-6.13-3.71-12.2-6.15-20.18-10.45,15.05-19.37,28.15-28.54,41.08-49.03,69.12-103.55,133.43-166.91,189.93-11.52,10.27-23.68,19.83-35.63,29.61-5.91,4.84-8.15,4.24-12.3-3.21-15.4-27.73-26.66-57.11-35.04-87.65-17.41-63.44-26.13-128.15-28.57-193.82-1.96-52.68-.78-105.26,4.97-157.65,1.75-15.95,6.05-31.62,9.04-47.45.45-2.36.09-4.87.11-7.31-2.21.21-4.53.05-6.61.68-41.82,12.62-83.6,25.35-125.41,38-2.35.71-4.82,1.01-7.6,1.57-1.86-17.74.87-34.36,4.15-50.83,22.17-111.44,64.83-214.41,128.72-308.42,9.7-14.28,21.24-27.32,31.83-41,1.2-1.54,1.8-3.55,2.67-5.34-1.96-.84-3.84-2.13-5.88-2.44-24.48-3.78-48.99-7.4-73.48-11.11-6.44-.97-5.68-4.26-3.26-8.93,27.26-52.51,59.68-101.59,97.44-147.15,42.93-51.78,91.89-97.17,145.58-137.55,2.56-1.93,5.49-3.38,9.98-6.11-24.06,63.2-22.01,122.59,16.28,177.89,11.97,17.29,27.44,31.47,49.28,40.68-3.81-8.46-6.75-14.96-9.67-21.47-14.58-32.48-22.73-66.26-20.53-102.1,1.68-27.42,7.89-53.35,27.17-74.2,25.08-27.12,56.51-34.86,92.1-28.83,22.7,3.85,43.46,12.55,62.67,25.13,1.97,1.29,4.18,2.21,6.81,2.49-20.81-47.42-53.53-80.3-108.93-88.43,3.79-2.67,5.88-4.65,8.36-5.81,74.31-34.7,151.62-59.9,232.75-72.69,60.73-9.57,121.77-11.81,183.26-9.93,26.75.82,48.11,10.18,68.69,25.27,29.6,21.7,56,46.72,80.11,74.27,1.17,1.34,3.21,1.93,4.85,2.86.38-1.89,1.2-3.81,1.07-5.66-1.78-24.93-7.55-48.9-17.79-71.75-.63-1.4-.88-2.96-1.61-5.53ZM1435.62,1012.2c0-15.44-.14-30.89.07-46.33.08-5.71-2-9.12-7.48-11.06-29.74-10.51-57.29-25.41-82.58-44.07-9.3-6.86-17.91-9-28.4-5.07-.87.33-1.8.52-2.7.76-78.49,20.55-144.98,63.61-208.96,111.38-3.89,2.9-4.06,6.3-1.81,10.43,27.84,51.09,55.53,102.27,83.65,153.2,1.78,3.23,6.69,6.29,10.39,6.6,8.29.7,16.81.26,25.08-.87,29.19-3.99,55.4-16.39,81.08-29.95,45.95-24.26,86.83-55.89,127-88.46,2.72-2.21,4.34-7.19,4.46-10.95.5-15.19.21-30.41.2-45.62ZM1420.57,1309.56c.92,1.6,1.48,2.33,1.79,3.16.89,2.41,1.94,4.8,2.45,7.3,6.71,32.77,12.46,65.65,10.65,99.35-.1,1.87,1.03,3.8,1.58,5.71,1.88-.55,4.25-.55,5.55-1.73,13.8-12.57,28.58-24.32,40.89-38.24,30.47-34.45,46.6-76.19,57.16-120.3.88-3.66.56-8.04-.56-11.67-8.19-26.35-20.54-50.6-37.6-72.37-3.75-4.78-8.46-7.02-14.57-6.84-21.23.63-42.48.78-63.68,1.92-5.45.29-11.44,2.53-15.98,5.64-22.17,15.18-43.53,31.57-65.93,46.38-30.35,20.07-62.19,37.25-99.04,42.39-5.99.84-6.03,4-3.63,8.39,16.37,29.93,32.75,59.85,49.08,89.81,2.39,4.38,5.6,5.7,10.46,4.31,42.92-12.27,83.13-29.79,116.89-59.92,1.18-1.05,2.55-1.88,4.5-3.29ZM1580.04,1174.11c1.92-2.88,3.43-4.58,4.32-6.56,3.32-7.46,6.84-14.86,9.55-22.54,12.43-35.37,16.08-71.85,13.25-109.11-3.17-41.79-12.69-82.08-28.44-120.89-2.8-6.89-4.1-7-10.11-2.82-21.07,14.69-42.37,29.06-63.24,44.02-3.14,2.25-6.18,6.95-6.33,10.64-.65,15.38-.23,30.81-.12,46.21.08,11.21,1.41,22.55.17,33.6-1.68,14.95,3.57,26.05,13.8,36.35,25.62,25.82,48.92,53.47,64.17,86.99.46,1,1.31,1.82,2.99,4.1Z"/>
  <path class="cls-2" d="M1350.67,109.37c-.92,2.87-1.52,5.88-2.81,8.57-20.29,42.35-30.94,87.55-39.12,133.41-3.77,21.16-6.55,42.5-9.26,63.83-.83,6.55-3.31,7.23-9.14,6-32.91-6.9-65.7-14.73-98.91-19.69-30.69-4.58-61.81-7.24-92.83-8.5-149.58-6.11-291.13,25.63-425.04,92.15-7.32,3.64-14.5,7.57-21.72,11.42-8.15,4.35-8.93,3.81-12.5-4.95-13.02-32.01-25.41-64.31-39.64-95.78-14.67-32.44-33.01-62.92-55.22-90.93-.9-1.14-.72-3.13-1.04-4.73,1.46.2,3.1.03,4.36.64,47.61,22.89,92.31,50.43,133.41,83.7,1.41,1.15,3.06,2.01,6.64,2.41-9.93-61.2-19.85-122.39-30.08-185.46,3.45,1.35,5.35,1.72,6.83,2.72,62.83,42.39,125.62,84.83,188.41,127.28,8.94,6.04,9.73,5.75,13.31-4.53,21.1-60.68,42.25-121.34,63.39-182,.66-1.9,1.41-3.78,2.61-6.94,2.04,3.08,3.42,5.11,4.74,7.18,34.29,53.86,68.58,107.72,102.87,161.58,6.12,9.61,7.57,9.72,15.34,1.39,50.23-53.92,100.48-107.83,150.71-161.74.8-.85,1.4-1.92,2.3-2.64,1.35-1.09,2.88-1.97,4.33-2.94.78,1.77,2.12,3.5,2.25,5.32,4.26,58.54,8.39,117.08,12.58,175.63.13,1.81.64,3.6,1.31,7.29,35.98-46,75.55-86.34,121.95-119.7Z"/>
</svg>