<?xml version="1.0" encoding="UTF-8"?>
<!DOCTYPE svg PUBLIC "-//W3C//DTD SVG 1.1//EN" "http://www.w3.org/Graphics/SVG/1.1/DTD/svg11.dtd">
<svg xmlns="http://www.w3.org/2000/svg" version="1.1" width="52px" height="52px" style="shape-rendering:geometricPrecision; text-rendering:geometricPrecision; image-rendering:optimizeQuality; fill-rule:evenodd; clip-rule:evenodd" xmlns:xlink="http://www.w3.org/1999/xlink">
<g><path style="opacity:0.906" fill="#fe4b43" d="M 51.5,0.5 C 51.5,1.83333 51.5,3.16667 51.5,4.5C 42.943,15.9237 34.6097,27.5903 26.5,39.5C 30.545,40.1464 34.545,40.4797 38.5,40.5C 31.8926,44.8086 24.8926,47.9753 17.5,50C 14.3605,47.5545 12.3605,44.3879 11.5,40.5C 13.9498,35.6181 16.4498,30.9514 19,26.5C 14.4728,29.097 9.80609,31.4303 5,33.5C 3.317,31.6495 1.48367,29.9828 -0.5,28.5C -0.5,26.1667 -0.5,23.8333 -0.5,21.5C 4.14444,14.8998 8.81111,8.23314 13.5,1.5C 18.467,0.33772 23.467,0.171053 28.5,1C 22.8333,8.66667 17.1667,16.3333 11.5,24C 15.572,24.9559 19.4054,24.4559 23,22.5C 27.7991,15.0684 32.9658,7.90173 38.5,1C 42.8206,0.500982 47.1539,0.334316 51.5,0.5 Z"/></g>
</svg>
