<?xml version="1.0" encoding="utf-8"?>
<svg xmlns="http://www.w3.org/2000/svg" xmlns:xlink="http://www.w3.org/1999/xlink" version="1.1" id="Layer_1" x="0px" y="0px" viewBox="0 0 17.8 22" style="enable-background:new 0 0 17.8 22;">
<style type="text/css">
	.st0{opacity:0.87;}
	.st1{fill:url(#SVGID_1_);}
	.st2{fill:url(#SVGID_2_);}
	.st3{fill:url(#SVGID_3_);}
	.st4{fill:url(#SVGID_4_);}
	.st5{fill:url(#SVGID_5_);}
	.st6{fill:url(#SVGID_6_);}
	.st7{fill:#008FD7;}
</style>
<g class="st0">
	
		<linearGradient id="SVGID_1_" gradientUnits="userSpaceOnUse" x1="294.7405" y1="-375.9806" x2="303.6263" y2="-381.1108" gradientTransform="matrix(1 0 0 -1 -295 -361)">
		<stop offset="0" style="stop-color:#147AD1"/>
		<stop offset="1" style="stop-color:#002D71"/>
	</linearGradient>
	<path class="st1" d="M0,16.5L8.9,22l-3.5-5.6H0z"/>
	
		<linearGradient id="SVGID_2_" gradientUnits="userSpaceOnUse" x1="7523.0288" y1="-8414.0898" x2="3862.4297" y2="-4337.8892" gradientTransform="matrix(1 0 0 -1 -295 -361)">
		<stop offset="0" style="stop-color:#147AD1"/>
		<stop offset="1" style="stop-color:#002D71"/>
	</linearGradient>
	<path class="st2" d="M12.3,16.5L8.9,22l8.8-5.6H12.3z"/>
	
		<linearGradient id="SVGID_3_" gradientUnits="userSpaceOnUse" x1="4032.7476" y1="-1741.2722" x2="5621.2476" y2="-2321.072" gradientTransform="matrix(1 0 0 -1 -295 -361)">
		<stop offset="0" style="stop-color:#147AD1"/>
		<stop offset="1" style="stop-color:#002D71"/>
	</linearGradient>
	<path class="st3" d="M5.4,16.5L8.9,22v-5.6H5.4z"/>
	
		<linearGradient id="SVGID_4_" gradientUnits="userSpaceOnUse" x1="14540.7607" y1="3271.1118" x2="12914.5811" y2="2854.9106" gradientTransform="matrix(1 0 0 -1 -295 -361)">
		<stop offset="0" style="stop-color:#147AD1"/>
		<stop offset="1" style="stop-color:#002D71"/>
	</linearGradient>
	<path class="st4" d="M8.8,6.8l-3.5,9.6h3.5L8.8,6.8z"/>
	
		<linearGradient id="SVGID_5_" gradientUnits="userSpaceOnUse" x1="302.5338" y1="-373.7521" x2="305.5719" y2="-372.6541" gradientTransform="matrix(1 0 0 -1 -295 -361)">
		<stop offset="0" style="stop-color:#147AD1"/>
		<stop offset="1" style="stop-color:#002D71"/>
	</linearGradient>
	<path class="st5" d="M8.8,6.8l0,9.6h3.4L8.8,6.8z"/>
	
		<linearGradient id="SVGID_6_" gradientUnits="userSpaceOnUse" x1="4455.8779" y1="-2175.9839" x2="2911.3181" y2="-1507.6842" gradientTransform="matrix(1 0 0 -1 -295 -361)">
		<stop offset="0" style="stop-color:#147AD1"/>
		<stop offset="1" style="stop-color:#002D71"/>
	</linearGradient>
	<path class="st6" d="M8.9,16.5V22l3.4-5.6H8.9z"/>
	<path class="st7" d="M17.7,16.5L10.6,0H7L0,16.5h5.4l3.5-9.6l1.6,4.5H8.8l-0.9,2.8h3.6l0.8,2.4L17.7,16.5z"/>
</g>
</svg>