<?xml version="1.0" encoding="utf-8"?>
<svg xmlns="http://www.w3.org/2000/svg" xmlns:xlink="http://www.w3.org/1999/xlink" version="1.1" id="Layer_1" x="0px" y="0px" viewBox="0 0 25 20" style="enable-background:new 0 0 25 20;">
<style type="text/css">
	.st0{opacity:0.87;}
	.st1{fill:#D10214;}
	.st2{fill:#FFFFFF;}
</style>
<g class="st0">
	<path class="st1" d="M0,20h25V0H0V20z"/>
	<path class="st2" d="M22.2,7.1c-0.8,0-1.4,0.6-1.4,1.4c0,0.8,0.6,1.4,1.4,1.4c0.8,0,1.4-0.6,1.4-1.4C23.6,7.7,23,7.1,22.2,7.1z&#xD;&#xA;		 M20.6,10.5c0,0.1,0,0.1-0.1,0.2l-0.1,0l0,0c0,0,0,0.1-0.1,0.1l-0.1,0c0,0-0.1,0-0.1,0l0,0l-0.1,0.1l0,0c0,0,0,0.1-0.1,0.1L20,11&#xD;&#xA;		c0,0-0.1,0-0.1,0l0,0c-0.3,0.2-0.7,0.3-1.1,0.5l0,0.1c0,0,0,0.1-0.1,0.1l-0.1,0c0,0-0.1,0-0.1,0l0-0.1l-0.1,0.1l0,0.1&#xD;&#xA;		c0,0,0,0.1-0.1,0.1l-0.1,0c0,0-0.1,0-0.1,0l0-0.1c-0.2,0.1-0.4,0.1-0.5-0.2c-0.1-0.1-0.1-0.4-0.1-0.5c0-0.1-0.1-0.1-0.1-0.1&#xD;&#xA;		c-1.6-0.3-2.2,0-3.2-0.2c-0.3-0.1-0.5-0.4-0.9-0.4c-0.9,0-1.1,0-2.1-0.1c0,0.1-0.1,0.2-0.1,0.2l-3.4,0l0.5,0.2l0.2,1.5&#xD;&#xA;		c0,0-0.1,0-0.2,0.1c0,0.3,0.1,0.7,0.1,1.1c0,0.3,0,0.7,0,0.9c0,0.1,0,0.2-0.1,0.4c-0.1,0.1-0.2,0.2-0.2,0.3c0,0-0.2,0.1-0.3,0.2&#xD;&#xA;		c-0.2,0.1-0.3,0.2-0.4,0.2c0,0,0,0.1,0.1,0.1c-2.1,1-4.6,1.3-5.4,2.9c-0.1,0.2-0.4,0.1-0.4-0.1c0-0.1,0-0.2,0-0.3h0&#xD;&#xA;		c0,0-0.1,0,0-0.1v-0.1c0,0,0-0.1,0.1-0.1h0c0-0.1,0-0.2,0.1-0.3l0,0c0,0,0-0.1,0-0.1l0-0.1c0,0,0.1-0.1,0.1-0.1h0&#xD;&#xA;		c0.1-0.3,0.4-0.5,0.6-0.8h0c0,0,0-0.1,0-0.1l0-0.1c0,0,0.1-0.1,0.1-0.1h0c0-0.1,0-0.1,0.1-0.1l0,0c0,0,0-0.1,0-0.1l0.1-0.1&#xD;&#xA;		c0,0,0.1-0.1,0.1,0h0h0c0,0,0,0,0,0c0,0,0,0,0,0c0.1-0.1,0.3-0.1,0.4,0c0.1,0.1,0.6,0.4,1.1-0.1c0.8-0.7,1.7-1.7,2.4-1.7&#xD;&#xA;		c-0.2-0.4-0.5-1.3-0.6-1.6l-0.2-0.1c-0.1-0.3-0.4-1.5-0.5-2.4c0,0-0.1-1,0-1.3c-0.1,0-0.2,0.1-0.2,0.1c-0.1-0.3,0.3-3,0.7-3.8&#xD;&#xA;		l0.6-0.2c-0.1,0-0.5,0-1.7-0.1C4.2,5,3.4,5.6,3,5.9C2.9,6,2.8,6.4,2.8,6.4S2.6,6.5,2.4,6.7C2.2,6.8,1.6,7,1.5,6.8&#xD;&#xA;		c0-0.1,0-0.1,0-0.1C1.6,6.6,1.9,6.4,2,6.2C1.8,6.3,1.6,6.4,1.5,6.4c-0.1,0-0.1-0.2,0-0.2C1.7,6.1,1.9,6,2.1,5.8&#xD;&#xA;		c0.1-0.2,0.3-0.3,0.5-0.3c0,0,1.1-1.5,1.8-2.2c0.2-0.2,0.5-0.1,0.5-0.1l0.1-0.2c0,0,2.3-0.3,3.3,0.1c0-0.6,0.3-1.5,1.3-1.5&#xD;&#xA;		c0.5,0,1.3,0.5,1.4,1c0,0.2-0.1,0.3-0.1,0.5c-0.1,0.3,0,0.7,0,0.8c0,0.1-0.1,0.1-0.2,0.2c-0.1,0.1-0.2,0.4-0.2,0.4l-0.1,0.3&#xD;&#xA;		L9.5,4.7c-0.3,0.6-0.8,1.7-1,2.8c0.6,0.1,3.1,0.4,3.1,0.4l0.1,0.2c0,0,1.1,0.1,1.9,0.5c0.2,0.1,0.7,0,1,0.1c0,0,0.1-0.1,0.1-0.1&#xD;&#xA;		c1.1,0.4,2.1,0.9,3.1,1.2c0,0,0.5,0.1,0.7,0.2c0.4,0.1,0.7,0.1,0.9,0.1c0.4,0,0.5,0,0.8,0C20.3,10.3,20.5,10.2,20.6,10.5z"/>
</g>
</svg>