<?xml version="1.0" encoding="utf-8"?>
<svg xmlns="http://www.w3.org/2000/svg" xmlns:xlink="http://www.w3.org/1999/xlink" version="1.1" id="Layer_1" x="0px" y="0px" viewBox="0 0 99 73" style="enable-background:new 0 0 99 73;">
<style type="text/css">
	.st0{fill:#00438D;}
	.st1{fill:#E50000;}
	.st2{clip-path:url(#SVGID_00000092430414924022579790000014617877444946675350_);}
	.st3{fill:#FFFFFF;}
</style>
<g>
	<path class="st0" d="M49.5,0h41.9C95.6,0,99,3.4,99,7.6v57.9c0,4.2-3.4,7.6-7.6,7.6H49.5V0z"/>
	<path class="st1" d="M7.6,0h42v48l12.7,25H7.6C3.4,73,0,69.6,0,65.4V7.6C0,3.4,3.4,0,7.6,0z"/>
</g>
<g id="logo">
	<g>
		<defs>
			<rect id="SVGID_1_" x="9.1" y="0" width="79.5" height="82.6"/>
		</defs>
		<clipPath id="SVGID_00000026148062062608565450000016594739132813550517_">
			<use xlink:href="#SVGID_1_" style="overflow:visible;"/>
		</clipPath>
		<g style="clip-path:url(#SVGID_00000026148062062608565450000016594739132813550517_);">
			<g>
				<path class="st3" d="M28.4,32c0.2,0.6,0.7,0.9,1.4,1c0.7,0.1,1.4,0.1,2,0.2c0.7,0.1,0.8,0.4,0.4,0.9c-0.2,0.2-0.3,0.4-0.5,0.6&#xD;&#xA;					c-0.6,0.5-1,1.1-1.1,1.9c-0.2,1.1-0.5,2.2-0.7,3.3c-0.2,1.4,0.3,2.8,0.9,4.1c0.9,1.7,1.8,3.3,2.7,5c0.2,0.5,0.4,1,0.7,1.4&#xD;&#xA;					c0.3,0.5,0.8,0.8,1.4,0.8c0.7,0,1.1,0.3,1.5,0.8c1,1.5,2,2.9,3.1,4.4c2.6,3.4,5.7,6.5,9.2,9.3c2,1.7,4.1,3.2,6.4,4.5&#xD;&#xA;					c1.1,0.6,1.7,1.6,2,2.7c0,0.1,0,0.3,0,0.4h6c0-0.6-0.2-1.1-0.6-1.6c-0.4-0.5-0.8-1-1.2-1.6c-0.2-0.2-0.3-0.5-0.3-0.7&#xD;&#xA;					c-0.5-2-0.9-4-1.3-6c-0.4-1.8-1-3.5-2.1-5.1c-0.7-1-1.3-2-1.7-3.2c-0.4-1-0.5-1.9-0.6-2.9c-0.2-2.3-0.7-4.6-1.3-6.9&#xD;&#xA;					c-0.2-0.6-0.3-1.3-0.4-2c0-0.1,0-0.2,0-0.3c0.2-0.5,0.1-1-0.1-1.5c-0.8-2.3-1.5-4.6-2.3-6.9c-0.2-0.6-0.6-1.1-1.1-1.5&#xD;&#xA;					c-0.4-0.3-0.6-0.9-0.4-1.3c0.6-1.4,1.2-2.8,1.8-4.3c0.2-0.4,0.3-0.9,0.6-1.3s0.8-0.5,1.3-0.8c0.4-0.2,0.8-0.4,1.2-0.6&#xD;&#xA;					c0.1-0.1,0.3-0.1,0.4-0.1c0.3-0.1,0.5,0,0.6,0.3c0.3,1.4,0.7,2.9,1,4.3c0.4,2.2,1.2,4.4,2.4,6.4c0.6,1,1.2,2.1,1.7,3.2&#xD;&#xA;					c0.1,0.2,0,0.6-0.2,0.7c-0.7,0.4-1.4,0.6-2.1,1c-1.4,0.9-2.5,2-3,3.5c-0.1,0.2-0.2,0.5-0.2,0.7c0,0.9-0.1,1.9,0,2.8&#xD;&#xA;					c0.1,0.9,0.7,1.7,1.3,2.5c1.3,1.5,3,2.5,5.2,2.7c2.8,0.3,5.1-0.5,7-2.3c0.4-0.4,0.7-0.8,1.1-1.1c1-2.1,1-4.5,0-6.5l0-0.1&#xD;&#xA;					c0,0-0.1,0-0.1,0l-0.6-0.9c-0.1-0.2-0.4-0.5-0.6-0.7c-0.8-0.6-1.6-1.2-2.6-1.5c-0.3-0.1-0.5-0.4-0.6-0.7c-0.2-0.7-0.3-1.3-0.4-2&#xD;&#xA;					c-0.2-1.4-0.7-2.8-1.5-4.1c-0.7-1.1-1-2.4-1.3-3.6c-0.5-1.8-0.7-3.6-0.7-5.5c0-1-0.2-2-0.5-3c-0.6-2-1.7-3.6-3.7-4.8&#xD;&#xA;					c-0.7-0.4-1.4-1-2.1-1.5c-0.6-0.4-1.3-0.8-1.9-1.2c-0.3-0.2-0.7-0.4-1-0.6c-0.3-0.2-0.3-0.3-0.1-0.6c0.2-0.2,0.4-0.4,0.5-0.7&#xD;&#xA;					c0.5-0.6,0.9-1.1,1.4-1.7c0.3-0.3,0.6-0.7,0.9-1c0.7-0.7,1.2-1.4,1.3-2.3c0-0.3,0-0.6,0-0.9c0.1-0.4,0.3-0.9,0.4-1.3&#xD;&#xA;					c0.1-0.5,0.2-1,0.3-1.5c0.1-0.7-0.3-1.4-0.9-1.9c-0.6-0.5-1.3-1-1.9-1.5c0,0,0,0,0,0h-5.1c-0.3,0.2-0.5,0.4-0.7,0.6&#xD;&#xA;					c-0.6,0.5-1,1.1-1.2,1.9c-0.1,0.5-0.1,0.9-0.2,1.4v0.5c0,0.3-0.1,0.5-0.4,0.6c-0.6,0.2-0.8,0.6-0.8,1.2c0,0.6,0.1,1.2,0.5,1.7&#xD;&#xA;					C47,7.7,47,8.2,46.9,8.6c-0.1,0.5-0.2,1.1-0.3,1.6c-0.2,0.9-0.6,1.1-1.8,1.3c-1.6,0.2-3.3,0.5-4.9,0.7c-1.8,0.2-3,1-4.1,2.2&#xD;&#xA;					c-1.1,1.3-2.1,2.8-2.8,4.3c-1.2,2.4-2.5,4.8-3.6,7.3c-0.5,1.1-0.9,2.1-1.4,3.2c-0.2,0.6-0.2,1.3,0,1.9&#xD;&#xA;					C28.1,31.3,28.2,31.7,28.4,32z"/>
			</g>
		</g>
	</g>
</g>
</svg>