<?xml version="1.0" encoding="utf-8"?>
<svg xmlns="http://www.w3.org/2000/svg" id="svg2" viewBox="0 0 20 20">
  <defs>
    <style>.cls-1{fill:#f15a22;}</style>
  </defs>
  <title>__Artboard 10 copy 3</title>
  <path class="cls-1" d="M20,9.59a.37.37,0,0,0-.35-.26l-1-.14a22.38,22.38,0,0,1-4.45-1.27c-2-.79-6-2.85-6-4.9,0,0-.3-2.45,4-1.11a8,8,0,0,0,6.64,4.91c.31,0,.62,0,.65-.16A10,10,0,0,0,3,2.86L2.87,3A3.23,3.23,0,0,0,2,4.94C2,6,3.21,7,4.73,7.71h0a33.5,33.5,0,0,0,5.79,2.2h0c.14,0,.15.06.15.09s0,.06-.1.08a34.9,34.9,0,0,0-5.85,2.18S2,13.49,2,15A3.2,3.2,0,0,0,2.84,17l.13.15a10,10,0,0,0,16.44-3.73c0-.16-.34-.2-.66-.16a8,8,0,0,0-6.66,4.88c-4.31,1.32-4-1.13-4-1.13,0-1.74,3.34-4,6-5.1a23,23,0,0,1,5.6-1.36c.19,0,.25-.17.26-.33A2.28,2.28,0,0,0,20,9.59Z"/>
  <path class="cls-1" d="M5.78,10.07s.1,0,.1-.08-.13-.09-.13-.09h0a24.64,24.64,0,0,1-2.32-1C2,8.21.94,7.32.94,6.31c0-.09-.08-.1-.13-.1S.7,6.33.7,6.33A9.84,9.84,0,0,0,0,10a10,10,0,0,0,.68,3.65s0,.12.12.12.13,0,.13-.1c0-1,1.13-1.92,2.55-2.65A16.79,16.79,0,0,1,5.78,10.07Z"/>
</svg>