<?xml version="1.0" encoding="utf-8"?>
<svg xmlns="http://www.w3.org/2000/svg" xmlns:xlink="http://www.w3.org/1999/xlink" version="1.1" id="Layer_1" x="0px" y="0px" viewBox="0 0 28.1 14" style="enable-background:new 0 0 28.1 14;">
<style type="text/css">
	.st0{opacity:0.87;}
	.st1{fill:#1991D0;}
</style>
<g class="st0">
	<path class="st1" d="M21.1,10c-1.7,0-3-1.4-3-3.1c0-1.7,1.4-3.1,3-3.1s3,1.4,3,3.1S22.8,10,21.1,10z M21.1,0c-3.8,0-6.9,3.1-6.9,7&#xD;&#xA;		c0,3.9,3.1,7,6.9,7s6.9-3.1,6.9-7C28,3.1,24.9,0,21.1,0z M8.1,0.3H5.8L0,13.7h4.3L7,6.8l2.6,6.9h4.3L8.1,0.3z"/>
</g>
</svg>