<?xml version="1.0" encoding="utf-8"?>
<svg xmlns="http://www.w3.org/2000/svg" xmlns:xlink="http://www.w3.org/1999/xlink" version="1.1" id="Layer_1" x="0px" y="0px" viewBox="0 0 365 470.5" style="enable-background:new 0 0 365 470.5;">
<style type="text/css">
	.st0{fill:#BAD8EB;}
	.st1{fill:#DEEDF3;}
	.st2{fill:#FFE066;}
	.st3{fill:#50B475;}
	.st4{fill:#FFE688;}
	.st5{fill:#89C699;}
	.st6{fill:#2F3039;}
	.st7{fill:#F07E5E;}
	.st8{fill:#4B4953;}
	.st9{fill:#70BE87;}
	.st10{fill:#F29274;}
	.st11{fill:#FFDF5B;}
	.st12{fill:#EF7657;}
	.st13{fill:#D7E7F1;}
	.st14{fill:#35363E;}
	.st15{fill:#C3DCED;}
	.st16{fill:#C6DEEE;}
	.st17{fill:#E94B33;}
	.st18{fill:#FFFFFF;}
	.st19{fill:#FDC647;}
	.st20{fill:#FFDE54;}
	.st21{fill:#FFE377;}
	.st22{fill:#1E2129;}
	.st23{fill:#BA1716;}
	.st24{fill:#FFE892;}
	.st25{fill:#E30613;}
	.st26{fill:#FFDE52;}
	.st27{fill:#FFDF64;}
	.st28{fill:#A8CEE6;}
	.st29{fill:#A9CFE7;}
	.st30{fill:#FFDB2E;}
	.st31{fill:#FFD91E;}
	.st32{fill:#598FAA;}
	.st33{fill:#6094AF;}
	.st34{fill:#FFD600;}
	.st35{fill:#CD301F;}
	.st36{fill:#114D8B;}
	.st37{fill:#E84831;}
	.st38{fill:#AACFE7;}
	.st39{fill:#085FAA;}
	.st40{fill:#D2E5F0;}
	.st41{fill:#B9D7EB;}
	.st42{fill:#6698B3;}
	.st43{fill:#BDD9EC;}
	.st44{fill:#6799B4;}
	.st45{fill:#49839F;}
	.st46{fill:#C7DFEE;}
	.st47{fill:#E62A21;}
	.st48{fill:#E6F1F7;}
	.st49{fill:#DBEBF2;}
	.st50{fill:#004F9F;}
	.st51{fill:#CFE3F0;}
	.st52{fill:#CCA703;}
	.st53{fill:#AFD1E8;}
	.st54{fill:#C2DBED;}
	.st55{fill:#BFDAEC;}
	.st56{fill:#9BC3DF;}
	.st57{fill:#D3E6F0;}
	.st58{fill:#D3E5F0;}
	.st59{fill:#E5F0F6;}
	.st60{fill:#93BCD9;}
	.st61{fill:#94BCD8;}
	.st62{fill:#72A1BD;}
	.st63{fill:#73A1BD;}
	.st64{fill:#5F8FA8;}
	.st65{fill:#FBFDFE;}
	.st66{fill:#6491AA;}
	.st67{fill:#B7CCD9;}
	.st68{fill:#EBF4F9;}
	.st69{fill:#D0E4F0;}
	.st70{fill:#C4DCED;}
	.st71{fill:#DAE7EF;}
	.st72{fill:#C2DCED;}
	.st73{fill:#084584;}
	.st74{fill:#C9DFEE;}
	.st75{fill:#CAE0EE;}
	.st76{fill:#B5D5EA;}
	.st77{fill:#C5DDED;}
	.st78{fill:#B4D4EA;}
	.st79{fill:#0D4B8A;}
	.st80{fill:#ADC6D5;}
	.st81{fill:#055EAB;}
	.st82{fill:#EAF3F9;}
	.st83{fill:#ADB6BE;}
	.st84{fill:#7EB1D3;}
	.st85{fill:#272830;}
	.st86{fill:#DAEAF2;}
	.st87{fill:#99C1DC;}
	.st88{fill:#7FB1D3;}
	.st89{fill:#85B5D5;}
	.st90{fill:#169955;}
	.st91{fill:#E63827;}
	.st92{fill:#DBEAF2;}
	.st93{fill:#3BAE6B;}
	.st94{fill:#5BB77A;}
	.st95{fill:#E51E1C;}
	.st96{fill:#CDE2EF;}
	.st97{fill:#1CA75E;}
	.st98{fill:#ADD0E8;}
	.st99{fill:#ABCFE7;}
	.st100{fill:#118D4E;}
	.st101{fill:#B0D0E6;}
	.st102{fill:#DCEBF2;}
	.st103{fill:#B7D6EA;}
	.st104{fill:#E6251F;}
	.st105{fill:#A8C3D2;}
	.st106{fill:#CEDBE5;}
	.st107{fill:#ECF4F9;}
	.st108{fill:#20232B;}
	.st109{fill:#2FAB65;}
	.st110{fill:#065EAB;}
	.st111{fill:#4FB474;}
	.st112{fill:#159653;}
	.st113{fill:#BED9EC;}
	.st114{fill:#2D2E36;}
	.st115{fill:#FFDE5A;}
	.st116{fill:#FCBD33;}
	.st117{fill:#ACD0E7;}
	.st118{fill:#ACD0E8;}
	.st119{fill:#E63225;}
	.st120{fill:#A6CCE6;}
	.st121{fill:#B6CBD9;}
	.st122{fill:#D1E4F0;}
	.st123{fill:#A4CBE5;}
	.st124{fill:#FFD817;}
	.st125{fill:#3DAF6C;}
	.st126{fill:#FFDB34;}
	.st127{fill:#FFDE57;}
	.st128{fill:#C7DEED;}
	.st129{fill:#5CB77B;}
	.st130{fill:#FCBB2F;}
	.st131{fill:#3AA868;}
	.st132{fill:#CCAA24;}
	.st133{fill:#2D9059;}
	.st134{fill:#139352;}
	.st135{fill:#B4D0E4;}
	.st136{fill:#CBAE45;}
	.st137{fill:#96BEDC;}
	.st138{fill:#9DC5E0;}
	.st139{fill:#429164;}
	.st140{fill:#CE922E;}
	.st141{fill:#15844F;}
	.st142{fill:none;}
</style>
<g>
	<path class="st0" d="M121.5,37.8c22.4-8,46.4-10.5,70.1-9.6c32.3,1.1,65,10.6,90.7,30.7c17.2,13.3,31.1,30.7,41.3,49.8l-0.1-0.4&#xD;&#xA;		c1,2.3,2.3,4.4,3.1,6.7c-6.6-8.4-11-18.3-17.7-26.7c-8.1-10.7-17.6-20.4-28.3-28.6c-27.8-21.3-63.5-30.5-98.1-29.6&#xD;&#xA;		c-33.4-0.8-67.7,7.7-95.1,27.3c-12.8,9.4-24,20.8-33.2,33.7c-1.2,1.7-2.8,3-4.6,4C66.5,68.5,91.8,48.2,121.5,37.8L121.5,37.8z"/>
	<path class="st1" d="M87.5,57.5c27.4-19.6,61.7-28.1,95.1-27.3c34.6-0.9,70.3,8.3,98.1,29.6c10.6,8.2,20.2,17.9,28.3,28.6&#xD;&#xA;		c6.7,8.4,11.1,18.3,17.7,26.7l0.5,0.5v0.4c0,1.3,0.1,2.6,0.5,3.8c9.3,19.8,14.7,41.3,18.4,62.8c1.8,11.2,2.9,22.5,3.3,33.8&#xD;&#xA;		c1.3,10,0.7,20.1,0.7,30.2c-1,7.1-0.5,14.3-1.6,21.4c-3.7,39.1-14.3,78.6-37.3,110.9c-17.1,24.7-42.5,44-71.2,52.9&#xD;&#xA;		c0-0.9,0.1-1.8,0.1-2.7c2.2-0.8,4.5-1.6,6.7-2.5c10.7-4.3,20.9-9.9,30.3-16.6c12.7-9.2,23.7-20.5,32.5-33.4&#xD;&#xA;		c8.5-12.4,15.5-25.9,20.8-40c4.9-13.3,8.7-27.1,11.3-41.1c2.5-13.1,4-26.4,4.7-39.8c0.8-13.1,0.7-26.2,0.2-39.3&#xD;&#xA;		c-0.7-13.4-1.7-26.9-4.7-40.1c-2.4-14.4-6.1-28.5-11.2-42.1c-5.3-14.5-12.5-28.3-21.2-41c-9.5-13.2-20.9-24.8-34-34.1&#xD;&#xA;		c-13.3-9.3-28.2-16.3-43.9-20.6c-16-4.3-32.6-6.4-49.1-6.3c-16.5-0.2-32.9,1.9-48.8,6.2C102,46.8,74.4,66.3,55.9,93.2&#xD;&#xA;		c-8.8,12.7-16,26.5-21.4,41c-5.2,13.5-9,27.6-11.3,41.9c-2.3,13.4-3.8,26.8-4.6,40.4c-0.6,13.1-0.5,26.2,0.1,39.4&#xD;&#xA;		c0.6,13.3,2.2,26.6,4.8,39.6c2.6,14,6.4,27.8,11.4,41.2c5.2,14.1,12.2,27.4,20.7,39.8c8.9,12.9,19.9,24.2,32.5,33.5&#xD;&#xA;		c9.6,7,20.1,12.8,31.2,17c2,0.8,4,1.4,6,2.1c-0.1,0.7-0.2,1.5-0.3,2.2c-4.1-0.2-7.6-2.3-11.4-3.7c-15.3-6.7-29.8-15.7-41.5-27.6&#xD;&#xA;		c-26.6-25.2-42.1-60.1-49.8-95.4c-0.4-1-0.9-1.9-1.5-2.8c-2.8-11.2-4.1-22.9-5.3-34.4c-2.5-27.6-1.7-55.5,2.1-82.9&#xD;&#xA;		c4.1-27.3,11.9-54.3,25.3-78.5c2.2-3.7,4.1-7.6,6.8-10.9c1.8-1,3.4-2.3,4.6-4C63.5,78.3,74.7,66.9,87.5,57.5z"/>
	<path class="st2" d="M133.8,38.4c15.9-4.3,32.3-6.4,48.8-6.2c0,0.7,0,2,0,2.7c-6.2,1.6-12.6,0.4-18.9,1.5&#xD;&#xA;		c-9.9,0.8-19.6,2.8-29.2,4.9l-0.1-0.4L133.8,38.4L133.8,38.4z"/>
	<path class="st3" d="M182.5,32.2c16.6-0.1,33.1,2,49.1,6.3c-0.3,1.1-0.6,2.2-0.8,3.3c-15.8-4.2-32.1-6.2-48.4-5.8v-1.1&#xD;&#xA;		C182.5,34.2,182.5,32.9,182.5,32.2L182.5,32.2z"/>
	<path class="st4" d="M163.6,36.4c6.2-1.1,12.7,0.1,18.9-1.5V36c0,2.3,0,4.5,0,6.8c0,1.2,0,2.3,0,3.5c-15.4-0.9-30.7,2.3-45.7,5.3&#xD;&#xA;		l-0.3-1.4c-0.7-3-1.4-5.9-2.1-8.9C144.1,39.2,153.8,37.2,163.6,36.4L163.6,36.4z"/>
	<path class="st5" d="M182.5,36c16.3-0.3,32.6,1.7,48.4,5.9l-0.2,0.8c-0.4,1.7-0.8,3.5-1.2,5.2l-0.4,1.5c-8.1-2.1-16.2-3.7-24.5-4.7&#xD;&#xA;		c-7.3-1.2-14.9-0.1-22.1-1.8C182.5,40.5,182.5,38.3,182.5,36L182.5,36z"/>
	<path class="st6" d="M89.5,59.2c13.4-9.4,28.4-16.5,44.2-20.7l0.5,2.5c-4.4,2.1-8.9,3.9-13.5,5.2c-7.5,2.7-14.7,6.2-21.6,10.2&#xD;&#xA;		c-2.8,1.8-5.2,4.1-8.5,4.9L89.5,59.2 M326.9,136.6c1.1-0.8,2.2-1.6,3.4-2.3c5.1,13.6,8.8,27.7,11.2,42.1c-1,0.2-2,0.4-3,0.7&#xD;&#xA;		c-3,1.1-6,2.4-9,3.5c-19.2,7.5-38.5,14.9-57.7,22.4c-1.1-8.1-2-16.3-5.4-23.8l-0.1-0.3c16.4-11.2,32.5-22.7,48.8-34.1&#xD;&#xA;		C319.1,142.1,323.1,139.4,326.9,136.6L326.9,136.6z"/>
	<path class="st7" d="M231.7,38.5c15.7,4.3,30.5,11.3,43.9,20.6c-0.7,1.2-1.3,2.3-2,3.5c-8-5.5-16.4-10.3-25.2-14.2&#xD;&#xA;		c-5.9-2-11.7-4.3-17.7-5.9l0.2-0.8C231.1,40.7,231.3,39.6,231.7,38.5L231.7,38.5z"/>
	<path class="st8" d="M134.3,40.9l0.1,0.4c0.7,3,1.4,5.9,2.1,8.9c-11.4,1.8-21.6,7.5-31.8,12.6c-3.5,1.8-6.2,5.2-10.4,5.6&#xD;&#xA;		c-1-1.9-2-3.8-3-5.8l-0.7-1.3c3.3-0.8,5.7-3.1,8.5-4.9c6.9-4.1,14.1-7.5,21.6-10.2C125.4,44.8,129.9,43,134.3,40.9z"/>
	<path class="st9" d="M182.5,42.8c7.3,1.7,14.8,0.6,22.1,1.8c8.3,1,16.4,2.6,24.5,4.7c-0.4,1.7-0.8,3.4-1.2,5s-0.8,3.3-1.2,5&#xD;&#xA;		c-1.3-0.7-2.7-1.4-4-2.1c-3.6-1.8-7.3-3.3-11.1-4.5c-9.4-2.8-19.3-3.8-29-3.9c0-0.6,0-1.9,0-2.5C182.5,45.2,182.5,44,182.5,42.8&#xD;&#xA;		L182.5,42.8z"/>
	<path class="st10" d="M230.7,42.6c6,1.6,11.8,3.9,17.7,5.9c8.8,3.9,17.3,8.7,25.2,14.2l-0.4,0.7c-0.8,1.4-1.5,2.9-2.3,4.4&#xD;&#xA;		c-7.2-5.2-15.1-9.5-23.3-12.9c-5.8-2.8-12.3-4.2-18.1-7.1C229.8,46,230.2,44.3,230.7,42.6L230.7,42.6z"/>
	<path class="st11" d="M136.8,51.6c15-3,30.3-6.2,45.7-5.3c0,0.6,0,1.9,0,2.5c-9.4,0.1-18.9,0.9-27.9,3.5c-4.2,1.2-8.3,2.8-12.2,4.8&#xD;&#xA;		c-1.3,0.6-2.6,1.3-3.8,1.9C138,56.6,137.4,54.1,136.8,51.6z"/>
	<path class="st12" d="M229.4,47.8c5.8,2.9,12.3,4.2,18.1,7.1c8.3,3.4,16.1,7.7,23.3,12.9l-0.7,1.4c-0.8,1.5-1.5,3-2.3,4.5&#xD;&#xA;		c-11.6-9.4-25.8-15-40-19.3c0.4-1.7,0.8-3.4,1.2-5L229.4,47.8L229.4,47.8z"/>
	<path class="st13" d="M182.5,48.9c9.8,0.2,19.6,1.1,29,3.9l-1.5,1.3c-1.2,8.7,0.1,17.4,0.1,26.1C192.2,75,173.2,75,155.3,80&#xD;&#xA;		c-1.1-9.2,0.1-18.4-0.7-27.6C163.7,49.8,173.1,49,182.5,48.9L182.5,48.9z"/>
	<path class="st14" d="M104.7,62.7c10.2-5,20.4-10.8,31.8-12.6l0.3,1.4c0.6,2.5,1.2,5,1.8,7.5c-2.2,1.2-4.3,2.6-6.4,4&#xD;&#xA;		c-1.2-0.1-2.5-0.5-3.7,0.3c-5.9,2.9-11,7.2-17,10c-4,1.8-7.2,4.8-11.1,6.7c-0.8-1.5-1.6-3.1-2.4-4.6c-1.2-2.3-2.4-4.7-3.6-7&#xD;&#xA;		l-0.1-0.2C98.5,67.9,101.2,64.5,104.7,62.7L104.7,62.7z"/>
	<path class="st15" d="M142.4,57.2c3.9-2,8-3.6,12.2-4.8c0.8,9.2-0.5,18.5,0.7,27.6c-2.5,0.8-4.9,1.6-7.3,2.6&#xD;&#xA;		C145.9,74.2,144.4,65.6,142.4,57.2L142.4,57.2z"/>
	<path class="st16" d="M211.6,52.8c3.8,1.2,7.6,2.7,11.1,4.5c-2,8.4-3.6,17-5.5,25.4c-2.3-0.9-4.6-1.7-7-2.5&#xD;&#xA;		c0-8.7-1.3-17.4-0.1-26.1L211.6,52.8L211.6,52.8z"/>
	<path class="st17" d="M227.9,54.4c14.2,4.3,28.4,9.9,40,19.3l-0.5,1l-2.1,4.1c-7.3-4.5-14.5-9.7-22.9-12c-3-1.5-5.9-4.5-9.6-3.6&#xD;&#xA;		c-2-1.4-4-2.7-6.1-3.8C227.1,57.6,227.5,56,227.9,54.4 M22.1,217c1.9,0.2,3.7,0.4,5.6,0.6c-0.4,12.2-0.5,24.3,0.1,36.5l2.4,0.5&#xD;&#xA;		l0.2,0.2c-2.4,0.2-4.7,0.4-7.1,0.7l-1.7,0.2C22.5,242.8,21.4,229.9,22.1,217 M59.1,372.8c1.4-1.5,2.8-3,4.2-4.5&#xD;&#xA;		c0.8,5,5.4,7.8,8.2,11.6c4.3,5.7,10.1,9.9,14.9,15.1c2.1,2,4.5,3.6,7.2,4.7c-1.1,2.1-2.2,4.1-3.3,6.2l-0.2-0.2&#xD;&#xA;		c-4.5-4.7-10.1-8.2-14.6-12.9C69.3,386.8,63.2,380.5,59.1,372.8L59.1,372.8z"/>
	<path class="st18" d="M138.6,59.1c1.2-0.7,2.5-1.3,3.8-1.9c2,8.4,3.5,17,5.6,25.4c-5.8,2.4-11.5,5.5-16,9.9&#xD;&#xA;		c-0.8-1.1-1.4-2.3-1.8-3.5c-1.8-6.2-3.2-12.6-5-18.8c2-2.7,4.4-5,7-7.1C134.3,61.7,136.4,60.3,138.6,59.1 M222.7,57.2&#xD;&#xA;		c1.3,0.7,2.7,1.3,4,2.1c2.1,1.2,4.1,2.5,6.1,3.8c2.7,2,5,4.4,7.1,7.1c-2.1,7.6-3.8,15.3-6.2,22.8c-4.8-4.5-10.3-8-16.4-10.3&#xD;&#xA;		C219.2,74.2,220.7,65.7,222.7,57.2 M161.5,121.2c2.3-0.5,4.7-0.5,6.9,0.1c-0.6,5.2,0.4,10.4,3,14.9c-2,0.3-4.1,0.6-6.1,1&#xD;&#xA;		c-1.2,0.2-2.4,0.5-3.6,0.8c-0.3-5.2,0.2-10.4-0.2-15.5L161.5,121.2 M143.1,148.6c7.2-3.6,14.8-6.1,22.7-7.4l1.9,0.8&#xD;&#xA;		c-3.2,1.5-6.4,3.2-9.4,5.2c-11.9,7.9-19.9,20.7-23.7,34.3c-3.1,11.4-4.5,23.2-4.1,35c-5.6,0.9-11.3,1.9-16.8,3.2l-2.2,0.3&#xD;&#xA;		c-1.1-11.6-0.4-23.3,2.3-34.6c3-9.3,7.3-18.2,14-25.4C132.4,155.6,137.4,151.4,143.1,148.6 M196.7,141.6c6.5-0.1,12.8,2.1,19,4&#xD;&#xA;		c6.3,2.3,12,6,17.3,10.1c7.7,6.5,13,15.3,16.9,24.6c4.2,12.8,5,26.4,3.9,39.7l-2.1-0.3c-5.6-1.2-11.2-2.3-16.9-3.2&#xD;&#xA;		c-0.1-16.5-1.8-33.5-9.5-48.4c-4.6-9-11.5-16.6-20.1-22C202.4,144.5,199.6,142.9,196.7,141.6 M114.9,224.4&#xD;&#xA;		c3.9-0.6,7.7-1.3,11.5-2.2c1.4,0.1,2.8,0.2,4.2,0.3c1.6,27.9,8.4,55.3,17,81.8c4.8,16.7,10.2,33.3,13.7,50.3&#xD;&#xA;		c2,10.5,2.7,21.4,0.8,31.9c-1.9,9.2-4.6,18.2-8.2,26.9c-2.8,8.7-9.5,15.8-10.5,25.1c-3.5-0.8-7-1.7-10.5-2.6&#xD;&#xA;		c1.7-8.6,7.8-15.2,11.3-23.1c4.5-9.4,7.9-19.2,10.2-29.4c1.5-6.5,1.6-13.2,0.3-19.8c-3.4-15.8-11.2-30.1-17.1-45&#xD;&#xA;		c-8.8-21.2-15.8-43.2-20.7-65.6c-1.7-8.9-3.3-17.8-4.7-26.8C113.1,225.6,114,225,114.9,224.4 M224.5,281&#xD;&#xA;		c5.2-19.2,8.9-38.8,9.9-58.7h4.8c3.8,0.9,7.6,1.5,11.3,2.3l2.3,0.9c-0.8,8.9-2.7,17.6-4.4,26.4c-4.3,20.3-10.3,40.2-17.9,59.5&#xD;&#xA;		c-5.7,14.8-13,28.9-17.9,44c-3.3,9.9-4.4,20.7-1.2,30.7c3,11.2,6.9,22.2,12.5,32.4c3.3,5.5,7.2,10.9,8.3,17.5&#xD;&#xA;		c-3.4,0.9-6.9,1.8-10.3,2.6c-0.7-4.2-2.1-8.3-4.3-12c-2.6-4.6-4.9-9.4-6.8-14.3c-3.3-8.4-5.9-17.2-7.8-26.1&#xD;&#xA;		c-1.4-8.8-1.4-17.8,0-26.6c3.5-20.4,10.2-40.1,16-60c2-6.2,3.8-12.4,5.4-18.7v0.1H224.5z"/>
	<path class="st19" d="M55.9,93.2C65.1,80,76.5,68.5,89.5,59.1l1.1,2.1l0.7,1.3c-13,8.9-24,20.5-33.2,33.2&#xD;&#xA;		C57.4,94.9,56.6,94.1,55.9,93.2L55.9,93.2z"/>
	<path class="st20" d="M273.6,62.7c0.6-1.2,1.3-2.4,2-3.5c13.1,9.4,24.5,20.9,33.6,34.2c-1,1.1-2,2.2-3,3.4&#xD;&#xA;		c-9-12.9-20.2-24.2-33-33.3L273.6,62.7L273.6,62.7z"/>
	<path class="st21" d="M91.3,62.5c1,1.9,2,3.8,3,5.8l0.1,0.2C86.6,73.1,80.3,79.7,74,86.1c-4.4,4.4-7.5,9.9-12.2,14&#xD;&#xA;		c-1-1.1-1.9-2.2-2.9-3.3l-0.8-0.9C67.3,83,78.3,71.4,91.3,62.5z"/>
	<path class="st22" d="M128.6,63.4c1.1-0.7,2.4-0.4,3.7-0.3c-2.6,2-5,4.4-7,7.1c-3.9,5.3-5.6,11.9-4.6,18.5&#xD;&#xA;		c0.6,6.9,2.5,13.6,4.3,20.3c0.8,3.1,2.2,6,4,8.6l-1.6,0.6c-1.9,0.8-3.8,1.7-5.6,2.7c-0.9-1.6-1.7-3.2-2.5-4.9&#xD;&#xA;		c-6.1-11.6-12.1-23.3-18.2-34.9l-0.5-1c3.9-1.9,7.2-4.8,11.1-6.7C117.5,70.5,122.7,66.2,128.6,63.4 M128.5,133.9&#xD;&#xA;		c2.8-2.3,6.2-3.9,9.8-4.5c3.8,0,7.6,0.1,11.2,1.4c2.1,0.8,4.1,1.7,6.1,2.6v5.8c-4.7,1.1-9.2,2.5-13.6,4.4c-2.3,1-4.6,2.1-6.8,3.2&#xD;&#xA;		C133.1,142.4,130.8,138.2,128.5,133.9L128.5,133.9z"/>
	<path class="st23" d="M232.8,63.1c3.6-0.9,6.5,2.1,9.6,3.6c4.6,3.6,8.9,8,10.5,13.8c2.5,8.6-1.2,17.1-2,25.6&#xD;&#xA;		c-1.6,3.3-3.3,6.6-5,9.9c-0.9,1.6-1.7,3.2-2.5,4.8c-1.8-1-3.6-1.9-5.5-2.7l-1.7-0.6c1.7-2.3,3-5,3.8-7.8c2.4-8.6,4.9-17.3,4.8-26.3&#xD;&#xA;		c-0.2-4.8-1.9-9.4-4.8-13.3C237.9,67.5,235.5,65.2,232.8,63.1 M217.8,130.1c2.7-0.5,5.4-0.7,8.2-0.7c3.9,0.5,7.5,2,10.5,4.5&#xD;&#xA;		c-2.3,4.2-4.5,8.5-6.8,12.8c-3.8-2-7.8-3.7-11.8-5.1c-2.7-0.9-5.4-1.6-8.1-2.5c-0.8-1.8-0.3-4-0.4-5.9&#xD;&#xA;		C212.2,132,215,130.9,217.8,130.1 M99.8,143.4c2.3,2.6,4.5,5.2,7,7.7c-0.2,2.2-0.3,4.3-0.4,6.5s-0.1,4.1-0.1,6.1&#xD;&#xA;		c0,2.2,0.2,4.4,0.3,6.7c1.2,4.4-1.5,8.2-3,12.1l-4.9-3.4l-0.2-0.2c1.1-2.3,2.7-4.6,2.2-7.3C99.6,162.3,98.7,152.8,99.8,143.4&#xD;&#xA;		 M95.3,226.6l5.5,0.7c0,0.2,0.1,0.8,0.1,1c1.1,6.1,2.2,12.2,3.7,18.2l-5.3,0.6l-2.8,0.3c0.8-0.5,1.5-1,2.3-1.6&#xD;&#xA;		C97.4,239.5,95.8,233.1,95.3,226.6 M255.3,264.3c1.8-6,3.6-11.9,5-18l4.7,0.5l0.8,0.1c-1.5,6.4-3.4,12.7-5.5,19L255.3,264.3&#xD;&#xA;		 M120.2,306.2c1.2-1.3,2.4-2.6,3.6-4c3.3,7.9,6.8,15.6,10.5,23.3c-0.9,1.6-1.8,3.2-2.6,4.8C127.1,322.6,123.7,314.3,120.2,306.2&#xD;&#xA;		L120.2,306.2z"/>
	<path class="st24" d="M270.9,67.8c0.8-1.5,1.5-2.9,2.3-4.4c12.8,9.1,24,20.4,33,33.3l-0.3,0.4c-1.3,1.5-2.6,3-3.9,4.4&#xD;&#xA;		c-2.9-5-6.5-9.6-10.6-13.6c-6.7-6.6-13.1-13.7-21.2-18.8L270.9,67.8L270.9,67.8z"/>
	<path class="st25" d="M242.3,66.7c8.4,2.4,15.5,7.5,22.9,12l-0.7,1.3c-4.5,8.7-8.9,17.5-13.7,26c0.8-8.5,4.5-17,2-25.6&#xD;&#xA;		C251.2,74.7,247,70.3,242.3,66.7 M69.1,108.4c0.7,0.8,1.4,1.6,2.1,2.4c9.5,10.8,18.9,21.6,28.4,32.4l0.2,0.3&#xD;&#xA;		c-1,9.4-0.2,18.9,0.9,28.2c0.5,2.7-1.1,5-2.2,7.3l-48.8-34.2c2.3-5,4.5-10.1,7-15.1C59.7,122,64.7,115.3,69.1,108.4 M37.6,219&#xD;&#xA;		l57.2,7.5l0.5,0.1c0.4,6.5,2.1,12.9,3.5,19.3c-0.8,0.5-1.5,1.1-2.3,1.6c-19,2.1-38,4.2-57,6.2l-2.4-0.2c1.5-4,0.4-8.3,0.3-12.4&#xD;&#xA;		C37.7,233.7,37.2,226.3,37.6,219 M265.7,247c19.6,2.1,39.1,4.3,58.7,6.4l2.7,0.3c-0.8,11.9-2.3,23.6-3.7,35.5&#xD;&#xA;		c-21.1-7.6-42.1-15.4-63.2-22.9l0.1-0.2C262.3,259.7,264.3,253.4,265.7,247 M69.5,361.4c17-18.3,33.8-36.9,50.7-55.2&#xD;&#xA;		c3.5,8.2,6.9,16.4,11.5,24.1c-0.1,0.1-0.2,0.4-0.3,0.5c-10.7,19.5-21.4,38.9-32.1,58.4l-0.9,1.7c-9.3-4.9-16.3-13.1-23.2-20.9&#xD;&#xA;		C73.9,366.6,69.7,365.3,69.5,361.4L69.5,361.4z"/>
	<path class="st26" d="M74,86.1c6.3-6.4,12.6-13,20.4-17.6c1.2,2.3,2.4,4.7,3.6,7c-8.8,7.3-17.8,14.6-24.8,23.8&#xD;&#xA;		c-2,2.3-3.3,5.5-6.3,6.6l-1.6-1.8c-1.2-1.4-2.4-2.7-3.6-4.1C66.5,96,69.6,90.4,74,86.1L74,86.1z"/>
	<path class="st27" d="M267.9,73.6c0.8-1.5,1.5-3,2.3-4.5c8.1,5,14.5,12.1,21.2,18.8c4.1,4,7.7,8.6,10.6,13.6c-1.3,1.5-2.7,3-4,4.5&#xD;&#xA;		c-4.7-6.2-9.7-12.1-15.1-17.6c-4.8-5-10.5-8.9-15.5-13.7L267.9,73.6L267.9,73.6z"/>
	<path class="st28" d="M120.6,88.6c-0.9-6.5,0.8-13.2,4.7-18.5c1.8,6.2,3.2,12.5,5,18.8c0.4,1.3,1,2.5,1.8,3.5&#xD;&#xA;		c-2.5,2.4-4.5,5.2-5.9,8.4l-0.5,1.4c-0.4,2.2-0.7,4.5-0.8,6.7C123.1,102.2,121.3,95.5,120.6,88.6L120.6,88.6z"/>
	<path class="st29" d="M239.8,70.2c2.9,3.9,4.5,8.5,4.8,13.3c0.2,9-2.4,17.7-4.8,26.3c0.2-2.5,0-5.1-0.4-7.5c0-0.2-0.1-0.5-0.1-0.7&#xD;&#xA;		c-1.4-3.1-3.3-6-5.6-8.6C236,85.5,237.7,77.8,239.8,70.2 M249.7,180.5c1.6-5.8-0.5-11.7,0.6-17.5l2.7,3.3l5.6,0.3&#xD;&#xA;		c0,2.7-0.4,5.4-0.4,8c0.8,2.6,2.1,5.1,3,7.7c2.7,7.4,4.1,15.3,4.2,23.2c0.1,5.8-0.2,11.6-0.9,17.3c-4.4-0.9-8.8-1.9-13.1-3l2.1,0.3&#xD;&#xA;		C254.7,206.8,253.9,193.2,249.7,180.5L249.7,180.5z"/>
	<path class="st30" d="M265.2,78.8l2.2-4.1c5,4.7,10.8,8.6,15.5,13.7c5.4,5.6,10.5,11.4,15.1,17.6c-0.9,1-1.8,2-2.7,3.1&#xD;&#xA;		c-4.3-2.5-6.1-7.3-9.6-10.7c-6.6-6.6-12.9-13.9-21.3-18.3L265.2,78.8 M314.4,326.2l0.2,0.1c2.1,1.4,4.2,2.8,6.4,4.3&#xD;&#xA;		c-4.7,13.3-11.3,25.9-19.4,37.5c-0.5-0.5-1.5-1.6-2-2.2c-1.2-1.3-2.4-2.6-3.6-3.9c2.7-4.6,6.1-8.8,8.3-13.7c1.8-4,4.8-7.5,6.2-11.7&#xD;&#xA;		C311.6,333.1,313,329.6,314.4,326.2L314.4,326.2z"/>
	<path class="st31" d="M98.1,75.4c0.8,1.5,1.6,3.1,2.4,4.6l0.5,1c-7.8,3.7-13.3,10.6-19.4,16.5c-3.6,4.3-7.7,8.3-10.4,13.3&#xD;&#xA;		c-0.7-0.8-1.4-1.6-2.1-2.4s-1.5-1.7-2.2-2.5c3-1.1,4.4-4.3,6.3-6.6C80.3,90.1,89.3,82.7,98.1,75.4z"/>
	<path class="st32" d="M155.3,80c17.9-5.1,37-5,54.9,0.2c2.4,0.8,4.7,1.6,7,2.5c6.1,2.4,11.7,5.9,16.4,10.4c2.3,2.5,4.2,5.4,5.6,8.6&#xD;&#xA;		c-2.1,0.5-4.2,0.8-6.3,0.7c-5.9-0.3-11.7-0.2-17.6,0.3c-3.5-0.5-7-0.5-10.5,0c-2.1-1.3-4.2-2.5-6.4-3.6c-9.5-3.1-19.7-3.4-29.3-0.8&#xD;&#xA;		c-2.6,0.9-5.2,2-7.5,3.4l-0.4,0.2c-3.4-1.1-6.9-0.4-10.3-0.6c-8.3-0.3-16.6,0.5-24.8-0.4c1.4-3.1,3.4-6,5.9-8.4&#xD;&#xA;		c4.5-4.4,10.2-7.5,16-9.9C150.4,81.5,152.9,80.8,155.3,80 M169.7,80c-9.8,1-20.1,3.3-28,9.4c3.6,0.2,7.4-0.7,10.9,0.3&#xD;&#xA;		c3.7,0.8,5.4,5.1,9.1,5.9c7.5,1.3,14.4-3.8,22-2.9c6.5-0.1,12.4,4.3,18.9,2.8c3.7-0.8,5.5-4.9,9.1-5.8c3.6-1,7.2-0.1,10.9-0.3&#xD;&#xA;		c-11.5-9-26.7-9.3-40.6-10.4C177.9,79.4,173.9,80,169.7,80L169.7,80z"/>
	<path class="st33" d="M169.7,80c4.1,0,8.2-0.6,12.3-0.9c13.9,1.1,29.1,1.4,40.6,10.4c-3.6,0.3-7.3-0.7-10.9,0.3&#xD;&#xA;		c-3.7,0.8-5.4,5-9.1,5.8c-6.6,1.5-12.4-2.8-18.9-2.8c-7.6-1-14.4,4.2-22,2.9c-3.7-0.8-5.4-5.1-9.1-5.9c-3.6-1-7.3-0.1-10.9-0.3&#xD;&#xA;		C149.5,83.3,159.8,81,169.7,80L169.7,80z"/>
	<path class="st34" d="M250.8,106.1c4.7-8.6,9.1-17.4,13.7-26c8.5,4.3,14.7,11.7,21.3,18.3c3.5,3.3,5.3,8.2,9.6,10.7v0.1&#xD;&#xA;		c-10,11.4-20,22.7-29.9,34.1c-1.6-7.2-3.5-14.9-9.1-20.2c-2.9-3.2-7.1-4.6-10.5-7C247.6,112.8,249.3,109.5,250.8,106.1 M81.6,97.5&#xD;&#xA;		C87.7,91.7,93.2,84.8,101,81c6.1,11.6,12.1,23.3,18.2,35c-3.5,2.6-7.9,3.9-10.8,7.3c-5.5,5.1-7.2,12.8-8.8,19.9&#xD;&#xA;		c-9.5-10.8-18.9-21.6-28.4-32.4C73.8,105.8,78,101.8,81.6,97.5 M253.3,285.4l0.1,0.1c20.4,13.5,40.6,27.2,61,40.7&#xD;&#xA;		c-1.4,3.4-2.7,6.9-3.9,10.4c-1.4,4.2-4.3,7.7-6.2,11.7c-2.3,4.9-5.6,9.1-8.3,13.7c-17-18.6-34-37.2-51.1-55.7v-0.1&#xD;&#xA;		C247.9,299.3,250.9,292.5,253.3,285.4 M99.3,389.2c10.7-19.5,21.4-38.9,32.1-58.4c6.9,12.4,13.5,26.1,11.8,40.7&#xD;&#xA;		c-1.7,12.2-7.4,23.4-12.9,34.3c-5.3-2.1-10.2-5.3-15.6-7.2C109.3,395.8,104.3,392.4,99.3,389.2z"/>
	<path class="st35" d="M55.9,93.2c0.7,0.8,1.4,1.7,2.2,2.5l0.8,0.9c-5.9,8.9-11.1,18.2-15.6,27.8c-1.8,4-3.2,8.2-5.7,11.8&#xD;&#xA;		c-1-0.7-2-1.4-3-2C40,119.8,47.2,106,55.9,93.2 M18.7,216.5l3.4,0.3v0.2c-0.6,12.9,0.4,25.8-0.4,38.6l-2.8,0.2&#xD;&#xA;		C18.2,242.8,18.1,229.6,18.7,216.5 M341.9,255.2l1.4,0.2l2.9,0.4c-0.7,13.4-2.3,26.7-4.7,39.8l-3.6-1.3l-0.2-0.1&#xD;&#xA;		c1.2-7.5,2.6-15,3.2-22.6C341.3,266.1,342.6,260.7,341.9,255.2 M55.7,376.5c1.1-1.2,2.3-2.5,3.4-3.7c4.1,7.7,10.2,14,16.3,20&#xD;&#xA;		c4.5,4.7,10.1,8.2,14.6,12.9c-0.6,1.4-1.2,2.8-1.8,4.2C75.6,400.7,64.6,389.4,55.7,376.5L55.7,376.5z"/>
	<path class="st36" d="M309.2,93.3c8.8,12.7,15.9,26.5,21.2,41c-1.2,0.8-2.3,1.5-3.4,2.3c-4-9-7.3-18.3-12.6-26.6&#xD;&#xA;		c-2.7-4.4-5-9.1-8.5-13l0.3-0.4C307.2,95.5,308.2,94.4,309.2,93.3L309.2,93.3z"/>
	<path class="st37" d="M58.9,96.7c1,1.1,1.9,2.2,2.9,3.3c1.2,1.3,2.4,2.7,3.6,4.1c-5.5,4.9-8.2,12.1-11.9,18.3&#xD;&#xA;		c-3.6,6-5.6,12.8-8.3,19.2c-2.2-1.6-4.5-3.1-6.7-4.7l-0.9-0.6c2.5-3.6,3.9-7.8,5.7-11.8C47.8,114.8,53,105.5,58.9,96.7&#xD;&#xA;		 M334.6,254.4l2.8,0.3l4.5,0.5c0.7,5.5-0.7,10.9-1,16.4c-0.6,7.6-2,15.1-3.2,22.6c-2.7-1-5.5-2-8.2-3c0.8-1.7,1.4-3.6,1.8-5.4&#xD;&#xA;		C332.9,275.4,333.9,264.9,334.6,254.4L334.6,254.4z"/>
	<path class="st38" d="M169.2,98.2c9.6-2.5,19.8-2.3,29.3,0.8c-1.5,1.4-2.6,3-4,4.4c-8.6,0.5-17.2-0.1-25.8,0.1&#xD;&#xA;		C168.8,101.8,169,100,169.2,98.2 M209.4,118.8c6.7-3,14.2-3.9,21.4-2.5c-2.8,0.1-5.7,0.1-8.5,1c-1.6,2.5-1,5.6-0.6,8.3l-2.2,0.6&#xD;&#xA;		c-1.3,0.4-2.7,0.8-4,1.2c-2,0.7-4,1.5-6,2.4c-0.1-3.3-0.2-6.5-0.2-9.8L209.4,118.8 M112.4,167.1c0.2,6.1-0.9,12.5,1.3,18.4&#xD;&#xA;		c-2.6,11.3-3.4,23-2.3,34.6l2.3-0.2c-4.5,1.1-8.9,2.2-13.4,3.1c-0.7-5.7-0.9-11.4-0.9-17.1c0.2-7.9,1.6-15.8,4.2-23.3&#xD;&#xA;		c1.4-3.9,4.2-7.7,3-12.1C108.5,169.3,110.4,168.1,112.4,167.1L112.4,167.1z"/>
	<path class="st39" d="M302,101.5c1.3-1.5,2.6-3,3.9-4.4c3.5,3.8,5.8,8.6,8.5,13c5.3,8.3,8.6,17.6,12.6,26.6&#xD;&#xA;		c-3.9,2.8-7.9,5.5-11.8,8.2l-2-1c-2.7-7.6-6-14.9-10-21.9c-2.4-4.5-4.6-9.1-7.8-13v-0.1c0.9-1,1.8-2,2.7-3.1&#xD;&#xA;		C299.3,104.4,300.6,102.9,302,101.5L302,101.5z"/>
	<path class="st40" d="M161.6,101.6c2.4-1.4,4.9-2.5,7.5-3.4c-0.2,1.8-0.4,3.6-0.5,5.4c-0.1,2.2,0,4.5,0,6.7&#xD;&#xA;		c-2.2-1.1-4.5-1.6-6.9-1.5C161.6,106.4,161.6,104,161.6,101.6L161.6,101.6z"/>
	<path class="st41" d="M194.5,103.5c1.4-1.4,2.5-3.1,4-4.4c2.2,1,4.4,2.2,6.4,3.5c5.1,3.8,5.2,10.5,4.5,16.2l-0.1,1.2&#xD;&#xA;		c-0.1-0.5-0.4-1.6-0.5-2.1c-0.2-2.7-0.2-5.4-0.3-8.1l-4.4,0.4c-0.4-2-0.7-4-1.1-6c-2-0.4-4-0.8-6-1.1c-0.5,2.1-0.2,4.7-1.7,6.3&#xD;&#xA;		c-8.9,1.1-17.9-0.7-26.7,0.9c0-2.2,0-4.5,0-6.7C177.2,103.3,185.8,104,194.5,103.5L194.5,103.5z"/>
	<path class="st42" d="M125.7,102.2l0.5-1.4c8.2,0.9,16.5,0.1,24.8,0.4c3.4,0.1,7-0.5,10.3,0.6c-3.9,2.7-6.4,7-5.7,11.8&#xD;&#xA;		c0,1.7,0,3.4,0.1,5c-5.7-2.4-11.8-3.4-18-3c-1.6,0.2-3.2,0.5-4.8,0.8C129.2,112.4,126.7,107.5,125.7,102.2L125.7,102.2z"/>
	<path class="st43" d="M161.3,101.8l0.4-0.2c0,2.4,0,4.8,0,7.2v2.1c-1.9,1.3-4,2.3-6.2,2.8C154.8,108.8,157.3,104.5,161.3,101.8&#xD;&#xA;		L161.3,101.8z"/>
	<path class="st44" d="M204.9,102.6c3.5-0.5,7-0.5,10.5,0c5.8-0.4,11.7-0.5,17.6-0.3c2.1,0.1,4.2-0.2,6.3-0.7c0,0.2,0.1,0.5,0.1,0.7&#xD;&#xA;		c-1.1,5.3-3.6,10.2-7.1,14.3l-1.5-0.3c-7.2-1.4-14.7-0.5-21.4,2.5C210.1,113.1,210,106.4,204.9,102.6L204.9,102.6z"/>
	<path class="st45" d="M125.7,102.2c1.1,5.3,3.5,10.3,7.2,14.3c-1.3,0.3-2.6,0.6-3.9,1c-1.8-2.6-3.2-5.5-4-8.7&#xD;&#xA;		C125,106.7,125.3,104.4,125.7,102.2 M232.3,116.5c3.5-4.1,6-9,7.1-14.3c0.5,2.5,0.6,5,0.4,7.5c-0.8,2.8-2,5.4-3.8,7.8&#xD;&#xA;		C234.8,117.1,233.5,116.8,232.3,116.5z"/>
	<path class="st46" d="M197.1,103.1c2,0.3,4,0.7,6,1.1c0.4,2,0.7,4,1.1,6l4.4-0.4c0.2,2.7,0.2,5.4,0.3,8.1l-4.9-0.3&#xD;&#xA;		c-0.3-2.3-0.7-4.7-1.3-6.9c-1.4-1.5-3.7-0.5-5.5-0.7c-0.3,2.4-0.6,4.9-1,7.3c-9.1,1.7-18.5-0.5-27.6,1.1c0-2.7,0-5.4,0.1-8.1&#xD;&#xA;		c8.8-1.6,17.9,0.2,26.7-0.9C196.9,107.8,196.5,105.2,197.1,103.1L197.1,103.1z"/>
	<path class="st47" d="M53.5,122.4c3.7-6.3,6.4-13.4,11.9-18.3l1.6,1.8c0.7,0.8,1.4,1.7,2.2,2.5c-4.4,6.9-9.4,13.6-12.4,21.3&#xD;&#xA;		c-2.5,4.9-4.7,10-7,15.1l-3.2-2.2l-1.4-0.9C47.9,135.2,49.9,128.4,53.5,122.4L53.5,122.4z"/>
	<path class="st48" d="M161.7,108.8c2.4-0.1,4.8,0.5,6.9,1.5c0,2.7,0,5.4-0.1,8.1l-0.1,3c-2.3-0.6-4.6-0.6-6.9-0.1&#xD;&#xA;		c-0.1-3.5,0.1-7,0.2-10.4V108.8L161.7,108.8z"/>
	<path class="st49" d="M197.1,109.9c1.8,0.2,4.1-0.8,5.5,0.7c0.6,2.3,1.1,4.6,1.3,6.9l4.9,0.3c0.1,0.5,0.4,1.6,0.5,2.1&#xD;&#xA;		c0,3.3,0.1,6.5,0.2,9.8c0,0.9,0,2.6,0,3.5c0.1,1.9-0.4,4.1,0.4,5.9c2.6,0.9,5.4,1.6,8.1,2.5c-0.8,1.4-1.6,2.8-2.4,4.1&#xD;&#xA;		c-6.2-1.9-12.4-4.2-19-4c2.9,1.4,5.7,2.9,8.5,4.6c-0.5,5.8,0.4,11.7,0.1,17.5c0.2,5-0.3,10.1,0,15.2c0.2,2.7,0,5.4-0.5,8&#xD;&#xA;		c-12.9-10.3-32.9-9.9-45.3,1c-0.5-8.4,0-16.8-0.4-25.2c-0.4-5.2,0.8-10.5-0.6-15.6c3-2,6.1-3.7,9.4-5.2l-1.9-0.8&#xD;&#xA;		c-0.2-1.3-0.3-2.7-0.5-4c2-0.4,4-0.7,6.1-1c-2.6-4.5-3.6-9.7-3-14.9l0.1-3c9.1-1.6,18.5,0.5,27.6-1.1&#xD;&#xA;		C196.5,114.8,196.8,112.3,197.1,109.9 M193.8,136.3c3.3,0.5,6.7,1,10.1,1.2c0.2-3.3,0-6.6-0.5-9.9c-1.9-0.4-3.9-0.6-5.8-0.5&#xD;&#xA;		C196.2,130.2,195.1,133.3,193.8,136.3L193.8,136.3z"/>
	<path class="st50" d="M265.4,143.2c9.9-11.4,19.9-22.8,29.9-34.1c3.2,3.9,5.5,8.5,7.8,13c4,7,7.3,14.3,10,21.9l2,1&#xD;&#xA;		c-16.3,11.4-32.5,22.9-48.8,34.1c-1.1-2.4-2.9-4.8-2.2-7.6c1.5-9.2,1.9-18.6,1.1-27.9L265.4,143.2 M37.8,198.7&#xD;&#xA;		c0.7-5.3,0.8-10.8,2.7-15.8c17.5,6.8,35,13.6,52.5,20.4l0.6,0.2c-0.4,7.7,0.6,15.3,1.2,22.9l-57.2-7.5l-0.6-0.1&#xD;&#xA;		c-0.5-2.4-1.2-4.9-0.4-7.3C37.9,207.4,36.3,202.9,37.8,198.7 M253.4,285.5c2.3-6.5,4.9-12.9,6.9-19.4c21.1,7.5,42.1,15.3,63.2,22.9&#xD;&#xA;		l0.9,0.3c-1,3.7-1.7,7.5-2,11.4c-0.1,3.4-2.2,6.3-3,9.6c-1.2,5.5-3.6,10.5-4.8,15.9l-0.2-0.1C294,312.7,273.7,299,253.4,285.5"/>
	<path class="st51" d="M155.5,113.7c2.2-0.5,4.3-1.5,6.2-2.8c0,3.5-0.2,7-0.2,10.4v1.2c-0.4,0.9-0.8,1.8-1.2,2.6l-4.6,0.4&#xD;&#xA;		c0-2.2-0.1-4.5-0.1-6.7C155.5,117,155.5,115.4,155.5,113.7L155.5,113.7z"/>
	<path class="st52" d="M119.2,116c0.9,1.6,1.7,3.2,2.5,4.9c-10.3,6.4-13.8,19-15,30.3c-2.4-2.5-4.7-5.1-7-7.7l-0.2-0.3&#xD;&#xA;		c1.6-7.1,3.2-14.7,8.8-19.9C111.3,119.9,115.7,118.7,119.2,116 M243.3,120.9c0.8-1.6,1.7-3.2,2.5-4.8c3.5,2.4,7.6,3.8,10.5,7&#xD;&#xA;		c5.6,5.2,7.5,13,9.1,20.2l-0.2,0.3c-2.3,2.6-4.7,5.2-7,7.9C256.9,140,253.6,127.3,243.3,120.9 M121.3,156.4&#xD;&#xA;		c-0.2-7.9,1.1-16.9,7.3-22.5c2.2,4.3,4.5,8.5,6.6,12.8c-3.3,1.7-6.5,3.8-9.5,6C124.2,153.9,122.7,155.1,121.3,156.4 M229.8,146.7&#xD;&#xA;		c2.2-4.3,4.5-8.6,6.8-12.8c5.9,5.6,7.9,14.4,6.9,22.3c-3.3-3-6.9-5.6-10.7-7.8C231.8,147.8,230.8,147.2,229.8,146.7 M241.3,302&#xD;&#xA;		c2.8-6.4,5.3-12.9,7.8-19.5l4.2,2.8c-2.4,7.1-5.4,13.9-8.4,20.8C243.7,304.8,242.4,303.4,241.3,302 M134.3,325.5&#xD;&#xA;		c5.5,11.8,12.6,23.2,14.7,36.2c2.5,16.9-6.1,32.4-13.3,47c-2-0.5-4.1-1-6.1-1.5c0.2-0.3,0.5-1,0.7-1.3&#xD;&#xA;		c5.5-10.9,11.2-22.1,12.9-34.3c1.7-14.6-4.9-28.3-11.8-40.7c0.1-0.1,0.2-0.4,0.3-0.5C132.5,328.7,133.4,327.1,134.3,325.5&#xD;&#xA;		L134.3,325.5z"/>
	<path class="st53" d="M137.6,115.8c6.1-0.4,12.3,0.6,18,3c0.1,2.2,0.1,4.5,0.1,6.7c0,1.5-0.1,2.9-0.1,4.4c-2-0.8-3.9-1.7-5.9-2.5&#xD;&#xA;		c-1.3-0.5-2.6-0.9-4-1.2c-2.1-0.3-4.2-0.5-6.3-0.6C138.8,122.4,141,118,137.6,115.8L137.6,115.8z"/>
	<path class="st54" d="M128.9,117.6c1.3-0.4,2.6-0.7,3.9-1c1.6-0.3,3.2-0.6,4.8-0.8c3.4,2.3,1.1,6.6,1.8,9.9&#xD;&#xA;		c-4.2,0.9-8.2,2.5-11.9,4.8c0-4.1,0-8.2-0.2-12.3L128.9,117.6 M223.7,220.2c4.6,0.6,9.3,1.3,14,1.5l1.5,0.8h-4.8&#xD;&#xA;		c-1,19.9-4.7,39.5-9.9,58.7c-2.9-3.3-0.6-7.7-1-11.5c-0.8-10,0.8-20.1-0.8-30c-0.5-2.7,1-5.3,0.8-8&#xD;&#xA;		C223.1,227.9,223.2,224,223.7,220.2L223.7,220.2z"/>
	<path class="st55" d="M222.3,117.2c2.7-0.9,5.6-0.8,8.5-1l1.5,0.3c1.3,0.3,2.5,0.6,3.8,1l1.7,0.6c-0.1,4.2-0.1,8.3-0.1,12.5&#xD;&#xA;		c-4.8-3-10.2-5.2-16-5.1C221.3,122.8,220.7,119.7,222.3,117.2L222.3,117.2z"/>
	<path class="st56" d="M327.1,116c7.8,15.5,12.9,32.3,16.8,49.2c6.3,28.7,8,58.2,6.7,87.4c-2,40.4-10.5,81.5-31.4,116.5&#xD;&#xA;		c-15.8,26.6-39.7,48.7-68.5,60.5c-6.1,2.5-12.3,4.6-18.5,6.4c-1.1-6.5-5-11.9-8.3-17.5c3.3-0.7,6.6-1.2,10-1.5&#xD;&#xA;		c1.5,2.6,3,5.2,4.2,7.9c0.6,1.4,1.2,2.8,1.8,4.2c0,0.9-0.1,1.8-0.1,2.7c28.8-8.9,54.1-28.2,71.2-52.9c23-32.3,33.6-71.8,37.3-110.9&#xD;&#xA;		c1.1-7.1,0.5-14.3,1.6-21.4c0.1-10.1,0.6-20.2-0.7-30.2c-0.4-11.3-1.5-22.6-3.3-33.8c-3.7-21.5-9-43-18.4-62.8&#xD;&#xA;		C327.2,118.6,327,117.3,327.1,116 M20.8,301.9c0.6,0.8,1.2,1.8,1.5,2.8c7.8,35.3,23.2,70.2,49.8,95.4c11.8,11.9,26.2,21,41.5,27.6&#xD;&#xA;		c3.7,1.4,7.3,3.5,11.4,3.7c0.1-0.7,0.2-1.5,0.3-2.2s0.6-2.1,0.8-2.8c1.7-4.1,4.2-7.9,6.3-11.9l0.7-1.2c3.6-0.2,7.3-0.3,10.9-0.5&#xD;&#xA;		c-3.5,7.9-9.6,14.5-11.3,23.1c-18.8-5.1-36.4-13.9-51.6-26c-25.7-20.4-43.2-49.7-53.3-80.6C25,320.4,22.1,311.3,20.8,301.9&#xD;&#xA;		L20.8,301.9z"/>
	<path class="st57" d="M121.8,120.8c1.8-1,3.7-1.9,5.6-2.7c0.2,4.1,0.3,8.2,0.2,12.3c-5.9,4.9-8.4,12.7-9.1,20.1&#xD;&#xA;		c-0.9,1.6-1.8,3.8-4,3.7c-3.1,0.2-6.4,0.3-8.2,3.3c0.1-2.2,0.2-4.3,0.4-6.5C108,139.9,111.4,127.2,121.8,120.8L121.8,120.8z"/>
	<path class="st58" d="M237.8,118.1c1.9,0.8,3.7,1.7,5.5,2.7c10.3,6.4,13.7,19.1,15,30.5c0.1,0.6,0.2,1.9,0.3,2.5&#xD;&#xA;		c-3.3,3.4-8.1,0.5-11.8-0.4c-0.4-8.3-2.6-17.1-9-22.8C237.7,126.5,237.7,122.3,237.8,118.1L237.8,118.1z"/>
	<path class="st59" d="M160.3,125.1c0.4-0.9,0.8-1.8,1.2-2.6c0.4,5.2-0.1,10.4,0.2,15.5c-2,0.4-4.1,0.8-6.1,1.2v-5.8&#xD;&#xA;		c0-1.2,0-2.3,0-3.5c0-1.5,0.1-3,0.1-4.4L160.3,125.1z"/>
	<path class="st60" d="M127.6,130.5c3.6-2.3,7.7-3.9,11.9-4.8c2.1,0,4.2,0.2,6.3,0.6c-2.9,0-5.2,1.6-7.4,3.2c-3.6,0.6-7,2.2-9.8,4.5&#xD;&#xA;		c-6.2,5.6-7.5,14.5-7.3,22.5c-0.9,0.9-1.7,1.8-2.6,2.6c-0.2-2.8-0.3-5.6-0.2-8.5C119.2,143.1,121.7,135.4,127.6,130.5L127.6,130.5z"/>
	<path class="st61" d="M219.5,126.2l2.2-0.6c5.7-0.2,11.2,2,16,5.1c6.5,5.6,8.7,14.5,9,22.8c0,1.9-0.1,3.7-0.2,5.6l-3.1-2.8&#xD;&#xA;		c0.9-7.9-1.1-16.6-6.9-22.3c-3-2.5-6.6-4.1-10.5-4.5C224.5,127.3,222,126.1,219.5,126.2L219.5,126.2z"/>
	<path class="st62" d="M138.3,129.4c2.2-1.6,4.5-3.2,7.4-3.2c1.4,0.3,2.7,0.7,4,1.2c-0.1,0.8-0.2,2.5-0.2,3.4&#xD;&#xA;		C145.9,129.6,142.1,129.5,138.3,129.4L138.3,129.4z"/>
	<path class="st63" d="M215.5,127.4c1.3-0.5,2.6-0.9,4-1.2c2.6,0,5,1.2,6.5,3.2c-2.7,0-5.5,0.2-8.2,0.7L215.5,127.4L215.5,127.4z"/>
	<path class="st64" d="M149.7,127.4c2,0.8,3.9,1.6,5.9,2.5c0,1.2,0,2.3,0,3.5c-2-0.9-4-1.9-6.1-2.6&#xD;&#xA;		C149.6,130,149.7,128.3,149.7,127.4z"/>
	<path class="st65" d="M193.7,136.4c1.3-3,2.4-6.2,3.8-9.2c2-0.1,3.9,0.1,5.8,0.5c0.5,3.3,0.7,6.6,0.5,9.9&#xD;&#xA;		C200.4,137.3,197.1,136.9,193.7,136.4L193.7,136.4z"/>
	<path class="st66" d="M209.5,129.8c2-0.8,4-1.6,6-2.4l2.3,2.7c-2.9,0.8-5.6,1.9-8.3,3.1C209.5,132.4,209.5,130.6,209.5,129.8&#xD;&#xA;		L209.5,129.8z"/>
	<path class="st67" d="M34.6,134.3c1,0.7,2,1.3,3,2l0.9,0.6c-1.4,2.9-2.6,5.9-3.6,9.1c-2.5,10.6-5.8,21-7.9,31.7l-0.4-0.2l-3.3-1.4&#xD;&#xA;		C25.6,161.8,29.4,147.8,34.6,134.3z"/>
	<path class="st68" d="M34.9,146c0.9-3.1,2.1-6.1,3.6-9.1c2.2,1.6,4.4,3.2,6.7,4.7l1.4,0.9c-3.7,5.6-4.5,12.4-6.5,18.6&#xD;&#xA;		c-2.6,6.3-2.6,13.3-4.5,19.8c-2.8-1.1-5.7-2.2-8.5-3.3C29.1,167,32.4,156.6,34.9,146 M295.4,370.4c1.2-1.6,2.6-3.1,4.1-4.5&#xD;&#xA;		c0.5,0.5,1.5,1.6,2,2.2c1.4,1.6,2.9,3.2,4.3,4.8c-4.7,7.5-10.7,13.9-16.8,20.3c-4.9,4.1-9.4,8.9-15.1,12c-0.8-1.4-1.5-2.8-2.3-4.1&#xD;&#xA;		c-0.9-1.6-1.7-3.2-2.6-4.8C279.2,389.1,288.5,380.6,295.4,370.4L295.4,370.4z"/>
	<path class="st69" d="M161.7,138c1.2-0.3,2.4-0.5,3.6-0.8c0.1,1.4,0.3,2.7,0.5,4c-7.9,1.3-15.6,3.8-22.7,7.4c0.3-1.8,0-3.6-1-5.1&#xD;&#xA;		c4.4-1.9,9-3.3,13.6-4.4C157.7,138.7,159.7,138.4,161.7,138L161.7,138z"/>
	<path class="st70" d="M217.9,141.6c4.1,1.4,8,3.1,11.8,5.1c1,0.5,2,1.1,2.9,1.6c0.1,2.5,0.2,5,0.1,7.5c-5.3-4.1-11-7.9-17.3-10.1&#xD;&#xA;		C216.4,144.4,217.1,143,217.9,141.6 M246.7,153.4c3.7,0.9,8.5,3.8,11.8,0.4c0.2,4.3,0.1,8.6,0.1,12.9l-5.6-0.3l-2.7-3.3&#xD;&#xA;		c-1.2-1.4-2.4-2.8-3.8-4C246.6,157.1,246.7,155.3,246.7,153.4z"/>
	<path class="st71" d="M46.6,142.6l3.2,2.2L98.6,179l0.2,0.2c-3.6,7.6-4.2,16.1-5.7,24.3c-17.5-6.9-35-13.6-52.5-20.4&#xD;&#xA;		c-1.7-0.6-3.4-1.3-5-2c2-6.5,2-13.5,4.5-19.8C42.1,154.9,42.9,148.1,46.6,142.6 M271.9,203c19.2-7.4,38.4-14.9,57.7-22.4&#xD;&#xA;		c2.6,12.4,2.7,25.1,4.2,37.6c-2,0.3-4.1,0.5-6.1,0.8c-18,2.4-35.9,4.7-53.9,7.1l-3.6,0.2c0.7-7.6,1.8-15.3,1.2-23L271.9,203&#xD;&#xA;		 M39.7,253.7c19-2,38-4.1,57-6.2l2.8-0.3c1.2,6.5,3.5,12.9,5.3,19.2C84,274,63.2,281.5,42.4,289.1l-5,1.8l-1.6,0.6&#xD;&#xA;		c-1.9-9.5-3.6-19.1-3.8-28.8c0.1-2.7-0.4-5.4-1.5-7.9l-0.2-0.2l2.4-0.2C35.1,254.2,37.4,253.9,39.7,253.7 M244.9,306.2&#xD;&#xA;		c17,18.5,34.1,37.1,51,55.7c1.2,1.3,2.4,2.6,3.6,3.9c-1.5,1.4-2.9,2.9-4.1,4.5c-6.9,10.2-16.2,18.7-26.2,25.8c-1.1-2-2.2-4-3.3-6&#xD;&#xA;		c-10.8-19.8-21.8-39.5-32.5-59.4C237.6,322.8,241.4,314.6,244.9,306.2L244.9,306.2z"/>
	<path class="st72" d="M135.2,146.8c2.2-1.2,4.5-2.2,6.8-3.2c1,1.5,1.3,3.3,1,5.1c-5.8,2.8-10.7,7.1-15.4,11.4&#xD;&#xA;		c-0.4-2.5-0.5-5.2-2.1-7.3C128.6,150.6,131.8,148.6,135.2,146.8L135.2,146.8z"/>
	<path class="st73" d="M258.3,151.3c2.3-2.6,4.6-5.2,7-7.9c0.8,9.3,0.4,18.7-1.1,27.9c-0.7,2.8,1,5.2,2.2,7.6l0.1,0.3l-5.2,3.1&#xD;&#xA;		c-0.9-2.6-2.3-5-3-7.7c0-2.7,0.4-5.4,0.4-8c0-4.3,0.1-8.6-0.1-12.9C258.4,153.2,258.3,152,258.3,151.3 M93.6,203.6&#xD;&#xA;		c1.9,0.7,3.9,1.5,5.9,2.2c-0.1,5.7,0.2,11.5,0.9,17.1c0.1,1.5,0.3,2.9,0.5,4.4l-5.5-0.7l-0.5-0.1C94.2,218.9,93.2,211.3,93.6,203.6&#xD;&#xA;		 M250.9,277.3c1.6-4.3,3-8.6,4.4-13l5,1.6l-0.1,0.2c-2,6.5-4.6,12.9-6.8,19.4l-0.1-0.1l-4.2-2.8C249.6,280.8,250.3,279,250.9,277.3&#xD;&#xA;		L250.9,277.3z"/>
	<path class="st74" d="M205.1,146.3c8.6,5.4,15.5,13,20.1,22c7.7,14.9,9.4,31.9,9.5,48.4c-3.1-0.5-6.2-0.8-9.3-1.2&#xD;&#xA;		c-2.2-0.3-4.5-0.7-6.7-1c-0.3-0.9-0.5-1.8-0.8-2.8c-1-9.7-5.8-18.6-13.4-24.7c0.5-2.6,0.7-5.3,0.5-8c-0.3-5.1,0.2-10.1,0-15.2&#xD;&#xA;		C205.4,158,204.5,152.2,205.1,146.3L205.1,146.3z"/>
	<path class="st75" d="M134.7,181.6c3.8-13.6,11.7-26.4,23.7-34.3c1.4,5.1,0.2,10.4,0.6,15.6c0.3,8.4-0.2,16.8,0.4,25.2&#xD;&#xA;		c-6.3,5.5-10.5,13.1-11.9,21.4c-0.3,1.7-0.6,3.3-0.9,5c-1.6,0.3-3.1,0.6-4.7,0.8c-3.7,0.5-7.5,0.8-11.2,1.4&#xD;&#xA;		C130.1,204.9,131.5,193,134.7,181.6L134.7,181.6z"/>
	<path class="st76" d="M232.7,148.4c3.9,2.2,7.5,4.8,10.7,7.8l3.1,2.8c1.4,1.2,2.6,2.6,3.8,4c-1.2,5.7,0.9,11.7-0.6,17.5&#xD;&#xA;		c-3.8-9.2-9.1-18.1-16.9-24.6C232.9,153.4,232.9,150.9,232.7,148.4 M230.4,311.5c7.6-19.3,13.6-39.2,17.9-59.5&#xD;&#xA;		c2.4,3.3,1.3,7.5,1.5,11.3c0.1,4.6-1.3,9.6,1.1,13.9c-0.6,1.8-1.2,3.5-1.9,5.3c-2.5,6.6-5,13.1-7.8,19.5c-3.4,8.1-6.9,16.1-10.8,24&#xD;&#xA;		c-4.5,9.4-9.7,18.4-12.8,28.4l-2.1-0.5c-1,0.6-2,1.1-3,1.7C217.5,340.4,224.8,326.3,230.4,311.5L230.4,311.5z"/>
	<path class="st77" d="M114.5,154.3c2.2,0.1,3.1-2.1,4-3.7c-0.1,2.8-0.1,5.7,0.2,8.5c-1.6,1.6-3.2,3.4-5.4,4.1&#xD;&#xA;		c-2.3,0.4-4.7,0.6-7,0.6c0-2,0-4.1,0.1-6.1C108.1,154.6,111.4,154.5,114.5,154.3L114.5,154.3z"/>
	<path class="st78" d="M121.3,156.4c1.4-1.3,2.9-2.5,4.4-3.6c1.6,2.1,1.7,4.8,2.1,7.3c-6.6,7.2-11,16.1-14,25.4&#xD;&#xA;		c-2.2-5.9-1.1-12.3-1.3-18.4c-2,1-4,2.1-5.9,3.4c-0.2-2.2-0.3-4.4-0.3-6.7c2.3,0,4.7-0.2,7-0.6c2.2-0.7,3.7-2.6,5.4-4.1&#xD;&#xA;		C119.5,158.2,120.3,157.3,121.3,156.4L121.3,156.4z"/>
	<path class="st79" d="M23.3,176.1l3.4,1.4c-1.2,10.3-3.1,20.6-3.5,31c-0.2,2.8-0.5,5.5-1,8.3l-3.4-0.3&#xD;&#xA;		C19.5,202.9,21,189.5,23.3,176.1 M337.8,294.3l3.6,1.3c-2.6,14-6.4,27.7-11.3,41.1l-2.4-1.6l-1.4-0.9&#xD;&#xA;		C331.4,321.3,335.3,307.9,337.8,294.3z"/>
	<path class="st80" d="M338.6,177.1c1-0.3,2-0.5,3-0.7c3,13.1,4,26.6,4.7,40.1l-3.2,0.3c-1.2-7-0.7-14.1-1.9-21.1&#xD;&#xA;		C341,189.4,340.5,183.1,338.6,177.1L338.6,177.1z"/>
	<path class="st81" d="M26.6,177.5l0.4,0.2c2.8,1.1,5.7,2.2,8.5,3.3c1.7,0.7,3.3,1.3,5,2c-2,5-2,10.5-2.7,15.8&#xD;&#xA;		c-1.5,4.2,0.1,8.7-1.2,12.9c-0.8,2.4-0.1,4.9,0.4,7.3l-4.5-0.6c-1.6-0.2-3.2-0.4-4.8-0.6c-1.9-0.2-3.8-0.4-5.6-0.6V217&#xD;&#xA;		c0.5-2.7,0.8-5.5,1-8.3C23.4,198.1,25.3,187.9,26.6,177.5L26.6,177.5z"/>
	<path class="st82" d="M329.5,180.6c3-1.1,6-2.4,9-3.5c2,6,2.5,12.3,2.7,18.5c1.2,7,0.7,14.1,1.9,21.1v0.2c-2.5,0.3-5,0.6-7.5,0.9&#xD;&#xA;		l-1.9,0.3C332.2,205.7,332.1,193,329.5,180.6L329.5,180.6z"/>
	<path class="st83" d="M98.8,179.1l4.9,3.4c-2.6,7.5-4,15.3-4.2,23.3c-2-0.7-3.9-1.5-5.9-2.2l-0.6-0.2&#xD;&#xA;		C94.6,195.2,95.1,186.7,98.8,179.1 M265.5,205.5c1.9-0.8,3.9-1.5,5.8-2.3c0.6,7.7-0.5,15.4-1.2,23l3.6-0.2l-3.9,0.5&#xD;&#xA;		c-1.7,0.2-3.4,0.5-5.1,0.8c-0.1-1.5-0.1-3-0.1-4.6C265.3,217.1,265.6,211.3,265.5,205.5 M99.5,247.1l5.3-0.6c1.5,6,3.2,12,5,18&#xD;&#xA;		l-5,1.9C103,260,100.7,253.7,99.5,247.1 M230.5,326c3.9-7.9,7.4-15.9,10.8-24c1.2,1.4,2.4,2.8,3.6,4.1v0.1&#xD;&#xA;		c-3.6,8.3-7.4,16.5-11.5,24.5v0.1C232.5,329.2,231.5,327.6,230.5,326L230.5,326z"/>
	<path class="st84" d="M159.3,188c12.4-10.9,32.4-11.3,45.3-1c7.6,6.1,12.4,14.9,13.4,24.6c-1.9-0.8-3.7-1.7-5.3-2.9&#xD;&#xA;		c-2.7-12.4-12.6-21.9-25-24.1c-12.5-2.3-25.7,4.3-31.9,15.2c-2.5,4.2-3.5,9-4.2,13.8c-1.2,0.1-2.4,0.3-3.6,0.5&#xD;&#xA;		c-0.2-1.5-0.5-3.1-0.7-4.6C148.7,201.1,152.9,193.5,159.3,188z"/>
	<path class="st85" d="M261.3,182.3l5.2-3.1c3.4,7.5,4.4,15.7,5.4,23.8l-0.6,0.2c-2,0.8-3.9,1.5-5.8,2.3&#xD;&#xA;		C265.4,197.6,263.9,189.8,261.3,182.3z"/>
	<path class="st86" d="M155.7,199.8c6.2-10.9,19.4-17.5,31.9-15.2c12.4,2.2,22.3,11.8,25,24.1c0.1,1.6,0.2,3.2,0.3,4.8&#xD;&#xA;		c-15.1-0.3-30.2-1.1-45.4-0.5c-5.3,0.3-10.7,0.4-16,0.5C152.2,208.8,153.3,204,155.7,199.8L155.7,199.8z"/>
	<path class="st87" d="M212.6,208.7c1.6,1.2,3.4,2.2,5.3,2.9c0.2,0.9,0.5,1.9,0.8,2.8c2.2,0.3,4.4,0.7,6.7,1&#xD;&#xA;		c0.9,1.3,1.8,2.5,2.9,3.6c3,1.4,6.6,0.9,9.4,2.7c-4.7-0.2-9.3-0.9-14-1.5c-1.8-0.2-3.7-0.3-5.5-0.4c-0.7,3.6-1.8,7.1-3.1,10.4&#xD;&#xA;		l-4.7-2c1.4-2.8,2.2-6,2.1-9.1c-10.6-1-21.2-1.4-31.9-1.6c-9.5,0.6-19,0.4-28.5,1.9c0.5,4,1.8,7.9,3.9,11.3&#xD;&#xA;		c-1.5,0.8-3.1,1.5-4.6,2.3c-2.3-4.1-3.5-8.8-4.7-13.3c-6.4,0.4-12.7,1.9-19.1,2.1c3.2-2,7.1-1.7,10.7-2.7c1.8-0.5,2.4-2.5,3.5-3.8&#xD;&#xA;		c1.6-0.2,3.1-0.6,4.7-0.8c0.3-1.7,0.6-3.3,0.9-5c0.2,1.6,0.4,3.1,0.7,4.6c1.2-0.2,2.4-0.4,3.6-0.5c5.3-0.1,10.7-0.2,16-0.5&#xD;&#xA;		c15.1-0.7,30.2,0.2,45.4,0.5C212.9,211.9,212.8,210.3,212.6,208.7L212.6,208.7z"/>
	<path class="st88" d="M130.6,216.6c3.7-0.6,7.5-0.9,11.2-1.4c-1.1,1.3-1.7,3.3-3.5,3.8c-3.5,1-7.5,0.8-10.7,2.7l-1.2,0.6&#xD;&#xA;		c-3.8,0.9-7.7,1.6-11.5,2.2c-4.8,0.5-9.4,1.7-13.8,3.7c0-0.2-0.1-0.8-0.1-1c-0.2-1.4-0.4-2.9-0.5-4.4c4.5-0.9,9-2,13.4-3.1&#xD;&#xA;		C119.3,218.6,124.9,217.6,130.6,216.6L130.6,216.6z"/>
	<path class="st89" d="M225.4,215.4c3.1,0.4,6.2,0.8,9.3,1.2c5.6,0.9,11.3,2,16.9,3.2c4.4,1.1,8.7,2.1,13.1,3c0,1.5,0,3.1,0.1,4.6&#xD;&#xA;		l-0.8,0.1c-4.5-0.8-8.9-2.7-13.5-2.8c-3.8-0.8-7.6-1.4-11.3-2.3l-1.5-0.8c-2.8-1.8-6.4-1.4-9.4-2.7&#xD;&#xA;		C227.2,217.9,226.2,216.7,225.4,215.4L225.4,215.4z"/>
	<path class="st90" d="M343.2,216.8l3.2-0.3c0.5,13.1,0.6,26.2-0.2,39.3l-2.9-0.4c-0.2-12.8,0.1-25.6-0.1-38.4V216.8L343.2,216.8z"/>
	<path class="st91" d="M27.7,217.7c1.6,0.2,3.2,0.4,4.8,0.6c0.1,4.1,0.2,8.2-0.1,12.3c-0.5,8,0.5,15.9,0.3,23.9l-2.4,0.2l-2.4-0.5&#xD;&#xA;		C27.3,242,27.3,229.8,27.7,217.7L27.7,217.7z"/>
	<path class="st92" d="M152.1,219.4c9.4-1.5,19-1.2,28.5-1.9c10.6,0.2,21.3,0.6,31.9,1.6c0,3.2-0.7,6.3-2.1,9.1&#xD;&#xA;		c-5,10-15.2,17.7-26.7,17.8c-11.2,0.7-22-5.9-27.6-15.4C153.9,227.2,152.6,223.4,152.1,219.4z"/>
	<path class="st93" d="M327.6,218.9c2-0.3,4.1-0.5,6.1-0.8l1.9-0.3l1.4,1.2c0.2,3.2,0.9,6.5,0.8,9.7c-1.1,8.6-0.5,17.3-0.5,25.9&#xD;&#xA;		l-2.8-0.3l-7.5-0.8l-2.7-0.3l3.2-0.7c0.5-4.4,0.6-8.8,0.4-13.2C327.9,232.6,328.7,225.7,327.6,218.9L327.6,218.9z"/>
	<path class="st94" d="M335.7,217.9c2.5-0.4,5-0.7,7.5-0.9c0.2,12.8-0.1,25.6,0.1,38.5l-1.4-0.2l-4.5-0.5&#xD;&#xA;		c-0.1-8.6-0.6-17.3,0.5-25.9c0.1-3.3-0.6-6.5-0.8-9.7L335.7,217.9L335.7,217.9z"/>
	<path class="st95" d="M32.5,218.3l4.5,0.6l0.6,0.1c-0.4,7.4,0.1,14.8,0,22.1c0.1,4.1,1.1,8.4-0.3,12.4l2.4,0.2&#xD;&#xA;		c-2.3,0.3-4.6,0.6-7,0.8c0.2-8-0.8-15.9-0.3-23.9C32.6,226.5,32.6,222.4,32.5,218.3L32.5,218.3z"/>
	<path class="st96" d="M127.6,221.8c6.4-0.1,12.7-1.6,19.1-2.1c1.2,4.6,2.4,9.1,4.7,13.3c2.9,6.1,8.4,10.4,14,14&#xD;&#xA;		c-2,4.8,0.3,10-1,14.9c-0.8,3.5,0.1,7.1,0.1,10.7c0.3,5-0.4,10,0.3,14.9c0.3,2.5,3.5,2.4,5,3.8c0.2,1,0.3,2,0.4,3&#xD;&#xA;		c1.5,0.4,3,0.7,4.5,1.1c1.2,3.1,4.2,4.3,7.2,4.9c1,2.8,3.7,3.2,6.2,2.7c1.1-5.4,7.5-7.1,8.7-12.3c4-1.3,3.2-6.1,3.2-9.4&#xD;&#xA;		c-0.4-6,0.4-11.9-0.1-17.9c-0.5-5.5,0.8-11-0.6-16.4c6.6-4,12.9-9.5,15.7-17c1.4-3.4,2.4-6.9,3.1-10.4c1.8,0.1,3.7,0.2,5.5,0.4&#xD;&#xA;		c-0.5,3.8-0.6,7.6-0.2,11.4c0.2,2.7-1.3,5.3-0.8,8c1.6,10,0,20,0.8,30c0.4,3.8-1.8,8.2,1,11.5c-1.6,6.3-3.4,12.5-5.4,18.7l-1.6-1.4&#xD;&#xA;		c-1.7,5.1-5.7,8.9-8.9,13.1c-6.5,7.9-13.2,15.5-21.5,21.5c-13-3.4-24.3-11.7-33.2-21.5c-1.5-2.9-3.9-5-6.4-7&#xD;&#xA;		c-8.6-26.5-15.4-53.9-17-81.8c-1.4-0.1-2.8-0.2-4.2-0.3L127.6,221.8L127.6,221.8z"/>
	<path class="st97" d="M273.7,226.1c18-2.4,35.9-4.7,53.9-7.1c1,6.8,0.2,13.6,0.5,20.5c0.2,4.4,0.1,8.8-0.4,13.2l-3.2,0.7&#xD;&#xA;		c-19.6-2.1-39.1-4.3-58.7-6.4l-0.8-0.1c1-1.2,1.7-2.7,2-4.2c1.2-5.3,2.2-10.7,3-16.1L273.7,226.1 M42.4,289.1&#xD;&#xA;		c20.8-7.6,41.6-15.1,62.4-22.7c2.2,6.4,4.5,12.8,6.8,19.1c-19.3,12.9-38.7,25.8-58,38.7C47.3,313.5,45.9,300.8,42.4,289.1&#xD;&#xA;		 M233.4,330.8v-0.1c10.6,19.9,21.7,39.6,32.5,59.4c-6.3,4.1-13,7.5-19.4,11.4c-3.5,2.2-8,1.9-11.2,4.7l-0.5,0.3&#xD;&#xA;		c-5.7-13.1-13.4-26.2-13.2-40.9C221.8,353,228.1,341.8,233.4,330.8L233.4,330.8z"/>
	<path class="st98" d="M101,228.3c4.4-2,9-3.3,13.8-3.7c-0.9,0.6-1.8,1.2-2.7,1.8c1.4,9,3,17.9,4.7,26.8c-1.6,4,0.2,8.3-0.3,12.5&#xD;&#xA;		c-0.5,3.8,0.6,7.7-0.3,11.4l-1.8,1.2c-1.7-4.5-3.2-9.1-4.6-13.7c-1.9-6-3.5-12-5-18S102.1,234.4,101,228.3L101,228.3z"/>
	<path class="st99" d="M250.4,224.8c4.7,0.1,9,2,13.5,2.8c-0.8,6.3-2.1,12.6-3.6,18.8c-1.5,6-3.2,12-5,18c-1.3,4.4-2.8,8.7-4.4,13&#xD;&#xA;		c-2.4-4.3-1-9.3-1.1-13.9c-0.2-3.8,0.9-8-1.5-11.3c1.6-8.8,3.6-17.5,4.4-26.4L250.4,224.8L250.4,224.8z"/>
	<path class="st100" d="M264.8,227.4c1.7-0.3,3.4-0.6,5.1-0.8c-0.7,5.4-1.8,10.7-3,16.1c-0.3,1.5-1,3-2,4.2l-4.6-0.5&#xD;&#xA;		c1.6-6.2,2.8-12.5,3.6-18.8L264.8,227.4 M104.7,266.4l5-1.9c1.5,4.6,3,9.2,4.6,13.7c0.5,1.4,1,2.9,1.6,4.3l-4.4,3&#xD;&#xA;		C109.3,279.2,107,272.8,104.7,266.4 M230.5,326c1,1.6,1.9,3.2,2.9,4.8c-5.3,11-11.5,22.2-11.7,34.8c-0.2,14.7,7.5,27.8,13.2,40.9&#xD;&#xA;		c-1.6,1.1-3.2,2.2-4.8,3.3c-4.3-7.9-8-16.1-11.1-24.6c-3.8-9.9-4.3-20.8-1.2-30.9C220.8,344.4,226,335.4,230.5,326L230.5,326z"/>
	<path class="st101" d="M183.6,246c11.5-0.1,21.7-7.8,26.7-17.8l4.7,2c-2.8,7.4-9.1,12.9-15.7,17c-10.7,5.4-23.4,5.4-34-0.2&#xD;&#xA;		c-5.6-3.5-11-7.9-14-14c1.5-0.8,3.1-1.6,4.6-2.3C161.6,240.2,172.4,246.8,183.6,246L183.6,246z"/>
	<path class="st102" d="M164.4,261.9c1.3-4.9-1-10.1,1-14.9c10.6,5.5,23.3,5.6,34,0.2c1.5,5.4,0.1,10.9,0.6,16.4&#xD;&#xA;		c0.5,5.9-0.2,11.9,0.1,17.9c-0.1,3.3,0.7,8.1-3.2,9.4c-1.3,5.2-7.6,7-8.7,12.3c-2.5,0.5-5.3,0.1-6.2-2.7c-3-0.6-6-1.9-7.2-4.9&#xD;&#xA;		c-1.5-0.4-3-0.7-4.5-1.1c-0.1-1-0.2-2-0.4-3c-1.5-1.4-4.7-1.3-5-3.8c-0.7-5,0-10-0.3-14.9C164.6,269.1,163.7,265.5,164.4,261.9&#xD;&#xA;		L164.4,261.9z"/>
	<path class="st103" d="M116.8,253.1c4.9,22.4,11.9,44.4,20.7,65.6c5.9,14.9,13.8,29.2,17.1,45l-5.7-2.1c-2.1-13-9.1-24.5-14.7-36.2&#xD;&#xA;		c-3.7-7.7-7.2-15.5-10.5-23.3c-2.7-6.5-5.3-13.1-7.8-19.7c-0.5-1.4-1.1-2.9-1.6-4.3l1.9-1.2c0.9-3.7-0.2-7.6,0.3-11.4&#xD;&#xA;		C117.1,261.4,115.3,257.2,116.8,253.1L116.8,253.1z"/>
	<path class="st104" d="M327.1,253.6l7.5,0.8c-0.7,10.5-1.7,21-3.3,31.4c-0.4,1.9-1,3.7-1.8,5.4l-5.2-1.9l-0.9-0.3&#xD;&#xA;		C324.8,277.2,326.3,265.5,327.1,253.6L327.1,253.6z"/>
	<path class="st105" d="M18.8,255.9l2.8-0.2c-0.4,1.3-0.5,2.7-0.3,4c1.1,11.7,2,23.6,4.6,35.1l0.2,0.5l-2.5,0.1&#xD;&#xA;		C21.1,282.4,19.5,269.1,18.8,255.9L18.8,255.9z"/>
	<path class="st106" d="M21.7,255.7l1.7-0.2c0.2,10.8,1.9,21.5,3.3,32.2c0.4,2.2,1,4.4,1.8,6.5l-2.5,0.6&#xD;&#xA;		c-2.6-11.5-3.5-23.4-4.6-35.1C21.2,258.4,21.3,257,21.7,255.7L21.7,255.7z"/>
	<path class="st107" d="M23.3,255.5c2.4-0.2,4.7-0.5,7.1-0.7c1.1,2.5,1.6,5.2,1.5,7.9c0.2,9.7,1.9,19.3,3.8,28.8&#xD;&#xA;		c-2.5,0.9-4.9,1.9-7.3,2.7c-0.8-2.1-1.4-4.3-1.8-6.5C25.2,277,23.6,266.3,23.3,255.5L23.3,255.5z"/>
	<path class="st108" d="M116,282.5c2.5,6.6,5.1,13.2,7.8,19.7c-1.2,1.3-2.4,2.7-3.6,4c-17,18.4-33.8,36.9-50.7,55.2&#xD;&#xA;		c-1.3,1.4-2.6,2.9-3.9,4.3c-3.5-5-6.7-10.2-9.5-15.6c-4.5-6.4-5.6-14.5-10.4-20.6c0.7-0.5,1.4-0.9,2.1-1.4c1.9-1.3,3.8-2.5,5.7-3.8&#xD;&#xA;		c19.3-12.9,38.6-25.8,58-38.7L116,282.5L116,282.5z"/>
	<path class="st109" d="M37.3,290.9l5-1.8c3.5,11.8,4.9,24.4,11.2,35.1c-1.9,1.3-3.8,2.6-5.7,3.8C42.8,316.2,39.2,303.7,37.3,290.9&#xD;&#xA;		L37.3,290.9z"/>
	<path class="st110" d="M324.3,289.4l5.2,1.9c2.7,1,5.5,2,8.2,3l0.2,0.1c-2.6,13.6-6.4,27-11.5,39.9l-5.5-3.6&#xD;&#xA;		c-2.1-1.4-4.2-2.9-6.4-4.3c1.2-5.4,3.7-10.5,4.8-15.9c0.8-3.3,2.9-6.2,3-9.6C322.6,296.9,323.3,293.1,324.3,289.4L324.3,289.4z"/>
	<path class="st111" d="M35.8,291.5l1.6-0.6c1.9,12.8,5.5,25.3,10.5,37.2c-0.7,0.5-1.4,0.9-2.1,1.4c-2.7,1.8-5.5,3.7-8.2,5.5&#xD;&#xA;		c-5.4-12.7-8.1-26.3-11.5-39.6l-0.2-0.5l2.5-0.6C30.9,293.3,33.3,292.3,35.8,291.5L35.8,291.5z"/>
	<path class="st112" d="M23.6,295.5l2.5-0.1c3.4,13.3,6.1,26.9,11.5,39.6c-0.9,0.6-1.7,1.1-2.6,1.7C30,323.3,26.2,309.6,23.6,295.5&#xD;&#xA;		L23.6,295.5z"/>
	<path class="st113" d="M208.5,311.5c3.2-4.2,7.1-8,8.9-13.1l1.6,1.4c-5.8,19.9-12.5,39.5-16,60c-0.4-1.3-0.7-2.6-1.1-3.9&#xD;&#xA;		c-4.5,1.8-7.9,5.4-12.6,6.7c-1.8,0-3.5,0.8-5.2,1.2c-2.3-0.3-4-2.3-6.3-2.5c-6-0.7-11.3-4-16.7-6.5c-3.5-17-8.9-33.6-13.7-50.3&#xD;&#xA;		c2.5,2,4.9,4.1,6.4,7c8.9,9.9,20.2,18.1,33.2,21.5C195.2,327,202,319.4,208.5,311.5L208.5,311.5z"/>
	<path class="st114" d="M37.5,335c2.7-1.8,5.5-3.7,8.2-5.5c4.8,6.2,5.9,14.2,10.4,20.6c2.8,5.4,5.9,10.7,9.5,15.6l-2.3,2.5&#xD;&#xA;		c-1.4,1.5-2.8,3-4.2,4.5c-1.1,1.2-2.3,2.5-3.4,3.7C47.2,364,40.2,350.7,35,336.6C35.8,336.1,36.7,335.6,37.5,335L37.5,335z"/>
	<path class="st115" d="M320.9,330.5l5.5,3.6l1.4,0.9c-3.7,7.9-7,15.9-11.2,23.5c-2.7,5.5-6.5,10.3-9.3,15.8l-1.4-1.5&#xD;&#xA;		c-1.5-1.6-2.9-3.2-4.3-4.8C309.6,356.5,316.2,343.9,320.9,330.5L320.9,330.5z"/>
	<path class="st116" d="M327.7,335.1l2.4,1.6c-5.2,14.1-12.2,27.6-20.8,40l-2.1-2.3c2.7-5.5,6.5-10.3,9.3-15.8&#xD;&#xA;		C320.7,351,324.1,343,327.7,335.1L327.7,335.1z"/>
	<path class="st117" d="M212.5,355.5c1-0.6,2-1.1,3-1.7l2.1,0.5c-3.1,10.1-2.7,21,1.2,30.9c-2.5,0.1-5.1,0.4-7.5,1&#xD;&#xA;		C208.1,376.3,209.2,365.4,212.5,355.5L212.5,355.5z"/>
	<path class="st118" d="M161.2,354.8c5.4,2.5,10.7,5.8,16.7,6.5c2.3,0.3,4,2.3,6.3,2.5c1.7-0.4,3.4-1.2,5.2-1.2&#xD;&#xA;		c4.7-1.3,8.1-4.9,12.6-6.7c0.4,1.3,0.8,2.6,1.1,3.9c-1.4,8.8-1.4,17.8,0,26.6c1.8,8.9,4.4,17.6,7.8,26.1c-3,0.6-6,0.9-9,0.9&#xD;&#xA;		l-1.4,1.4c-0.4-1.7-0.9-3.4-1.4-5.1c-1-3.3-2-6.6-3.1-9.9c-2.1-5.8-4.4-12-9.4-15.9c-2.8-2.3-7.2-1.4-9.5,1.2&#xD;&#xA;		c-3.7,3.9-5.8,9-7.7,14c-1.6,4.6-2.9,9.2-3.7,14l-0.9,0.9l0.2-0.7c-3.5,1.8-7.4-1.1-11,0.4c3.5-8.7,6.2-17.7,8.2-26.9&#xD;&#xA;		C164,376.1,163.2,365.3,161.2,354.8L161.2,354.8z"/>
	<path class="st119" d="M65.6,365.8c1.3-1.4,2.6-2.9,3.9-4.3c0.2,3.9,4.5,5.2,5.8,8.6c6.8,7.8,13.9,16,23.2,20.9l-1.5,2.8&#xD;&#xA;		c-0.9,1.6-1.7,3.1-2.6,4.7c-0.2,0.4-0.6,1.1-0.8,1.4c-2.6-1.2-5.1-2.8-7.2-4.7c-4.8-5.2-10.6-9.4-14.9-15.1&#xD;&#xA;		c-2.8-3.8-7.4-6.7-8.2-11.6L65.6,365.8L65.6,365.8z"/>
	<path class="st120" d="M149,361.7l5.7,2.1c1.3,6.5,1.2,13.3-0.3,19.8c-2.3,10.1-5.8,20-10.2,29.4c-3.6,0.2-7.3,0.3-10.9,0.5&#xD;&#xA;		c0.8-1.6,1.7-3.1,2.5-4.7C142.9,394.1,151.4,378.6,149,361.7L149,361.7z"/>
	<path class="st121" d="M305.9,372.8l1.4,1.5l2.1,2.3c-8.8,12.9-19.8,24.2-32.5,33.4l-1.5-2.5c-0.4-0.7-0.8-1.4-1.2-2.2L274,405&#xD;&#xA;		c5.6-3.2,10.1-7.9,15.1-12C295.1,386.7,301.2,380.2,305.9,372.8z"/>
	<path class="st122" d="M177,385c2.3-2.6,6.7-3.5,9.5-1.2c5,3.9,7.2,10.1,9.4,15.9c-5.4,1.4-10.8-0.4-16.2,0.1&#xD;&#xA;		c-3.5,0.4-7,0.1-10.3-0.8C171.3,394,173.3,388.9,177,385L177,385z"/>
	<path class="st123" d="M211.3,386.2c2.5-0.6,5-0.9,7.5-1c3.1,8.4,6.9,16.7,11.1,24.6c0.9,1.7,1.8,3.5,2.8,5.2&#xD;&#xA;		c0.4,0.7,0.8,1.3,1.1,2c-3.4,0.3-6.7,0.8-10,1.5C218.2,408.4,214.4,397.4,211.3,386.2L211.3,386.2z"/>
	<path class="st124" d="M98.4,390.9l0.9-1.7c5,3.2,10,6.5,15.3,9.4c5.4,1.9,10.3,5.1,15.6,7.2c-0.2,0.3-0.5,1-0.7,1.3l-1.9,3.7&#xD;&#xA;		c-10.8-4.6-22.1-9-30.8-17.1L98.4,390.9L98.4,390.9z"/>
	<path class="st125" d="M246.4,401.6c6.4-3.9,13.1-7.3,19.4-11.4c1.1,2,2.2,4,3.3,6c0.9,1.6,1.7,3.2,2.6,4.8&#xD;&#xA;		c-9.7,6.5-20,12-30.7,16.5c-0.9-1.6-1.9-3.2-2.7-4.9c-1.1-2.1-2.1-4.2-3-6.4C238.5,403.5,243,403.7,246.4,401.6L246.4,401.6z"/>
	<path class="st126" d="M94.3,398.4c0.9-1.6,1.7-3.1,2.6-4.7c8.7,8.1,20,12.5,30.8,17.1l-0.9,1.6c-0.5,1-1.1,2-1.6,3&#xD;&#xA;		c-4.6-2.8-9.9-4.1-14.5-6.8C105,405.5,99.3,402.4,94.3,398.4L94.3,398.4z"/>
	<path class="st127" d="M93.5,399.8c0.2-0.4,0.6-1.1,0.8-1.4c5,4.1,10.7,7.1,16.3,10.3c4.7,2.6,10,4,14.5,6.8&#xD;&#xA;		c-1.4,2.7-2.9,5.3-4.5,7.9c-9-3-17.1-7.9-25.2-12.7c-2.1-1.2-3.9-2.8-5.3-4.7C91.3,403.9,92.4,401.8,93.5,399.8L93.5,399.8z"/>
	<path class="st128" d="M165.6,412.9c0.9-4.8,2.1-9.4,3.7-14c3.4,0.9,6.9,1.2,10.3,0.8c5.4-0.5,10.9,1.2,16.2-0.1&#xD;&#xA;		c1.2,3.2,2.2,6.6,3.1,9.9c-0.4,1.3-0.2,3.8-2.3,3.2c-4.6-0.4-9.1,0.3-13.7-0.1C177.1,412.8,171.3,411.9,165.6,412.9L165.6,412.9z"/>
	<path class="st129" d="M241.1,417.5c10.7-4.5,21-10,30.7-16.5c0.8,1.4,1.5,2.7,2.3,4.1l0.2,0.3c-10,6.1-20,12.4-31,16.4&#xD;&#xA;		C242.5,420.4,241.8,418.9,241.1,417.5L241.1,417.5z"/>
	<path class="st130" d="M90,405.8l0.2,0.2c1.4,1.9,3.2,3.5,5.3,4.7c8.1,4.8,16.2,9.7,25.2,12.7c-0.4,1.2-0.9,2.5-1.3,3.7&#xD;&#xA;		c-11.1-4.3-21.6-10-31.2-17.1C88.8,408.6,89.4,407.2,90,405.8L90,405.8z"/>
	<path class="st131" d="M274.2,405.4c0.4,0.7,0.8,1.4,1.2,2.2c-9.8,6.5-20,12.4-31.1,16.5l-0.5-0.9l-0.6-1.4&#xD;&#xA;		C254.2,417.8,264.2,411.5,274.2,405.4L274.2,405.4z"/>
	<path class="st132" d="M129.5,407.1c2,0.5,4.1,1,6.1,1.5c-0.8,1.6-1.6,3.1-2.5,4.7l-0.7,1.2c-1.8-0.9-3.8-1.6-5.7-2.2l0.9-1.6&#xD;&#xA;		L129.5,407.1L129.5,407.1z"/>
	<path class="st133" d="M234.8,406.6l0.5-0.3c1,2.2,1.9,4.3,3,6.4c-1.8,0.9-3.7,1.7-5.6,2.4c-0.9-1.7-1.9-3.4-2.8-5.2&#xD;&#xA;		C231.6,408.7,233.2,407.6,234.8,406.6L234.8,406.6z"/>
	<path class="st134" d="M244.4,424.1c11-4.1,21.2-10.1,31.1-16.5l1.5,2.5c-9.4,6.7-19.5,12.3-30.3,16.6&#xD;&#xA;		C245.8,425.8,245.1,424.9,244.4,424.1L244.4,424.1z"/>
	<path class="st135" d="M199,409.5c0.5,1.7,0.9,3.4,1.4,5.1c1,4,1.6,8,2.4,12c0.4,2.5,0.6,5,0.7,7.5c-9.5,1.6-19.2,1.1-28.8,1.1&#xD;&#xA;		c-4.3-0.2-8.6-0.6-12.8-1.2c0.3-6.8,1.3-13.6,2.9-20.2l0.9-0.9c5.8-1.1,11.6-0.1,17.4-0.3c4.6,0.5,9.1-0.2,13.7,0.1&#xD;&#xA;		C198.8,413.3,198.6,410.8,199,409.5L199,409.5z"/>
	<path class="st136" d="M126.8,412.5c2,0.6,3.9,1.3,5.7,2.2c-2.1,4-4.6,7.7-6.3,11.9c-1.7-1.3-3.5-2.3-5.5-3.1&#xD;&#xA;		c1.5-2.6,3-5.3,4.5-7.9C125.7,414.5,126.2,413.5,126.8,412.5L126.8,412.5z"/>
	<path class="st137" d="M153.8,413.6c3.7-1.5,7.5,1.4,11-0.4l-0.2,0.7c-1.6,6.6-2.5,13.4-2.9,20.2c4.2,0.6,8.5,1,12.8,1.2&#xD;&#xA;		c9.6-0.1,19.3,0.4,28.8-1.1c-0.1-2.5-0.3-5-0.7-7.5c4.9,0,9.9,0,14.8,0c2.2,3.7,3.6,7.8,4.3,12c-26,4.9-52.6,4.9-78.6,0&#xD;&#xA;		C144.2,429.4,150.9,422.3,153.8,413.6L153.8,413.6z"/>
	<path class="st138" d="M201.8,413.2c3,0,6-0.3,9-0.9c1.9,4.9,4.2,9.7,6.8,14.3c-5,0-9.9,0-14.8,0c-0.7-4-1.4-8.1-2.4-12&#xD;&#xA;		L201.8,413.2L201.8,413.2z"/>
	<path class="st139" d="M238.3,412.6c0.9,1.6,1.8,3.2,2.7,4.9c0.8,1.4,1.5,2.8,2.1,4.2l0.6,1.4L238,425c-1.3-2.7-2.8-5.3-4.2-7.9&#xD;&#xA;		c-0.4-0.7-0.8-1.3-1.1-2C234.6,414.4,236.5,413.6,238.3,412.6L238.3,412.6z"/>
	<path class="st140" d="M120.7,423.4c2,0.7,3.9,1.8,5.5,3.1c-0.2,0.7-0.6,2.1-0.8,2.8c-2-0.7-4-1.4-6-2.1&#xD;&#xA;		C119.8,425.8,120.2,424.6,120.7,423.4z"/>
	<path class="st141" d="M238.1,425l5.7-1.8l0.5,0.9c0.7,0.9,1.5,1.7,2.3,2.6c-2.2,0.9-4.4,1.7-6.7,2.5&#xD;&#xA;		C239.4,427.8,238.8,426.4,238.1,425L238.1,425z"/>
</g>
<rect x="-212.6" y="-20.9" class="st142" width="800" height="800"/>
</svg>