<?xml version="1.0" encoding="utf-8"?>
<svg xmlns="http://www.w3.org/2000/svg" xmlns:xlink="http://www.w3.org/1999/xlink" version="1.1" id="Layer_1" x="0px" y="0px" viewBox="0 0 22 22" style="enable-background:new 0 0 22 22;">
<style type="text/css">
	.st0{opacity:0.87;}
	.st1{fill:#005335;}
	.st2{fill:#FFFFFF;}
	.st3{fill:#D5622A;}
</style>
<g class="st0">
	<path class="st1" d="M11,0c6.1,0,11,4.9,11,11c0,6.1-4.9,11-11,11C5,22,0,17,0,11C0,4.9,5,0,11,0z"/>
	<path class="st2" d="M11,0.3c5.9,0,10.7,4.8,10.7,10.7c0,5.9-4.8,10.7-10.7,10.7C5.1,21.6,0.4,16.9,0.4,11C0.4,5.1,5.1,0.3,11,0.3z"/>
	<path class="st1" d="M11,0.6c5.7,0,10.4,4.7,10.4,10.4c0,5.7-4.7,10.4-10.4,10.4C5.3,21.4,0.6,16.7,0.6,11C0.6,5.2,5.3,0.6,11,0.6z"/>
	<path class="st2" d="M11,4.4c3.6,0,6.6,3,6.6,6.6c0,3.7-3,6.6-6.6,6.6c-3.7,0-6.6-3-6.6-6.6C4.4,7.3,7.4,4.4,11,4.4z"/>
	<path class="st3" d="M11,4.6c3.5,0,6.4,2.9,6.4,6.4c0,3.5-2.9,6.4-6.4,6.4c-3.5,0-6.4-2.9-6.4-6.4C4.6,7.5,7.5,4.6,11,4.6z"/>
	<path class="st2" d="M6.5,13.8l3-2.7l0-1.3l1.3,2l-4.3,3.9"/>
	<path class="st2" d="M9,6.6l0.4,0l2.4-2.1l0.9,0.2L13.5,5L8.8,9"/>
	<path class="st2" d="M10.6,8l3.3-2.9l0.7,0.3l0.6,0.5l-3.9,3.4"/>
	<path class="st2" d="M8.1,14.9l3.4-2.9l0.6,1.4l-3.9,3.4"/>
	<path class="st2" d="M10.6,12.1c-0.3-2.8,2.2-3.9,4.4-2.6l0,0.8h-0.2L14.7,10c0,0-0.1-0.4-1-0.4c-1,0-1.7,1.1-1.7,1.9&#xD;&#xA;		c0,0.9,0.3,2.4,1.5,2.4c0.1,0,0.2,0,0.4-0.1v-1.2c-0.1-0.1-0.2-0.3-0.4-0.3v-0.2h2.1v0.2c-0.2,0.1-0.3,0.2-0.3,0.7v1.1&#xD;&#xA;		C12.7,15.1,10.9,14.2,10.6,12.1z"/>
	<path class="st3" d="M7.7,12.5V6.7h2c1.5,0,2,0.9,2,1.6c0,1-0.7,1.3-1.2,1.4l1.3,2.3l0.2,0.2l0.1,0.3c-0.6,0-1.1,0-1.8,0L9.1,9.8&#xD;&#xA;		v1.4"/>
	<path class="st2" d="M9.2,9.6c0.6,0,1.2-0.1,1.2-1c0-1.1-0.8-1-1.2-1"/>
	<path class="st2" d="M20,12.6h0.4c0.1-0.1,0.1-0.2,0.1-0.5c0-0.3-0.1-0.7-0.5-0.7c-0.3,0-0.5,0.2-0.7,0.5c-0.2,0.3-0.2,0.4-0.4,0.5&#xD;&#xA;		c-0.3,0.1-0.4-0.2-0.4-0.5c0-0.2,0.1-0.4,0.4-0.5l0-0.1c-0.1,0-0.2,0-0.4,0c-0.1,0.1-0.2,0.2-0.2,0.5c0,0.5,0.1,0.8,0.7,0.9&#xD;&#xA;		c0.4,0,0.4-0.2,0.7-0.5c0.2-0.3,0.2-0.3,0.4-0.4c0.2-0.1,0.4,0.1,0.4,0.4C20.4,12.3,20.3,12.4,20,12.6"/>
	<path class="st2" d="M19.4,10.5v0.3c0.2,0,0.3,0,0.5-0.1c0.6-0.2,0.8-0.8,0.6-1.5c-0.2-0.5-0.6-0.8-1.1-0.9v0.3&#xD;&#xA;		c0.4-0.1,0.8,0.1,0.9,0.6c0.2,0.6-0.1,1-0.7,1.2C19.6,10.5,19.5,10.5,19.4,10.5z"/>
	<path class="st2" d="M19.4,8.7V8.4c-0.1,0-0.3,0-0.4,0.1c-0.7,0.2-0.9,0.9-0.7,1.5c0.2,0.5,0.6,0.8,1.1,0.9v-0.3&#xD;&#xA;		c-0.4,0-0.8-0.1-0.9-0.6c-0.2-0.6,0.3-1,0.8-1.2C19.3,8.8,19.4,8.7,19.4,8.7z"/>
	<path class="st2" d="M17.8,4.4c0.2,0.2,0.5,0.5,0.2,0.8c-0.3,0.2-0.6,0-0.8-0.2l0,0C17.1,5.4,17,6,17,6.4c0,0.1,0.1,0.1,0.2,0.1&#xD;&#xA;		c0,0.1,0.1,0.1,0.1,0.2c0.1,0,0.1,0,0.1-0.1c0-0.1,0-0.1,0-0.2l0.2-1c0-0.1,0-0.1,0.1-0.1c0.3,0.1,0.6,0.2,0.8,0&#xD;&#xA;		c0.2-0.1,0.3-0.4-0.1-0.8c-0.1-0.1-0.2-0.3-0.4-0.4c-0.1-0.1-0.1-0.2-0.2-0.3L17.5,4c0,0,0.1,0.1,0,0.1c0,0-0.1,0.1-0.2,0.2l-1,1&#xD;&#xA;		c-0.1,0-0.2,0.1-0.2,0.1c0,0-0.1,0-0.1,0L16,5.4c0.1,0.1,0.1,0.1,0.2,0.2c0.1,0.1,0.1,0.1,0.2,0.3l0.1-0.1c0,0-0.1-0.1,0-0.1&#xD;&#xA;		c0,0,0.1-0.1,0.1-0.2"/>
	<path class="st2" d="M19.4,6.5c0.1,0.3,0.4,0.6,0,0.8C19,7.5,18.8,7.2,18.7,7h0c-0.2,0.3-0.5,0.8-0.7,1.3c0,0.1,0.1,0.1,0.1,0.2&#xD;&#xA;		c0,0.1,0,0.1,0.1,0.2c0,0.1,0.1,0,0.1,0c0-0.1,0-0.1,0-0.2l0.4-0.9c0-0.1,0-0.1,0.1-0.1c0.2,0.2,0.5,0.4,0.8,0.2&#xD;&#xA;		c0.2-0.1,0.4-0.3,0.2-0.8c-0.1-0.2-0.2-0.3-0.2-0.5c-0.1-0.2-0.1-0.2-0.1-0.3l-0.1,0c0,0,0,0.1,0,0.1c0,0-0.1,0.1-0.2,0.1l-1.3,0.6&#xD;&#xA;		C17.7,7,17.6,7,17.6,7c0,0-0.1,0-0.1-0.1l-0.1,0c0.1,0.1,0.1,0.1,0.1,0.3c0,0.1,0.1,0.2,0.1,0.3l0.1,0c0,0,0-0.1,0-0.2&#xD;&#xA;		c0,0,0.1-0.1,0.2-0.1"/>
	<path class="st2" d="M15.5,4.9V5c0,0,0.1,0,0.1,0c0.1,0.1,0.2,0.1,0.3,0.2c0,0,0.1-0.1,0-0.1c0,0-0.1-0.1-0.1-0.1&#xD;&#xA;		c0-0.1,0-0.2,0-0.2l0.3-1.9l-0.1,0c-0.2,0.1-0.4,0.3-0.6,0.4v0.2l0.3-0.2L15.7,4l-0.2-0.1V4l0.2,0.1l-0.1,0.5&#xD;&#xA;		C15.6,4.7,15.5,4.8,15.5,4.9C15.5,4.9,15.5,4.9,15.5,4.9z"/>
	<path class="st2" d="M15.5,3.4l0-0.2L14.4,4c0,0-0.2,0.1-0.2,0c0,0-0.1,0-0.1,0l0,0.1c0.1,0.1,0.2,0.1,0.3,0.2c0.1,0,0.1,0,0.2,0.1&#xD;&#xA;		c0,0,0.1-0.1,0-0.1c0,0-0.1,0-0.1-0.1l0.6-0.4L15.5,4V3.9l-0.3-0.2"/>
	<path class="st2" d="M15.5,5V4.9c0,0-0.1,0-0.1,0c-0.1,0-0.1,0-0.1,0.1C15.4,5,15.4,5,15.5,5z"/>
	<path class="st2" d="M13.7,3.6c0,0,0,0.1,0,0.1c-0.1,0-0.2,0-0.4,0c-0.7-0.1-0.8-0.6-0.7-1.2c0.1-0.5,0.5-0.8,1.1-0.7&#xD;&#xA;		c0.4,0.1,0.5,0.3,0.5,0.5h0.1l0-0.4c-0.1-0.1-0.2-0.1-0.5-0.2c-0.7-0.2-1.4,0.1-1.6,0.7c-0.2,0.8,0.1,1.2,1,1.4&#xD;&#xA;		c0.2,0.1,0.5,0.1,0.8,0.1l0.1-0.5c0-0.1,0.1-0.1,0.1-0.1h0.1V3.3c-0.1,0-0.3-0.1-0.4-0.1c-0.1,0-0.1,0-0.2-0.1l0,0.1&#xD;&#xA;		c0.1,0,0.2,0.1,0.2,0.2"/>
	<path class="st2" d="M2.7,10.2v0.3c0.5,0,0.9-0.3,1.1-0.8C4,9.1,3.7,8.3,3.1,8.1C2.9,8.1,2.8,8.1,2.7,8v0.3c0.1,0,0.2,0,0.4,0.1&#xD;&#xA;		c0.5,0.2,0.8,0.6,0.5,1.2C3.4,10.1,3.1,10.2,2.7,10.2z"/>
	<path class="st2" d="M2.7,8.4V8C2.2,8,1.8,8.3,1.6,8.8c-0.3,0.7,0,1.4,0.6,1.6c0.1,0.1,0.3,0.1,0.4,0.1v-0.3&#xD;&#xA;		c-0.1,0-0.3-0.1-0.4-0.1C1.8,9.8,1.6,9.5,1.8,8.9C2,8.5,2.3,8.3,2.7,8.4z"/>
	<path class="st2" d="M1.7,12.2c0-0.3-0.1-0.7,0.3-0.8c0.3,0,0.5,0.3,0.5,0.6l0,0c0.3-0.2,0.7-0.6,1.1-0.9c0-0.1,0-0.1,0-0.2&#xD;&#xA;		c0-0.1,0-0.1,0-0.2c0-0.1-0.1-0.1-0.1,0c0,0.1-0.1,0.1-0.1,0.2l-0.7,0.7c0,0.1-0.1,0.1-0.1,0.1c-0.1-0.3-0.3-0.5-0.6-0.5&#xD;&#xA;		c-0.2,0-0.5,0.2-0.4,0.7c0,0.2,0,0.4,0,0.5c0,0.2,0,0.2,0,0.4h0.1c0,0,0-0.1,0-0.1c0,0,0.2,0,0.2,0l1.4-0.1c0.1,0,0.2,0,0.2,0&#xD;&#xA;		c0,0,0.1,0.1,0.1,0.1h0.1c0-0.2,0-0.1,0-0.3c0-0.1,0-0.2,0-0.4l-0.1,0c0,0,0,0.1,0,0.1c0,0-0.1,0-0.2,0"/>
	<path class="st2" d="M4.7,5.7v0.4l0.1,0.2c0,0,0,0.2,0,0.2c0,0,0,0.1,0,0.1l0,0C4.9,6.7,5,6.6,5,6.5c0.1-0.1,0.1-0.1,0.2-0.2&#xD;&#xA;		c0,0,0-0.1-0.1,0c0,0-0.1,0.1-0.1,0"/>
	<path class="st2" d="M4.7,5.4v0.2l0.5-0.5l0.5,0.2c0,0,0.2,0.1,0.2,0.1c0,0,0,0.1,0,0.1c0,0.1,0,0.1,0,0.1C6,5.6,6,5.5,6.1,5.4&#xD;&#xA;		c0.1-0.1,0.2-0.2,0.3-0.3c0,0,0-0.1-0.1,0c0,0-0.1,0-0.2,0c0,0-0.2,0-0.2-0.1L4.7,4.6V5l0.4,0.1"/>
	<path class="st2" d="M4.7,5V4.6L4.1,4.4L4,4.5c0.1,0.2,0.2,0.5,0.3,0.7l0.4,1V5.4L4.6,5.5L4.3,4.8"/>
	<path class="st2" d="M9.5,3.6v0.1c0,0,0,0,0,0c0.3-0.1,0.5-0.2,0.6-0.3c0.3-0.2,0.5-0.7,0.4-1.2C10.4,1.7,10,1.4,9.5,1.5v0.2&#xD;&#xA;		c0.3,0,0.6,0.2,0.7,0.7c0.1,0.4,0,0.8-0.2,1C9.8,3.5,9.6,3.5,9.5,3.6z"/>
	<path class="st2" d="M9.5,1.7V1.5c-0.1,0-0.2,0-0.2,0c-0.1,0-0.4,0.1-0.6,0.2c-0.2,0-0.3,0.1-0.5,0.1l0,0.1c0.1,0,0.1,0,0.1,0&#xD;&#xA;		c0,0,0,0.1,0.1,0.2l0.4,1.4c0,0.1,0,0.2,0,0.2L8.7,3.9l0,0.1c0.1,0,0.3-0.1,0.4-0.1c0.1,0,0.3,0,0.4-0.1V3.6h0&#xD;&#xA;		c-0.1,0-0.3,0.1-0.4-0.1L8.7,2c0-0.1,0.2-0.2,0.3-0.3C9.1,1.7,9.3,1.7,9.5,1.7z"/>
	<path class="st2" d="M6.5,4.6c0,0,0.1,0.2,0.1,0.2c0,0-0.1,0.1-0.1,0.1l0,0.1C6.7,5,6.7,5,6.8,4.9C6.9,4.9,6.9,4.8,7,4.8l0-0.1&#xD;&#xA;		c0,0-0.2,0-0.2,0c0,0-0.1-0.1-0.1-0.2L6,3.4L8,4.1c0,0,0.1,0,0.1,0C8.3,4.2,8.2,4,8.2,4L7.4,2.5C7.3,2.4,7.3,2.3,7.3,2.3&#xD;&#xA;		c0,0,0.1-0.1,0.1-0.1l0-0.1C7.2,2.2,7.2,2.2,7.1,2.3C7,2.3,7,2.3,6.9,2.4l0,0.1c0.1,0,0.2-0.1,0.2,0c0,0,0.1,0.1,0.1,0.2l0.5,1&#xD;&#xA;		L5.9,2.9C5.8,3,5.8,3,5.7,3C5.6,3.1,5.5,3.2,5.4,3.2l0,0.1c0.1,0,0.2-0.1,0.3,0c0,0,0.1,0.1,0.1,0.1"/>
	<path class="st2" d="M2.8,6.9C2.6,6.9,2.6,6.8,2.6,6.8c0-0.1,0-0.1,0-0.2l-0.1,0C2.4,6.7,2.4,6.8,2.3,6.9C2.3,7,2.3,7,2.2,7.2&#xD;&#xA;		l0.1,0c0-0.1,0-0.1,0.1-0.1c0,0,0.1,0,0.2,0.1l1.3,0.6C4,7.9,4.1,8,4.1,8l0,0.1l0.1,0c0-0.1,0.1-0.1,0.1-0.2&#xD;&#xA;		c0.1-0.2,0.1-0.4,0.3-0.6C4.7,7.1,4.7,7.1,4.6,7C4.6,6.8,4.5,6.7,4.4,6.6c-0.1,0-0.1,0.1,0,0.2c0.1,0.2,0,0.5-0.1,0.7&#xD;&#xA;		c0,0.1-0.1,0.2-0.3,0.1"/>
	<path class="st2" d="M11.1,19.9L11.1,19.9C11.1,19.9,11.2,19.9,11.1,19.9C11.2,19.9,11.1,19.9,11.1,19.9z"/>
	<path class="st2" d="M11.1,19.3v0.3c0,0.1,0.1,0.1,0.1,0.1c0.1,0.1,0.2,0.2,0.4,0.2c0.1,0-0.1-0.1-0.2-0.2&#xD;&#xA;		c-0.1-0.1-0.1-0.2-0.1-0.2C11.3,19.6,11.2,19.4,11.1,19.3c0.1,0,0.2-0.1,0.3-0.1c0,0,0.1-0.1,0.1-0.2c0-0.1,0-0.1-0.1-0.2&#xD;&#xA;		c-0.1,0-0.1-0.1-0.2-0.1v0.1c0,0,0.1,0,0.1,0c0,0,0.1,0.1,0.1,0.2C11.3,19.2,11.2,19.3,11.1,19.3z"/>
	<path class="st2" d="M11.1,18.9L11.1,18.9C11.1,18.8,11.1,18.8,11.1,18.9c-0.1-0.1-0.1-0.1-0.2-0.1h-0.2c0,0-0.1,0-0.1,0&#xD;&#xA;		c0,0,0,0,0,0l0,0c0,0,0,0,0,0h0c0,0,0,0,0,0c0,0,0,0,0,0s0,0,0,0c0,0,0,0,0,0.1v0.7c0,0,0,0.1,0,0.1c0,0,0,0,0,0s0,0,0,0&#xD;&#xA;		c0,0,0,0,0,0c0,0,0,0,0,0c0,0,0,0,0,0s0,0,0,0h0c0,0,0.2,0,0.2,0H11c0,0,0.1,0,0.1,0l0,0v0h0c0,0-0.1,0-0.1,0c0,0,0,0,0,0v-0.3&#xD;&#xA;		c0,0,0-0.1,0-0.1c0,0,0.1,0.1,0.1,0.2v-0.3H11c0,0,0,0,0,0c0,0,0,0,0,0v-0.4c0,0,0,0,0,0C11,18.9,11,18.9,11.1,18.9&#xD;&#xA;		C11.1,18.9,11.1,18.9,11.1,18.9z"/>
	<path class="st2" d="M5.9,17.6v0.1c0,0,0.1,0,0.2,0c0,0,0.1-0.1,0.1-0.1c0.1-0.1,0.1-0.1,0.1-0.2c0-0.1-0.1-0.2-0.1-0.2&#xD;&#xA;		c0,0-0.1-0.1-0.1-0.1C6,17,5.9,17,5.9,17c0,0,0,0,0,0v0.2l0,0c0,0,0,0,0,0c0,0,0,0,0,0c0.1,0.1,0.1,0.1,0.1,0.2&#xD;&#xA;		c0,0.1,0,0.1-0.1,0.2C6,17.6,5.9,17.6,5.9,17.6z"/>
	<path class="st2" d="M5.9,17.2V17c0,0,0,0,0,0c0,0,0,0,0,0h0c0,0,0,0,0,0s0,0,0,0c0,0,0,0,0,0v0c0,0,0,0,0,0.1c0,0,0,0-0.1,0.1&#xD;&#xA;		l-0.5,0.5c0,0-0.1,0-0.1,0.1l0,0h0c0,0,0,0,0,0c0,0,0,0,0,0v0c0,0,0,0,0,0h0c0,0,0.1,0.1,0.2,0.1c0,0,0.1,0.1,0.1,0.1c0,0,0,0,0,0&#xD;&#xA;		c0,0,0,0,0,0s0,0,0,0v0c0,0,0,0,0,0c0,0,0-0.1,0-0.1v-0.1c0,0,0.1-0.1,0.1-0.1l0.1-0.1c0,0,0.1-0.1,0.1-0.1&#xD;&#xA;		c0.1,0.1,0.2,0.2,0.3,0.2v-0.1c0,0-0.1,0-0.2-0.1l0,0c0,0,0,0,0,0c0,0,0,0,0,0"/>
	<path class="st2" d="M16.5,17.9L16.5,17.9L16.5,17.9L16.5,17.9c0.1,0,0.1,0.1,0.1,0.1c0.1,0,0.1,0,0.2-0.1c0,0,0.1-0.1,0.1-0.1&#xD;&#xA;		c0,0,0-0.1-0.1-0.1c0,0-0.1,0-0.1-0.1c0,0-0.1,0-0.1,0c0,0-0.1,0-0.1,0l-0.1,0c-0.1,0-0.2,0-0.3-0.1C16,17.3,16,17.3,16,17.2&#xD;&#xA;		c0-0.1,0.1-0.2,0.1-0.2c0,0,0.1,0,0.1-0.1c0,0,0.1,0,0.1,0l0,0l0.1,0.1l0,0c0,0,0,0,0,0l0,0c0,0,0,0,0,0l0,0&#xD;&#xA;		c-0.1-0.1-0.2-0.1-0.2,0c-0.1,0.1-0.1,0.2,0,0.3c0,0,0.1,0.1,0.2,0c0,0,0.1,0,0.1,0c0.1,0,0.2,0,0.3,0c0,0,0.1,0,0.1,0.1&#xD;&#xA;		c0.1,0.1,0.1,0.1,0.1,0.2c0,0,0,0.1,0,0.1c0,0,0,0.1,0,0.1c0,0-0.1,0.1-0.1,0.1c0,0-0.1,0.1-0.1,0.1l-0.1,0l-0.1,0c0,0,0,0,0,0&#xD;&#xA;		L16.5,17.9L16.5,17.9L16.5,17.9L16.5,17.9"/>
	<path class="st2" d="M13.4,18.4L13.4,18.4L13.4,18.4L13.4,18.4l0.1-0.1l0.1-0.1l0.1,0l0.1-0.1h0l0,0v0c0,0,0,0,0,0l0,0&#xD;&#xA;		c0,0-0.1,0-0.1,0c0,0,0,0,0,0.1l0,0l0.3,0.7c0,0,0,0.1,0,0.1c0,0,0.1,0,0.1,0l0,0c0,0,0,0,0,0v0h0c0,0,0,0-0.1,0c0,0-0.1,0-0.1,0.1&#xD;&#xA;		c0,0-0.1,0-0.1,0c0,0-0.1,0-0.1,0h0l0,0v0c0,0,0,0,0,0c0,0,0,0,0.1,0c0.1,0,0.1-0.1,0.1-0.1l0-0.1l-0.3-0.7c0,0,0,0,0,0&#xD;&#xA;		c0,0,0,0,0,0c0,0,0,0-0.1,0C13.5,18.5,13.5,18.5,13.4,18.4L13.4,18.4C13.5,18.5,13.5,18.5,13.4,18.4"/>
	<path class="st2" d="M8.1,19.4L8.1,19.4c0,0.1,0.2,0.1,0.2,0.1c0,0,0.1,0,0.1,0c0,0,0.1,0,0.1,0h0v0l0,0l0,0l0,0c0,0,0,0,0,0&#xD;&#xA;		c0,0-0.1-0.1-0.1-0.1v-1.1l0,0l-0.3,0.3v0.1l0.1-0.1l0,0.3l-0.1,0V19l0.1,0L8.1,19.4L8.1,19.4C8.2,19.4,8.2,19.4,8.1,19.4&#xD;&#xA;		C8.2,19.4,8.1,19.4,8.1,19.4z"/>
	<path class="st2" d="M8.1,18.8v-0.1l-0.4,0.4l-0.1,0.1c0,0-0.1,0-0.2,0h0l0,0v0l0,0v0l0,0l0.1,0l0.1,0l0.1,0l0.1,0h0l0,0&#xD;&#xA;		c0,0,0,0,0,0l0,0c0,0-0.1-0.1,0-0.1l0,0l0,0L7.9,19L8.1,19V19L8,18.9"/>
	<path class="st2" d="M8.1,19.5L8.1,19.5C8.1,19.4,8.1,19.4,8.1,19.5L8.1,19.5L8.1,19.5L8.1,19.5L8.1,19.5C8,19.5,8,19.5,8.1,19.5&#xD;&#xA;		C8.1,19.5,8.1,19.5,8.1,19.5"/>
</g>
</svg>