<?xml version="1.0" encoding="utf-8"?>
<svg xmlns="http://www.w3.org/2000/svg" xmlns:xlink="http://www.w3.org/1999/xlink" version="1.1" id="layer" x="0px" y="0px" viewBox="0 0 652 652" style="enable-background:new 0 0 652 652;">
<style type="text/css">
	.st0{fill:#4C2178;}
	.st1{fill:#FFFFFF;}
	.st2{fill:#006633;}
</style>
<g>
	<path class="st0" d="M320.4,569.2C184,569.2,73.5,458.7,73.5,322.4C73.5,186,184,75.5,320.4,75.5c136.3,0,246.8,110.5,246.8,246.8&#xD;&#xA;		C567.2,458.7,456.7,569.2,320.4,569.2"/>
	<path class="st1" d="M320.4,572.4c-137.8,0-250-112.1-250-250c0-137.9,112.2-250,250-250s250,112.2,250,250&#xD;&#xA;		C570.4,460.2,458.2,572.4,320.4,572.4 M320.4,78.7C186,78.7,76.7,188,76.7,322.4C76.7,456.7,186,566,320.4,566&#xD;&#xA;		C454.7,566,564,456.7,564,322.4C564,188,454.7,78.7,320.4,78.7"/>
	<path class="st2" d="M320.3,482.5c-88.3,0-160.2-71.9-160.2-160.2c0-88.3,71.8-160.2,160.2-160.2c88.3,0,160.2,71.9,160.2,160.2&#xD;&#xA;		C480.5,410.7,408.7,482.5,320.3,482.5"/>
	<path class="st1" d="M320.3,165.3c86.6,0,157,70.4,157,157s-70.4,157-157,157c-86.6,0-157-70.4-157-157S233.8,165.3,320.3,165.3&#xD;&#xA;		 M320.3,159C230.1,159,157,232.1,157,322.3c0,90.2,73.1,163.4,163.4,163.4c90.2,0,163.4-73.1,163.4-163.4&#xD;&#xA;		C483.7,232.1,410.6,159,320.3,159"/>
	<polygon class="st1" points="177.8,442.9 183.3,449.1 172.6,470.2 193,458.9 197.6,463.1 188.7,484.4 208.1,471.7 214.7,476.4 &#xD;&#xA;		183.8,494.8 178.7,490.6 187.3,469.7 167.5,480.5 162.8,475.9"/>
	<polygon class="st1" points="221.2,480.5 227.5,484.3 210.4,512.9 204.1,509.1"/>
	<polygon class="st1" points="236.5,489.2 243.7,492.6 246.8,508.9 259.3,498.8 266.7,501.3 255.3,532.5 248.5,530.3 255.9,509.9 &#xD;&#xA;		242,519.6 241.9,519.6 238.5,503.1 230,522.9 223.4,519.9"/>
	<path class="st1" d="M276.4,503.9c5.9,1.3,11,2.2,14.3,2.8c3.8,0.5,6.6,2,8.2,4.2c1.3,1.7,1.8,3.7,1.5,6l0,0.1&#xD;&#xA;		c-0.5,3.7-2.7,5.9-5.4,6.5c3.6,2,5.7,4.6,5,9l0,0.1c-0.9,6-6.2,8.4-13.7,7.3c-5.3-0.9-10.7-2-16.4-3.3L276.4,503.9z M287.3,533.4&#xD;&#xA;		c3.2,0.5,5.3-0.4,5.7-2.8l0-0.1c0.3-2.2-1.3-3.8-4.8-4.4c-2.7-0.4-6-1-8.5-1.6c-0.2,1.1-1.2,6.3-1.4,7.1&#xD;&#xA;		C280.3,532.2,283.1,532.7,287.3,533.4 M287.3,519.9c3.1,0.5,5.4-0.3,5.7-2.7l0-0.1c0.3-2.2-1-3.6-4.2-4.2c-3.2-0.6-5.7-1.1-6.7-1.3&#xD;&#xA;		c-0.2,0.9-1.2,6.2-1.4,6.9C282.7,519.1,284.2,519.3,287.3,519.9"/>
	<path class="st1" d="M311.8,508.9l7.3,0.1c0,0-0.4,25.6-0.4,26.7c4,0,11-0.2,16.3-0.6c0.1,2.1,0.4,6.6,0.4,6.6&#xD;&#xA;		c-7.9,0.6-17.1,0.7-24.2,0.5L311.8,508.9z"/>
	<path class="st1" d="M341.1,508c7.9-1,15.2-2.2,23.8-4.2c0,0,1.2,5.4,1.4,6.4c-3.7,0.9-12.1,2.7-16.9,3.3l1,6.7&#xD;&#xA;		c4.7-0.7,9.9-1.7,15.3-3l1.4,6.4c-4.2,1.1-10.6,2.2-15.6,3l1,6.9c6.2-1,11.8-2.1,18.4-3.7l1.4,6.4c-8.6,2.1-17,3.4-26,4.7&#xD;&#xA;		L341.1,508z"/>
	<path class="st1" d="M375.2,501l11.8-4.2c9.8-3.8,19.1,0.3,22.5,9.1l0,0.1c3.4,8.8-0.7,18.2-10.5,22c-5.5,2.2-9.1,3.3-12.7,4.4&#xD;&#xA;		L375.2,501z M396.7,521.7c5.3-2.2,7.9-7.4,5.8-12.9l0-0.1c-2.1-5.5-7.4-7.9-13-5.7c0,0-3.3,1.3-4.9,1.8c0.4,1.1,6.8,19,6.8,19&#xD;&#xA;		S394.1,522.8,396.7,521.7"/>
	<path class="st1" d="M416.7,502.3L416.7,502.3c-5.2-8-3.1-18.6,5.5-24.2c8.6-5.6,19-3.2,24.2,4.8l0,0.1c5.2,7.9,3.1,18.5-5.5,24.1&#xD;&#xA;		C432.2,512.7,421.8,510.3,416.7,502.3 M440,487.2L440,487.2c-3.2-4.9-9.3-6.6-14.2-3.4c-5,3.2-5.9,9.3-2.8,14.2l0.1,0.1&#xD;&#xA;		c3.1,4.8,9.2,6.5,14.2,3.3C442.2,498.2,443.1,492.1,440,487.2"/>
	<polygon class="st1" points="441.9,464.1 446.9,459.6 472.3,463.2 457.4,449.1 462.2,443.7 486.4,466.6 482.3,471.3 455.6,468 &#xD;&#xA;		470.2,483.4 464.9,488.2"/>
	<path class="st1" d="M109,294.3c-0.5,2.8-0.9,6.3-1.1,9.9l-6.7-0.7c0.8-9.3,2.1-18.8,4-27.6l6.7,1.2c-0.6,3.1-1.6,7.7-1.8,9.9&#xD;&#xA;		c1.2,0.2,26.3,3.8,26.3,3.8l-1.1,7.3C135.3,298.1,111.2,294.6,109,294.3"/>
	<path class="st1" d="M124.8,221.4c3-5.7,8.7-15.3,13.1-22.2l5.6,3.4c-3.5,5.2-7.1,11.1-9.5,15.6l5.9,3.3c2.2-3.9,5-8.5,8.2-13.6&#xD;&#xA;		l5.6,3.4c-2.8,4.4-6,9.3-8.1,13.5l6.1,3.4c1.8-3.4,6.3-10.7,9.3-15.2l5.6,3.3c-3.9,5.6-9.5,15-12.7,21.3L124.8,221.4z"/>
	<path class="st1" d="M166.6,188.8L166.6,188.8c-6.8-6.7-7.3-17.3-0.1-24.6c4.4-4.5,8.6-5.7,12.9-5.7l0.5,7.1&#xD;&#xA;		c-3.5,0.2-6.3,1-8.7,3.4c-4,4-3.5,10.2,0.6,14.2l0.1,0.1c4.1,4,10.2,4.6,14.2,0.5c2.7-2.7,3.2-5.4,3.4-9l6.6,0&#xD;&#xA;		c0.2,5-0.9,9.3-5.4,13.9C183.9,195.7,173.4,195.5,166.6,188.8"/>
	<path class="st1" d="M235.5,119.4l6.3-2.5l26.2,26.2l-7.5,2.4l-5.6-5.8l-13,5.5l0,7.7l-6.9,3.3L235.5,119.4z M250,134.7l-8.2-8.4&#xD;&#xA;		l-0.1,11.7L250,134.7z"/>
	<polygon class="st1" points="268.3,108.6 276.1,106.8 287.9,119.3 295.3,103.7 303.2,103.1 307.4,136.1 300.1,136.7 297.4,115.1 &#xD;&#xA;		289.8,130.9 289.6,130.9 277.6,118.4 281.8,139.6 274.7,141.3"/>
	<path class="st1" d="M318,102.4l7.2,0.1l6.7,0.2c8.6,0.4,12.5,5.6,12.2,12.1v0.1c-0.3,7.7-6.5,11.2-14,11l-5.5-0.2l-0.3,10H317&#xD;&#xA;		L318,102.4z M330.7,119.4c3.7,0.1,5.9-1.9,6-4.7v-0.1c0.1-3.3-1.9-5.3-5.6-5.5l-5.8-0.1l-0.4,10.3L330.7,119.4z"/>
	<path class="st1" d="M523.5,237.8l2.6,6.7l2.3,6.3c2.9,8.1-0.5,13.7-6.6,15.9l-0.1,0c-7.3,2.6-12.8-1.9-15.5-8.8l-1.9-5.1l-9.4,3.5&#xD;&#xA;		l-2.8-6.8L523.5,237.8z M512.5,255.9c1.3,3.4,3.9,4.8,6.6,3.8l0.1,0c3.1-1.1,4.2-3.8,3-7.2l-2.1-5.5l-9.7,3.5L512.5,255.9z"/>
	<polygon class="st1" points="357,105.4 364.2,106.8 358.1,139.5 350.9,138.2"/>
	<path class="st1" d="M371.1,124.6L371.1,124.6c3.2-9,12.8-13.8,22.5-10.4c9.7,3.4,14.1,13.1,10.9,22.1l0,0.1&#xD;&#xA;		c-3.2,8.9-12.8,13.7-22.5,10.3C372.3,143.2,367.9,133.5,371.1,124.6 M397.2,133.9L397.2,133.9c1.9-5.5-0.4-11.4-6-13.4&#xD;&#xA;		c-5.6-2-11,1.1-12.9,6.4l0,0.1c-1.9,5.4,0.5,11.3,6,13.3C389.9,142.3,395.3,139.2,397.2,133.9"/>
	<polygon class="st1" points="421.6,127 427.5,130.2 430.5,156 441.6,138.8 447.6,142.9 429.5,170.8 424.3,167.3 421.9,141 &#xD;&#xA;		411.3,159.3 405,155.8"/>
	<path class="st1" d="M440.5,173.3l6.7-1.1c0.7,3.8,2,7.1,4.9,9.6c2.3,2,4.4,2.2,5.7,0.7l0.1-0.1c1.2-1.4,1-2.9-2.3-7.6&#xD;&#xA;		c-4-5.7-6-9.9-1.7-15l0-0.1c4-4.6,10.3-4.5,15.4,0c3.7,3.2,5.8,7,6.6,11.3l-6.5,1.7c-0.9-3.5-2.3-6.3-4.4-8.1&#xD;&#xA;		c-2.1-1.8-4.1-1.8-5.1-0.6l-0.1,0.1c-1.4,1.7-0.8,3.1,2.6,8c4,5.8,5.3,10.1,1.5,14.5l-0.1,0.1c-4.3,5-10.6,4.5-16-0.2&#xD;&#xA;		C443.9,183.3,441.2,178.6,440.5,173.3"/>
	<polygon class="st1" points="488.9,180.9 493.5,186.5 483.1,194.6 491.2,205.7 502,198.1 506.1,204.3 478.7,223.3 474.7,217.2 &#xD;&#xA;		485.7,209.5 477.8,198.8 467.2,206.9 462.5,201.3"/>
	<polygon class="st1" points="187.2,147.1 193.1,142.8 200.7,153.6 212.7,145.6 205.8,134.4 212.2,130.7 229.7,159 223.3,162.7 &#xD;&#xA;		216.3,151.3 204.5,159.1 212.2,170 206.4,174.4"/>
	<polygon class="st1" points="108.3,263.5 110.3,256.5 122.9,260.5 127.4,247.6 115.1,242.9 117.9,236.1 149,247.9 146.2,254.7 &#xD;&#xA;		133.7,250 129.3,262.6 142.1,266.7 140.1,273.7"/>
	<polygon class="st1" points="513.9,217.6 517.3,224.1 487.5,239.2 484.2,232.7"/>
	<path class="st1" d="M507.5,278.7l5.7,3.5c-2,3.3-3.1,6.7-2.6,10.5c0.4,3,1.9,4.6,3.8,4.3l0.1,0c1.8-0.3,2.6-1.5,3.2-7.3&#xD;&#xA;		c0.7-6.9,1.9-11.5,8.5-12.4h0.1c6-0.9,10.7,3.4,11.7,10.1c0.7,4.8-0.2,9.1-2.4,12.9l-6-3c1.6-3.2,2.4-6.3,2-9.1&#xD;&#xA;		c-0.4-2.8-1.9-4.1-3.5-3.8l-0.1,0c-2.2,0.3-2.7,1.8-3.3,7.8c-0.8,7-2.6,11.1-8.4,11.9l-0.1,0c-6.6,0.9-11-3.5-12-10.6&#xD;&#xA;		C503.5,288.5,504.5,283.2,507.5,278.7"/>
	<path class="st1" d="M333,419c-3.2,3.3-7.6,5.3-12.5,5.3c-4.9,0-9.3-2-12.5-5.3c-1.8,2.5-2.9,5.6-2.9,8.9s1.1,6.4,2.9,8.9&#xD;&#xA;		c3.2-3.3,7.6-5.3,12.5-5.3c4.9,0,9.3,2,12.5,5.3c1.8-2.5,2.9-5.6,2.9-8.9S334.7,421.5,333,419"/>
	<path class="st1" d="M320.4,420c3.8,0,7.1-1.6,9.5-4.1c-2.6-2.1-5.9-3.4-9.5-3.4c-3.6,0-6.9,1.3-9.6,3.4&#xD;&#xA;		C313.3,418.4,316.7,420,320.4,420"/>
	<path class="st1" d="M320.4,435.7c-3.8,0-7.1,1.6-9.6,4.1c2.6,2.1,5.9,3.4,9.6,3.4c3.6,0,6.9-1.3,9.6-3.4&#xD;&#xA;		C327.6,437.3,324.2,435.8,320.4,435.7"/>
	<path class="st1" d="M249.6,397.1h22.7c2.9-2.9,5.8-5.9,8.7-8.8h-22.9C255.2,391.3,252.4,394.2,249.6,397.1"/>
	<path class="st1" d="M262.8,383.7h22.7c2.9-3,5.8-6,8.4-8.8h-22.2C268.7,377.8,265.8,380.8,262.8,383.7"/>
	<path class="st1" d="M244.5,402.6c-2.3,2.5-3.7,4.3,1.5,9.4c5.1,5.2,6.9,3.8,9.4,1.5c0.9-0.8,1.8-1.7,2.7-2.5&#xD;&#xA;		c3.1-2.9,6.4-6.1,9.7-9.3h-22.4C245,402,244.7,402.3,244.5,402.6"/>
	<path class="st1" d="M298.8,369.8l0.4-0.4h0c0.8-0.8,0.8-0.9,1.6-1.7c0.8-0.9,1.3-1.4,1.3-2.1l-9.6-9.6c-0.6,0-1.2,0.4-2.1,1.2&#xD;&#xA;		c-0.8,0.8-1,0.9-1.9,1.7l-0.4,0.4c-3.5,3.3-7.5,7.1-11.6,11.1l21.8,0C298.4,370.2,298.6,370,298.8,369.8"/>
	<path class="st1" d="M379.8,408.4v-22.8c-2.9-2.9-5.9-5.8-8.8-8.7v22.9C374,402.7,376.9,405.6,379.8,408.4"/>
	<path class="st1" d="M366.5,395.2v-22.7c-3-2.9-6-5.8-8.8-8.4v22.2C360.5,389.2,363.5,392.2,366.5,395.2"/>
	<path class="st1" d="M295.6,309.2l0.1-10h5.5c0.3-0.8,0.5-1.7,0.7-2.5h-6.2v-11.3h7.4c0-0.9-0.1-1.7-0.1-2.5h-7.3v-11.3h5.2&#xD;&#xA;		c-0.3-0.8-0.5-1.7-0.8-2.5h-4.4v-8.1c-1.2-1.9-2.6-3.7-4.2-5.6l-9.6-0.1v-9.1c-0.8-0.7-1.7-1.3-2.5-2v11h-11.2V244h10.9&#xD;&#xA;		c-1.2-0.9-2.4-1.7-3.6-2.5l-7.3,0l0-4c-0.8-0.4-1.7-0.7-2.5-1.1v5.1h-11.2v-7.8c-0.8-0.1-1.7-0.1-2.5-0.2v8h-11.2v-6.3&#xD;&#xA;		c-0.8,0.3-1.7,0.6-2.5,0.9v5.4h-8.6c-0.9,0.8-1.8,1.6-2.7,2.5c-0.8,0.8-1.6,1.7-2.3,2.6l-0.1,8.7H219c-0.4,0.8-0.7,1.7-1,2.5h6.3&#xD;&#xA;		v11.3h-8c0,0.8,0.1,1.7,0.1,2.5h7.9v11.3h-5.1c0.3,0.8,0.7,1.7,1.1,2.5h4.1l0,7.4c0.8,1.2,1.6,2.5,2.5,3.7v-11.1h11.2v11.3H227&#xD;&#xA;		c0.6,0.8,1.3,1.6,1.9,2.4l9.2,0.1v9.5c1.9,1.6,3.8,3,5.7,4.3l8.1,0v4c0.8,0.3,1.7,0.7,2.5,1v-5h11.2l0,7c0.8,0.1,1.7,0.1,2.5,0.1&#xD;&#xA;		V313h11.2v6c0.9-0.2,1.7-0.5,2.5-0.7V313h9.9c0.7-0.6,1.4-1.2,2.1-1.9C294.5,310.5,295.1,309.9,295.6,309.2 M238.1,282.9h-11.2&#xD;&#xA;		v-11.3h11.2V282.9z M238.1,269.1h-11.2v-11.3h11.2V269.1z M238.1,255.3h-11.2l0-11.3h11.2V255.3z M251.9,310.5h-11.2v-11.3h11.2&#xD;&#xA;		V310.5z M251.9,296.7h-11.2v-11.3h11.2V296.7z M251.9,282.9h-11.2v-11.3h11.2V282.9z M251.9,269.1h-11.2v-11.3h11.2V269.1z&#xD;&#xA;		 M251.9,255.3h-11.2V244h11.2V255.3z M265.6,310.5h-11.2v-11.3h11.2V310.5z M254.4,296.7v-11.3h11.2l0,11.3H254.4z M254.4,282.9&#xD;&#xA;		v-11.3h11.2l0,11.3H254.4z M254.4,269.1v-11.3h11.2l0,11.3H254.4z M254.4,255.3V244h11.2l0,11.3H254.4z M279.4,310.5h-11.2v-11.3&#xD;&#xA;		h11.2V310.5z M279.4,296.7h-11.2v-11.3h11.2V296.7z M279.4,282.9h-11.2v-11.3h11.2V282.9z M279.4,269.1h-11.2v-11.3h11.2V269.1z&#xD;&#xA;		 M293.2,310.5h-11.2v-11.3h11.2V310.5z M293.2,296.7h-11.2v-11.3h11.2V296.7z M293.2,282.9h-11.2v-11.3h11.2V282.9z M293.2,269.1&#xD;&#xA;		h-11.2v-11.3h11.2V269.1z"/>
	<path class="st1" d="M416.4,282.9v-11.3h7.9c0.1-0.8,0.1-1.7,0.1-2.5h-8.1v-11.3h6.4c-0.3-0.8-0.7-1.7-1-2.5h-5.4l0-8.7&#xD;&#xA;		c-0.8-0.9-1.5-1.8-2.4-2.6c-0.9-0.9-1.8-1.7-2.7-2.4l-8.7-0.1v-5.3c-0.8-0.4-1.7-0.7-2.5-0.9v6.3h-11.2v-8c-0.8,0-1.7,0.1-2.5,0.2&#xD;&#xA;		v7.8h-11.2l0-5.1c-0.8,0.3-1.7,0.7-2.5,1.1v4h-7.3c-1.2,0.8-2.4,1.6-3.7,2.5h10.9v11.3h-11.2v-11c-0.8,0.6-1.6,1.2-2.4,1.9&#xD;&#xA;		l-0.1,9.1h-9.5c-1.6,1.8-3,3.7-4.2,5.6l0,8.2h-4.4c-0.3,0.8-0.6,1.7-0.8,2.5h5.2v11.3h-7.3c-0.1,0.8-0.1,1.7-0.1,2.5h7.4v11.3h-6.2&#xD;&#xA;		c0.2,0.9,0.5,1.7,0.7,2.5h5.5v9.9c0.6,0.7,1.2,1.4,1.8,2c0.7,0.6,1.3,1.3,2,1.8l9.9,0v5.2c0.8,0.3,1.7,0.5,2.5,0.8v-6h11.2v7.1&#xD;&#xA;		c0.9,0,1.7-0.1,2.5-0.1v-7h11.2v5c0.8-0.3,1.7-0.7,2.5-1v-4h8c1.9-1.3,3.8-2.7,5.7-4.2l0.1-9.6h9.1c0.7-0.8,1.4-1.7,2-2.5h-11.1&#xD;&#xA;		v-11.3h11.2l0,11.1c0.9-1.2,1.7-2.4,2.5-3.6l0-7.5h4.1c0.4-0.8,0.7-1.7,1.1-2.5H416.4z M358.8,310.5h-11.2v-11.3h11.2V310.5z&#xD;&#xA;		 M358.8,296.7h-11.2v-11.3h11.2V296.7z M358.8,282.9h-11.2v-11.3h11.2V282.9z M358.8,269.1h-11.2v-11.3h11.2V269.1z M361.3,257.8&#xD;&#xA;		h11.2v11.3h-11.2V257.8z M372.5,310.5h-11.2v-11.3h11.2V310.5z M372.5,296.7h-11.2v-11.3h11.2V296.7z M372.5,282.9h-11.2v-11.3&#xD;&#xA;		h11.2V282.9z M386.3,310.5h-11.2v-11.3h11.2V310.5z M386.3,296.7h-11.2v-11.3h11.2V296.7z M386.3,282.9h-11.2v-11.3h11.2V282.9z&#xD;&#xA;		 M386.3,269.1h-11.2v-11.3h11.2V269.1z M386.3,255.3h-11.2V244h11.2V255.3z M400,310.5h-11.2v-11.3H400V310.5z M400,296.7h-11.2&#xD;&#xA;		v-11.3H400V296.7z M400,282.9h-11.2v-11.3H400V282.9z M400,269.1h-11.2v-11.3H400V269.1z M400,255.3h-11.2V244H400V255.3z&#xD;&#xA;		 M413.8,282.9h-11.2v-11.3h11.2V282.9z M413.8,269.1h-11.2v-11.3h11.2V269.1z M413.8,255.3h-11.2V244h11.2V255.3z"/>
	<path class="st1" d="M317.7,323.7c-3.2-5.7-4.6-11.7-5.2-19.4c-0.1-3,0-6.3,0.3-9.9c1.4-17.7-2.3-34.6-22.3-52.7&#xD;&#xA;		c-27.7-25-55-19.2-70.1-4c-15.2,15.2-21,42.4,4,70.1c18,20,34.9,23.7,52.7,22.3c3.7-0.3,6.9-0.4,9.9-0.3c8.2,0.6,14.4,2.1,20.4,5.7&#xD;&#xA;		l2.2-2.2C313.1,329.9,315.7,326.8,317.7,323.7 M305.3,291c-0.5,5.9-2.4,14.6-9.7,21.9c-7.3,7.3-16,9.2-21.9,9.7&#xD;&#xA;		c-15.7,1.4-29.1-3.1-41.9-16.5c-22.3-23.2-23.1-47.4-6.7-63.8c16.3-16.4,40.6-15.5,63.8,6.7C302.2,261.9,306.7,275.3,305.3,291"/>
	<path class="st1" d="M323.5,349.5l12.3,12.6l9-9l-12-11.8c-2.6,1.9-5.2,4.2-8.1,7L323.5,349.5z"/>
	<path class="st1" d="M385.3,413.5c2.5,2.3,4.3,3.7,9.4-1.5c5.2-5.2,3.8-6.9,1.5-9.4c-0.8-0.9-1.7-1.8-2.5-2.7&#xD;&#xA;		c-2.9-3.1-6.1-6.4-9.3-9.7v22.5C384.7,412.9,385,413.2,385.3,413.5"/>
	<path class="st1" d="M352.5,359.2l-0.4-0.4c-0.8-0.8-0.9-0.8-1.7-1.6c-0.9-0.8-1.5-1.2-2.1-1.2l-9.6,9.6c0,0.6,0.4,1.2,1.2,2.1&#xD;&#xA;		c0.8,0.8,0.9,1,1.7,1.9l0.4,0.4c3.4,3.5,7.1,7.5,11.1,11.6v-21.8C352.9,359.5,352.7,359.4,352.5,359.2"/>
	<path class="st1" d="M321.4,345.1c10.9-10.9,18.9-14.4,32.3-15.4c3-0.1,6.3,0,9.9,0.3c17.8,1.4,34.6-2.3,52.7-22.3&#xD;&#xA;		c25-27.7,19.2-55,4-70.1c-15.2-15.2-42.4-21-70.1,4c-20,18-23.7,34.9-22.3,52.7c0.3,3.7,0.4,6.9,0.3,9.9&#xD;&#xA;		c-1,13.4-4.4,21.3-15.3,32.3l-16.9,16.5l9,9L321.4,345.1z M335.4,291c-1.4-15.7,3.1-29.1,16.5-42c23.2-22.2,47.4-23,63.8-6.7&#xD;&#xA;		c16.4,16.3,15.5,40.6-6.7,63.8c-12.9,13.4-26.3,17.9-42,16.5c-5.9-0.5-14.6-2.4-21.9-9.7C337.8,305.6,335.9,296.9,335.4,291"/>
</g>
</svg>