<?xml version="1.0" encoding="utf-8"?>
<svg xmlns="http://www.w3.org/2000/svg" xmlns:xlink="http://www.w3.org/1999/xlink" id="Layer_1" data-name="Layer 1" viewBox="0 0 2000 2000">
  <defs>
    <style>
      .cls-1 {
        fill: url(#linear-gradient-12);
      }

      .cls-1, .cls-2, .cls-3, .cls-4, .cls-5, .cls-6, .cls-7, .cls-8, .cls-9, .cls-10, .cls-11, .cls-12, .cls-13, .cls-14 {
        stroke-width: 0px;
      }

      .cls-2 {
        fill: url(#linear-gradient);
      }

      .cls-3 {
        fill: url(#linear-gradient-6);
      }

      .cls-4 {
        fill: url(#linear-gradient-11);
      }

      .cls-5 {
        fill: url(#linear-gradient-5);
      }

      .cls-6 {
        fill: url(#linear-gradient-13);
      }

      .cls-7 {
        fill: url(#linear-gradient-14);
      }

      .cls-8 {
        fill: url(#linear-gradient-2);
      }

      .cls-9 {
        fill: url(#linear-gradient-7);
      }

      .cls-10 {
        fill: url(#linear-gradient-3);
      }

      .cls-11 {
        fill: url(#linear-gradient-9);
      }

      .cls-12 {
        fill: url(#linear-gradient-8);
      }

      .cls-13 {
        fill: url(#linear-gradient-10);
      }

      .cls-14 {
        fill: url(#linear-gradient-4);
      }
    </style>
    <linearGradient id="linear-gradient" x1="597.76" y1="812.81" x2="1405.07" y2="812.81" gradientUnits="userSpaceOnUse">
      <stop offset=".08" stop-color="#db9bc5"/>
      <stop offset=".82" stop-color="#e80f6f"/>
    </linearGradient>
    <linearGradient id="linear-gradient-2" x1="640.43" y1="1748.96" x2="799.93" y2="1748.96" xlink:href="#linear-gradient"/>
    <linearGradient id="linear-gradient-3" x1="439.96" y1="1748.9" x2="596.04" y2="1748.9" xlink:href="#linear-gradient"/>
    <linearGradient id="linear-gradient-4" x1="498.49" y1="1341.21" x2="654.17" y2="1341.21" xlink:href="#linear-gradient"/>
    <linearGradient id="linear-gradient-5" x1="1205.03" y1="1748.85" x2="1360.77" y2="1748.85" xlink:href="#linear-gradient"/>
    <linearGradient id="linear-gradient-6" x1="1005.24" y1="1751.35" x2="1160.9" y2="1751.35" xlink:href="#linear-gradient"/>
    <linearGradient id="linear-gradient-7" x1="1390.22" y1="1747.86" x2="1570.08" y2="1747.86" xlink:href="#linear-gradient"/>
    <linearGradient id="linear-gradient-8" x1="684.61" y1="1340.78" x2="862.99" y2="1340.78" xlink:href="#linear-gradient"/>
    <linearGradient id="linear-gradient-9" x1="242.65" y1="1749.02" x2="398.4" y2="1749.02" xlink:href="#linear-gradient"/>
    <linearGradient id="linear-gradient-10" x1="794.67" y1="750.05" x2="1033.91" y2="750.05" xlink:href="#linear-gradient"/>
    <linearGradient id="linear-gradient-11" x1="817.78" y1="1748.8" x2="978.3" y2="1748.8" xlink:href="#linear-gradient"/>
    <linearGradient id="linear-gradient-12" x1="242.6" y1="1341.67" x2="378.85" y2="1341.67" xlink:href="#linear-gradient"/>
    <linearGradient id="linear-gradient-13" x1="1601.73" y1="1748.82" x2="1738.1" y2="1748.82" xlink:href="#linear-gradient"/>
    <linearGradient id="linear-gradient-14" x1="401.04" y1="1341.28" x2="454.57" y2="1341.28" xlink:href="#linear-gradient"/>
  </defs>
  <path class="cls-2" d="M1392.9,1574.17c-26.24-197.07-82.5-385.7-163.87-566.98-81.35-181.23-187.01-346.89-321.04-495.98,43.51-24.33,86.02-48.1,129.92-72.65-39.22-54.06-82.42-103.13-128.91-149.42-46.36-46.16-95.54-89.06-147.56-128.7-52.21-39.79-106.52-76.43-163.68-109,133.79,21.76,257.25,70.43,371.05,143.69,114.2,73.52,208.14,167.42,282.68,282.64-41.16,23.01-81.16,45.37-122.52,68.49,70.09,99.78,127.47,205.38,171.8,317.98,44.51,113.05,74.15,229.88,91.19,350.15,23.23,164,10.42,330.83.94,359.79Z"/>
  <path class="cls-8" d="M640.43,1579.14c3.25-.37,5.5-.85,7.76-.85,25.65.07,51.32-.21,76.95.48,16.51.44,32.22,4.77,46.33,13.91,15.1,9.78,23.28,23.67,23.85,41.56.49,15.3.04,30.63.11,45.95.09,19.99.36,39.97.37,59.96,0,5.65-.36,11.33-1.04,16.93-1.8,14.75-9.2,26.18-21.37,34.57-3.8,2.62-7.7,5.08-12.3,8.12,18.17,37.87,30.71,77.24,38.84,119.01h-54.96c-2.86-10.36-5.65-20.58-8.5-30.77-7.2-25.73-16.48-50.65-29.58-74.02-5.98-10.66-3.06-22.11-2.87-33.25.03-1.65,3.43-3.53,5.56-4.81,7.98-4.77,16.18-9.18,24.11-14.02,6.16-3.75,8.75-9.25,8.69-16.77-.28-33.98-.09-67.97-.14-101.96-.01-9.28-.53-10.02-9.62-12.06-12.47-2.8-25.05-1.27-39-1.26-.35,20.03-.12,39.23-.17,58.41-.04,18.99,0,37.98,0,56.98v173.59c-18.36.88-35.39,1.26-53.01-.21v-339.5Z"/>
  <path class="cls-10" d="M440.14,1748.1c0-37.33.55-74.68-.17-111.99-.61-31.44,17.44-48.17,39.52-55.95,26.11-9.19,52.4-8.99,78.35.52,25.67,9.41,37.94,27.61,37.94,55.01.02,75-.55,150,.26,224.99.37,34.41-20.38,51.17-42.51,57.91-28.83,8.79-57.32,8.14-84.52-5.81-18.74-9.61-28.79-25.19-28.78-46.68.02-39.33,0-78.66,0-118h-.09ZM493.41,1747.96c0,29.64,0,59.29,0,88.93,0,8.33.17,16.66-.05,24.98-.12,4.71,1.67,7.37,6.26,8.73,12.51,3.71,24.9,3.59,37.34-.27,3.67-1.14,5.66-3.21,5.44-7.19-.11-1.99.02-4,.02-5.99,0-72.28,0-144.55,0-216.83,0-1.33-.16-2.68.02-3.99.78-5.88-2.38-8.2-7.62-9.58-10.21-2.69-20.38-3.02-30.65-.76-10.42,2.3-10.74,2.64-10.75,13.06-.03,36.3-.01,72.61-.01,108.91Z"/>
  <path class="cls-14" d="M654.09,1267.7c-17.68,5.29-34.93,6.91-53.53,7.1,0-12.37,0-23.61,0-34.85,0-2.33,0-4.66,0-7-.03-11.95-.71-13.59-12.32-14.67-9.15-.85-18.59-.33-27.71.92-8.11,1.11-8.54,2.42-8.57,10.63-.08,23.32-.03,46.64-.03,69.96,0,50.3,0,100.6,0,150.91,0,11.13.08,11,11.23,13.59,9.99,2.33,19.82,1.71,29.67-.69,5.07-1.24,7.89-3.67,7.83-9.62-.26-27.31-.19-54.63-.06-81.95.03-5.45-1.76-10.03-5.9-13.15-7.13-5.38-14.41-10.67-22.14-15.11-4.36-2.5-6.4-5.02-6.09-10.09.39-6.58.1-13.2.1-19.48,8.29-2.5,75.72-2.87,87.03-.59.16,3.32.48,6.87.48,10.43.03,43.31.06,86.61,0,129.92-.03,28.84-11.87,46.43-39.09,56-26.68,9.38-53.73,9.26-80.19-1.07-24.3-9.49-36.18-27.12-36.22-53.12-.13-76.62.01-153.24-.09-229.86-.03-24.48,11.66-41.55,33.52-50.87,29.53-12.59,59.75-12.81,89.27.29,21.8,9.67,33.41,26.63,32.86,51.18-.31,13.61-.05,27.24-.05,41.17Z"/>
  <path class="cls-5" d="M1360.59,1675.23c-17.66,5.54-34.47,6.64-52.52,7.2-.32-3.83-.79-7.01-.82-10.18-.1-11.66.04-23.32-.08-34.98-.08-8.15-.64-8.89-8.59-10.84-11.22-2.75-22.38-2.63-33.55.7-4.51,1.35-6.86,3.72-6.66,8.48.08,1.99,0,4,0,6,0,71.62,0,143.25,0,214.87,0,2.33.08,4.66.04,6.99-.06,3.41,1.32,5.69,4.7,6.72,12.75,3.89,25.49,4.25,38.33.31,4.23-1.3,5.76-3.93,5.75-8.12-.05-27.98.18-55.97-.25-83.94-.06-3.83-2.32-8.7-5.2-11.2-6.72-5.83-14.16-10.96-21.85-15.48-4.2-2.47-6.69-4.71-6.44-9.85.34-6.88.08-13.78.08-21.27h85.98c.4,2.8,1.16,5.61,1.16,8.42.07,44.64-.09,89.28.08,133.92.12,32.9-18.76,47.34-39.73,54.71-26.72,9.39-53.68,9.05-80.13-1.42-23.93-9.47-35.69-26.71-35.73-52.34-.12-76.62.17-153.24-.15-229.86-.12-28.45,15.98-45.38,38.48-53.58,26.64-9.71,53.69-9.7,80.15.63,22.27,8.69,36.37,24.37,36.88,49.53.3,14.6.05,29.21.05,44.59Z"/>
  <path class="cls-3" d="M1006.16,1578.76c17.71-.74,34.47-.89,52.41.04,0,5.38,0,9.64,0,13.89,0,86.94,0,173.89,0,260.83,0,2.66.19,5.34-.02,7.99-.4,5.2,1.92,7.89,6.92,9.25,11.87,3.22,23.61,3.25,35.46-.09,4.48-1.26,6.9-3.6,6.61-8.46-.18-2.99,0-5.99,0-8.99,0-86.94,0-173.89,0-260.83v-13.41h52.57c.24,4.09.64,7.64.64,11.19.03,90.94-.2,181.88.17,272.82.11,26.88-13.13,44.15-35.94,53.24-28.49,11.35-57.43,11.11-85.66-.79-22.82-9.62-34.23-27.29-34.05-52.54.3-42.97.07-85.94.07-128.92,0-47.3-.03-94.61.02-141.91,0-4.2.51-8.39.83-13.31Z"/>
  <path class="cls-9" d="M1441.35,1578.54c27.36-3.24,53.15-3.22,80.15.02,16.19,113.27,32.33,226.15,48.58,339.82-18.53,1.85-35.67,1.14-53.54.78-1.61-11.33-3.84-21.46-4.29-31.66-.51-11.4-5.63-18.77-15.67-23.24-10.59-4.71-21.22-9.33-33.03-14.52,1.44-8.55,2.96-17.57,4.71-27.9h34.29c-6.67-50.86-13.46-100.07-20.71-149.22-.75-.05-1.5-.1-2.25-.14-.66,1.93-1.66,3.82-1.94,5.8-6.66,47.5-13.25,95-19.84,142.51-4.12,29.69-8.21,59.39-12.38,89.08-.41,2.9-1.3,5.73-2.04,8.9h-53.15c17.09-113.71,34.04-226.52,51.13-340.22Z"/>
  <path class="cls-12" d="M862.93,1511.05h-52.79c-1.3-8.03-2.59-15.79-3.8-23.56-.51-3.29-1.28-6.61-1.2-9.91.23-9.56-4.54-15.66-12.79-19.52-7.82-3.66-15.67-7.27-23.57-10.75-3.32-1.46-6.81-2.52-11.5-4.23,1.36-9.21,2.7-18.23,4.22-28.5h34.55c-6.39-50.79-13.82-99.85-20.84-151.1-4.73,4.69-4.4,8.83-4.93,12.35-2.18,14.49-3.96,29.04-5.99,43.55-7.91,56.72-15.87,113.43-23.8,170.14-.97,6.89-1.93,13.79-2.86,20.41-7.85,2.15-40.91,2.52-52.9.61,0-2.37-.32-4.94.05-7.4,11.2-74.74,22.46-149.48,33.75-224.21,5.02-33.25,10.07-66.49,15.23-99.72,1.32-8.48,1.53-8.98,9.84-9.12,20.61-.34,41.23-.43,61.84-.04,9.29.17,9.46.77,10.87,10.48,5.21,35.92,10.29,71.86,15.43,107.79,7.07,49.44,14.16,98.89,21.25,148.33,3.31,23.07,6.64,46.13,9.92,69.2.18,1.26.02,2.56.02,5.21Z"/>
  <path class="cls-11" d="M296.15,1630.39v286.95c-7.72,2.55-36.67,3.16-52.61,1.23-.29-3.87-.85-8-.86-12.14-.05-77.29-.04-154.57-.04-231.86,0-27.98,0-55.96,0-83.95v-11.25c3.29-.42,5.5-.94,7.7-.94,25.31-.01,50.64-.35,75.94.23,17.54.41,34.29,4.66,49.12,14.68,14.54,9.83,22.66,23.51,22.78,41.07.28,43.64.31,87.28,0,130.92-.14,20.53-10.49,35.27-28.28,44.97-19.43,10.6-40.37,12.56-63.02,10.75-1.57-9.17-.86-18.28-.4-27.6,6.47-3.22,12.77-6.17,18.88-9.46,3.5-1.88,6.69-4.33,10.04-6.5,6.99-4.53,9.82-10.57,9.72-19.24-.43-37.64-.17-75.28-.19-112.93,0-12.06-.38-13.47-12.33-14.69-11.48-1.17-23.17-.25-36.45-.25Z"/>
  <path class="cls-13" d="M794.67,586.5c3.21,2.6,4.99,3.9,6.6,5.38,40.98,37.72,78.69,78.5,113.93,121.59,42.65,52.15,81.27,107.1,114.83,165.56,5.3,9.24,5.39,9.34-1.17,17.39-4.78,5.87-9.91,11.46-14.88,17.18-6.97-2.11-14.01-4-20.9-6.36-44.06-15.1-88.05-30.43-132.18-45.32-6.87-2.32-9.87-5.93-11.36-13.07-17.54-84.02-35.45-167.96-53.24-251.92-.6-2.81-.9-5.69-1.63-10.44Z"/>
  <path class="cls-4" d="M871.14,1629.48h-52.9c-.72-17.21-.41-33.29-.25-49.05,8.61-2.56,146.62-3.21,158.43-1.06,2.14,6.99,2.62,36.64.57,49.67-16.47,1.46-33.4-.16-51.32,1-.36,4.45-.97,8.59-.98,12.73-.06,69-.04,137.99-.04,206.99,0,19.33.04,38.67-.04,58-.01,3.54-.48,7.08-.77,11.2-4.16.21-7.41.5-10.67.52-11.33.05-22.67.14-34-.04-6.68-.11-7.5-1.03-7.96-7.44-.21-2.99-.08-6-.08-9,0-86,0-171.99,0-257.99v-15.52Z"/>
  <path class="cls-1" d="M244.06,1171.57h51.34c1.01,24.19.32,48.04.44,71.88.13,24,.03,48,.03,71.99v71.99c0,23.9,0,47.8,0,72.95,28.04,1.06,54.87-.18,82.99.79-.76,11.06-1.13,21.28-2.24,31.41-2.44,22.39.74,18.94-21.7,19.06-33.33.18-66.66.05-99.99.05-3.58,0-7.17,0-10.45,0-2.27-8.66-2.53-329.81-.41-340.12Z"/>
  <path class="cls-6" d="M1737.98,1868.27c0,6.39.31,11.66-.07,16.88-.59,7.96-1.52,15.89-2.55,23.81-1.27,9.78-2.11,10.5-11.85,10.52-27.98.05-55.96.02-83.93.02-9.99,0-19.98.03-29.98-.04-1.94-.01-3.87-.43-5.61-.64-2.24-7.47-3.15-320.94-1.13-338.56,8.53-2.98,43.9-2.82,52.79.62v10.42c0,88.26,0,176.52,0,264.78,0,1.67-.07,3.33,0,5,.25,6.65.66,7.18,7.67,7.22,16.99.08,33.97,0,50.96-.01,7.57,0,15.14,0,23.72,0Z"/>
  <path class="cls-7" d="M402.85,1511.02c-2.33-8.82-2.45-329.97-.14-339.48h50.05c2.38,9.39,2.43,330,.08,339.48h-49.99Z"/>
</svg>