<?xml version="1.0" encoding="utf-8"?>
<svg xmlns="http://www.w3.org/2000/svg" xmlns:xlink="http://www.w3.org/1999/xlink" version="1.1" id="Layer_1" x="0px" y="0px" viewBox="0 0 20 22" style="enable-background:new 0 0 20 22;">
<style type="text/css">
	.st0{opacity:0.87;}
	.st1{fill:#00BE14;}
</style>
<g class="st0">
	<path d="M12,11.1c0.4-5,2.5-9.5,2.7-9.9c-0.8-0.4-1.6-0.6-1.9-0.7C11.7,5.5,12,10.3,12,11.1L12,11.1z M8.8,13.8&#xD;&#xA;		c-0.3-2.1-1-4.6-1-4.6C8.7,14.7,7.2,19,7.2,19h5.7c-2.6-9.6-0.6-18.3-0.5-18.7c-0.4-0.1-1.3-0.2-1.9-0.2&#xD;&#xA;		c-0.1,8.2,1.4,13.6,1.4,13.6h-0.6C9.9,8.4,9.7,1.7,9.8,0.2c-1.1,0-1.9,0.2-1.9,0.2l2.7,13.4H10c0,0-2.6-12.6-2.7-13.3&#xD;&#xA;		c-1,0.2-1.7,0.5-2,0.7c2.9,5.3,4.1,12.6,4.1,12.6L8.8,13.8L8.8,13.8z M6.9,20l-0.7,1.9h7.6L13.1,20H6.9L6.9,20z"/>
	<path class="st1" d="M15.4,3.4l-0.5,1.8c2,1.5,3.4,3.9,3.4,6.6c0,3-1.6,5.6-3.9,7l0.6,1.7c3.1-1.7,5.1-5,5.1-8.7&#xD;&#xA;		C20,8.3,18.2,5.2,15.4,3.4L15.4,3.4z M1.8,11.8c0-2.7,1.3-5.1,3.4-6.6L4.6,3.4C1.8,5.2,0,8.3,0,11.8c0,3.8,2.1,7,5.1,8.7l0.6-1.7&#xD;&#xA;		C3.4,17.4,1.8,14.8,1.8,11.8"/>
</g>
</svg>