<?xml version="1.0" encoding="utf-8"?>
<svg xmlns="http://www.w3.org/2000/svg" width="141" height="191.93" clip-rule="evenodd" fill-rule="evenodd" stroke-linejoin="round" stroke-miterlimit="2" version="1.1" viewBox="0 0 564.02 767.72">
  <g transform="translate(-131.38 -107.32)">
    <g transform="scale(4.1667)">
      <g transform="translate(41.929 209.34)">
        <path d="m0-11.055v2.309c-1.609-0.472-2.781-0.577-3.621-0.577-1.941 0-2.991 1.137-2.991 3.9 0 2.729 0.857 3.691 3.008 3.691 0.91 0 1.942-0.087 3.901-0.734v2.344c-1.417 0.577-2.956 0.769-4.005 0.769-3.832 0-5.825-1.311-5.825-5.947 0-4.671 2.291-6.402 5.965-6.402 1.031 0 2.186 0.105 3.568 0.647" fill-rule="nonzero"/>
      </g>
      <g transform="translate(51.76 197.78)">
        <path d="m0 12.087v-5.073h-5.072v5.073h-2.887v-12.087h2.887v4.652h5.072v-4.652h2.887v12.087z" fill-rule="nonzero"/>
      </g>
      <g transform="translate(61.784 206.25)">
        <path d="m0-4.828-1.277 3.849h2.676l-1.294-3.849zm2.291 6.157h-4.443c-0.49 1.295-0.7 1.837-0.857 2.292h-3.078l4.687-12.07h3.062l4.6 12.07h-3.079z" fill-rule="nonzero"/>
      </g>
      <g transform="translate(80.098 197.78)">
        <path d="m0 12.087-0.245-8.169-2.763 5.212h-2.17l-2.816-5.054-0.227 8.011h-2.869l0.787-12.087h3.026l3.184 6.087 3.044-6.087h3.096l0.769 12.087z" fill-rule="nonzero"/>
      </g>
      <g transform="translate(90.034 207.49)">
        <path d="m0-7.329h-2.396v3.691h2.501c1.364 0 1.662-1.049 1.662-1.889 0-1.05-0.647-1.802-1.767-1.802m-5.283 9.708v-12.087h5.318c2.781 0 4.688 1.714 4.688 4.198 0 1.749-1.015 4.251-4.67 4.251h-2.449v3.638z" fill-rule="nonzero"/>
      </g>
      <g transform="translate(0 152.53)">
        <rect x="96.244" y="45.249" width="2.904" height="12.087"/>
      </g>
      <g transform="translate(103.91 203.68)">
        <path d="m0 0.28c0 2.274 0.577 3.673 2.886 3.673 2.343 0 3.044-1.329 3.044-3.673 0-2.309-0.577-3.883-3.044-3.883-2.344 0-2.886 1.714-2.886 3.883m8.886 0c0 3.079-1.137 6.035-5.948 6.035-4.53 0-5.859-2.117-5.859-6.035 0-4.46 2.203-6.315 5.877-6.315 4.093 0 5.93 2.117 5.93 6.315" fill-rule="nonzero"/>
      </g>
      <g transform="translate(125.54 209.85)">
        <path d="m0-12.052v12.07h-2.466l-5.685-7.435v7.435h-2.852v-12.088h2.449l5.703 7.452v-7.434z" fill-rule="nonzero"/>
      </g>
      <g transform="translate(127.12 200.74)">
        <path d="m0 6.192c1.767 0.525 3.446 0.665 4.565 0.665 1.557 0 2.047-0.49 2.047-1.19 0-2.116-6.559-1.224-6.559-5.247 0-2.677 2.273-3.499 4.81-3.499 1.084 0 2.658 0.07 4.128 0.734v2.292c-1.854-0.594-3.638-0.611-4.093-0.611-1.277 0-1.907 0.314-1.907 0.926 0 0.665 0.735 0.928 2.467 1.487 2.046 0.665 4.093 1.347 4.093 3.953 0 2.642-2.099 3.569-5.072 3.569-1.191 0-2.783-0.087-4.479-0.77z" fill-rule="nonzero"/>
      </g>
      <g transform="translate(146.2 197.78)">
        <path d="m0 12.087v-5.073h-5.072v5.073h-2.887v-12.087h2.887v4.652h5.072v-4.652h2.887v12.087z" fill-rule="nonzero"/>
      </g>
      <g transform="translate(0 152.53)">
        <rect x="151.1" y="45.249" width="2.904" height="12.087"/>
      </g>
      <g transform="translate(161.3 207.49)">
        <path d="m0-7.329h-2.396v3.691h2.5c1.365 0 1.663-1.049 1.663-1.889 0-1.05-0.648-1.802-1.767-1.802m-5.283 9.708v-12.087h5.318c2.781 0 4.688 1.714 4.688 4.198 0 1.749-1.015 4.251-4.67 4.251h-2.449v3.638z" fill-rule="nonzero"/>
      </g>
      <g transform="translate(145.01 190.03)">
        <path d="m0-12.004-4.474 0.404c-0.415 0.038-0.772-0.289-0.772-0.705v-2c0-0.334 0.234-0.623 0.561-0.693l5.901-1.245h2.7c0.391 0 0.708 0.318 0.708 0.709v19.064c0 0.391-0.317 0.709-0.708 0.709h-3.208c-0.391 0-0.708-0.318-0.708-0.709z" fill-rule="nonzero"/>
      </g>
      <g transform="translate(132.12 187.16)">
        <path d="m0-3.823h6.942c0.391 0 0.708 0.317 0.708 0.708v2.407c0 0.391-0.317 0.708-0.708 0.708h-6.942c-0.391 0-0.708-0.317-0.708-0.708v-2.407c0-0.391 0.317-0.708 0.708-0.708" fill-rule="nonzero"/>
      </g>
      <g transform="translate(48.813 194.48)">
        <path d="m0-20.688c0.391 0 0.708 0.317 0.708 0.708v11.83c0 5.779-3.853 8.15-8.98 8.15-6.195 0-9.01-3.052-9.01-8.15v-11.83c0-0.391 0.317-0.708 0.708-0.708h3.474c0.391 0 0.708 0.317 0.708 0.708v11.889c0 2.49 1.423 4.061 4.12 4.061 2.579 0 4.061-1.453 4.061-4.061v-11.889c0-0.391 0.316-0.708 0.708-0.708z" fill-rule="nonzero"/>
      </g>
      <g transform="translate(70.78 193.51)">
        <path d="m0-19.005v19.035c0 0.391-0.317 0.708-0.708 0.708h-3.121c-0.221 0-0.429-0.103-0.563-0.278l-9.42-12.319v11.889c0 0.391-0.317 0.708-0.708 0.708h-3.415c-0.391 0-0.708-0.317-0.708-0.708v-19.065c0-0.391 0.317-0.708 0.708-0.708h3.091c0.221 0 0.429 0.103 0.563 0.278l9.45 12.348v-11.888c0-0.391 0.317-0.708 0.708-0.708h3.415c0.391 0 0.708 0.317 0.708 0.708" fill-rule="nonzero"/>
      </g>
      <g transform="translate(78.433 190.24)">
        <path d="m0-12.449v12.419h3.586c2.905 0 5.068-1.512 5.068-6.076 0-5.098-2.43-6.343-5.276-6.343zm3.26-4.001c8.032 0 10.433 4.742 10.433 10.255 0 4.653-2.015 10.196-10.107 10.196h-7.769c-0.391 0-0.708-0.317-0.708-0.708v-19.035c0-0.391 0.317-0.708 0.708-0.708z" fill-rule="nonzero"/>
      </g>
      <g transform="translate(109.51 173.79)">
        <path d="m0 20.452h-14.707c-0.391 0-0.708-0.317-0.708-0.708v-19.035c0-0.391 0.317-0.709 0.708-0.709h14.411c0.392 0 0.708 0.318 0.708 0.709v2.614c0 0.392-0.316 0.709-0.708 0.709h-10.199v3.734h9.31c0.391 0 0.708 0.317 0.708 0.708v2.585c0 0.392-0.317 0.708-0.708 0.708h-9.31v4.684h10.495c0.392 0 0.709 0.316 0.709 0.708v2.585c0 0.391-0.317 0.708-0.709 0.708" fill-rule="nonzero"/>
      </g>
      <g transform="translate(130.14 174.83)">
        <path d="m0 18.356-3.86-6.673c2.815-1.274 3.586-3.912 3.586-6.047 0-4.238-2.698-6.698-7.855-6.698h-8.568c-0.392 0-0.709 0.317-0.709 0.708v19.064c0 0.392 0.317 0.708 0.709 0.708h3.473c0.392 0 0.709-0.316 0.709-0.708v-6.257h0.015v-4.001h-0.015v-5.483h4.179c2.193 0 3.231 0.949 3.231 2.638 0 1.393-0.534 2.845-3.024 2.845h-2.809v4.001h2.365l3.475 6.588c0.123 0.232 0.365 0.377 0.627 0.377h3.858c0.546 0 0.886-0.59 0.613-1.062" fill-rule="nonzero"/>
      </g>
      <g transform="translate(159.13 184)">
        <path d="m0-0.177c2.097 0 3.307-1.417 3.307-3.189 0-1.89-0.679-3.307-3.336-3.307-2.54 0-3.396 1.653-3.396 3.395 0 1.831 1.004 3.101 3.425 3.101m7.766-2.953c0 5.076-4.131 9.839-7.861 13.197-0.13 0.117-0.297 0.18-0.472 0.18h-3.791c-0.643 0-0.95-0.789-0.477-1.225 2.403-2.223 4.491-4.265 5.691-5.715l-0.118-0.148c-0.531 0.178-1.122 0.267-1.771 0.267-4.814 0-6.91-2.806-6.91-6.792 0-3.898 2.628-7.058 7.943-7.058 6.112 0 7.766 3.515 7.766 7.294" fill-rule="nonzero"/>
      </g>
      <g transform="translate(75.904 157.97)">
        <path d="m0 0.675-0.943-0.921c6.154-6.301 14.744-10.212 24.248-10.212 9.503 0 18.092 3.911 24.247 10.212l-0.943 0.921c-5.916-6.056-14.171-9.814-23.304-9.814-9.134 0-17.389 3.758-23.305 9.814m9.267 10.458-0.992-0.87c3.663-4.176 9.038-6.813 15.03-6.813 5.99 0 11.366 2.637 15.028 6.813l-0.991 0.87c-3.421-3.901-8.442-6.364-14.037-6.364-5.597 0-10.617 2.463-14.038 6.364m32.695-11.991c0.393 0.302 0.365 0.607 0.267 0.911l-2.445 8.485-1.386-1.27 0.471-1.636-1.629-1.25 1.409-0.917 0.693 0.531 0.84-2.911-5.331 3.463-1.563-0.877 7.396-4.803c0.268-0.174 0.556-0.279 0.948 0.022zm-34.194 6.088c-0.603-0.067-0.981-0.318-1.557-1.028l-2.941-3.618-1.304 1.06 3.216 3.958c0.673 0.826 1.437 1.267 2.333 1.35 1.01 0.094 1.912-0.21 2.802-0.929 0.886-0.724 1.367-1.544 1.482-2.553 0.103-0.894-0.174-1.731-0.845-2.559l-3.216-3.958-1.304 1.06 2.94 3.619c0.578 0.709 0.745 1.13 0.689 1.734-0.044 0.497-0.345 0.996-0.798 1.363-0.452 0.368-1.002 0.561-1.497 0.501m12.683-10.713-0.317-1.555-5.199 1.058c-0.36 0.073-0.574 0.352-0.494 0.745l1.088 5.348c0.371 1.819 1.693 2.235 3.159 1.937l3.165-0.644-0.317-1.554-3.071 0.625c-0.793 0.161-1.145 7e-3 -1.325-0.877l-0.163-0.802 3.818-0.776-0.311-1.531-3.818 0.777-0.387-1.903zm8.053 4.018 3.769 0.989 0.397-1.512-3.77-0.988 0.208-0.791c0.229-0.872 0.59-1.007 1.372-0.802l3.032 0.795 0.403-1.534-3.124-0.819c-1.448-0.38-2.791-0.038-3.262 1.758l-1.385 5.278c-0.102 0.388 0.096 0.679 0.451 0.772l1.018 0.266z" fill-rule="nonzero"/>
      </g>
    </g>
    <g transform="scale(4.1667)">
      <g transform="translate(132.76 132.2)">
        <path d="m0 4.049v-3.61h-1.389v-0.439h3.27v0.439h-1.377v3.61z" fill-rule="nonzero"/>
      </g>
    </g>
    <g transform="scale(4.1667)">
      <g transform="translate(138.97 132.2)">
        <path d="m0 4.049-0.13-3.469-1.347 2.309h-0.445l-1.371-2.279-0.135 3.439h-0.493l0.235-4.049h0.568l1.425 2.409 1.371-2.409h0.585l0.235 4.049z" fill-rule="nonzero"/>
      </g>
      <g transform="translate(57.009 81.731)">
        <path d="m0-0.871c0-25.862 21.55-46.827 48.133-46.827s48.133 20.965 48.133 46.827c0 25.861-21.55 46.826-48.133 46.826s-48.133-20.965-48.133-46.826m-14.375 0.436c0 30.672 24.866 55.538 55.539 55.538 30.672 0 55.538-24.866 55.538-55.538 0-30.673-24.866-55.539-55.538-55.539-30.673 0-55.539 24.866-55.539 55.539" fill="#38ae2b" fill-rule="nonzero"/>
      </g>
      <g transform="translate(101.51 104.46)">
        <path d="m0-15.4c-0.098-0.024-0.18-0.045-0.277-0.069-0.659-0.162-1.321-0.316-1.991-0.456-18.125-3.785-34.046-0.308-39.58 7.694 1.62 4.539 3.938 8.76 6.829 12.541-1.689-3.336-2.638-6.61-1.933-9.439 2.536-10.177 17.018-14.494 33.952-10.274 0.95 0.236 1.871 0.501 2.791 0.782 0.01-0.043 0.058-0.249 0.101-0.415 0.017-0.068 0.087-0.297 0.108-0.364" fill="#c1e089" fill-rule="nonzero"/>
      </g>
      <g transform="translate(102.59 145.02)">
        <path d="m0-55.677c-0.028 0.13-0.053 0.25-0.068 0.348 0.746 0.536 1.405 0.837 2.053 1.257l-0.01 4e-3c0.935 0.352 1.857 0.718 2.749 1.112v3e-3c8.761 3.875 15.313 9.713 17.538 15.775 0 1e-3 1e-3 1e-3 1e-3 3e-3 0.142 0.39 0.267 0.781 0.374 1.172 3e-3 0.01 6e-3 0.02 9e-3 0.03 0.068 0.254 0.129 0.509 0.182 0.765 1e-3 7e-3 3e-3 0.014 5e-3 0.021 0.025 0.124 0.048 0.247 0.07 0.37 2e-3 0.015 5e-3 0.031 8e-3 0.046 0.042 0.246 0.076 0.493 0.104 0.739 2e-3 0.017 4e-3 0.033 6e-3 0.049 0.012 0.119 0.023 0.239 0.032 0.358 1e-3 0.017 2e-3 0.034 4e-3 0.052 7e-3 0.119 0.015 0.239 0.019 0.358 1e-3 3e-3 1e-3 6e-3 1e-3 8e-3 5e-3 0.12 7e-3 0.24 8e-3 0.36 0 0.021 1e-3 0.043 1e-3 0.064 0 0.117-1e-3 0.234-5e-3 0.351 0 0.016-1e-3 0.032-1e-3 0.048-4e-3 0.11-9e-3 0.221-0.016 0.332-1e-3 0.014-2e-3 0.028-2e-3 0.043-8e-3 0.116-0.018 0.231-0.029 0.347-3e-3 0.024-5e-3 0.047-8e-3 0.071-0.011 0.116-0.025 0.232-0.041 0.348-2e-3 0.011-3e-3 0.022-5e-3 0.033-0.015 0.11-0.032 0.219-0.05 0.328-4e-3 0.021-7e-3 0.041-0.011 0.062-0.02 0.114-0.042 0.227-0.065 0.34-5e-3 0.023-0.01 0.047-0.015 0.07-0.026 0.116-0.052 0.233-0.08 0.35-0.023 0.089-0.047 0.177-0.071 0.266-7e-3 0.025-0.015 0.049-0.022 0.074-0.019 0.068-0.04 0.137-0.061 0.206l-0.021 0.066c-0.06 0.185-0.124 0.369-0.194 0.552-3e-3 7e-3 -5e-3 0.013-8e-3 0.02-0.035 0.093-0.072 0.185-0.111 0.278v1e-3c-1.093 2.614-3.321 5.11-6.344 7.266-1.906 1.265-4.267 2.486-7.219 3.608-20.679 7.861-44.394 5.757-58.717 0s-17.61-8.809-17.61-8.809c20.663 23.01 64.336 26.532 84.899 13.946 6.272-3.838 9.387-7.946 10.689-11.802l0.041-0.025c0.03-0.08 0.058-0.162 0.085-0.243 4.096-12.391-9.344-25.955-28.094-31.021" fill="#c1e089" fill-rule="nonzero"/>
      </g>
      <g transform="translate(105.14 85.787)">
        <path d="m0-51.753c-12.426 0-23.751 4.581-32.291 12.101 8.449-5.939 21.53-9.43 32.757-8.372 24.958 2.353 49.65 23.748 47.403 48.024 0.174-1.619 0.264-3.263 0.264-4.926 0-25.862-21.55-46.827-48.133-46.827" fill="#c1e089" fill-rule="nonzero"/>
      </g>
      <g transform="matrix(0 -1 -1 0 126.76 93.764)">
        <path d="m-5.37-5.37c-2.966 0-5.37 2.404-5.37 5.37s2.404 5.37 5.37 5.37 5.37-2.404 5.37-5.37-2.404-5.37-5.37-5.37" fill="#c1e089" fill-rule="nonzero"/>
      </g>
      <g transform="matrix(0 -1 -1 0 126.76 95.838)">
        <path d="m-4.333-4.333c-2.393 0-4.333 1.94-4.333 4.333 0 2.394 1.94 4.333 4.333 4.333s4.333-1.939 4.333-4.333c0-2.393-1.94-4.333-4.333-4.333" fill="#38ae2b" fill-rule="nonzero"/>
      </g>
      <g transform="translate(89 74.396)">
        <path d="m0 7.023c-0.117 0.176-0.234 0.351-0.351 0.527-0.991-0.753-2.141-1.391-3.469-1.796-0.098-0.03-0.175-0.052-0.217-0.064-0.474-0.129-1.385-0.312-3.867-0.503-4.239-0.326-4.947-0.179-5.785-0.908-0.957-0.83-0.767-1.655-1.784-2.229-1.065-0.601-2.361-0.312-3.249 0-0.368-0.212-1.915-1.043-3.604-0.473-1.134 0.384-2.564 1.478-2.363 2.481 0.108 0.54 0.672 0.974 1.182 1.123 0.59 0.172 1.105-0.041 1.359-0.118 0.771-0.235 2.023-0.089 4.135 1.595 0.247 0.075 0.545 0.143 0.886 0.177 0.656 0.065 1.21-0.022 1.595-0.118 2.018 0.536 3.574 1.177 4.608 1.654 6.312 2.913 9.865 5.376 9.865 5.376 0.375 0.26 1.241 0.872 2.363 0.827 0.164-7e-3 0.279-0.045 0.379-0.068 1.137-0.274 0.512-0.26 1.948-1.41 0.502-0.402 0.401-0.276 1.592-1.179 0.57-0.434 2.096-1.537 2.451-1.818 0.79 0.688 1.684 1.571 2.575 2.676 0.855 1.061 1.508 2.081 2.003 2.97 0.112-0.652 0.56-2.792 2.482-4.421 1.221-1.035 2.5-1.409 3.193-1.557-0.605 0.248-1.809 0.836-2.848 2.098-1.126 1.366-1.45 2.782-1.557 3.43 1.378 0.991 2.459 1.163 3.728 2.811 0.125 0.163 0.249 0.365 0.373 0.605 0.735 1.425 0.98 4.119 1.015 4.465 0.125 1.218 0.991 2.476 2.723 4.992 2.611 3.793 4.049 4.146 3.971 5.898-7e-3 0.148-0.019 0.25-0.029 0.329-0.074 0.595-0.053 1.12-0.044 1.359 0.02 0.51 0.033 0.769 0.18 0.977 0.131 0.182 0.298 0.274 0.532 0.383 0.592 0.273 1.328 0.613 2.438 0.669 0.359 0.018 0.467-9e-3 0.799 0.043 0.296 0.046 0.509 0.145 0.557 0.166 0.324 0.137 1.528 0.357 2.948 0.22 0.996-0.097 1.688-0.173 1.932-0.662 0.17-0.34 0.039-0.709 0.026-0.741-0.161-0.435-0.599-0.574-1.243-0.873 0 0-1.03-0.479-2.091-1.218-0.573-0.399-1.136-0.866-1.418-1.1-0.293-0.243-0.437-0.367-0.575-0.495-0.34-0.316-0.5-0.513-0.748-0.707-0.167-0.13-0.219-0.124-0.402-0.265-0.191-0.145-0.339-0.291-0.483-0.449-0.341-0.379-0.592-0.761-0.68-0.908-0.645-1.08-2.343-6.019-2.761-7.252-1.154-3.406-1.429-4.975-1.494-5.694-0.021-0.222-0.026-0.445-0.021-0.692 7e-3 -0.314 0.041-1.037-0.196-1.954-0.337-1.306-1.01-2.176-1.489-2.782-0.558-0.705-0.894-1.168-1.131-1.514 0 0-0.349-0.494-0.649-0.957-0.836-1.286-1.236-2.269-2.267-4.314-0.198-0.392-0.507-0.997-0.9-1.739-0.189-0.607-0.412-1.525-0.434-2.651-0.036-1.804 0.455-3.372 0.749-4.311 0.239-0.764 0.568-1.624 0.82-2.944 0.038-0.2 0.095-0.537 0.164-0.994 0.089-0.595 0.16-1.307 0.184-2.24-0.03 1.161 0.067 1.335 0.761 1.797 0.163 0.109 0.433 0.249 0.827 0.296 0.802 0.955 1.686 1.945 2.658 2.953 1.979 2.053 3.131 3.013 3.131 3.013 0.744 0.676 1.054 0.929 1.418 1.477 0.736 1.107 0.445 1.535 1.063 2.599 0.744 1.283 2.2 2.443 3.042 2.097 0.264-0.107 0.402-0.335 0.503-0.502 0.445-0.732 0.182-1.695-0.207-2.274-0.361-0.538-0.704-0.555-1.358-1.034-0.654-0.478-1.075-1.113-1.891-2.363-1.015-1.557-1.669-2.839-1.831-3.16-0.975-1.931-0.947-2.415-1.743-3.604-0.583-0.872-1.185-1.5-1.595-1.89-0.392 0.059-0.999 0.198-1.654 0.561-0.701 0.388-1.159 0.866-1.418 1.181-1e-3 -0.102 0.01-1.344 1.063-2.067 0.748-0.513 1.73-0.565 2.549-0.14-0.359-0.374-0.948-1.032-1.53-1.947-1.5-2.359-1.358-3.916-2.88-5.622-0.367-0.413-0.996-1.019-2.008-1.566 0.141-0.05 0.369-0.225 0.642-0.657 0.227-0.362 0.252-0.72 0.255-0.871 0.133-0.01 0.419-0.05 0.546-0.264 0.031-0.054 0.063-0.137 0.036-0.493-0.046-0.578-0.162-0.748-0.073-1.022 0.035-0.107 0.096-0.186 0.218-0.34 0.336-0.425 0.672-0.675 0.728-0.719 0.276-0.22 0.499-0.837 0.219-2.612 0.084-0.051 0.179-0.127 0.241-0.246 0.386-0.743-0.873-2.319-2.062-3.179-1.468-1.063-3.45-1.484-5.092-0.979-0.801 0.247-1.489 0.703-1.457 0.788 0.023 0.062 0.425-0.11 0.827 0.079 0.205 0.096 0.342 0.254 0.433 0.394-0.253 0.011-0.684 0.065-1.153 0.305-0.611 0.313-0.948 0.771-1.092 0.994 0.059-0.051 0.408-0.347 0.867-0.276 0.174 0.028 0.307 0.1 0.393 0.158-0.359 0.515-0.516 0.992-0.59 1.3-0.194 0.802-0.15 1.788 0.113 2.252 0.026 0.045 0.105 0.174 0.128 0.359 0.033 0.269-0.071 0.487-0.128 0.606-0.346 0.728-0.441 1.042-0.589 1.235-5e-3 6e-3 -9e-3 0.011-0.011 0.014 0.126 0.404 0.586 1.703 1.897 2.627 1.487 1.046 3.22 0.777 3.214 0.872-6e-3 0.108-2.198 0.602-4.27-0.502-1.386-0.739-2.12-1.875-2.441-2.462-0.563 0.368-1.174 0.726-1.833 1.061-3.596 1.827-7.124 2.212-9.705 2.191 0.106 0.35 0.246 0.73 0.431 1.126 0.507 1.082 1.161 1.878 1.702 2.42-0.405-0.176-1.02-0.502-1.623-1.087-0.645-0.626-0.997-1.279-1.181-1.693-0.52 0.127-1.263 0.271-2.166 0.314-0.796 0.039-1.394-0.017-2.048-0.078-1.386-0.129-1.484-0.308-2.363-0.355-0.777-0.041-0.903 0.079-2.639 0.315-0.968 0.132-1.709 0.193-3.19 0.316-2.252 0.185-2.642 0.137-3.072 0-0.213-0.069-0.873-0.3-1.654-0.631-0.865-0.366-0.88-0.432-1.103-0.433-1.257-6e-3 -2.048 2.089-2.166 2.403-0.186 0.493-0.164 0.678-0.078 0.787 0.231 0.295 1.083 0.218 1.575-0.197 0.191-0.162 0.23-0.292 0.393-0.315 0.3-0.042 0.451 0.354 0.867 0.67 0.799 0.606 1.869 0.377 1.969 0.354 0.216-0.049 0.61-0.171 1.024-0.512 2.357 0.48 4.204 0.931 5.474 1.26 1.126 0.292 1.955 0.529 3.151 0.513 1.432-0.02 2.244-0.399 3.308-0.67 1.238-0.315 3.065-0.552 5.522-0.11 0.284 0.208 0.567 0.416 0.85 0.624 0.178-0.166 0.622-0.536 1.308-0.672 0.768-0.151 1.377 0.082 1.595 0.178 0.741 1.01 2.119 3.178 2.543 6.28 0.474 3.47-0.511 6.181-1.009 7.335 0.754-0.38 2.344-1.043 4.354-0.835 3.911 0.404 5.97 3.749 6.222 4.174-0.53-0.636-2.381-2.693-5.375-3.072-0.526-0.066-3.258-0.356-4.899 1.096-0.715 0.633-1.134 1.437-1.134 1.437-0.364 0.699-0.376 1.147-0.529 1.588-0.234 0.67-0.868 1.536-2.709 2.265 0.475 0.616 1.037 1.27 1.699 1.932 1.229 1.231 2.461 2.144 3.525 2.815-0.838-0.176-2.382-0.626-3.818-1.892-0.705-0.622-1.193-1.272-1.523-1.801" fill="#c1e089" fill-rule="nonzero"/>
      </g>
      <g transform="translate(101.88 54.008)">
        <path d="m0-8.985c-1.005 0.022-1.768 0.333-2.173 0.532 0.487-0.152 0.837-0.081 1.02-0.022 0.058 0.019 0.403 0.13 0.399 0.266-4e-3 0.102-0.203 0.141-0.444 0.266-0.369 0.193-0.573 0.482-0.732 0.71-0.622 0.891-0.196 2.206-0.133 2.395 0.016 0.045 0.084 0.158 0.134 0.329 0.07 0.241 0.059 0.408 0.074 0.628 0 0 0.019 0.28 0.113 0.681 0.194 0.816 0.786 0.951 0.738 1.389-0.046 0.415-0.591 0.442-0.709 0.848-0.091 0.313 0.083 0.816 1.138 1.66 0.288 0.145 0.728 0.332 1.291 0.435 0.737 0.134 1.419 0.073 1.424 0.142 2e-3 0.019-0.048 0.051-0.297 0.103 0.119-9e-3 0.298-0.03 0.509-0.087 0.294-0.078 0.904-0.293 0.891-0.494-0.015-0.236-0.884-0.299-0.873-0.436 9e-3 -0.104 0.519-0.17 0.814-0.185 0.254-0.014 0.416-7e-3 0.71-0.056 0.202-0.034 0.402-0.109 0.397-0.156-7e-3 -0.073-0.474 0.04-0.831-0.225-0.031-0.024-0.352-0.268-0.326-0.614 0.028-0.386 0.471-0.7 0.794-0.633 0.104 0.022 0.263 0.096 0.295 0.225 0.048 0.204-0.216 0.38-0.157 0.467 0.042 0.062 0.205 0.024 0.381-0.017 0.184-0.042 0.276-0.064 0.312-0.104 0.205-0.225-0.351-0.795-0.155-1.316 0.021-0.057 0.079-0.188 0.172-0.329 0.036-0.053 0.121-0.176 0.26-0.312 0.066-0.064 0.099-0.077 0.226-0.189 0.117-0.103 0.175-0.154 0.173-0.174-0.023-0.138-0.944 0.079-1.161-0.277-0.109-0.179-0.013-0.46 0.025-0.573 0.085-0.249 0.188-0.24 0.227-0.397 0.101-0.412-0.52-0.656-0.539-1.248-2e-3 -0.045-0.013-0.357 0.17-0.567 0.458-0.521 1.624 0.149 1.831-0.137 0.285-0.396-1.221-2.686-3.66-3.459-1.404-0.446-2.658-0.242-3.304-0.089 0.308-0.036 1.405-0.126 2.351 0.599 0.354 0.271 0.584 0.578 0.731 0.82-0.411-0.171-1.153-0.42-2.106-0.399" fill="#38ae2b" fill-rule="nonzero"/>
      </g>
      <g transform="translate(65.298 73.104)">
        <path d="m0-13.962c0.306-0.033 0.646-0.155 0.895-0.365 0.191-0.162 0.23-0.292 0.393-0.315 0.299-0.042 0.451 0.354 0.867 0.67 0.799 0.606 1.869 0.377 1.969 0.354 0.216-0.05 0.609-0.172 1.024-0.512 2.357 0.48 4.204 0.931 5.474 1.26 1.126 0.292 1.955 0.529 3.151 0.512 1.432-0.019 2.244-0.398 3.308-0.669 1.237-0.315 3.065-0.552 5.522-0.11 0.283 0.208 0.566 0.416 0.85 0.624 0.178-0.166 0.621-0.536 1.308-0.672 0.768-0.152 1.377 0.081 1.594 0.178 0.296 0.402 0.692 0.997 1.089 1.753 0.422 0.083 1.898 0.428 3.017 1.805 0.946 1.166 1.1 2.409 1.134 2.874-0.228-0.247-0.551-0.55-0.983-0.832-0.392-0.256-0.762-0.421-1.059-0.529 0.926 1.089 1.031 1.837 0.908 2.344-0.131 0.54-0.553 0.939-0.378 1.21 0.151 0.236 0.589 0.015 1.059 0.227 0.458 0.207 0.688 0.702 0.811 1.105-0.359 0.054-0.904 0.186-1.473 0.533-0.997 0.609-1.44 1.495-1.598 1.862 0.454-0.17 1.139-0.372 1.986-0.413 1.787-0.088 3.117 0.596 3.917 1.02 2.79 1.48 4.167 4.053 4.661 5.103-0.118-1.181-0.364-2.915-0.939-4.95-0.729-2.582-1.693-4.602-1.406-4.76 0.325-0.179 1.976 2.46 2.407 2.226 0.149-0.081 0.053-0.467 0.05-0.66-0.029-1.785-1.073-2.352-1.611-4.337-0.226-0.836-0.407-2.085-0.089-3.757 0.09 1.159 0.419 1.968 0.715 2.504 0.413 0.747 0.842 1.109 1.171 2.009 0.235 0.642 0.293 1.218 0.305 1.613 0.253-0.483 0.59-1.214 0.849-2.146 0.581-2.081 0.402-3.836 0.302-4.741-0.178-1.601-0.419-1.351-0.549-2.836-0.068-0.78-0.081-1.372-0.51-1.929-0.273-0.354-0.607-0.529-0.943-0.679-0.271-0.121-0.607-0.219-1.003-0.288-0.773 0.114-2.288 0.129-3.746-0.648-0.084-0.045-0.159-0.096-0.239-0.143-0.893-0.183-1.787-0.367-2.68-0.55-1.528 0.638-2.841 1.126-3.841 1.477-3.554 1.25-4.916 1.408-6.227 0.951-0.324-0.112-0.59-0.244-0.787-0.354 0.067 0.174 0.14 0.352 0.226 0.535 0.506 1.082 1.161 1.878 1.702 2.42-0.396-0.172-0.991-0.49-1.579-1.049-0.212-0.047-0.402-0.087-0.53-0.112 0 0-3.073-0.614-6.07-0.334-0.925 0.087-0.743 0.147-2.116 0.334-4.601 0.629-6.933 0.948-8.798-0.223-0.534-0.335-1.295-0.959-2.06-0.723-0.513 0.158-0.838 0.644-1.002 0.891-0.159 0.239-0.429 0.678-0.448 1.242" fill="#38ae2b" fill-rule="nonzero"/>
      </g>
      <g transform="translate(106.74 78.767)">
        <path d="m0-20.16c0.681 1.378 0.819 2.511 0.813 3.309-9e-3 1.304-0.427 4.333-0.151 4.537 0.06 0.044 0.125 0.078 0.125 0.078 0.505 0.149 2.211 0.719 3.202 2.418 0.383 0.656 0.548 1.289 0.622 1.762 1.665 1.692 2.629 2.5 2.629 2.5 0.744 0.675 1.054 0.928 1.418 1.477 0.737 1.106 0.446 1.534 1.064 2.599 0.546 0.94 1.471 1.808 2.259 2.072 0.303-0.271 0.519-0.618 0.479-0.957-0.035-0.295-0.378-0.832-0.378-0.832-0.515-0.499-0.605-0.529-0.605-0.529-0.397-0.131-0.651 0.268-0.984 0.151-0.302-0.106-0.399-0.541-0.453-0.756-0.211-0.845-0.727-1.588-0.983-2.42-0.444-1.438-1.153-1.281-2.119-3.404-1.039-2.285-0.93-3.559-2.268-4.613-0.589-0.464-1.224-0.705-1.537-0.952-0.05 0.025-0.096 0.043-0.146 0.071-0.701 0.388-1.159 0.866-1.418 1.181 0.011-0.179 0.096-1.314 1.064-2.067 0.257-0.201 0.525-0.323 0.791-0.409-0.413-0.426-0.963-1.068-1.47-1.933-1.142-1.952-1.376-3.875-1.714-3.834-0.074 9e-3 -0.167 0.114-0.24 0.551" fill="#38ae2b" fill-rule="nonzero"/>
      </g>
      <g transform="translate(123.52 75.696)">
        <path d="m0 35.255c0.059 0.396-0.042 0.589-0.122 0.686-0.458 0.551-2.072 0.225-2.886-0.71-0.256-0.294-0.167-0.324-0.433-0.731-0.753-1.155-2.368-1.973-3.604-2.18-0.172-0.028-0.448-0.064-0.657-0.281-0.341-0.354-0.287-0.96-0.19-1.413-0.187-0.135-0.375-0.268-0.561-0.403-0.737-2.51-1.62-4.394-2.325-5.698-0.319-0.588-2.244-4.39-2.27-6.429-1e-3 -0.136 0.147-1.482-0.113-3.176-0.16-1.044-0.349-1.433-0.602-1.736-0.122-0.147-0.482-0.585-1.924-1.122-1.678-0.625-2.342-0.468-2.522-0.857-0.179-0.387 0.184-1.179 2.344-2.918-0.636-0.977-1.272-1.964-1.906-2.96-0.444-0.695-0.882-1.387-1.318-2.078-0.018-0.136-0.048-0.297-0.091-0.478-0.036-0.147-0.094-0.36-0.182-0.594 0 0-0.172-0.453-0.455-0.898-0.594-0.699-2.411-2.629-5.31-2.996-0.191-0.024-0.675-0.077-1.29-0.066h-1e-3c-0.34 0.026-2.199 0.202-3.254 1.699-0.966 1.369-0.799 3.193-0.208 4.409 0.971 1.998 2.548 2.167 4.902 4.614 1.239 1.289 2.019 2.546 2.465 3.359 0.178-0.464 0.939-2.283 2.933-3.255 1.233-0.601 2.379-0.607 2.959-0.568 0.01-3e-3 0.023-6e-3 0.033-8e-3 -4e-3 1e-3 -0.01 4e-3 -0.014 6e-3 0.039-5e-3 0.073-0.01 0.111-0.014-0.081 0.022-0.176 0.052-0.269 0.082-0.642 0.282-1.725 0.869-2.677 2.023-1.125 1.366-1.449 2.783-1.556 3.431 1.378 0.99 2.459 1.162 3.727 2.811 0.125 0.162 0.249 0.365 0.373 0.605 0.736 1.425 0.981 4.118 1.016 4.465 0.125 1.217 0.991 2.476 2.723 4.991 2.611 3.794 4.049 4.146 3.97 5.899-6e-3 0.148-0.018 0.25-0.028 0.329-0.074 0.595-0.054 1.119-0.044 1.359 0.02 0.51 0.032 0.769 0.18 0.976 0.131 0.183 0.298 0.275 0.532 0.384 0.592 0.273 1.328 0.612 2.438 0.669 0.359 0.018 0.467-9e-3 0.798 0.043 0.297 0.045 0.51 0.145 0.558 0.166 0.324 0.137 1.528 0.357 2.948 0.219 1.165-0.113 1.74-0.236 1.932-0.661 0.153-0.338 4e-3 -0.736-0.13-0.995" fill="#38ae2b" fill-rule="nonzero"/>
      </g>
      <g transform="translate(96.634 80.484)">
        <path d="m0 4.042c-0.649-0.156-1.811-0.535-2.885-1.517-0.365-0.333-1.121-1.042-1.559-2.233-0.181-0.494-0.257-0.931-0.291-1.244-0.305 0.237-0.742 0.527-1.31 0.763-0.473 0.196-0.893 0.293-1.241 0.35 0.427 0.534 0.905 1.088 1.468 1.652 1.23 1.231 2.462 2.144 3.525 2.814l1e-3 1e-3v-1e-3 1e-3c-0.838-0.176-2.382-0.626-3.818-1.892-0.239-0.211-0.445-0.423-0.636-0.634-0.584 0.61-0.541 0.784-1.314 1.526-3.003-2.967-5.421-3.595-7.108-3.592-0.99 2e-3 -4.512 0.227-6.013-0.681-0.359-0.216-0.74-0.447-0.983-0.907-0.275-0.521-0.162-0.942-0.529-1.512-0.192-0.298-0.418-0.493-0.568-0.605 0.03 0.046 0.451 0.732 0.158 1.203-0.251 0.404-0.873 0.392-1.21 0.385-1.167-0.024-1.442-0.739-2.477-0.715-0.077 2e-3 -0.492 0.129-1.32 0.385-1.452 0.448-1.689 0.539-2.147 0.55-0.285 7e-3 -1.349 0.034-1.54-0.44-0.182-0.449 0.507-1.132 0.898-1.52 0.458-0.454 0.886-0.666 0.885-0.668-1.125 0.4-2.506 1.472-2.308 2.459 0.108 0.54 0.672 0.974 1.181 1.123 0.591 0.172 1.106-0.041 1.359-0.118 0.771-0.235 2.024-0.089 4.136 1.595 0.247 0.075 0.545 0.143 0.885 0.177 0.657 0.066 1.21-0.022 1.595-0.118 2.019 0.536 3.575 1.177 4.608 1.654 6.312 2.913 9.866 5.376 9.866 5.376 0.375 0.26 1.24 0.872 2.363 0.827 0.163-7e-3 0.279-0.045 0.378-0.068 1.138-0.274 0.513-0.26 1.949-1.41 0.502-0.402 0.401-0.276 1.591-1.179 0.556-0.421 2.004-1.47 2.411-1.787" fill="#38ae2b" fill-rule="nonzero"/>
      </g>
    </g>
  </g>
</svg>