<?xml version="1.0" encoding="utf-8"?>
<svg xmlns="http://www.w3.org/2000/svg" xmlns:xlink="http://www.w3.org/1999/xlink" version="1.1" id="Layer_1" x="0px" y="0px" viewBox="0 0 2000 2000" style="enable-background:new 0 0 2000 2000;">
<style type="text/css">
	.st0{fill:#FF00DB;}
	.st1{fill:#00CFFF;}
	.st2{fill:#54C7E6;}
	.st3{fill:#1E2530;}
</style>
<g>
	<path class="st0" d="M32.5,1343.2c7.6-8.3,5.2-19.4,7.9-29.1c2.6-9.5,4.3-19.3,6.8-28.8c7.4-28.3,26.5-43.1,55-44.8&#xD;&#xA;		c36.9-2.3,74-2.5,110.9,0c31.3,2.1,45.1,21,41.4,52c-0.8,7.1-3.2,10.3-10.6,9.8c-6.7-0.5-13.6-0.3-20.3,0&#xD;&#xA;		c-7.8,0.4-13.7,0.4-13.8-10.7c-0.1-9.6-8.1-14.5-17.1-15.2c-28.6-2.2-57.2-2.9-85.7,0.5c-10.7,1.3-16.5,8.3-19,18.2&#xD;&#xA;		c-5.7,22.2-9.4,44.8-12,67.6c-1.5,13,4.2,21.3,18,22.1c27.6,1.6,55.2,2.1,82.7-0.4c8.8-0.8,17.2-4.3,19.4-13.3&#xD;&#xA;		c2.7-11.3,9.5-12.3,19.2-12.2c32.2,0.4,32.7,1.1,19.4,31.4c-6.8,15.5-18.1,25.8-34.9,28c-45.6,6-91.4,4.2-137.1,1.3&#xD;&#xA;		c-12.7-0.8-21.5-8.8-30.1-16.9C32.5,1382.8,32.5,1363,32.5,1343.2z"/>
	<path class="st0" d="M1026.9,1609c8.8-31,12-63.2,17.7-94.8c1.9-10.6,6.1-12.2,15.9-13.5c22.6-2.9,36.4,4.6,46,25.8&#xD;&#xA;		c9.8,21.4,23.5,41.1,39.3,61c4.4-24.7,8.7-49.4,13-74.1c1.2-6.8,1.9-12.4,11.8-12.6c12.7-0.3,16.9,1.7,14.3,16.2&#xD;&#xA;		c-5.4,30.5-14,60.6-14.4,91.9c-16.7,0-33.4,0-50,0c-14.2-29.5-31.1-57.2-51.6-84.1c-4.7,28-9.4,56-14.1,84.1&#xD;&#xA;		C1045.7,1609,1036.3,1609,1026.9,1609z"/>
	<path class="st0" d="M767.4,1609c8.6-31,11.9-63,17.7-94.5c1.9-10.2,5.1-13.8,15.6-13.5c22.8,0.8,45.7-0.2,68.5,0.5&#xD;&#xA;		c12,0.3,26.8-2.6,32.1,12.7c5.5,16,3.2,31.8-7.8,45.5c-2.2,2.8-5.1,5.1-8.5,8.4c12.1,6.3,12.1,16.7,10.1,28.1&#xD;&#xA;		c-0.7,4.1-4.5,8.8,0.5,12.9c-9.4,0-18.8,0-28.1,0c1.8-30.6,1.8-30.6-30-30.6c-2.6,0-5.1,0-7.7,0c-30.6,0-30.6,0-34.2,30.6&#xD;&#xA;		C786.1,1609,776.7,1609,767.4,1609z M835,1556.4c0-0.1,0-0.2,0-0.2c8.8,0,17.7,0.7,26.5-0.2c12.6-1.3,15.3-10.8,15.4-21.5&#xD;&#xA;		c0.2-11.7-8.4-11.2-16.4-11.3c-13.5-0.1-27,0.4-40.5-0.2c-8-0.3-10.6,2.9-12,10.4c-4.3,22.9-4.6,22.9,19.2,22.9&#xD;&#xA;		C829.8,1556.4,832.4,1556.4,835,1556.4z"/>
	<path class="st0" d="M904.9,1609c2.9-33.8,11.5-66.6,16.1-100.1c1.1-8.4,6.8-7.7,12.6-7.7c29.2,0,58.4-0.2,87.5,0.2&#xD;&#xA;		c4.5,0.1,12.8-4.1,12,6.7c-0.7,8.3-1.9,14.7-13.5,14.1c-20.8-1.1-41.7,0.6-62.5-0.6c-13.8-0.8-13.6,7.7-14.7,16.5&#xD;&#xA;		c-1.6,13,8.5,7.6,13.6,7.8c18.7,0.6,37.5,0,56.3,0.4c4.1,0.1,11.9-3.3,10.2,6.5c-1.1,6.4-0.8,13.2-11.3,12.8&#xD;&#xA;		c-20.3-0.8-40.6-0.3-60.9-0.2c-10.9,0-19.2,11.4-16.1,21.5c1.6,5.3,5.9,3.2,9,3.2c17.7,0.2,35.5,1.1,53.1-0.2&#xD;&#xA;		c15-1.1,24.9,0.8,21.3,19.1C980,1609,942.5,1609,904.9,1609z"/>
	<path class="st0" d="M1177,1609c0.5-9,7.7-14.3,12.2-20.9c17.6-25.7,36.6-50.6,53.5-76.8c10.8-16.6,26-8.3,39.4-9.9&#xD;&#xA;		c11.7-1.4,10.3,10.1,12.6,16.4c11.2,30.2,21.6,60.7,32.3,91.1c-10.4,0-20.8,0-31.3,0c-8.7-25.5-8.7-25.5-35.9-25.5&#xD;&#xA;		c-6.8,0-13.5,0-20.3,0c-19.4,0-24.5,4.2-31.4,25.5C1197.8,1609,1187.4,1609,1177,1609z M1238.6,1560.7c42.8,6,44.1,4.5,29.9-32.3&#xD;&#xA;		c-0.6-1.6-0.6-4.3-5.4-3.4C1255.6,1536.1,1247.3,1548.1,1238.6,1560.7z"/>
	<path class="st0" d="M617.3,1609c-3.7-5.6,2-8.2,4.1-11.3c20.1-29.1,41.2-57.7,60.8-87.1c11-16.5,26.4-7.4,39.8-8.9&#xD;&#xA;		c10.3-1.2,9.2,9.7,11.3,15.8c10.4,30.5,23,60.2,30.9,91.5c-10.4,0-20.8,0-31.3,0c-3.8-25.5-3.8-25.5-27.9-25.5&#xD;&#xA;		c-6.2,0-12.6,1-18.6-0.2c-21.8-4.1-33.7,7-41,25.7C636,1609,626.6,1609,617.3,1609z M676.2,1562.4c14.3,0,24.7,0,35,0&#xD;&#xA;		c4.2,0,7.7-0.9,5.8-6.1c-3.9-10.8-5.7-22.5-13.2-33.4C694.7,1535.9,686.5,1547.6,676.2,1562.4z"/>
	<path class="st1" d="M1908.7,1258.8c-8.8,24.5-10.1,50.6-15.5,75.8c-1.6,7.3,0.3,19-7,20.8c-11.8,2.9-24.8,1.4-37.2,0.6&#xD;&#xA;		c-4.6-0.3-3.3-5.9-2.7-9.2c5.6-32.3,11.7-64.5,17.1-96.8c1.3-7.9,5-10.3,12.5-10c10.9,0.5,21.9,0.1,32.8,0.1&#xD;&#xA;		C1908.7,1246.3,1908.7,1252.6,1908.7,1258.8z"/>
	<path class="st2" d="M429.9,934.5c-53.6-15.5-95.3-63.8-99.2-118.1c-2.7-37.2,14.4-67.4,39.4-93.5c37.9-39.6,85.4-64.3,134.8-85.8&#xD;&#xA;		c94.1-41,193.1-64.5,294.4-78.7c84.4-11.8,168.9-23.1,253.3-34.7c4.6,0.1,8.4-3,13.5-2.3c26.8,3.7,53.6,6.7,80.5,10&#xD;&#xA;		c18.3,2.3,36.7,4.5,55.7,6.9c-3.4,8.4-9.4,12.1-14,16.9c-22.1,23.3-47,43.9-67.6,68.7c-0.7,0.4-1.4,0.8-2.1,1.2&#xD;&#xA;		c0.5,0.4,1,0.8,1.5,1.2c0.4-0.7,0.7-1.3,1.1-2c11.3-0.5,20.2-7.4,29.9-11.8c23.8-10.8,47.4-22.3,75.6-35.6&#xD;&#xA;		c-13.6,40.7-25.6,76.8-37.7,112.9c-69.2,7.6-138.4,15-207.6,23c-55.7,6.4-111.3,13.7-167,20.5c-8.8,1.1-17.5,2.3-25.8,5.5&#xD;&#xA;		c-61.4,0.2-122.9-0.7-184.3,0.7c-88.8,2-128.2,33.1-153.1,118.4C443.7,883.4,436.9,909,429.9,934.5z"/>
	<path class="st0" d="M1033.1,742.7c-13.2,52.9-26,104.3-38.8,155.7c-10.5,41.9-20.6,83.9-31.6,125.7c-2.7,10.4-1.1,13.3,10.1,13.2&#xD;&#xA;		c65.6-0.5,131.3-0.4,196.9,0c9.1,0.1,14-3.7,19.2-10.3c70.9-91.3,142.2-182.4,212.9-273.9c6.1-7.8,12.2-11,22.1-10.8&#xD;&#xA;		c34.4,0.6,68.8,0.8,103.1-0.1c11.4-0.3,15,3.9,17.7,14c31,113.5,62.4,226.9,94,340.1c3.2,11.4,0.9,14.4-10.8,14&#xD;&#xA;		c-26-0.7-52.1-0.5-78.1-0.1c-8.2,0.1-11.9-2.3-13.8-10.6c-5.4-23.3-12.3-46.3-17.6-69.6c-2.1-9.1-5.4-12.7-15.4-12.6&#xD;&#xA;		c-65.1,0.5-130.3,0.4-195.4,0.1c-7.7,0-12.3,2.6-16.8,8.6c-18.7,25.1-38.1,49.5-56.7,74.7c-5.3,7.1-10.9,9.5-19.6,9.5&#xD;&#xA;		c-115.7-0.3-231.3-0.3-347,0c-11.6,0-13.7-2.4-10.8-14c28.7-113,56.9-226.2,84.6-339.4c2.7-11.1,6.6-15.3,18.4-14.8&#xD;&#xA;		C983.7,743.4,1007.6,742.7,1033.1,742.7z M1350.2,948.6c48.5,0,93.1,0,137.7,0.1c5.8,0,8.7-1.2,6.9-8&#xD;&#xA;		c-10.9-40.6-21.6-81.3-32.2-122.1c-2.2-8.3-5.2-7.8-9.8-1.9C1419.4,859.6,1385.9,902.7,1350.2,948.6z"/>
	<path class="st0" d="M429.9,934.5c7-25.5,13.8-51.1,21.2-76.4c24.9-85.3,64.3-116.4,153.1-118.4c61.4-1.4,122.8-0.5,184.3-0.7&#xD;&#xA;		c16.1,1.6,32.1,3.2,47.6,8.2c28.7,9.2,45.3,28.4,48.3,58.8c0.4,3.6,0.8,7.3,0.9,10.9c0.9,47.8-1.5,50.3-48.3,50.3&#xD;&#xA;		c-4.7,0-9.4,0-14.1,0c-9.4-0.1-20.1,2.6-27.7-1.1c-9.2-4.4-0.8-15.9-2.9-24.2c-2.9-11.5-8.8-19.8-19.9-24.1&#xD;&#xA;		c-10.8-4.2-22.2-5.6-33.7-5.7c-41.7-0.1-83.3-0.1-125,0.1c-7.8,0-15.5,1.4-23.3,2c-24.4,2-40.3,14.7-48.5,37.8&#xD;&#xA;		c-12.1,33.9-18.4,69.4-27.7,104c-3.6,13.6-7.5,27.1-8.3,41.3c-1.3,22.5,6.7,32.7,28.8,37.1c6.6,1.3,13.4,2.3,20.1,2.3&#xD;&#xA;		c44.8,0.2,89.6,0.4,134.4-0.1c33.1-0.4,61.2-9.1,69.7-46.7c1.3-5.8,5.2-6.7,10.5-6.7c23.4,0.2,46.9,0.3,70.3-0.1&#xD;&#xA;		c8.5-0.1,10.1,3,7,10.1c-0.6,1.4-0.8,3-1.2,4.5c-22.8,82-55.8,109.1-141.2,111.4c-66.6,1.8-133.3,0.5-200,0.4&#xD;&#xA;		c-14.6,0-29.1-1.8-43.3-5.5c-34.6-9.1-49.6-28.2-50-63.9c-0.3-27.4,7.2-53.5,13.5-79.8C426.6,951.8,430.2,943.6,429.9,934.5z"/>
	<path class="st2" d="M1221,446.2c-146.7,21.5-293.3,43.4-439.4,68.8c-107.4,18.6-213.6,41.4-314.1,85&#xD;&#xA;		c-51,22.1-98.9,49.1-135.6,92.4c-9.5,11.2-17.7,23.2-24.6,36.1c-1.4,2.6-3.1,6.4-6.9,4.6c-3.8-1.8-1.4-5.1-0.6-8&#xD;&#xA;		c5.4-19.2,13.5-37.2,24-54.1C366.7,602,429.4,558,503,526.3c103.5-44.6,211.9-71,321.7-93.3c165.7-33.7,332.2-63.2,498.6-92.8&#xD;&#xA;		c4.6-0.8,9.3-0.7,13.9-1.1c-17,32.7-34,65.4-51,98.1c-5.9,1-11.8,1.9-17.8,2.9c-18-14.6-35.9-29.1-56.3-45.6&#xD;&#xA;		C1215.5,413.8,1218.3,430,1221,446.2z"/>
	<path class="st0" d="M1286.3,437.1c17-32.7,34-65.4,51-98.1c19.7-37.1,39.5-74.3,59.2-111.4c2.9-5.4,5.8-10.6,8.8-16&#xD;&#xA;		c1.6,0.6,3.2,1.2,4.8,1.8c-26.2,78-52.4,156-78.6,234c-0.1,1.3-0.3,2.6-0.4,3.8c1.2-0.3,2.4-0.7,3.5-1&#xD;&#xA;		c32.4-15.6,64.8-31.1,97.2-46.7c1.1,1.6,2.3,3.2,3.4,4.8c-27.7,26.6-55.4,53.1-85.5,82c71.6,7.1,139.6,13.9,207.7,20.7&#xD;&#xA;		c0,1.2,0.1,2.4,0.1,3.6c-30,4.1-60,8.3-90.1,12.3c-41.8,5.6-83.6,11.2-125.4,16.3c-10.2,1.2-12.8,4.2-10.1,14.7&#xD;&#xA;		c5.7,22.6,9.8,45.6,15.6,73.2c-19.7-13.4-36.1-24.5-52.4-35.7c-20.8-14.3-20.9-14.3-32.7,8.2c-31.2,59.4-62.4,118.9-93.5,178.3&#xD;&#xA;		c-1.7,3.2-3.3,6.5-5.1,9.7c-1.5,2.7-3.4,6.4-6.9,4.4c-3.7-2.2-0.3-5.1,0.6-7.9c10.6-32.6,20.9-65.3,31.3-98&#xD;&#xA;		c12.1-36.1,24.1-72.2,37.7-112.9c-28.2,13.3-51.7,24.7-75.6,35.6c-9.7,4.4-18.6,11.3-29.9,11.8l-0.4-0.4&#xD;&#xA;		c20.6-24.8,45.4-45.5,67.6-68.7c4.6-4.8,10.6-8.4,14-16.9c-19-2.4-37.3-4.7-55.7-6.9c-26.8-3.3-53.7-6.4-80.5-10&#xD;&#xA;		c-5.1-0.7-8.9,2.5-13.5,2.3c-8.4-8.1-19.5-4.5-29.3-6.7c-5.9-1.3-11.9-1.9-17.8-6.1c31.3-2.9,62.7-5.9,94-8.8&#xD;&#xA;		c38.3-3.5,76.6-7.6,115-10.1c14.6-0.9,17.6-5.8,13.1-18.9c-3-8.7-2.4-18.5-6.6-27c-2.7-16.2-5.5-32.4-8.8-51.8&#xD;&#xA;		c20.4,16.5,38.3,31.1,56.3,45.6C1276.3,450.5,1282.9,453.8,1286.3,437.1z"/>
	<path class="st0" d="M658.3,1326.3c29.3,20.9,21.7,72.1-12,88c-10.5,4.9-21.8,7-33.3,7.1c-44.2,0.1-88.5-0.1-132.7,0.3&#xD;&#xA;		c-9,0.1-11.7-2.1-10-11.3c9.6-53.2,19-106.5,28-159.8c1.4-8.2,5.2-9.8,12.5-9.8c41.6,0.3,83.3,0.2,124.9,0.2c1,0,2.1,0.1,3.1,0.1&#xD;&#xA;		c27.7,1.9,41,9.5,45,25.9C689.3,1289.8,679.8,1312.5,658.3,1326.3z M567.7,1387.3c0-0.3,0-0.6,0-0.9c16.1,0,32.2,1,48.2-0.3&#xD;&#xA;		c15.2-1.2,18.5-13.4,18.5-26.1c-0.1-13.6-10.8-13.4-20.1-13.5c-19.7-0.3-39.4-0.2-59.1-0.2c-31.7,0-31.7,0-35.7,31.4&#xD;&#xA;		c-0.1,0.5-0.2,1-0.3,1.5c-2.2,6.3,0.6,8.2,6.7,8.2C539.7,1387.1,553.7,1387.3,567.7,1387.3z M578.5,1314.3c0,0,0-0.1,0-0.1&#xD;&#xA;		c13.5,0,27.1,0.7,40.5-0.2c12.4-0.9,21.1-12.5,20.5-25.2c-0.7-14.6-11.3-13.8-21.4-13.8c-21.8,0-43.7,0-65.5,0&#xD;&#xA;		c-16.5,0-20.2,5.2-20.4,31.1c-0.1,15.3,11.9,6.8,18.2,7.9C559.6,1315.4,569.1,1314.3,578.5,1314.3z"/>
	<path class="st0" d="M1081.8,1351.7c19.4,6.9,24.4,20.1,20.1,37.7c-0.5,2-0.3,4.2-1,6.2c-2.8,8.2,1,21.5-6.7,24.3&#xD;&#xA;		c-10.7,3.8-23.6,1.3-35.5,1.5c-3.2,0-4.6-1.7-4.2-4.9c0.3-2.6,0.6-5.2,1-7.7c5.6-37.4,2.9-40.5-34.6-40.6c-21.3,0-42.7,0.5-64-0.3&#xD;&#xA;		c-9.6-0.4-13.1,3.2-13.9,12c-0.4,5.2-1.6,10.3-2.6,15.4c-1.8,8.5,0.3,21.8-6.3,24.4c-10.5,4-23.5,1.7-35.4,1.8&#xD;&#xA;		c-6.8,0.1-5.2-4.6-4.4-8.7c9.5-53.8,19.1-107.5,28.1-161.4c1.5-8.7,5.2-10.6,13.3-10.5c41.1,0.3,82.2-0.4,123.3,0.4&#xD;&#xA;		c19.7,0.4,42.2-3.3,52.7,20.7c10.1,23.2,2,61.3-16.1,78.6C1091.8,1344,1087.6,1347,1081.8,1351.7z M1012.3,1276.9&#xD;&#xA;		C1012.3,1277,1012.3,1277,1012.3,1276.9c-7.3,0.1-14.6,0.1-21.9,0.1c-28.8,0-28.8,0-34.2,28.3c-5,26.4-5,26.4,21.2,26.4&#xD;&#xA;		c10.4,0,20.8,0.1,31.3,0c13-0.1,26.1,0.6,39-0.8c16.5-1.7,25.3-17.1,23.9-38c-1.1-17-13.5-15.8-25-15.9&#xD;&#xA;		C1035.2,1276.8,1023.7,1276.9,1012.3,1276.9z"/>
	<path class="st0" d="M812.7,1240.9c26.5,0,53.1,0.3,79.6-0.2c9.4-0.2,12.7,1.4,10.6,12.1c-4.4,22.1-3.6,22.2-26.8,22.2&#xD;&#xA;		c-33.8,0-67.7,0.8-101.5-0.4c-13.4-0.5-18,3.8-19.7,16.6c-3.2,23.7-3.9,23.6,20.2,23.6c32.8,0,65.6-0.2,98.4,0.2&#xD;&#xA;		c4.7,0.1,15.4-4.3,12.2,7.1c-2.4,8.7,4.7,24.2-13.6,24.2c-35.9,0.1-71.9,1-107.7-0.4c-15.4-0.6-20.6,4.2-22.3,18.9&#xD;&#xA;		c-2.5,22.6-3.4,22.6,19.9,22.6c34.4,0,68.7,0.4,103.1-0.2c10.9-0.2,13.7,1.9,12.3,13.6c-2,16.3-7.5,21.9-25,21.4&#xD;&#xA;		c-49.9-1.5-99.9-0.7-149.9-0.4c-9.9,0.1-13.2-1.3-11.1-12.7c9.7-51.6,18.6-103.4,27.1-155.3c1.7-10.4,5.8-13.4,16.1-13.1&#xD;&#xA;		C760.6,1241.4,786.7,1240.9,812.7,1240.9z"/>
	<path class="st1" d="M1712,1422.1c-26,0-52.1-0.4-78.1,0.2c-10.9,0.3-14.8-2.4-12.6-14c9.6-52.1,18.8-104.4,27.5-156.7&#xD;&#xA;		c1.6-9.4,5.9-11.6,14.6-11.6c53.1,0.3,106.2,0.4,159.3-0.1c11.1-0.1,13,4.1,11.5,14c-3.2,21.6-2.8,21.7-24.6,21.7&#xD;&#xA;		c-35.4,0-70.8,0.5-106.2-0.3c-11.6-0.3-15.2,3.9-16.6,14.7c-3.1,24.3-3.6,24.2,21.5,24.2c31.2,0,62.5-0.3,93.7,0.2&#xD;&#xA;		c5.7,0.1,17.6-5,15.2,7.8c-1.8,9.6,3.6,25.6-17,24.9c-35.9-1.1-71.9,0.2-107.8-0.6c-12.7-0.3-18.2,3.8-18.2,16.2&#xD;&#xA;		c0,3.6-1,7.2-2,10.7c-3,10.3,0.7,13.5,11.3,13.3c36.4-0.6,72.9,0.4,109.3-0.5c14.1-0.4,17.7,3.1,15.5,17.5&#xD;&#xA;		c-2.3,15-8.1,19.5-23.1,18.6C1761,1421,1736.4,1422.1,1712,1422.1z"/>
	<path class="st1" d="M1647.8,1240.1c-12.1,17.2-22.1,31.5-32.2,45.7c-29.2,41.2-58.6,82.2-87.4,123.7c-6.2,9-12.7,13.9-24.2,12.7&#xD;&#xA;		c-15.9-1.7-35.7,6.2-47-3.2c-10.4-8.7-12.4-27.8-17.7-42.4c-14.6-40.6-28.7-81.4-43.8-121.9c-4.5-12.2-1.8-15,10.8-14.9&#xD;&#xA;		c35.7,0.3,35.7-0.2,47.4,34.3c11,32.5,22.1,65,33.4,97.5c1.5,4.2,1.1,10.7,6.3,11.6c5.5,1,6.9-5.4,9.5-9c27.9-39.6,56-79,83-119.2&#xD;&#xA;		c7.6-11.3,15.5-16.8,29.2-15.1C1624.7,1241,1634.5,1240.1,1647.8,1240.1z"/>
	<path class="st0" d="M487,1240.9c-32.5,34.3-61,66-91.5,95.7c-16.5,16.2-25.6,33.8-28.3,56.6c-3.4,28.6-13.1,34.2-41.5,28.4&#xD;&#xA;		c-4.9-1-5.9-3-5.1-7.2c0.3-1.5,0.3-3.2,0.8-4.6c12.9-34.9,3.8-64.8-17.6-94c-16.5-22.5-29.2-47.8-45.3-74.9c18.2,0,34,0,49.7,0&#xD;&#xA;		c6.9,0,7.8,6.1,10.2,10.4c11.4,21,22.9,42.1,33.6,63.4c4.6,9,7.7,8.6,13.8,1.4c18-20.9,37-40.9,54.7-62.1&#xD;&#xA;		c8-9.6,16.4-14.6,29.2-13.3C460.5,1241.8,471.4,1240.9,487,1240.9z"/>
	<path class="st1" d="M1204.8,1422.1c-22.4,0-44.8-0.2-67.2,0.1c-7.9,0.1-11-1.6-9.3-10.8c9.6-52.7,18.8-105.4,27.7-158.3&#xD;&#xA;		c1.7-10.1,5.9-13.4,16.3-13.3c31.7,0.3,31.5-0.2,25.9,30.3c-6.1,33.2-11.3,66.7-18,99.8c-2.4,11.8-0.3,15.3,12.2,14.9&#xD;&#xA;		c27-0.9,54.2,0.3,81.2-0.5c12.6-0.4,15.1,4.1,13.1,15.6c-3.9,22.2-3.4,22.2-25.6,22.2C1242.2,1422,1223.5,1422,1204.8,1422.1&#xD;&#xA;		C1204.8,1422,1204.8,1422,1204.8,1422.1z"/>
	<path class="st1" d="M1328.8,1422.1c-4.3,0-7.5-0.3-10.5,0.1c-9.5,1.1-12.6-1.7-10.7-12.1c9.5-51.6,18.6-103.3,27-155.2&#xD;&#xA;		c1.9-11.8,6.4-15.3,18.2-15.1c29,0.6,29.4,0.1,24.5,29c-8,47.2-17.1,94.1-24.5,141.4C1349.8,1428.7,1336.6,1419.6,1328.8,1422.1z"/>
	<path class="st2" d="M1860.2,1377.5c7,0,11.7,0,16.3,0c2.6,0,6.3-0.1,6.7,2.5c1.8,12.5-2.2,24.6-5.1,36.5&#xD;&#xA;		c-2.3,9.5-11.2,5.3-17.2,5.4c-28.6,0.5-27.3,0.4-23.7-27.4C1839.6,1376.6,1849.2,1375.7,1860.2,1377.5z"/>
	<path class="st3" d="M1121.1,624.4c-0.4,0.7-0.7,1.3-1.1,2c-0.5-0.4-1-0.8-1.5-1.2c0.7-0.4,1.4-0.8,2.1-1.2&#xD;&#xA;		C1120.6,624,1121.1,624.4,1121.1,624.4z"/>
</g>
</svg>