<?xml version="1.0" encoding="utf-8"?>
<svg xmlns="http://www.w3.org/2000/svg" id="Layer_2" data-name="Layer 2" viewBox="0 0 1554.91 1346.88">
  <defs>
    <style>
      .cls-1 {
        fill: #80b2de;
      }

      .cls-1, .cls-2, .cls-3, .cls-4 {
        stroke-width: 0px;
      }

      .cls-2 {
        fill: #3280be;
      }

      .cls-3 {
        fill: #5fa1d6;
      }

      .cls-4 {
        fill: #025da4;
      }
    </style>
  </defs>
  <g id="Layer_1-2" data-name="Layer 1">
    <g>
      <path class="cls-4" d="M1208.95,1346.88c-.5-2.01-2.31-1.87-3.77-2.36-31.73-10.75-48.88-32.12-49.56-65.23-.87-42.69-.76-85.41-.02-128.1.49-28.03,12.81-50.03,39.21-61.81,24.86-11.09,48.78-7.84,70.26,8.79,17.31,13.4,24.62,32.31,24.86,53.56.5,42.7.71,85.42-.05,128.11-.62,34.79-17.83,54.59-55.66,67.06h-25.27ZM1245.87,1215.53c0-21.33.28-42.67-.1-63.99-.25-14.35-10.38-22.96-25.7-22.92-11.85.04-20.76,9.87-20.77,23.24-.04,41.69-.09,83.39.1,125.08.07,14.91,9.27,23.94,23.44,23.86,14.17-.08,22.9-9.07,23.02-24.18.16-20.36.04-40.72.02-61.09Z"/>
      <path class="cls-4" d="M365.4,1346.88c-1.21-1.96-3.34-1.6-5.16-2.06-30.1-7.57-50.75-32.79-51.08-64-.46-43.66-.52-87.34,0-131,.46-37.63,29.86-66.5,66.75-66.76,36.86-.26,66.68,28.45,67.21,66.13.63,44.31.52,88.63.03,132.94-.34,30.71-20.13,55.07-49.58,62.81-1.28.34-2.5.45-2.9,1.95h-25.27ZM352.89,1214.75c.08,0,.16,0,.24,0,0,21.02-.24,42.03.08,63.04.24,15.89,11.18,24.83,26.94,22.76,12.06-1.59,19.33-9.89,19.41-23.77.24-41.06.09-82.12.05-123.18,0-1.93-.28-3.87-.63-5.77-2.4-12.94-12.91-20.32-27.15-19.12-11.13.94-18.93,10.39-18.93,23,0,21.01,0,42.03,0,63.04Z"/>
      <path class="cls-4" d="M206.03,1346.88c-.76-1.83-2.5-1.67-4.03-2.05-31.13-7.78-48.31-29.11-48.54-61.43-.31-44.68-.41-89.36,0-134.04.35-37.85,27.05-65.1,63.51-65.85,35.13-.72,62.4,25.3,65.23,62.25q1.98,25.87-23.35,25.87c-19.61,0-19.68,0-21.38-19.93-.55-6.4-2.83-11.97-7.12-16.6-10.12-10.93-27.44-7.11-31.74,7.04-1.21,3.98-2.14,8.23-2.15,12.37-.16,41.44-.28,82.89-.02,124.33.1,16.71,7.61,23.78,22.98,23.11,9.36-.41,14.68-5.83,17.33-14.26.76-2.42.76-5.12.87-7.7q.84-18.77,19.24-18.77c4.86,0,9.78.53,14.56-.11,8.98-1.2,10.47,2.78,10.64,10.98.62,28.81-8.91,52.02-34.52,66.96-5.67,3.3-12.11,5.27-18.2,7.85h-23.32Z"/>
      <path class="cls-1" d="M690.2,33.1c.03-.64-.08-1.33.13-1.92q9.2-26.81,38.23-29.17c3.37-.28,7.21,1.19,10.03-2.01h77.75c8.45,3.32,17.43,3.37,26.27,3.98,8.56.59,13.57,3.93,16.67,12.65,9.16,25.81,19.38,51.26,29.28,76.81,1.77,4.57,3.05,8.6-4.35,7.38-31.52-5.22-63.38-6.28-95.18-7.98,1.07-6.59-4.69-8.13-8.46-10.38-20.74-12.36-41.52-24.66-62.71-36.22-8.91-4.87-16.74-12.35-27.64-13.14Z"/>
      <path class="cls-4" d="M0,1193.34c26.15-.2,52.3-.33,78.45-.69,4.48-.06,5.38,1.89,5.32,5.82-.18,10.98-.38,21.98.07,32.95.24,5.82-2.08,6.84-7.26,6.79-25.52-.25-51.05-.15-76.58-.17v-44.7Z"/>
      <path class="cls-4" d="M1554.91,1238.04c-25.2.02-50.41-.12-75.61.2-5.97.07-8.64-1.03-8.26-7.79.6-10.63.28-21.32.1-31.98-.07-3.93.83-5.88,5.32-5.82,26.15.35,52.3.48,78.45.69v44.7Z"/>
      <path class="cls-4" d="M1046.66,536.54c-43.17,111.1-113.81,200.8-210.73,269.89-14.46,10.31-29.86,19.31-44.82,28.93-9.1,5.85-17.93,5.65-27.28,0-151.32-91.26-245.76-223.36-283.81-395.74-14.8-67.05-15.99-134.75-7.3-202.73,1.33-10.37,5.61-18.52,16.49-21.62,2.41,1.61,4.75,3.36,7.25,4.81,35.67,20.69,71.35,41.33,107.04,61.99-1.55,2.69-4.68,3.18-6.87,4.93-5.55,4.44-9.44,9.77-6.78,17.43.79,2.27-.25,5.58,2.99,6.56,3.09.93,4.55-1.78,6.32-3.51,9.65-9.41,18.99-19.18,30.45-26.51.69,2.89,1.38,5.77,2.08,8.66-14.66,9.71-25.1,23.95-37.81,35.76-5.36,4.98-12.31,12.08-7.98,21.89.86,1.95.42,5.11,3.32,5.09,1.51-.01,3.25-1.78,4.48-3.13,3.43-3.77,6.64-7.73,9.94-11.61,3.21.88,6.42,1.76,9.63,2.63-3.38,4.11-6.67,8.29-10.16,12.3-7.44,8.54-7.34,8.22,2.69,13.43,3.72,1.93,5.96,1.63,7.88-1.69,3.07-5.33,7.76-9.23,11.77-13.73,1.43,3.23,4.52,4.15,7.43,5.3-4.19,4.71-8.62,9.22-12.5,14.17-4.83,6.18-.24,11.8,3.5,15.2,4.48,4.08,5.59-2.57,7.82-5.03,4.49-4.96,8.92-9.97,13.37-14.96,2.72.06,5.73-.35,5.89,3.74-4.45,6.51-10.68,11.47-15.1,18.12-3.89,5.86-5.78,10.8.79,15.53,7.37,5.31,8.6-2.52,11.12-5.95,19.27-26.2,42.51-47.86,71.17-63.48.77,2.4,1.53,4.81,2.3,7.21-28.46,17.4-52.18,39.62-70.48,67.7-4.11,6.31-2.45,10.6,2.28,13.9,5.67,3.94,6.87-2.6,8.86-5.54,18.42-27.24,41.26-49.55,70.83-64.52,2.09,2.04,4.57,3.87,3.81,7.38-26.08,16.39-48.8,36.23-64.53,63.15-1.74,2.97-6.77,6.73-2.29,9.74,4.06,2.73,10.05,2.69,14.12-1.88,1.91-2.15,3.19-4.85,4.89-7.21,19.4-27,44.03-47.43,75.17-59.67,2.27,1.16,3.74,2.86,3.74,5.54-2.58,1.31-5.11,2.72-7.74,3.91-27.55,12.5-49.66,31.29-65.79,56.94-2.42,3.84-6.76,7.62-.2,12.15,7.06,4.87,9.33-.13,12.62-4.78,17.94-25.4,41.64-43.35,70.84-54.05.65,2.41,1.3,4.82,1.95,7.23-29.62,12.94-52.32,33.51-68.45,61.52-2.61,4.54-3.97,8.62-1.82,13.58,1.3,3.01-.19,8.2,4.1,8.66,3.68.39,3.9-4.53,5.26-7.24,9.24-18.46,21.5-34.29,38.96-45.72,2.52,1.57,5.04,3.14,7.56,4.7-5.98,2.2-9.15,7.7-13.45,11.78-39.43,37.44-43.94,100.34-10.19,142.82,19.1,24.04,42.2,43.5,68.3,59.7,7.35,4.56,11.59,2.33,15.12-3.45,4.1-6.72-3.33-7.17-6.38-9.14-25.56-16.47-47.74-36.55-65.69-61.1-33.35-45.62-16.69-103.86,22.44-129.57,3.54.36,6.1,1.76,6.17,5.81-7.55,1.96-10.83,8.87-15.53,13.91-26.29,28.21-30.03,70.37-8.82,102.02,13.82,20.62,31.73,37.41,51.66,52.15,6.13,4.54,8.06,2.13,9.81-3.96,1.47-5.12-.7-7.55-4.48-10.3-16.31-11.88-30.85-25.69-42.81-41.97-19.8-26.95-17.46-63.83,5.27-88.31,29.83-32.11,81.95-35.09,115.7-5.79,7.37,6.4,11.14,5.43,15.48-1.92,22.21,9.73,42.12,23.59,63.29,35.2,25.43,13.95,49.77,29.84,75.82,42.73ZM839,448.75c-16.29-.89-30.71,3.98-43.4,12.43-27.03,18-37.28,60.01-14.29,89.64,9.76,12.58,20.76,23.95,33.19,33.91,4.29,3.43,8.53,7.05,13.26,9.77,5.79,3.32,11.81-.31,14.61-4.01,3.42-4.52-3.56-5.59-6.17-7.46-14.03-10.03-26.77-21.41-37.96-34.52-18.87-22.08-19.3-47.77-1.16-67.45,18.57-20.14,52.57-24.34,73.34-8.4,9.72,7.46,18.4,16.26,27.57,24.43,1.65,1.47,3.21,3.52,5.82,2.58,2.92-1.05,1.55-3.8,2.04-5.84,2.6-10.86-5.69-15.18-12.08-20.96-15.8-14.28-33-25.02-54.77-24.13ZM838.4,471.56c-29.6.03-48.23,21.57-45.62,46.16.74,6.97,3.23,13.22,7.45,18.66,14.49,18.64,32.31,33.46,52.79,45.11,2.14,1.22,4.48,3.52,6.95,1.21,2.08-1.94-.33-4.18-.56-6.31-.69-6.53-3.95-10.87-9.77-14.35-13.99-8.36-26.1-19.18-36.47-31.73-11.73-14.2-6.97-33.53,9.8-41.14,12.72-5.77,24.63-4.07,35.33,4.73,7.24,5.96,14.27,12.22,21.04,18.7,5.09,4.87,8.79,1.96,12.45-1.51,4.44-4.21-.31-6.19-2.53-8.36-6.47-6.35-13.09-12.55-19.81-18.63-9.25-8.36-20.08-12.81-31.06-12.54ZM734.68,634.95c-.02,8.29-.05,8.32,5.79,13.62,21.43,19.46,45.1,35.64,71.1,48.35,2.94,1.44,6.44,5.37,9.46,2.09,2.56-2.77,1.19-7.48.71-11.25-.48-3.79-4.33-4.46-7.1-5.89-26-13.49-49.55-30.37-70.68-50.64-2.02-1.94-3.81-5.52-6.93-4.51-4.11,1.33-1.72,5.6-2.37,8.23ZM835.85,495.44c-7.02-1.03-11.77,2.89-15.11,9.45-3.26,6.4-3.24,12.84,1.24,18.25,9.11,10.99,20.42,19.79,31.07,29.21,4.3,3.8,8.1-.7,11.01-3.06,3.76-3.05.27-5.63-2.12-7.78-8.42-7.57-16.95-15.02-25.28-22.69-2.19-2.02-6-4.37-3.11-7.9,3.1-3.78,6.88-2.25,10.14.6,6.09,5.33,12.16,10.68,18.29,15.95,7.76,6.68,9.64,5.98,12.36-3.68,1.01-3.61-.45-5.42-2.89-7.33-7.39-5.78-14.69-11.67-22.1-17.41-3.72-2.88-8.03-4.08-13.49-3.62ZM724.69,594.97c-.42,3.37,1.67,5.46,3.6,7.68,21.17,24.39,45.55,44.9,73.52,61.11,3.49,2.02,6.43,4.2,9.5-1.12,2.72-4.72,2.22-7.25-2.54-9.98-11.51-6.6-22.26-14.37-32.52-22.79-15.57-12.78-29.59-27.06-41.92-42.99-3.82-4.94-6.49-5.16-7.98,1.54-.49,2.2-1.1,4.38-1.65,6.56ZM759.63,706.29c-2.4-.45-3.53.35-3.45,1.76.33,6.03-2.99,13.09,4.98,17.04,4.32,2.14,8.31,4.92,12.52,7.29,17.14,9.66,34.96,17.88,53.44,24.64,2.36.86,4.7,2.41,7.19.27,1.34-1.14,2.26-2.61,1.2-4.17-3.16-4.62-4.45-10.4-10.81-12.87-21.36-8.31-41.56-19.01-60.82-31.46-1.61-1.04-3.31-1.95-4.26-2.51ZM773.67,741c1.56,11.42,5.65,17.8,15.01,21.49,12.86,5.08,25.56,10.58,38.41,15.71,7.35,2.93,13.01,1.47,19.02-2.27,1.64-1.02,3.65-1.66,3.26-4.1-.31-1.99-2.19-2.13-3.68-2.56-24.38-7.1-47.99-16.23-72.01-28.26ZM811.82,714.22c1.31-5.57-2.27-8.06-6.59-10.22-13.59-6.8-26.4-14.88-38.82-23.63-2.24-1.58-4.59-4.81-7.48-3.19-2.51,1.42-2.18,5.13-2.81,7.95-1.07,4.86,2.16,6.88,5.48,9.1,13.7,9.16,28.02,17.2,42.73,24.62,5.51,2.78,8.62,2.93,7.48-4.64ZM930.77,588.59c-1.24,4.11-4.28,4.22-7.08,4.31-3.26.1-4.97,1.32-4.17,4.71.74,3.12,3.25,2.64,5.46,2.24,6.31-1.16,11.77-3.51,14.04-10.27,2.4-7.16,2.31-14.07-2.53-20.19-3.14-3.97-7.66-4.73-12.31-3.36-4.78,1.41-7.43,5.05-8.26,9.84-.79,4.56,1.03,8.18,4.77,10.88,2.96,2.14,6.67,1.1,10.07,1.85ZM974.22,577.11c1.85-3.38,4.55-3.86,6.77-5.01,1.8-.94,4.98-.45,3.98-4.03-.97-3.46-3.49-3.11-6.2-2.41-10.1,2.63-17.97,17.26-13.98,26.73,2.98,7.06,9.09,9.11,16.04,7.44,7.24-1.73,9.54-7.35,8.41-14.22-1.34-8.14-8.26-7.78-15.03-8.5ZM910.95,583.26c0-2.25.23-4.53-.05-6.75-.42-3.34,1.9-7.77-1.76-9.8-4.11-2.28-8.06,1.02-11.66,2.81-4.51,2.23-2.35,6.94.38,6.72,7.14-.59,5.1,3.97,5.31,7.3.23,3.85.14,7.72.04,11.58-.07,2.82,1.05,4.15,3.95,4.04,2.88-.1,3.89-1.57,3.81-4.31-.11-3.86-.03-7.72-.01-11.58ZM958.88,582.72h.03c0-2.58.21-5.17-.06-7.72-.31-2.97,1.73-7.13-2.14-8.57-4.12-1.53-8.04.7-11.54,3.08-3.73,2.54-1.38,6.79.37,6.56,8.37-1.09,5.32,4.76,5.67,8.35.31,3.19.11,6.43.08,9.65-.03,2.91.64,5.09,4.22,4.93,3.19-.14,3.38-2.32,3.37-4.7-.01-3.86,0-7.73,0-11.59Z"/>
      <path class="cls-3" d="M623.63,165.83c12.83-6.36,27.03-7.6,40.76-9.83,41.07-6.66,82.5-10.32,124.14-9.48,14.46.29,29.08.1,43.43,2.91-.19,3.47,2.03,5.02,4.74,6.57,20.7,11.88,41.31,23.89,61.97,35.83,39.64,22.92,79.12,46.12,119,68.6,23.29,13.13,45.47,28.31,70.11,39.02,1.11,34.6,1.15,69.11-6.8,103.13-.86,3.7-.52,7.68-.73,11.52-3.39.17-6.21-1.38-9.02-3-27.76-16.1-55.36-32.47-83.37-48.11-8.26-4.61-15.51-11.45-25.37-13.03,1.04-4.98-2.58-6.64-5.96-8.65-18.65-11.13-38.68-18.8-59.62-24.4-16.21-4.33-32.94-4.99-49.38-7.67-.09-2.48-.18-4.95-.26-7.43,9.13-1.3,17.77,2.13,26.61,2.82,30.63,2.4,58.3,13.44,84.59,28.18,6.94,3.89,8.22,2.49,10.38-3.91,2.02-5.99-.86-7.9-5.25-10.35-34.39-19.2-71.6-28.36-110.53-31.55-.9-9.52-8.7-9.43-15.31-10.99-2.79-8.96-9.09-10.51-17.74-9.82-14.34,1.13-28.38,4.09-42.6,5.82-.21-3.45-1.73-6.2-4.42-8.33,16.51-3.86,33.11-7.11,50.15-7.53,3.56-.09,9.29.92,8.55-4.82-.61-4.71-2.7-10.39-9.64-10.09-3.55.16-7.1.4-10.62.87-13.11,1.76-26.21,3.63-39.31,5.45-.23-2.62-.46-5.23-.68-7.85,2.56-1.52,7.2-.18,7.66-4.29.4-3.52-3.59-4.87-5.65-7.15-2.13-2.37-4.71-2.58-7.81-1.75-6.41,1.7-12.92,2.99-19.4,4.45-.64-3.28-1.28-6.55-1.91-9.83-3.96-9.26-9.95-12.42-19.7-7.67-5.41,2.63-11.49,3.89-17.27,5.77.41-5.54-5.66-4.46-7.68-7.52-2.92-8.75-11.52-6.29-17.55-8.91-13.59-8.94-27.95-16.59-41.83-25.01-5.72-3.47-13.82-4.3-16.67-11.95ZM905.19,272.31c-4.89-1.11-6.38,3.77-9.67,5.43-1.68.85-3.45,2.28-2.83,4.56.68,2.51,2.67,3.49,5.21,3.2,5.68-.65,10.82,1.56,16.08,3.02,16.24,4.51,31.8,10.77,46.84,18.38,1.89.95,4.03,3.02,6.16,1.14,1.92-1.7,1.09-4.35.4-6.42-1-2.95-.67-6.73-4.02-8.47-18.46-9.57-38.03-16.06-58.15-20.85Z"/>
      <path class="cls-4" d="M479.02,594.43c46.34,98.79,112.75,179.47,198.49,245.76-2.98,2.52-5.45,4.82-8.13,6.83-32.59,24.52-65.27,48.91-97.75,73.58-4.38,3.33-7.54,3.96-12.74,1.31-59.96-30.51-111.51-71.51-154.71-123.04-2.8-3.34-6-6.1-3.67-11.78,26.13-63.65,51.97-127.42,78.49-192.67Z"/>
      <path class="cls-4" d="M876.17,840.51c85.3-65.58,151.09-146.28,198.15-242.68,2.59,1.19,2.71,4.69,3.79,7.33,24.54,60.12,48.87,120.32,73.53,180.39,2.26,5.49,1.97,8.99-1.95,13.65-43.07,51.21-94.25,92.13-153.7,122.83-6.04,3.12-9.99,2.85-15.39-1.35-34.46-26.81-69.22-53.22-104.42-80.17Z"/>
      <path class="cls-4" d="M775.99,1214.74c-3.76,1.92-3.72,5.39-4.66,8.28-8.16,25.19-16.91,50.21-24.17,75.66-3.23,11.34-11.09,7.06-17.72,8.02-6.78.97-10.32-1.48-12.38-8.53-7.31-25.11-15.37-50-23.15-74.97-.91-2.92-1.37-6.11-4.35-8.87-2.95,3.6-2.03,7.21-2.04,10.48-.07,35.93-.29,71.87.13,107.8.1,8.63-1.86,12.57-11.24,11.72-8.35-.76-16.83-.36-25.23-.09-5.68.18-7.98-1.66-7.97-7.76.16-80.93.14-161.86.03-242.79,0-5.13,1.2-7.38,6.93-7.71,33.81-1.92,33.8-2.06,45.49,29.48,10.77,29.07,21.52,58.14,32.36,87.18,1.05,2.81.98,7.43,4.86,7.28,3-.11,3.15-4.36,4.11-7,13.2-36.43,26.55-72.81,39.41-109.36,2.34-6.65,5.56-9.22,12.58-8.71,8.37.6,16.83.36,25.24.07,5.91-.21,7.88,2.17,7.87,8.01-.12,81.58-.13,163.15.03,244.73.01,5.47-1.53,7.57-7.08,7.39-9.38-.3-18.8-.51-28.15.05-7.44.45-9.36-2.47-9.3-9.52.28-36.9.16-73.81.07-110.71,0-3.26,1.14-6.93-1.67-10.1Z"/>
      <path class="cls-4" d="M516.51,1214.04c-2.72,4.04-1.64,7.67-1.65,11.05-.09,36.26-.28,72.52.11,108.77.09,8.16-2.47,10.98-10.5,10.41-8.05-.57-16.21-.6-24.26,0-8.02.6-10.48-2.11-10.44-10.29.32-61.83.18-123.67.18-185.5,0-17.81.35-35.62-.17-53.41-.22-7.5,2.38-9.75,9.47-9.06,10.54,1.02,23.51-4.16,31.06,2.06,6.99,5.77,8.54,18.25,12.2,27.88,11.92,31.4,23.67,62.86,35.61,94.25.84,2.21.84,6.24,3.85,5.91,4.14-.46,2.41-4.64,2.41-7.17.12-37.55.29-75.11-.08-112.66-.08-8.05,2.25-11,10.4-10.34,8.04.65,16.22.66,24.26,0,7.89-.65,9.75,2.31,9.7,9.88-.31,54.06-.16,108.13-.16,162.19,0,26.22-.17,52.45.12,78.67.07,6.23-1.65,8.31-8.16,8.41-31.38.49-31.34.67-42.51-28.55-11.99-31.37-24.01-62.73-36.11-94.06-1.1-2.86-1.44-6.34-5.34-8.44Z"/>
      <path class="cls-4" d="M1000.66,1214.83c0-39.82.16-79.64-.15-119.45-.05-7.06,1.64-9.7,9.14-9.45,16.49.54,33.02.03,49.53.2,45.14.48,73.39,30.88,71.06,76.13-.94,18.34-5.37,35.15-19.73,47.91-1.69,1.51-3.68,2.68-.75,5.2,21.91,18.86,22.5,43.84,19.13,69.53-4.83,36.76-29.34,58.54-67.11,59.8-17.46.58-34.97-.11-52.44.38-6.93.19-8.83-2.17-8.79-8.86.25-40.46.12-80.93.12-121.4ZM1044.32,1266.32c0,8.71-.02,17.41.01,26.12.01,2.89-.18,5.6,3.74,6.75,19.36,5.68,38.08-6.27,40.68-26.21,3.55-27.21-11.98-42.55-39.11-39.03-4.4.57-5.33,2.62-5.32,6.26.03,8.71,0,17.41,0,26.12ZM1056.02,1129.06c-3.44,2.48-12.28-4.88-12.26,6.05.02,17.44.31,34.89.53,52.33.03,2.21.04,4.45,2.64,5.69,6.54,3.11,29.65-.67,34.02-6.58,9.66-13.07,10.06-27.5,4.22-42.25-5.14-12.97-16.03-15.62-29.15-15.24Z"/>
      <path class="cls-2" d="M962.49,349.96c9.86,1.57,17.11,8.42,25.37,13.03,28.02,15.63,55.62,32.01,83.37,48.11,2.8,1.63,5.62,3.17,9.02,3-7.19,41.91-16.96,83.12-33.6,122.44-26.04-12.88-50.38-28.78-75.81-42.73-21.17-11.61-41.09-25.47-63.29-35.2-.65-5.95-5.62-8.57-9.62-11.49-37.85-27.72-76.85-28.05-116.68-4.33-.07-4.04-2.63-5.45-6.17-5.81,2.53-1.94,4.9-4.13,7.6-5.77,38.58-23.32,87.79-20.16,123.49,7.84,1.78,1.39,3.38,3.07,5.31,4.2,4.77,2.82,8.05-.97,11.12-3.37,3.47-2.72.58-5.09-1.66-6.97-26.68-22.34-56.8-33.05-92.1-29.64-23.46,2.27-44.32,10.28-63.91,22.65-2.52-1.57-5.04-3.14-7.56-4.7,17.89-13.95,37.85-21.87,60.56-25.33,45.54-6.93,84.07,5.37,116.77,37.32,2.9,2.83,5.18,8.4,10.59,2.39,4.47-4.96,3.9-8.38-.81-12.94-28.46-27.51-62.54-41.64-101.85-43.49-21.92-1.03-42.79,4.21-63.31,11.24-.65-2.41-1.3-4.82-1.95-7.23,38.55-15.68,77.41-15.42,116.33-1.7,20.05,7.07,37.73,18.31,53.51,32.56,2.27,2.05,6.12,7.08,7.82,1.29,1.82-6.21,3.3-13.49-3.91-19.32-30.67-24.8-65.4-38.5-104.84-40.46-27.25-1.35-53.21,4.38-78.64,13.45,0-2.69-1.47-4.39-3.74-5.54,14.4-8.48,30.57-11.46,46.66-13.89,49.85-7.54,95.67,3.25,137.26,31.85,2.27,1.56,4.46,4.78,7.55,2.92,3.2-1.92,2.2-5.74,2.35-8.92.19-4.18-2.44-6.33-5.56-8.36-44.36-28.97-92.73-40.01-145.17-31.95-24.87,3.82-48.41,11.93-70.44,24.22.76-3.51-1.72-5.34-3.81-7.38,4.22-4.3,9.99-5.7,15.24-7.99,66.5-28.99,131.97-26.54,196.02,7.37,7.32,3.88,12.76,5.36,18.47-1.39Z"/>
      <path class="cls-4" d="M855.57,1215.4c0-39.84.18-79.68-.16-119.52-.07-7.67,2.16-10.03,9.89-9.95,33.68.38,67.38.42,101.06-.02,7.95-.1,10.2,2.47,9.62,9.99-.6,7.73-.68,15.59.02,23.3.77,8.5-2.81,10.3-10.56,10.1-19.1-.48-38.22.06-57.33-.28-6.14-.11-8.6,1.33-8.41,8,.46,15.86.49,31.75-.02,47.61-.22,6.75,2.37,8.28,8.42,8.18,16.52-.27,33.04.12,49.56-.2,6.35-.12,8.66,2.06,8.34,8.44-.44,8.72-.49,17.51.01,26.22.41,7.12-2.65,8.83-9.16,8.7-16.19-.33-32.4.23-48.58-.26-7-.21-8.77,2.17-8.57,8.84.46,15.21.59,30.46-.04,45.66-.32,7.7,2.57,9.17,9.5,9.02,19.1-.41,38.22.07,57.33-.25,6.9-.12,10.02,1.67,9.52,9.26-.64,9.68-.33,19.43-.08,29.14.13,5.03-.85,7.72-6.84,7.68-35.31-.22-70.62-.29-105.92.02-8.23.07-7.61-4.8-7.61-10.16.03-39.84.02-79.68.02-119.52Z"/>
      <path class="cls-4" d="M435.41,478.07c-19.34-12.33-36.86-27.13-55.26-40.74-23.39-17.3-46.29-35.26-69.82-52.36-6.02-4.37-6.96-8.32-5.22-15.19,11.22-44.4,28.07-86.47,50.75-126.25,2.77-4.87,5.78-6.8,11.4-6.42,14.84,1.01,29.71,1.65,44.58,2.02,5.14.12,6.54,1.68,6.05,6.85-7.25,76.34-1.17,151.67,17.44,226.03.49,1.95,2.15,4.24-.07,6.3l.15-.24Z"/>
      <path class="cls-4" d="M1323.16,1215.48c0-39.8.23-79.6-.19-119.39-.09-8.23,2.46-10.75,10.42-10.14,8.36.64,16.83.48,25.22.03,6.33-.34,8.44,1.82,8.35,8.23-.33,21.67-.12,43.35-.12,65.03,0,43.36.17,86.71-.16,130.07-.06,7.58,2,10.14,9.79,9.93,19.08-.52,38.18.06,57.26-.29,6.98-.13,10.07,1.86,9.67,9.3-.5,9.36-.47,18.78,0,28.14.34,6.97-2.46,8.72-9.05,8.67-33.65-.27-67.3-.37-100.95.05-8.01.1-10.49-2.1-10.41-10.25.39-39.79.18-79.59.18-119.39Z"/>
      <path class="cls-4" d="M290.24,485.82c11.78,6.06,22.32,11.47,32.85,16.9,24.11,12.43,48.25,24.77,72.29,37.33,11.24,5.87,13.77,12.57,8.84,23.81-19.82,45.23-39.81,90.39-59.74,135.57-.49,1.12-1.16,2.16-2.7,4.99-34.58-69.32-51.03-141.18-51.55-218.59Z"/>
      <path class="cls-2" d="M1262.84,524.9c-4.59,62.55-21.03,121.81-48.58,177.78-3.36.24-3.53-2.12-4.24-3.75-19.86-44.98-39.73-89.97-59.47-135-4.57-10.42-2.36-17.93,7.13-22.93,23.42-12.34,47.03-24.31,70.57-36.43,9.49,10.24,20.86,17.29,34.59,20.33Z"/>
      <path class="cls-1" d="M1087.78,299.45c-24.65-10.71-46.82-25.89-70.11-39.02-39.88-22.49-79.36-45.69-119-68.6-20.66-11.94-41.27-23.96-61.97-35.83-2.71-1.55-4.93-3.1-4.74-6.57,41.52,1.25,81.84,9.9,121.7,20.64,37.8,10.18,73.87,24.96,109.02,42.27,12.54,6.17,19.81,13.98,20.91,28.38,1.5,19.57,4.03,39.06,4.19,58.74Z"/>
      <path class="cls-3" d="M1242.51,345.66c2.34,7.69,4.23,15.55,7.16,23.01,2.54,6.48.5,10.6-4.59,14.36-26.06,19.26-50.9,40.12-77.74,58.39-13.49,9.18-25.77,20.14-38.65,30.23-3,2.35-6.2,4.43-10.91,7.76,3.56-16.69,7.01-31.52,9.87-46.47,6.93-36.15,11.72-72.5,11.6-109.46-.03-10.52,1.27-21.1.93-31.69,3.51-.62,6.25,1.38,8.97,2.96,21.93,12.74,43.54,26.06,65.8,38.18,8.81,4.79,16.35,12.92,27.55,12.72Z"/>
      <path class="cls-2" d="M623.63,165.83c2.85,7.65,10.95,8.48,16.67,11.95,13.88,8.42,28.24,16.07,41.82,25.01-9.11,4.74-18.51,9-27.26,14.33-16.13,9.83-32.04,20.06-47.66,30.67-3.06,2.08-8.82,5.26-5.27,10.49,2.67,3.94,7.07,6.76,12.43,2.51,25.97-20.64,55.03-35.94,85.32-49.09,2.02,3.06,8.09,1.98,7.68,7.52-10.49,5.44-21.97,8.46-32.35,14.37-25.13,14.3-49.77,29.22-71.49,48.5-35.68-20.66-71.37-41.3-107.04-61.99-2.5-1.45-4.84-3.2-7.25-4.81,26.75-15.87,55.71-26.67,85.03-36.5,16.14-5.41,32.26-11.13,49.37-12.95ZM591.37,238.26c.38,1.09-.3,4.66,2.44,6.25,3.2,1.87,5.07-1.43,7.39-2.99,9.02-6.08,18.25-11.84,27.11-18.14,3.04-2.16,10.04-2.95,7.8-7.68-2.04-4.3-8.69-4.71-13.85-4.81-1.4-.03-2.93,1.2-4.22,2.11-7.79,5.45-15.5,11.02-23.3,16.45-2.57,1.79-4.35,3.81-3.36,8.81Z"/>
      <path class="cls-1" d="M1131.84,153.92c-26.47-3.25-50.21-5.76-73.82-9.17-28.97-4.18-54.78-19.15-83.27-25.16-2.65-.56-4.24-2.26-4.84-5.31-5.06-25.65-10.33-51.25-15.48-76.88-.18-.89.16-1.88.41-4.33,67.49,26.88,125.17,66.81,176.99,120.86Z"/>
      <path class="cls-4" d="M876.36,963.26c-66.56,13.48-131.42,13.51-196.38.27.52-3.66,3.74-4.53,5.91-6.19,23.68-18.06,47.39-36.06,71.21-53.94,15.87-11.91,25.17-11.81,41.03.14,24.29,18.31,48.55,36.68,72.8,55.04,1.48,1.12,2.83,2.43,5.44,4.67Z"/>
      <path class="cls-1" d="M1242.51,345.66c-11.19.2-18.74-7.93-27.55-12.72-22.27-12.12-43.88-25.44-65.8-38.18-2.72-1.58-5.46-3.58-8.97-2.96-2.84-15.62.35-31.62-2.97-47.23-.94-4.42,1.9-5.35,5.72-5.48,15.16-.51,30.31-1.21,45.47-1.86,3.64-.16,6.79-.08,9.02,3.86,18.77,33.25,35.61,67.31,45.07,104.57Z"/>
      <path class="cls-3" d="M501.29,86.46c30.41-22.8,64.27-39.09,101.12-54.32-3.53,17.23-6.64,32.77-9.92,48.27-2.13,10.09-5.06,20.04-6.59,30.21-.99,6.6-3.91,9.51-10.25,10.44-5.04.74-9.65,3.65-14.96,3.49-5.37-5.59-12.34-8.87-18.7-13.04-13.33-8.75-28.66-14.23-40.7-25.04Z"/>
      <path class="cls-3" d="M690.2,33.1c10.9.79,18.73,8.27,27.64,13.14,21.18,11.56,41.97,23.87,62.71,36.22,3.77,2.25,9.53,3.79,8.46,10.38-39.36,0-78.61,1.71-117.55,7.95-5.63.9-7.77-.19-5.2-6.52,8.23-20.29,16-40.77,23.94-61.17Z"/>
      <path class="cls-2" d="M501.29,86.46c12.05,10.81,27.38,16.3,40.7,25.04,6.36,4.18,13.33,7.45,18.7,13.04-17.86,6.33-35.3,14.82-53.7,18.49-26.94,5.38-54.56,7.32-84.58,11.06,25.24-26.68,50.58-48.87,78.88-67.64Z"/>
      <path class="cls-3" d="M1262.84,524.9c-13.72-3.04-25.09-10.09-34.59-20.33,10.41-5.65,20.84-11.24,31.21-16.96,4.47-2.47,5.74-.67,5.47,3.69-.7,11.2-1.4,22.4-2.1,33.61Z"/>
      <path class="cls-4" d="M435.26,478.3c.5-.82,1.02-.83,1.43.02.11.24-.06.61-.11.92-.39-.39-.78-.79-1.16-1.18,0,0-.15.24-.15.24Z"/>
      <path class="cls-2" d="M645.1,365.27c22.22-26.15,49.29-45.65,80.18-60.54,21.07-10.16,42.84-17.64,65.76-21.58,12.91-2.22,26.06-3.03,39.09-4.54,2.7-.31,6,.91,7.65-2.6,6.61,1.57,14.42,1.47,15.31,10.99-38.99-1.94-76.6,5.01-112.93,18.63-14.31,5.36-27.1,14.07-40.29,21.84-18.74,11.04-33.5,26.61-48.87,41.54-.16-4.09-3.17-3.68-5.89-3.74Z"/>
      <path class="cls-2" d="M777.42,272c-24.51,5.86-47.84,15.02-70.57,25.68-12.99,6.09-23.94,15.51-35.74,23.53-14.38,9.76-25.85,22.7-38.21,34.67-2.91-1.16-6-2.07-7.43-5.31,30.02-35.77,67.43-60.83,111.19-76.66,11.86-4.29,23.83-8.25,36.34-10.25,2.69,2.13,4.21,4.88,4.42,8.33Z"/>
      <path class="cls-2" d="M603.65,337.64c17.53-22.3,38.84-40.54,62.79-55.34,32.5-20.09,67.28-35.11,105-42.59.23,2.62.45,5.23.68,7.85-26.44,6.28-52.15,15.11-76.08,27.69-31.39,16.51-58.83,38.71-82.78,65.03-3.21-.88-6.42-1.76-9.63-2.63Z"/>
      <path class="cls-2" d="M629.63,280.98c30.78-25.84,66.13-43.09,104.07-55.5,3.64-1.19,7.58-1.72,10.63-4.36.64,3.28,1.28,6.55,1.91,9.83-23.11,6.92-45.31,16.15-66.65,27.28-16.96,8.85-32.01,20.8-47.89,31.41-.69-2.89-1.38-5.77-2.08-8.66Z"/>
      <path class="cls-2" d="M847.53,309.24c-34.45-.53-67.71,5.98-99.86,17.92-9.18,3.41-17.62,8.8-26.4,13.28-.77-2.4-1.53-4.8-2.3-7.21,25.76-15.23,53.4-24.45,83.18-28.36,15.06-1.98,29.94-4.01,45.12-3.05.09,2.48.18,4.95.26,7.43Z"/>
      <path class="cls-4" d="M927.92,571.51c2.99.57,4.94,2.54,5.01,5.76.09,4.14-3.71,3.94-6.2,4.47-3.49.74-4.19-1.93-4.02-4.72.19-3.09,1.06-5.71,5.21-5.51Z"/>
      <path class="cls-2" d="M982.72,588.72c-.73,3.13-2.6,4.55-5.64,4-2.78-.5-4.97-2.18-5.02-5.05-.07-3.86,3.54-3.15,5.76-3.41,2.99-.35,4.72,1.49,4.9,4.46Z"/>
    </g>
  </g>
</svg>