<?xml version="1.0" encoding="UTF-8"?>
<svg version="1.1" xmlns="http://www.w3.org/2000/svg" width="70" height="47">
<path d="M0 0 C23.1 0 46.2 0 70 0 C70 15.51 70 31.02 70 47 C46.9 47 23.8 47 0 47 C0 31.49 0 15.98 0 0 Z " fill="#D20C0C" transform="translate(0,0)"/>
<path d="M0 0 C1.98 0 3.96 0 6 0 C5.28547412 4.76350585 4.20465156 9.34201396 3 14 C3.99 14 4.98 14 6 14 C6.99 9.38 7.98 4.76 9 0 C11.31 0 13.62 0 16 0 C14.41039668 6.23440168 12.72399099 12.16287645 10 18 C7.85423363 18.02685938 5.70837355 18.04633088 3.5625 18.0625 C2.36753906 18.07410156 1.17257812 18.08570312 -0.05859375 18.09765625 C-3 18 -3 18 -4 17 C-3.56776313 10.9486838 -2.08978462 5.67790538 0 0 Z " fill="#F8EFF1" transform="translate(13,15)"/>
<path d="M0 0 C4.29 0 8.58 0 13 0 C12.67 1.32 12.34 2.64 12 4 C9.36 4 6.72 4 4 4 C3.7834375 5.36125 3.7834375 5.36125 3.5625 6.75 C3.13590527 9.21476956 2.64925779 11.58847107 2 14 C4.64 14 7.28 14 10 14 C9.67 15.32 9.34 16.64 9 18 C4.71 18 0.42 18 -4 18 C-3.58340665 11.25118777 -3.07913548 6.02439551 0 0 Z " fill="#F8F0F1" transform="translate(48,15)"/>
<path d="M0 0 C4.29 0 8.58 0 13 0 C12.67 1.32 12.34 2.64 12 4 C9.69 4 7.38 4 5 4 C4.34 6.31 3.68 8.62 3 11 C1.02 11 -0.96 11 -3 11 C-2.01 7.37 -1.02 3.74 0 0 Z " fill="#F8F1F2" transform="translate(30,22)"/>
<path d="M0 0 C4.62 0 9.24 0 14 0 C13.67 1.32 13.34 2.64 13 4 C8.71 4 4.42 4 0 4 C0 2.68 0 1.36 0 0 Z " fill="#F8EFF0" transform="translate(31,15)"/>
<path d="M0 0 C0.66 0 1.32 0 2 0 C1.48594831 4.96916636 0.76615118 9.29026351 -1 14 C-1.99 14 -2.98 14 -4 14 C-3.71572583 12.41532272 -3.42225182 10.8322943 -3.125 9.25 C-2.96257813 8.36828125 -2.80015625 7.4865625 -2.6328125 6.578125 C-2.03203736 4.13052256 -1.22002883 2.19400143 0 0 Z " fill="#D41C1C" transform="translate(20,15)"/>
<path d="M0 0 C0.33 0.66 0.66 1.32 1 2 C5.95 2 10.9 2 16 2 C16 2.33 16 2.66 16 3 C11.71 3 7.42 3 3 3 C2.67 4.98 2.34 6.96 2 9 C1.01 9 0.02 9 -1 9 C-2.60031344 5.79937313 -1.03173691 3.27728194 0 0 Z " fill="#DA4041" transform="translate(27,19)"/>
<path d="M0 0 C0.33 0 0.66 0 1 0 C0.67 2.31 0.34 4.62 0 7 C1.98 7 3.96 7 6 7 C6 7.33 6 7.66 6 8 C-0.625 8.25 -0.625 8.25 -4 6 C-2.69593116 3.98079663 -1.36176581 1.98075027 0 0 Z " fill="#D62526" transform="translate(27,26)"/>
<path d="M0 0 C2 3 2 3 2 5 C1.01 5.33 0.02 5.66 -1 6 C-1 5.01 -1 4.02 -1 3 C-5.29 3 -9.58 3 -14 3 C-13.67 2.34 -13.34 1.68 -13 1 C-8.71 1.33 -4.42 1.66 0 2 C0 1.34 0 0.68 0 0 Z " fill="#D52323" transform="translate(44,17)"/>
</svg>
