<?xml version="1.0" encoding="UTF-8"?>
<!DOCTYPE svg PUBLIC "-//W3C//DTD SVG 1.1//EN" "http://www.w3.org/Graphics/SVG/1.1/DTD/svg11.dtd">
<svg xmlns="http://www.w3.org/2000/svg" version="1.1" width="70px" height="47px" style="shape-rendering:geometricPrecision; text-rendering:geometricPrecision; image-rendering:optimizeQuality; fill-rule:evenodd; clip-rule:evenodd" xmlns:xlink="http://www.w3.org/1999/xlink">
<g><path style="opacity:0.992" fill="#d20f0d" d="M 3.5,-0.5 C 24.1667,-0.5 44.8333,-0.5 65.5,-0.5C 67.1667,0.5 68.5,1.83333 69.5,3.5C 69.5,16.5 69.5,29.5 69.5,42.5C 68.5,44.1667 67.1667,45.5 65.5,46.5C 44.8333,46.5 24.1667,46.5 3.5,46.5C 1.83333,45.5 0.5,44.1667 -0.5,42.5C -0.5,29.5 -0.5,16.5 -0.5,3.5C 0.5,1.83333 1.83333,0.5 3.5,-0.5 Z"/></g>
<g><path style="opacity:1" fill="#f9f0f0" d="M 12.5,14.5 C 14.5,14.5 16.5,14.5 18.5,14.5C 17.2455,19.1056 16.2455,23.7723 15.5,28.5C 16.5,28.5 17.5,28.5 18.5,28.5C 19.5,23.8333 20.5,19.1667 21.5,14.5C 23.924,14.1924 26.2573,14.5258 28.5,15.5C 26.568,20.796 24.7346,26.1293 23,31.5C 18.5868,32.6324 14.0868,32.7991 9.5,32C 8.91858,31.1074 8.58524,30.1074 8.5,29C 9.75908,24.1287 11.0924,19.2953 12.5,14.5 Z"/></g>
<g><path style="opacity:1" fill="#f9eff0" d="M 47.5,14.5 C 51.8839,14.1744 56.2172,14.5078 60.5,15.5C 60.1667,16.1667 59.8333,16.8333 59.5,17.5C 56.9135,18.48 54.2469,18.8134 51.5,18.5C 50.8333,21.8333 50.1667,25.1667 49.5,28.5C 52.2469,28.1866 54.9135,28.52 57.5,29.5C 57.1667,30.1667 56.8333,30.8333 56.5,31.5C 51.9497,32.8001 47.4497,32.8001 43,31.5C 43.7965,25.7002 45.2965,20.0335 47.5,14.5 Z"/></g>
<g><path style="opacity:1" fill="#f8eff0" d="M 30.5,14.5 C 35.2137,14.1734 39.8804,14.5067 44.5,15.5C 44.1667,16.1667 43.8333,16.8333 43.5,17.5C 39.2172,18.4922 34.8839,18.8256 30.5,18.5C 30.5,17.1667 30.5,15.8333 30.5,14.5 Z"/></g>
<g><path style="opacity:1" fill="#f9edee" d="M 28.5,21.5 C 33.2137,21.1734 37.8804,21.5067 42.5,22.5C 42.1667,23.1667 41.8333,23.8333 41.5,24.5C 35.7717,24.2883 32.7717,26.9549 32.5,32.5C 30.5,32.5 28.5,32.5 26.5,32.5C 27.1667,28.8333 27.8333,25.1667 28.5,21.5 Z"/></g>
</svg>
