<svg xmlns="http://www.w3.org/2000/svg" fill="none" viewBox="0 0 32 32" id="soccer"><g clip-path="url(#bsclip0_1854_611)"><path fill="#fff" d="M30.628 14.076q.212.479.411.95h.316l-.732-.95z"/><path fill="#E6E7E8" d="M6.148 23.068q.027-.09.06-.179c0-.013.009-.023.014-.036q.165-.496.352-1.01c.022-.06.04-.12.064-.179.114-.315.233-.644.36-.973q.035-.081.06-.17a57 57 0 0 1-2.564-5.325c-1.477 0-2.807 0-3.964-.005a36 36 0 0 0-.498 1.55 15.8 15.8 0 0 0 2.523 7.762 53 53 0 0 0 1.578.238c.146.018.287.04.434.06q.5.066 1.015.127c.16-.576.352-1.202.571-1.865zM20.566 15.205h-5.604a273 273 0 0 0-2.615 5.513l.316.576c0 .01.009.014.013.023a73 73 0 0 0 2.546 4.233c1.687.037 3.397.037 5.084 0 .7-1.07 1.43-2.272 2.166-3.561q.046-.084.092-.16l.26-.466q.18-.316.357-.64a274 274 0 0 0-2.62-5.518zM29.188 7.31l.027-.073a15.93 15.93 0 0 0-6.907-5.883q-.584.947-1.344 2.3-.26.459-.535.96.075.11.151.228c.06.096.123.187.183.283.082.124.16.256.242.384q.054.09.114.178c.101.16.197.32.297.48l.07.11c.095.16.196.325.292.485a73 73 0 0 1 1.531 2.67c1.765.04 3.46.104 5.047.191.004-.018.013-.032.018-.05q.22-.583.42-1.134l.028-.082c.128-.356.252-.704.361-1.042z"/><path fill="#231F20" d="M30.157 13.354a57 57 0 0 0-1.792-3.575 198 198 0 0 0-5.056-.183 274 274 0 0 1-2.615 5.522c.928 1.902 1.824 3.79 2.615 5.522 1.765-.04 3.465-.105 5.056-.187a58 58 0 0 0 2.564-5.335c-.205-.49-.42-.987-.644-1.481l-.128-.279zM12.215 9.596c-1.765.041-3.466.105-5.052.183A58 58 0 0 0 4.6 15.114a58 58 0 0 0 2.564 5.334c.942.05 1.925.087 2.94.124q1.035.035 2.111.064a273 273 0 0 1 2.615-5.522 262 262 0 0 1-2.615-5.518"/><path fill="#fff" d="M31.752 15.027a16 16 0 0 0-.498-3.186q-.474.69-.997 1.417.164.354.32.704c.266.356.53.713.782 1.06h.389z"/><path fill="#231F20" d="M8.192 28.087c-.06-.055-.114-.114-.174-.17-.078-.077-.15-.16-.228-.237-.06-.064-.124-.128-.183-.192a9 9 0 0 1-.192-.215 23 23 0 0 1-.521-.594q-.049-.055-.092-.11l-.251-.306c-.05-.064-.1-.123-.156-.187-.077-.096-.15-.192-.228-.288q-.091-.11-.174-.224c-.087-.115-.178-.234-.265-.352-.037-.05-.078-.101-.114-.156-.142-.018-.275-.032-.412-.05a52 52 0 0 1-2.564-.37 15.96 15.96 0 0 0 5.773 5.261c.096-.334.229-.736.402-1.22-.073-.064-.146-.138-.219-.206q-.084-.075-.16-.151c-.078-.078-.16-.155-.238-.238zM13.207 31.396H13.1c.037 0 .083 0 .12-.004h-.019zM22.244 29.015a63 63 0 0 1-1.262-2.121 7 7 0 0 0-.146-.252c-.023-.04-.05-.087-.073-.132-.064-.12-.133-.234-.201-.352-.046-.083-.096-.174-.147-.26l-.118-.216a134 134 0 0 1-5.07 0 78 78 0 0 1-1.943 3.328c.942.924 1.801 1.568 2.551 1.98q.864.019 1.728.018h.512c.54 0 1.074-.005 1.614-.018.75-.407 1.609-1.056 2.55-1.98z"/><path fill="#E6E7E8" d="M29.54 24.005c-.265-.85-.58-1.779-.951-2.775v-.01c-.069-.182-.137-.37-.21-.552-.01-.019-.014-.037-.023-.055-1.587.082-3.287.146-5.047.192q-.123.223-.247.448-.046.083-.091.164-.142.254-.284.498-.046.084-.091.16-.144.253-.288.499-.04.076-.087.146-.37.638-.74 1.234-.027.049-.06.092-.157.252-.306.498l-.069.11q-.15.24-.297.466c-.014.023-.032.046-.046.069-.091.141-.187.288-.278.425.045.077.086.155.132.237l.137.252.124.22c.05.086.1.177.146.26.082.15.17.297.251.439a64.507 64.507 0 0 0 1.147 1.943 87 87 0 0 0 2.794-.183 15.9 15.9 0 0 0 4.384-4.777"/><path fill="#fff" d="M31.775 15.882c0-.229-.01-.457-.018-.686h-.713a57 57 0 0 1-2.565 5.326c.005.013.01.032.018.045q.226.59.426 1.152c.004.014.009.032.018.046.132.366.256.727.37 1.07l.028.077q.157.48.301.933a15.8 15.8 0 0 0 2.144-7.963z"/><path fill="#231F20" d="M13.618 1.752c.027.045.055.086.082.132.375.622.8 1.353 1.267 2.185q.083.144.16.288c.031.06.068.12.1.183.498-.01 1.006-.01 1.508-.014.682-.004 1.358-.004 2.04 0 .507 0 1.019.005 1.522.014q.033-.06.068-.119c.069-.128.142-.251.21-.375q.02-.029.032-.059a69 69 0 0 1 1.582-2.688 15.8 15.8 0 0 0-6.304-1.303c-.43 0-.86.023-1.28.055-.42.325-.86.709-1.32 1.161q.01.016.022.037.083.135.174.283c.04.069.087.146.132.22z"/><path fill="#E6E7E8" d="M15.104 25.614a66 66 0 0 1-2.551-4.22q-.001-.005-.01-.018c-.104-.192-.214-.384-.32-.58a166 166 0 0 1-4.562-.17c-.16-.009-.324-.013-.48-.023q.001.008-.004.014-.232.61-.443 1.193-.209.578-.389 1.12c0 .014-.01.023-.014.037q-.17.513-.32.992l-.036.119q-.132.425-.243.818-.015.055-.032.11a28 28 0 0 0 1.86 2.29c.047.05.088.1.134.146.059.064.114.119.173.183q.121.13.242.252.074.075.156.15l.256.256c.05.05.1.092.146.142l.233.22c.512.05 1.038.1 1.568.141.883.073 1.788.133 2.707.178a88 88 0 0 0 1.933-3.35z"/><path fill="#fff" d="m16.132 31.479-.197-.041q-.02-.001-.04-.01-.116-.021-.225-.036c-.032 0-.059 0-.086-.01-.042 0-.078-.008-.12-.008a10 10 0 0 0-.338.009q.008.001.014-.005c-.635 0-1.27.01-1.906.014h-.01a1 1 0 0 0-.118.005c-.096 0-.187.004-.288.013h-.064c-.046 0-.1.005-.15.01.05.008.16.031.232.04h-.004l.53.096c.38.014.754.023 1.138.032.078-.013.165-.036.252-.059a1.6 1.6 0 0 1-.252.06c.128.013.338.022.457.027.037 0 .083.005.12.005.118 0 .232 0 .342-.01.133-.004.256-.013.38-.023l.187-.013.334-.041c.022 0 .05-.005.073-.01l-.252-.054zM25.023 28.873a97 97 0 0 1-2.683.174c-.942.914-1.806 1.554-2.56 1.956.105.074.201.142.297.197a15.8 15.8 0 0 0 4.946-2.331z"/><path fill="#fff" d="M18.706 31.515h-1.957a4.9 4.9 0 0 0-1.216-.132c.028 0 .06 0 .087.004.037 0 .069 0 .105.01.028 0 .055.009.083.013a9 9 0 0 1 .644.124h2.167q.04-.008.087-.014z"/><path fill="#fff" d="M16.777 31.506h1.97c.037-.004.069-.013.105-.018q.131-.029.27-.05c.292-.06.585-.133.873-.21-.1-.06-.201-.124-.316-.202q-.796.014-1.6.014h-.507q-.865 0-1.723-.018c-.22.155-.416.265-.6.352h.28-.014c.48-.014.887.04 1.252.128zM16.443 31.538c-.078.01-.165.018-.247.032-.055.005-.1.014-.155.018a9 9 0 0 1-.384.032c-.037 0-.069.005-.105.005-.147.01-.298.01-.458.01h-.064c-.054 0-.118-.006-.173-.01-.115 0-.224-.01-.348-.018q-.561-.014-1.115-.032a15.818 15.818 0 0 0 5.184-.037h-2.14zM13.193 29.047a80 80 0 0 1-4.26-.32c-.179.49-.312.891-.412 1.22a15.7 15.7 0 0 0 4.068 1.468l.334-.014c.082 0 .165-.009.242-.009h-.009.037l1.947-.014a4 4 0 0 0 .613-.375c-.755-.402-1.619-1.042-2.56-1.956"/><path fill="#E6E7E8" d="M7.017 9.591c-.137-.365-.27-.726-.398-1.074-.009-.032-.023-.06-.032-.091-.128-.357-.247-.709-.36-1.047-.005-.018-.015-.041-.02-.06-.068-.21-.136-.411-.2-.612l-.124-.393-.013-.046q-.152-.501-.284-.96c0-.004 0-.014-.004-.018-.256.027-.503.06-.75.091-.082.01-.174.023-.256.032-.247.032-.485.069-.722.1a15.84 15.84 0 0 0-3.589 7.489c.224-.348.448-.7.69-1.052l-.713 1.157c-.04.242-.082.489-.114.74 0 .014.01.023.014.037l.64 1.143c1.097 0 2.336 0 3.702-.005A57 57 0 0 1 7.05 9.697l-.041-.11z"/><path fill="#EEEFEF" d="M13.193 1.176Q13.857.53 14.468.065c-1.86.164-3.63.649-5.252 1.403 1.28-.123 2.61-.224 3.977-.288z"/><path fill="#231F20" d="M.105 14.094C.041 14.684 0 15.278 0 15.886c0 .178.01.357.014.535q.197-.644.43-1.307a38 38 0 0 1-.339-1.02"/><path fill="#E6E7E8" d="m8.804 1.665-.055.05c-.082.078-.16.15-.242.229q-.107.103-.215.214c-.027.032-.06.06-.087.087a1 1 0 0 1-.105.1c-.087.088-.169.18-.256.27q-.074.08-.155.16-.171.187-.343.38-.075.084-.15.17c-.106.123-.216.246-.32.374-.07.082-.133.165-.202.247-.068.082-.132.164-.201.247-.078.1-.16.2-.238.306q-.084.103-.16.206-.133.177-.265.356c-.036.05-.078.1-.114.156.356 1.261.85 2.747 1.48 4.397 1.583-.082 3.283-.146 5.043-.187a84 84 0 0 1 1.719-2.976c.037-.055.068-.114.105-.174q.116-.19.233-.375c.041-.068.087-.137.128-.205q.122-.19.238-.38.06-.091.119-.183l.256-.393c.027-.04.055-.087.082-.128a91 91 0 0 0-1.888-3.277l-.046-.074q-.918.048-1.814.11-1.209.084-2.368.201c-.06.028-.12.064-.183.092z"/><path fill="#fff" d="M.206 14.062q.149.481.32.97h.256q-.301-.495-.576-.97"/><path fill="#E6E7E8" d="M31.254 11.84c-.42-1.6-1.083-3.099-1.947-4.456v.009q-.164.487-.348.996l-.055.156c-.123.347-.26.708-.397 1.074a1 1 0 0 1-.032.087 55 55 0 0 1 1.769 3.529l1.005-1.39zM22.93 9.043c-.028-.055-.06-.11-.087-.16-.06-.105-.114-.206-.174-.306l-.22-.384a76 76 0 0 0-.996-1.696q-.041-.068-.082-.142-.07-.108-.137-.224-.117-.19-.234-.375l-.086-.142q-.137-.22-.275-.434l-.082-.128c-.082-.128-.16-.251-.242-.375a118 118 0 0 0-5.083 0 72 72 0 0 0-2.876 4.832 275 275 0 0 0 2.62 5.513h5.604A275 275 0 0 0 23.2 9.51q-.129-.233-.257-.462z"/><path fill="#231F20" d="M5.87 4.819q.055-.071.105-.142a31 31 0 0 1 .79-.983c.01-.009.014-.018.023-.027.275-.325.553-.64.828-.937l.032-.032c.128-.133.251-.265.38-.393.036-.041.077-.078.113-.115.096-.095.197-.196.293-.287l.11-.106a16 16 0 0 0-4.572 3.584q.314-.046.636-.091c.05-.005.1-.014.15-.018q.42-.057.851-.106.13-.176.26-.347"/><path fill="#000" fill-opacity=".3" d="M29.042 7.004c.278 1.189.434 2.427.434 3.703 0 8.896-7.214 16.11-16.11 16.11-5.138 0-9.709-2.41-12.657-6.154C2.679 27.218 8.759 32 15.959 32c8.795 0 15.926-7.131 15.926-15.926 0-3.374-1.052-6.496-2.839-9.074z"/><path fill="#fff" fill-opacity=".7" d="M20.37 4.01c-.389 1.495-5.559 1.76-9.719 4.955-4.36 2.921-6.267 7.735-7.808 7.625-1.618.142-2.08-7.46 4.512-12.219 6.615-4.727 13.668-1.856 13.02-.361z"/></g><defs><clipPath id="bsclip0_1854_611"><path fill="#fff" d="M0 0h32v32H0z"/></clipPath></defs></svg>