<?xml version="1.0" encoding="utf-8"?>
<svg xmlns="http://www.w3.org/2000/svg" width="32" height="32" viewBox="0 0 32 32" fill="none">
  <path d="M15.96 27.1185C15.96 28.4089 15.52 29.4992 14.66 30.3595C13.83 31.1797 12.66 31.6799 11.39 32H18C20.21 32 22 30.2094 22 27.9987V23.9975H14.88C15.58 24.8178 15.96 25.8681 15.96 27.1185Z" fill="white"/>
  <path d="M23.84 18.0356H4.16C4.06 18.3357 4 18.6558 4 18.9859V20.9866C4 21.3367 4.08 21.6768 4.19 21.9869H23.95C24.05 20.9365 23.99 19.9862 23.91 18.9859C23.89 18.6758 23.86 18.3557 23.84 18.0356Z" fill="white"/>
  <path d="M20 7.0422C20 7.59237 19.55 8.04251 19 8.04251C18.45 8.04251 18 7.59237 18 7.0422V0C17.12 0.0200063 16.13 0.100031 14.99 0.270084V8.0125C14.99 8.56268 14.54 9.01282 13.99 9.01282C13.44 9.01282 12.99 8.56268 12.99 8.0125V0.620194C11.87 0.850266 10.88 1.11035 10.01 1.39043V9.00281C10.01 9.55299 9.56 10.0031 9.01 10.0031C8.46 10.0031 8.01 9.55299 8.01 9.00281V2.14067C4.88 3.5311 4 5.01157 4 5.01157C4 5.01157 3 6.01188 3 10.5133C3 12.824 3.53 14.7246 4.04 16.035H23.82C23.83 15.7649 23.85 15.4948 23.88 15.2148C24.13 12.934 24.32 10.1632 24.46 6.98218C24.46 6.92216 24.49 6.88215 24.5 6.82213C24.5 3.81119 24.43 1.9306 24 1.50047C23.68 1.18037 22.65 0.300094 20 0.0500156V7.0422Z" fill="white"/>
  <path d="M27.52 12.0038L26.2 11.6036C26.1 12.9941 26 20.2563 25.99 21.0266C26.4 20.6465 26.78 20.2463 27.11 19.8262C28.18 18.4658 28.93 16.9153 29.41 15.6049C29.99 14.0044 28.98 12.4439 27.51 12.0038H27.52Z" fill="white"/>
  <path d="M13.96 27.1185C13.96 24.5377 11.47 23.9975 9.38 23.9975H5V27.9987C5 28.959 5.35 29.8293 5.91 30.5195C8.33 30.5195 11.79 30.3795 13.25 28.939C13.73 28.4689 13.96 27.8787 13.96 27.1285V27.1185Z" fill="white"/>
</svg>