<?xml version="1.0" encoding="utf-8"?>
<svg xmlns="http://www.w3.org/2000/svg" xmlns:xlink="http://www.w3.org/1999/xlink" version="1.1" id="Layer_1" x="0px" y="0px" viewBox="0 0 32 8" style="enable-background:new 0 0 32 8;">
<style type="text/css">
	.st0{fill-rule:evenodd;clip-rule:evenodd;fill:#EE0000;}
</style>
<g id="Logos-_x2F_-F1-logo-red">
	<g id="Page-1">
		<g id="Fill-1">
			<path id="path-1_1_" class="st0" d="M27,8h0.2V7.2h0L27.4,8h0.1l0.3-0.8h0V8H28V7h-0.2l-0.3,0.8h0L27.2,7H27V8z M26,7.2h0.3V8&#xD;&#xA;				h0.2V7.2h0.3V7H26V7.2z M24,8l8-8h-4.8l-8,8H24z M22.8,3.5h-9.7c-3,0-3.5,0.2-4.7,1.4C7.3,6.1,5.3,8,5.3,8h4.2l1-1&#xD;&#xA;				c0.7-0.7,1-0.7,2.4-0.7h7.2L22.8,3.5z M8.3,4.3C7.4,5.2,5.5,7,4.5,8H0c0,0,3.6-3.6,5.6-5.6C7.7,0.5,8.7,0,12.5,0h13.8l-3,3H12.8&#xD;&#xA;				C10.1,3,9.5,3.2,8.3,4.3z"/>
		</g>
	</g>
</g>
</svg>