<?xml version="1.0" encoding="utf-8"?>
<svg xmlns="http://www.w3.org/2000/svg" id="Layer_1" data-name="Layer 1" viewBox="0 0 1000 615.38">
  <defs>
    <style>
      .cls-1 {
        fill: #fff;
      }

      .cls-2 {
        fill: #42b5e8;
      }
    </style>
  </defs>
  <path class="cls-2" d="M504.93,467.49h86.25l8.43-38.03h-86.25l-8.43,38.03Zm80.17-361.62l-25.29,114.09h86.25l25.29-114.09h-86.25Z"/>
  <path class="cls-2" d="M452.62,181.93l-8.43,38.03h86.25l8.43-38.03h-86.25Zm-71.75,323.59h86.25l16.86-76.06h-86.25l-16.86,76.06Z"/>
  <g>
    <path class="cls-1" d="M191.7,310.23l-4.24,19.12H103.93l16.86-76.04h82.34l-4.24,19.12h-56.38l-2.14,9.67h45.95l-3.9,17.6h-45.95l-2.33,10.54h57.58Z"/>
    <path class="cls-1" d="M278.28,304.8c-3.63,16.4-20.66,27.05-48.8,27.05-19.77,0-35.78-5.21-46-14.45l16.51-15.21c7.24,6.52,19.19,10.97,34.06,10.97,10.87,0,16.59-1.84,17.44-5.64,.82-3.69-3.24-5-17.09-6.2-22.9-2.06-42.47-7.38-38.61-24.76,3.68-16.62,23.85-25.74,48.51-25.74,15.97,0,30.9,3.69,40.25,10.97l-16.02,15.43c-7.33-5.65-16.92-7.93-28.33-7.93-7.71,0-16.83,.97-17.75,5.1-.82,3.69,5.85,4.46,17.91,5.43,24.96,2.06,41.91,6.95,37.91,24.98Z"/>
    <path class="cls-1" d="M371.39,280.68c-4.09,18.47-20.65,27.49-42.48,27.49h-26.83l-4.7,21.18h-26.5l16.86-76.04h53.33c21.84,0,34.39,9.02,30.32,27.38Zm-26.98,.65c1.49-6.73-2.89-9.02-9.73-9.02h-24.66l-4.02,18.14h24.66c6.84,0,12.26-2.39,13.76-9.13Z"/>
    <path class="cls-1" d="M362.06,291.33c5.76-25.96,29.19-40.52,59.61-40.52s47.5,14.56,41.74,40.52c-5.75,25.96-29.19,40.52-59.71,40.52s-47.4-14.56-41.64-40.52Zm74.41,0c2.77-12.49-4.63-19.77-19.4-19.77s-25.41,7.28-28.18,19.77c-2.77,12.49,4.63,19.77,19.41,19.77s25.4-7.28,28.17-19.77Z"/>
    <path class="cls-1" d="M516.24,329.35l-13.51-22.37h-17.81l-4.96,22.37h-26.29l16.86-76.04h53.99c20.31,0,34.46,8.69,30.44,26.83-2.77,12.49-12.15,20.53-24.4,24.33l15.88,24.87h-30.2Zm-1.87-40.08c6.84,0,12.17-1.95,13.61-8.48,1.45-6.51-3.01-8.47-9.85-8.47h-25.53l-3.76,16.95h25.53Z"/>
    <path class="cls-1" d="M634.44,273.4h-30.1l-12.4,55.94h-26.5l12.41-55.94h-29.99l4.46-20.1h86.58l-4.46,20.1Z"/>
    <path class="cls-1" d="M708.84,304.8c-3.64,16.4-20.66,27.05-48.8,27.05-19.77,0-35.78-5.21-46-14.45l16.51-15.21c7.24,6.52,19.19,10.97,34.06,10.97,10.87,0,16.59-1.84,17.44-5.64,.82-3.69-3.24-5-17.09-6.2-22.9-2.06-42.47-7.38-38.61-24.76,3.69-16.62,23.85-25.74,48.51-25.74,15.97,0,30.9,3.69,40.25,10.97l-16.02,15.43c-7.33-5.65-16.92-7.93-28.33-7.93-7.71,0-16.83,.97-17.75,5.1-.82,3.69,5.85,4.46,17.91,5.43,24.96,2.06,41.91,6.95,37.91,24.98Z"/>
  </g>
  <g>
    <path class="cls-1" d="M479.36,380.62c-2.19,9.89-13.04,16.14-27.91,16.14h-47.13l13.11-59.15h43.75c14.86,0,22.97,6.08,20.92,15.38-1.48,6.67-7.76,12.51-16.84,13.1,9.33,.59,16.08,5.57,14.09,14.53Zm-20.55-2.54c.84-3.8-1.7-5.32-6.34-5.32h-22.55l-2.38,10.73h22.55c4.64,0,7.87-1.61,8.72-5.41Zm-26.23-17.32h20.1c4.23,0,7.55-1.27,8.37-4.99,.81-3.63-1.95-4.9-6.18-4.9h-20.1l-2.19,9.89Z"/>
    <path class="cls-1" d="M524.76,386.53h-29.56l-7.08,10.22h-21.45l43.1-59.15h22.38l16.87,59.15h-21.71l-2.55-10.22Zm-3.29-13.35l-4.48-18.26-12.58,18.26h17.06Z"/>
    <path class="cls-1" d="M608.25,353.24h-23.39l-9.65,43.52h-20.61l9.65-43.52h-23.31l3.47-15.63h67.31l-3.47,15.63Z"/>
    <path class="cls-1" d="M666.2,353.24h-23.39l-9.65,43.52h-20.61l9.65-43.52h-23.31l3.47-15.63h67.31l-3.47,15.63Z"/>
    <path class="cls-1" d="M723.41,380.95l-3.5,15.8h-58.53l13.11-59.15h20.61l-9.61,43.35h37.92Z"/>
    <path class="cls-1" d="M784.63,381.88l-3.3,14.87h-64.95l13.11-59.15h64.02l-3.3,14.87h-43.84l-1.67,7.52h35.73l-3.04,13.69h-35.72l-1.82,8.19h44.77Z"/>
  </g>
  <g>
    <path class="cls-1" d="M671.41,427.96c.16-.13,.34-.2,.53-.2h5.28c.19,0,.34,.07,.44,.2,.1,.13,.13,.3,.09,.49l-8.6,38.78c-.04,.19-.14,.36-.3,.49-.17,.13-.35,.2-.54,.2h-5.28c-.19,0-.34-.07-.44-.2-.11-.13-.14-.3-.09-.49l3.6-16.24c.04-.19-.03-.28-.22-.28h-7.28c-.19,0-.31,.09-.35,.28l-3.6,16.24c-.04,.19-.14,.36-.31,.49-.16,.13-.34,.2-.53,.2h-5.28c-.19,0-.34-.07-.45-.2-.1-.13-.13-.3-.09-.49l8.6-38.78c.04-.19,.14-.36,.31-.49,.16-.13,.34-.2,.53-.2h5.28c.19,0,.34,.07,.44,.2,.1,.13,.13,.3,.09,.49l-3.59,16.18c-.04,.19,.03,.28,.22,.28h7.29c.19,0,.31-.09,.35-.28l3.59-16.18c.04-.19,.14-.36,.31-.49Z"/>
    <path class="cls-1" d="M696.44,465.4c-1.57-1.98-1.98-4.62-1.25-7.92l4.27-19.27c.73-3.29,2.32-5.93,4.76-7.92,2.45-1.99,5.32-2.98,8.61-2.98s5.73,.99,7.32,2.98c1.59,1.99,2.01,4.62,1.28,7.92l-4.27,19.27c-.73,3.29-2.33,5.93-4.79,7.92-2.47,1.99-5.35,2.99-8.64,2.99s-5.72-1-7.29-2.99Zm12.01-4.1c1-.9,1.66-2.07,1.98-3.53l4.4-19.85c.32-1.46,.18-2.63-.42-3.53-.61-.9-1.56-1.35-2.86-1.35s-2.44,.45-3.43,1.35c-.98,.89-1.64,2.07-1.96,3.53l-4.4,19.85c-.32,1.46-.19,2.64,.39,3.53,.59,.9,1.53,1.35,2.83,1.35s2.45-.45,3.46-1.35Z"/>
    <path class="cls-1" d="M741.71,465.43c-1.54-1.97-1.94-4.58-1.22-7.83l4.34-19.56c.73-3.29,2.29-5.9,4.69-7.83,2.4-1.93,5.22-2.89,8.47-2.89s5.72,.96,7.28,2.89c1.56,1.93,1.98,4.55,1.25,7.83l-.15,.69c-.04,.19-.15,.37-.32,.52-.17,.15-.35,.23-.54,.23l-5.39,.23c-.46,0-.64-.23-.53-.69l.32-1.43c.29-1.34,.15-2.43-.43-3.27-.58-.84-1.5-1.26-2.76-1.26s-2.31,.42-3.26,1.26c-.95,.85-1.58,1.93-1.87,3.27l-4.55,20.54c-.3,1.34-.15,2.43,.42,3.27,.58,.84,1.48,1.26,2.7,1.26s2.37-.42,3.32-1.26c.95-.84,1.58-1.93,1.87-3.27l.32-1.43c.04-.19,.14-.36,.31-.49,.16-.13,.34-.2,.53-.2l5.29,.23c.19,0,.34,.07,.44,.2,.11,.13,.14,.3,.1,.49l-.15,.69c-.72,3.25-2.3,5.86-4.72,7.83-2.43,1.97-5.29,2.96-8.58,2.96s-5.64-.99-7.17-2.96Z"/>
    <path class="cls-1" d="M783.7,467.73c-.1-.13-.13-.3-.09-.49l8.6-38.78c.04-.19,.14-.36,.31-.49,.16-.13,.34-.2,.53-.2h5.28c.19,0,.34,.07,.44,.2,.1,.13,.13,.3,.09,.49l-3.51,15.83c-.03,.16-.01,.24,.06,.26,.07,.02,.16-.03,.26-.14l12.18-16.13c.26-.34,.59-.51,.97-.51h5.68c.27,0,.42,.08,.47,.23,.04,.15-.01,.34-.18,.58l-12.18,16.12c-.07,.16-.12,.27-.13,.35l4.4,22.09c.02,.07,.02,.19-.01,.34-.07,.31-.3,.46-.68,.46h-5.68c-.42,0-.65-.17-.69-.52l-3.09-16.58c-.02-.11-.06-.16-.14-.14-.08,.02-.17,.07-.26,.14l-3.14,3.84c-.11,.15-.18,.26-.19,.34l-2.71,12.22c-.04,.19-.14,.36-.31,.49-.16,.13-.34,.2-.53,.2h-5.28c-.19,0-.34-.07-.45-.2Z"/>
    <path class="cls-1" d="M857.23,433.3c-.16,.13-.34,.2-.53,.2h-12.39c-.19,0-.31,.09-.35,.29l-2.4,10.84c-.04,.19,.03,.28,.22,.28h7.34c.19,0,.34,.07,.44,.2s.13,.3,.09,.49l-.98,4.42c-.04,.19-.14,.36-.3,.49-.16,.13-.34,.2-.53,.2h-7.34c-.19,0-.31,.09-.35,.28l-2.42,10.9c-.04,.19,.03,.29,.22,.29h12.39c.19,0,.34,.07,.44,.2,.11,.13,.13,.29,.09,.49l-.96,4.36c-.04,.19-.14,.36-.31,.49-.16,.13-.34,.2-.53,.2h-18.65c-.19,0-.34-.07-.45-.2-.1-.13-.13-.3-.09-.49l8.6-38.78c.04-.19,.14-.36,.31-.49,.16-.13,.34-.2,.53-.2h18.65c.19,0,.34,.07,.44,.2,.1,.13,.13,.3,.09,.49l-.96,4.36c-.04,.19-.14,.36-.31,.49Z"/>
    <path class="cls-1" d="M880.82,467.67c-.1-.13-.14-.29-.09-.49l3.47-15.66,.02-.34-2.96-22.6c-.02-.08-.02-.17,0-.29,.07-.34,.32-.51,.74-.51h5.51c.42,0,.64,.19,.68,.57l1.03,14.74c0,.12,.05,.17,.13,.17,.08,0,.15-.05,.21-.17l7.57-14.74c.2-.38,.51-.57,.93-.57h5.51c.23,0,.39,.07,.47,.2,.08,.13,.06,.34-.07,.61l-12.98,22.6-.13,.34-3.47,15.66c-.04,.19-.15,.35-.31,.49-.16,.13-.34,.2-.53,.2h-5.28c-.19,0-.34-.06-.44-.2Z"/>
  </g>
</svg>