<?xml version="1.0" encoding="utf-8"?>
<svg xmlns="http://www.w3.org/2000/svg" xmlns:xlink="http://www.w3.org/1999/xlink" version="1.1" id="Layer_1" x="0px" y="0px" viewBox="0 0 18.4 12.3" style="enable-background:new 0 0 18.4 12.3;">
<style type="text/css">
	.st0{fill:#FFFFFF;}
	.st1{fill:#FF0000;}
</style>
<path class="st0" d="M16.6,0H1.8C0.8,0,0,0.8,0,1.8v8.7c0,1,0.8,1.8,1.8,1.8h14.8c1,0,1.8-0.8,1.8-1.8V1.8C18.3,0.8,17.5,0,16.6,0z"/>
<path d="M13.4,5.3L13.4,5.3c0.6,0,1.2,0,1.8,0h0.1c0.1,0.2,0.3,0.3,0.5,0.5c0,0,0,0,0,0.1l0,0c0-0.1,0.1-0.3,0.1-0.4&#xD;&#xA;	c0-0.2,0-0.2,0.2-0.2c0.3,0,0.6,0,1,0c0,0,0,0,0.1,0c0,0.1-0.1,0.3-0.1,0.4c-0.1,0.6-0.3,1.2-0.4,1.8c0,0,0,0.1-0.1,0.1&#xD;&#xA;	c-0.4,0-0.7,0-1.1,0c0,0,0,0-0.1,0c0-0.1,0.1-0.3,0.1-0.4V7.1C15.3,7,15.2,6.8,15,6.7l0,0c0,0.2-0.1,0.3-0.1,0.5s-0.1,0.3-0.1,0.5&#xD;&#xA;	c0,0,0,0.1-0.1,0.1c-0.4,0-0.8,0-1.1,0l0,0c0-0.2,0.1-0.4,0.1-0.6c0.1-0.4,0.2-0.8,0.2-1.1V6C13.7,5.6,13.6,5.5,13.4,5.3L13.4,5.3z"/>
<path d="M4.1,7.5C4,7.5,4,7.5,4.1,7.5c-0.5,0-0.8,0-1.2,0c-0.1,0-0.1,0-0.1-0.1C2.7,7.2,2.5,6.9,2.4,6.7c0,0.1,0,0.2-0.1,0.3&#xD;&#xA;	c0,0.2-0.1,0.3-0.1,0.5c0,0,0,0.1-0.1,0.1c-0.4,0-0.8,0-1.1,0l0,0C1.1,7,1.2,6.5,1.4,5.9c-0.1,0-0.3,0-0.4,0l0,0&#xD;&#xA;	c0.2-0.2,0.3-0.3,0.5-0.5h0.1c0.8,0,1.7,0,2.5,0c0.2,0,0.3,0.1,0.3,0.3C4.3,5.9,4.3,6.2,4.2,6.4c0,0.1-0.1,0.2-0.2,0.3&#xD;&#xA;	C3.9,6.8,3.8,6.8,3.7,6.8C3.8,7,3.9,7.3,4.1,7.5z M3,6.3C3,6.1,3.1,6,3.1,5.8c-0.2,0-0.4,0-0.6,0c0,0.2-0.1,0.3-0.1,0.5&#xD;&#xA;	C2.6,6.3,2.8,6.3,3,6.3z"/>
<path class="st1" d="M8.6,6.6c0-0.1-0.1-0.2-0.1-0.3C8.8,6.1,9.2,6,9.4,5.7l0,0c-0.1,0-0.2,0-0.3,0C8.5,5.7,8,5.9,7.5,6.1&#xD;&#xA;	C7.3,6.2,7,6.3,6.8,6.4c0,0,0,0-0.1,0c0.1-0.1,0.1-0.2,0.2-0.3c0.2-0.2,0.3-0.5,0.5-0.7c0,0,0,0,0.1,0c1.2,0,2.5,0,3.7,0&#xD;&#xA;	c0,0,0,0,0.1,0C10.7,6,10.2,6.6,9.5,7.1C9.4,7,9.4,7,9.3,6.9V6.8c0.1-0.2,0.2-0.5,0.3-0.7c0-0.1,0.1-0.2,0.1-0.3c0,0,0,0,0,0.1&#xD;&#xA;	C9.5,6.2,9.4,6.5,9.2,6.8L9.1,6.9C8.8,6.6,8.7,6.6,8.6,6.6z"/>
<path d="M5.9,7.5c-0.4,0-0.8,0-1.2,0c0.1-0.6,0.2-1.1,0.4-1.7c-0.1,0-0.3,0-0.4,0l0,0C4.9,5.6,5,5.5,5.2,5.3h0.1c0.4,0,0.7,0,1.1,0&#xD;&#xA;	l0,0C6.2,6,6,6.8,5.9,7.5z"/>
<path d="M12.5,7.5c-0.4,0-0.8,0-1.2,0c0.1-0.6,0.2-1.1,0.4-1.7c-0.1,0-0.3,0-0.4,0c0.1-0.1,0.1-0.1,0.2-0.2c0.1-0.1,0.3-0.2,0.4-0.4&#xD;&#xA;	c0,0,0,0,0.1,0c0.4,0,0.7,0,1.1,0l0,0C12.9,6,12.7,6.8,12.5,7.5z"/>
<path d="M6.4,8c0.7-0.6,2.7-0.7,3.4-0.1c0,0,0,0-0.1,0C9.4,8,9.2,8.2,8.9,8.4c0,0,0,0-0.1,0C8.2,8.1,7.5,8,6.8,8&#xD;&#xA;	C6.7,7.9,6.6,8,6.4,8C6.5,8,6.4,8,6.4,8z"/>
<path class="st1" d="M8.1,7.1c0,0.1,0,0.1,0,0.2c0,0,0,0-0.1,0c-0.2,0-0.4,0.1-0.7,0.1C6.9,7.5,6.5,7.6,6.2,7.9l0,0l0,0&#xD;&#xA;	c0.1-0.1,0.2-0.3,0.3-0.4C6.8,7.2,7.1,7,7.4,6.8h0.1C7.7,6.9,7.9,7,8.1,7.1z"/>
<path d="M8.6,7.3c0.8-0.1,1.6,0,2.3,0.2l0,0c-0.1,0-0.1,0-0.2,0c-0.2,0-0.3,0.1-0.5,0.1h-0.1C9.8,7.4,9.4,7.4,9,7.3&#xD;&#xA;	C8.9,7.4,8.8,7.4,8.6,7.3z"/>
<path class="st1" d="M8.2,6.9C8,6.8,7.8,6.7,7.6,6.7l0,0c0.3-0.1,0.5-0.2,0.8-0.3c0,0.1,0.1,0.2,0.1,0.3l0,0&#xD;&#xA;	C8.3,6.8,8.3,6.9,8.2,6.9z"/>
</svg>