<?xml version="1.0" encoding="utf-8"?>
<svg xmlns="http://www.w3.org/2000/svg" id="Layer_1" data-name="Layer 1" viewBox="0 0 1000 615.38">
  <defs>
    <style>
      .cls-1 {
        fill: #fff;
      }

      .cls-2 {
        fill: #4eb648;
      }
    </style>
  </defs>
  <path class="cls-2" d="M487.49,443.12h91.73l8.97-40.44h-91.73l-8.97,40.44ZM572.75,58.54l-26.9,121.33h91.73l26.9-121.33h-91.73Z"/>
  <path class="cls-2" d="M431.86,139.43l-8.97,40.44h91.73l8.97-40.44h-91.73Zm-76.3,344.13h91.73l17.93-80.89h-91.73l-17.93,80.89Z"/>
  <g>
    <path class="cls-1" d="M154.41,275.67l-4.51,20.33H61.08l17.93-80.86h87.55l-4.51,20.33h-59.95l-2.28,10.28h48.86l-4.15,18.71h-48.86l-2.48,11.21h61.22Z"/>
    <path class="cls-1" d="M246.48,269.89c-3.87,17.44-21.97,28.76-51.88,28.76-21.02,0-38.04-5.55-48.92-15.36l17.56-16.17c7.7,6.93,20.4,11.67,36.22,11.67,11.55,0,17.65-1.96,18.54-6.01,.87-3.93-3.44-5.31-18.18-6.58-24.35-2.19-45.15-7.85-41.05-26.34,3.92-17.67,25.36-27.38,51.58-27.38,16.98,0,32.86,3.93,42.81,11.67l-17.03,16.4c-7.79-6.01-18-8.43-30.12-8.43-8.2,0-17.9,1.04-18.87,5.43-.87,3.93,6.23,4.74,19.05,5.78,26.54,2.19,44.56,7.39,40.31,26.57Z"/>
    <path class="cls-1" d="M345.5,244.25c-4.35,19.64-21.96,29.23-45.17,29.23h-28.53l-4.99,22.53h-28.18l17.93-80.86h56.71c23.22,0,36.57,9.59,32.24,29.11Zm-28.68,.69c1.59-7.16-3.07-9.59-10.35-9.59h-26.22l-4.28,19.29h26.22c7.28,0,13.04-2.54,14.63-9.7Z"/>
    <path class="cls-1" d="M335.6,255.57c6.12-27.61,31.04-43.09,63.38-43.09s50.51,15.48,44.39,43.09c-6.12,27.61-31.04,43.09-63.49,43.09s-50.39-15.48-44.27-43.09Zm79.12,0c2.95-13.28-4.92-21.02-20.64-21.02s-27.01,7.74-29.95,21.02c-2.95,13.28,4.92,21.02,20.63,21.02s27.01-7.74,29.96-21.02Z"/>
    <path class="cls-1" d="M499.55,296l-14.36-23.8h-18.94l-5.28,23.8h-27.95l17.93-80.86h57.4c21.6,0,36.64,9.24,32.37,28.53-2.94,13.28-12.92,21.83-25.95,25.88l16.89,26.45h-32.11Zm-1.98-42.63c7.28,0,12.94-2.08,14.47-9.01,1.54-6.93-3.2-9.01-10.48-9.01h-27.14l-3.99,18.02h27.14Z"/>
    <path class="cls-1" d="M625.25,236.51h-31.99l-13.19,59.49h-28.18l13.19-59.49h-31.88l4.74-21.37h92.05l-4.74,21.37Z"/>
    <path class="cls-1" d="M704.36,269.89c-3.87,17.44-21.97,28.76-51.89,28.76-21.02,0-38.04-5.55-48.91-15.36l17.56-16.17c7.7,6.93,20.4,11.67,36.22,11.67,11.55,0,17.65-1.96,18.54-6.01,.87-3.93-3.44-5.31-18.18-6.58-24.34-2.19-45.15-7.85-41.05-26.34,3.92-17.67,25.36-27.38,51.58-27.38,16.98,0,32.86,3.93,42.8,11.67l-17.03,16.4c-7.79-6.01-18-8.43-30.12-8.43-8.2,0-17.9,1.04-18.88,5.43-.87,3.93,6.23,4.74,19.05,5.78,26.54,2.19,44.56,7.39,40.31,26.57Z"/>
  </g>
  <g>
    <path class="cls-1" d="M460.36,350.53c-2.33,10.51-13.87,17.16-29.68,17.16h-50.14l13.94-62.89h46.55c15.81,0,24.44,6.47,22.25,16.35-1.57,7.1-8.25,13.3-17.91,13.93,9.92,.63,17.1,5.93,14.99,15.45Zm-21.87-2.7c.9-4.04-1.8-5.66-6.74-5.66h-23.99l-2.53,11.41h23.99c4.94,0,8.38-1.71,9.27-5.75Zm-27.9-18.42h21.38c4.49,0,8.03-1.35,8.9-5.3,.86-3.86-2.08-5.21-6.57-5.21h-21.38l-2.33,10.51Z"/>
    <path class="cls-1" d="M507.95,356.82h-31.45l-7.53,10.87h-22.82l45.84-62.89h23.81l17.96,62.89h-23.09l-2.71-10.87Zm-3.5-14.2l-4.77-19.41-13.38,19.41h18.15Z"/>
    <path class="cls-1" d="M595.72,321.42h-24.89l-10.26,46.27h-21.93l10.26-46.27h-24.8l3.68-16.62h71.61l-3.68,16.62Z"/>
    <path class="cls-1" d="M657.35,321.42h-24.89l-10.26,46.27h-21.93l10.26-46.27h-24.8l3.69-16.62h71.61l-3.69,16.62Z"/>
    <path class="cls-1" d="M718.19,350.89l-3.73,16.8h-62.27l13.94-62.89h21.93l-10.22,46.09h40.34Z"/>
    <path class="cls-1" d="M782.6,351.88l-3.51,15.81h-69.1l13.94-62.89h68.11l-3.51,15.81h-46.63l-1.77,8h38.01l-3.23,14.55h-38.01l-1.93,8.72h47.62Z"/>
  </g>
  <g>
    <path class="cls-1" d="M668.69,406.55c-.17,.14-.36,.21-.57,.21h-13.12c-.2,0-.33,.1-.37,.31l-2.56,11.53c-.05,.2,.03,.31,.24,.31h7.75c.2,0,.36,.07,.47,.21,.11,.14,.14,.32,.1,.52l-1.04,4.7c-.05,.2-.15,.38-.33,.52-.17,.14-.37,.21-.57,.21h-7.75c-.2,0-.33,.1-.37,.31l-3.83,17.27c-.05,.21-.16,.38-.33,.52-.18,.14-.36,.21-.57,.21h-5.61c-.2,0-.36-.07-.47-.21-.11-.14-.14-.31-.1-.52l9.14-41.24c.05-.2,.15-.37,.33-.52,.17-.14,.36-.21,.56-.21h19.77c.2,0,.36,.07,.47,.21,.11,.14,.14,.32,.1,.52l-1.03,4.64c-.05,.2-.16,.38-.33,.52Z"/>
    <path class="cls-1" d="M676.67,440.69c-1.67-2.11-2.11-4.92-1.34-8.42l4.54-20.5c.78-3.5,2.46-6.3,5.07-8.42,2.6-2.12,5.66-3.17,9.15-3.17s6.09,1.06,7.78,3.17c1.69,2.11,2.14,4.92,1.37,8.42l-4.54,20.5c-.78,3.5-2.48,6.31-5.1,8.42-2.63,2.12-5.69,3.17-9.19,3.17s-6.08-1.06-7.75-3.17Zm12.77-4.36c1.07-.96,1.77-2.21,2.11-3.75l4.68-21.11c.34-1.55,.19-2.8-.45-3.75-.64-.96-1.65-1.44-3.04-1.44s-2.6,.48-3.64,1.44-1.74,2.21-2.08,3.75l-4.68,21.11c-.34,1.55-.2,2.8,.42,3.75,.62,.96,1.62,1.43,3,1.43s2.61-.48,3.68-1.43Z"/>
    <path class="cls-1" d="M713.37,440.69c-1.67-2.11-2.11-4.92-1.34-8.42l4.54-20.5c.78-3.5,2.46-6.3,5.07-8.42,2.6-2.12,5.66-3.17,9.15-3.17s6.09,1.06,7.78,3.17c1.69,2.11,2.14,4.92,1.37,8.42l-4.54,20.5c-.78,3.5-2.48,6.31-5.1,8.42-2.63,2.12-5.69,3.17-9.19,3.17s-6.08-1.06-7.75-3.17Zm12.77-4.36c1.07-.96,1.77-2.21,2.11-3.75l4.68-21.11c.34-1.55,.19-2.8-.45-3.75-.64-.96-1.65-1.44-3.04-1.44s-2.6,.48-3.64,1.44-1.74,2.21-2.08,3.75l-4.68,21.11c-.34,1.55-.2,2.8,.42,3.75,.62,.96,1.62,1.43,3,1.43s2.61-.48,3.68-1.43Z"/>
    <path class="cls-1" d="M778.94,400.88c.11,.14,.15,.32,.1,.52l-1.03,4.64c-.05,.2-.16,.38-.33,.52-.17,.14-.36,.21-.56,.21h-7.75c-.2,0-.33,.1-.37,.31l-7.89,35.57c-.05,.21-.15,.38-.33,.52-.18,.14-.36,.21-.57,.21h-5.61c-.21,0-.36-.07-.47-.21-.11-.14-.15-.31-.1-.52l7.89-35.57c.05-.2-.03-.31-.24-.31h-7.32c-.2,0-.36-.07-.47-.21-.11-.14-.14-.32-.1-.52l1.03-4.64c.05-.2,.15-.37,.33-.52,.18-.14,.36-.21,.57-.21h22.76c.2,0,.36,.07,.47,.21Z"/>
    <path class="cls-1" d="M803.64,440.32c-2.63,2.03-5.69,3.05-9.19,3.05h-10.74c-.2,0-.36-.07-.47-.21-.11-.14-.14-.31-.1-.52l9.14-41.24c.05-.2,.15-.37,.33-.52,.17-.14,.36-.21,.56-.21h9.64c3.86,0,6.68,.98,8.44,2.93,1.76,1.95,2.23,4.8,1.4,8.54-.93,4.19-3.08,7.18-6.44,8.97-.23,.12-.3,.24-.2,.37,1.36,1.02,2.3,2.38,2.81,4.09s.51,3.74-.01,6.1c-.83,3.74-2.56,6.63-5.18,8.66Zm-4.15-4.82c1.19-1.14,2.01-2.74,2.47-4.82,.47-2.11,.37-3.77-.3-4.97-.67-1.2-1.82-1.8-3.44-1.8h-3.54c-.2,0-.33,.1-.37,.3l-2.81,12.69c-.05,.2,.03,.3,.24,.3h3.54c1.63,0,3.03-.57,4.22-1.71Zm-1.38-28.43l-2.52,11.35c-.05,.2,.03,.31,.24,.31h3.11c1.67,0,3.08-.51,4.24-1.53,1.16-1.02,1.95-2.46,2.36-4.33,.43-1.95,.3-3.46-.4-4.51-.7-1.06-1.89-1.59-3.55-1.59h-3.11c-.2,0-.33,.1-.37,.31Z"/>
    <path class="cls-1" d="M836.56,442.7l.26-6.41c.05-.2-.06-.31-.3-.31h-8.91c-.24,0-.39,.1-.43,.31l-2.58,6.41c-.14,.45-.45,.67-.94,.67h-5.55c-.57,0-.73-.26-.49-.79l18.17-41.24c.18-.45,.49-.67,.94-.67h6.47c.45,0,.66,.22,.64,.67l-.11,41.24-.06,.24c-.08,.37-.34,.55-.79,.55h-5.67c-.49,0-.7-.22-.64-.67Zm-6.68-12.26h6.77c.24,0,.37-.1,.37-.31l.73-19.28c-.01-.12-.06-.18-.14-.18s-.16,.06-.22,.18l-7.75,19.28c-.09,.2,0,.31,.24,.31Z"/>
    <path class="cls-1" d="M856.7,443.16c-.11-.14-.14-.31-.1-.52l9.14-41.24c.05-.2,.15-.37,.33-.52,.18-.14,.36-.21,.57-.21h5.61c.2,0,.36,.07,.47,.21,.11,.14,.14,.32,.1,.52l-7.89,35.57c-.05,.2,.04,.31,.24,.31h13.18c.2,0,.36,.07,.47,.21,.11,.14,.14,.32,.1,.52l-1.03,4.64c-.05,.21-.15,.38-.33,.52-.18,.14-.36,.21-.57,.21h-19.83c-.2,0-.36-.07-.47-.21Z"/>
    <path class="cls-1" d="M890.83,443.16c-.11-.14-.14-.31-.1-.52l9.14-41.24c.05-.2,.15-.37,.33-.52,.17-.14,.36-.21,.56-.21h5.61c.2,0,.36,.07,.47,.21,.11,.14,.15,.32,.1,.52l-7.89,35.57c-.05,.2,.04,.31,.24,.31h13.18c.2,0,.36,.07,.47,.21,.11,.14,.14,.32,.1,.52l-1.03,4.64c-.05,.21-.15,.38-.33,.52-.18,.14-.36,.21-.57,.21h-19.83c-.2,0-.36-.07-.47-.21Z"/>
  </g>
</svg>