<?xml version="1.0" encoding="utf-8"?>
<svg xmlns="http://www.w3.org/2000/svg" id="Layer_1" data-name="Layer 1" viewBox="0 0 1000 615.38">
  <defs>
    <style>
      .cls-1 {
        fill: #fff;
      }

      .cls-2 {
        fill: #fbaf17;
      }
    </style>
  </defs>
  <path class="cls-2" d="M469.97,460.7h81.57l7.97-35.97h-81.57l-7.97,35.97Zm75.82-341.98l-23.92,107.89h81.57l23.92-107.89h-81.57Z"/>
  <path class="cls-2" d="M420.5,190.65l-7.97,35.97h81.57l7.97-35.97h-81.57Zm-67.85,306.02h81.57l15.95-71.93h-81.57l-15.94,71.93Z"/>
  <polygon class="cls-1" points="173.77 311.99 169.76 330.06 90.75 330.06 106.69 258.16 184.57 258.16 180.57 276.24 127.24 276.24 125.21 285.38 168.67 285.38 164.98 302.02 121.52 302.02 119.31 311.99 173.77 311.99"/>
  <path class="cls-1" d="M255.64,306.85c-3.44,15.51-19.54,25.57-46.15,25.57-18.7,0-33.84-4.93-43.52-13.65l15.62-14.39c6.86,6.17,18.15,10.38,32.23,10.38,10.28,0,15.69-1.74,16.49-5.34,.78-3.49-3.06-4.72-16.17-5.85-21.66-1.95-40.17-6.98-36.53-23.42,3.49-15.72,22.56-24.34,45.89-24.34,15.1,0,29.22,3.49,38.08,10.37l-15.15,14.59c-6.94-5.34-16.01-7.5-26.8-7.5-7.3,0-15.93,.93-16.79,4.83-.78,3.49,5.54,4.21,16.94,5.14,23.62,1.95,39.64,6.57,35.87,23.62"/>
  <path class="cls-1" d="M343.7,284.04c-3.87,17.47-19.52,25.99-40.18,25.99h-25.38l-4.44,20.03h-25.07l15.94-71.9h50.45c20.65,0,32.52,8.52,28.68,25.88m-25.52,.62c1.42-6.36-2.73-8.52-9.21-8.52h-23.32l-3.8,17.16h23.32c6.47,0,11.6-2.26,13.01-8.63"/>
  <path class="cls-1" d="M334.86,294.11c5.44-24.55,27.6-38.31,56.37-38.31s44.93,13.76,39.49,38.31c-5.45,24.55-27.6,38.31-56.47,38.31s-44.83-13.76-39.39-38.31m70.38,0c2.62-11.81-4.38-18.69-18.35-18.69s-24.03,6.88-26.65,18.69c-2.62,11.81,4.39,18.69,18.36,18.69s24.03-6.88,26.65-18.69"/>
  <path class="cls-1" d="M480.68,330.06l-12.78-21.16h-16.85l-4.69,21.16h-24.86l15.94-71.9h51.06c19.22,0,32.6,8.22,28.8,25.37-2.61,11.81-11.49,19.41-23.08,23l15.02,23.53h-28.56Zm-1.77-37.9c6.47,0,11.51-1.85,12.88-8.01,1.36-6.17-2.85-8.02-9.32-8.02h-24.15l-3.55,16.02h24.15Z"/>
  <polygon class="cls-1" points="592.45 277.16 563.99 277.16 552.27 330.06 527.19 330.06 538.92 277.16 510.56 277.16 514.78 258.16 596.67 258.16 592.45 277.16"/>
  <path class="cls-1" d="M662.82,306.85c-3.44,15.51-19.54,25.57-46.15,25.57-18.7,0-33.84-4.93-43.52-13.65l15.62-14.39c6.86,6.17,18.15,10.38,32.23,10.38,10.28,0,15.69-1.74,16.49-5.34,.78-3.49-3.06-4.72-16.17-5.85-21.66-1.95-40.17-6.98-36.53-23.42,3.49-15.72,22.56-24.34,45.89-24.34,15.1,0,29.23,3.49,38.08,10.37l-15.15,14.59c-6.94-5.34-16.01-7.5-26.8-7.5-7.3,0-15.93,.93-16.79,4.83-.78,3.49,5.54,4.21,16.94,5.14,23.62,1.95,39.64,6.57,35.87,23.62"/>
  <path class="cls-1" d="M445.81,378.55c-2.08,9.35-12.34,15.26-26.4,15.26h-44.6l12.41-55.94h41.4c14.07,0,21.74,5.75,19.78,14.54-1.4,6.31-7.33,11.83-15.93,12.39,8.83,.56,15.21,5.28,13.34,13.75m-19.45-2.4c.8-3.6-1.6-5.04-5.99-5.04h-21.34l-2.25,10.16h21.34c4.39,0,7.45-1.52,8.24-5.11m-24.81-16.39h19.02c3.99,0,7.13-1.2,7.91-4.71,.77-3.44-1.85-4.64-5.84-4.64h-19.02l-2.07,9.35Z"/>
  <path class="cls-1" d="M488.74,384.15h-27.97l-6.7,9.67h-20.29l40.77-55.94h21.18l15.96,55.94h-20.53l-2.42-9.67Zm-3.11-12.63l-4.24-17.27-11.9,17.27h16.15Z"/>
  <polygon class="cls-1" points="567.7 352.65 545.56 352.65 536.44 393.81 516.93 393.81 526.06 352.65 504.01 352.65 507.29 337.87 570.97 337.87 567.7 352.65"/>
  <polygon class="cls-1" points="622.5 352.65 600.36 352.65 591.24 393.81 571.73 393.81 580.86 352.65 558.81 352.65 562.09 337.87 625.77 337.87 622.5 352.65"/>
  <polygon class="cls-1" points="676.61 378.87 673.3 393.81 617.91 393.81 630.32 337.87 649.81 337.87 640.72 378.87 676.61 378.87"/>
  <polygon class="cls-1" points="734.49 379.75 731.38 393.82 669.92 393.82 682.32 337.87 742.9 337.87 739.78 351.94 698.3 351.94 696.72 359.05 730.53 359.05 727.66 372 693.86 372 692.14 379.75 734.49 379.75"/>
  <path class="cls-1" d="M623.48,458.4c-2.33,1.81-5.06,2.71-8.17,2.71h-9.55c-.18,0-.32-.06-.42-.19-.09-.13-.12-.28-.09-.46l8.14-36.68c.04-.18,.14-.34,.29-.46,.16-.12,.33-.19,.5-.19h8.58c3.44,0,5.94,.87,7.51,2.61,1.57,1.73,1.98,4.26,1.25,7.59-.82,3.72-2.74,6.38-5.72,7.98-.21,.1-.27,.22-.18,.32,1.21,.9,2.05,2.11,2.51,3.64,.45,1.52,.45,3.33,0,5.43-.74,3.32-2.28,5.9-4.61,7.7m-3.69-4.28c1.05-1.01,1.79-2.45,2.2-4.29,.42-1.88,.33-3.35-.27-4.42-.59-1.07-1.61-1.6-3.06-1.6h-3.14c-.18,0-.29,.09-.34,.27l-2.5,11.28c-.04,.18,.03,.27,.22,.27h3.14c1.44,0,2.69-.51,3.75-1.52m-1.23-25.29l-2.24,10.09c-.04,.18,.03,.27,.22,.27h2.77c1.48,0,2.74-.45,3.77-1.35,1.03-.9,1.73-2.19,2.1-3.85,.39-1.73,.27-3.07-.36-4.02-.63-.94-1.67-1.41-3.15-1.41h-2.77c-.18,0-.29,.09-.34,.27"/>
  <path class="cls-1" d="M649.9,460.52l.23-5.7c.04-.18-.05-.27-.27-.27h-7.93c-.21,0-.34,.09-.38,.27l-2.29,5.7c-.13,.4-.41,.6-.85,.6h-4.93c-.51,0-.66-.24-.45-.71l16.16-36.68c.16-.4,.45-.6,.84-.6h5.74c.4,0,.59,.2,.58,.6l-.1,36.68-.05,.21c-.08,.33-.32,.49-.72,.49h-5.04c-.44,0-.63-.2-.57-.6m-5.94-10.91h6.02c.22,0,.33-.09,.34-.27l.64-17.14c0-.11-.04-.17-.12-.17s-.14,.06-.2,.17l-6.89,17.14c-.08,.18,0,.27,.21,.27"/>
  <path class="cls-1" d="M666.73,458.83c-1.45-1.81-1.85-4.18-1.2-7.11l.32-1.41c.04-.18,.14-.33,.29-.46,.16-.13,.32-.19,.5-.19h4.94c.18,0,.32,.07,.42,.19,.09,.13,.13,.28,.09,.46l-.24,1.09c-.31,1.41-.22,2.55,.3,3.41,.52,.87,1.33,1.3,2.46,1.3s2.13-.41,3.04-1.22c.9-.81,1.5-1.89,1.8-3.23,.21-.94,.19-1.75-.05-2.44-.25-.69-.67-1.34-1.25-1.95-.58-.62-1.55-1.51-2.88-2.66-1.52-1.3-2.72-2.46-3.6-3.47-.87-1.02-1.52-2.24-1.95-3.67-.43-1.43-.43-3.08,0-4.97,.67-3,2.09-5.39,4.29-7.16,2.21-1.78,4.79-2.67,7.75-2.67s5.22,.93,6.65,2.8c1.44,1.86,1.81,4.33,1.14,7.4l-.29,1.3c-.04,.18-.14,.34-.3,.46-.16,.13-.32,.19-.5,.19h-4.88c-.18,0-.32-.07-.42-.19-.09-.13-.12-.28-.08-.46l.31-1.41c.31-1.41,.21-2.54-.31-3.4-.52-.85-1.35-1.27-2.51-1.27-1.08,0-2.06,.39-2.91,1.16-.86,.78-1.45,1.85-1.75,3.22-.29,1.3-.16,2.41,.39,3.31,.54,.9,1.71,2.15,3.53,3.74,1.84,1.62,3.21,2.95,4.11,3.98,.89,1.04,1.51,2.16,1.85,3.4,.35,1.23,.33,2.69-.05,4.39-.69,3.07-2.15,5.55-4.41,7.4-2.26,1.87-4.89,2.8-7.89,2.8s-5.22-.9-6.66-2.71"/>
  <path class="cls-1" d="M692.77,460.92c-.09-.13-.12-.28-.09-.46l8.14-36.68c.04-.18,.14-.33,.29-.46,.16-.13,.33-.19,.5-.19h5c.18,0,.32,.06,.42,.19,.09,.13,.12,.28,.08,.46l-3.32,14.97c-.03,.15-.01,.23,.06,.25,.07,.02,.15-.03,.25-.13l11.52-15.25c.26-.33,.56-.49,.92-.49h5.37c.25,0,.4,.07,.45,.21,.04,.15-.02,.33-.18,.54l-11.52,15.24c-.07,.15-.11,.26-.13,.33l4.17,20.89c0,.07,0,.18-.03,.32-.07,.29-.27,.44-.63,.44h-5.37c-.39,0-.61-.16-.64-.49l-2.93-15.68c0-.11-.06-.15-.14-.14-.08,.02-.16,.06-.24,.14l-2.98,3.64c-.11,.14-.17,.25-.18,.32l-2.56,11.55c-.04,.18-.14,.34-.29,.46-.16,.12-.33,.19-.5,.19h-5c-.18,0-.32-.07-.42-.19"/>
  <path class="cls-1" d="M749.24,428.37c-.16,.12-.33,.19-.5,.19h-11.72c-.18,0-.3,.09-.34,.27l-2.28,10.25c-.04,.18,.03,.27,.22,.27h6.94c.18,0,.33,.07,.42,.19,.1,.13,.13,.28,.09,.46l-.92,4.18c-.04,.18-.14,.33-.29,.46-.15,.13-.32,.19-.51,.19h-6.94c-.18,0-.3,.09-.34,.27l-2.28,10.31c-.04,.18,.03,.27,.22,.27h11.72c.18,0,.31,.06,.42,.19,.09,.13,.12,.28,.08,.46l-.91,4.12c-.04,.18-.14,.34-.28,.46-.16,.12-.33,.19-.51,.19h-17.63c-.18,0-.32-.07-.42-.19-.09-.13-.12-.28-.09-.46l8.14-36.68c.04-.18,.14-.33,.28-.46,.16-.13,.33-.19,.51-.19h17.63c.18,0,.32,.06,.42,.19,.09,.13,.13,.28,.09,.46l-.91,4.12c-.04,.18-.14,.34-.29,.47"/>
  <path class="cls-1" d="M780.28,423.32c.09,.13,.12,.28,.09,.46l-.92,4.12c-.04,.18-.14,.34-.28,.46-.16,.13-.33,.19-.51,.19h-6.89c-.18,0-.29,.09-.34,.27l-7.02,31.63c-.03,.18-.13,.33-.28,.46-.16,.13-.32,.19-.51,.19h-4.99c-.18,0-.32-.06-.42-.19-.09-.13-.12-.28-.09-.46l7.02-31.63c.04-.18-.03-.27-.21-.27h-6.51c-.18,0-.33-.06-.42-.19-.1-.13-.13-.28-.09-.46l.92-4.12c.04-.18,.14-.34,.29-.46,.15-.12,.32-.19,.51-.19h20.23c.18,0,.32,.07,.42,.19"/>
  <path class="cls-1" d="M799.38,458.4c-2.33,1.81-5.06,2.71-8.17,2.71h-9.55c-.18,0-.32-.06-.42-.19-.09-.13-.12-.28-.09-.46l8.14-36.68c.04-.18,.14-.34,.29-.46,.16-.12,.33-.19,.5-.19h8.58c3.44,0,5.94,.87,7.51,2.61,1.57,1.73,1.98,4.26,1.25,7.59-.82,3.72-2.74,6.38-5.72,7.98-.21,.1-.27,.22-.18,.32,1.21,.9,2.05,2.11,2.51,3.64,.45,1.52,.45,3.33,0,5.43-.74,3.32-2.28,5.9-4.61,7.7m-3.69-4.28c1.05-1.01,1.79-2.45,2.2-4.29,.42-1.88,.33-3.35-.27-4.42-.59-1.07-1.61-1.6-3.06-1.6h-3.14c-.18,0-.29,.09-.34,.27l-2.5,11.28c-.04,.18,.03,.27,.22,.27h3.14c1.44,0,2.69-.51,3.75-1.52m-1.23-25.29l-2.24,10.09c-.04,.18,.03,.27,.22,.27h2.77c1.48,0,2.74-.45,3.77-1.35,1.03-.9,1.73-2.19,2.1-3.85,.39-1.73,.27-3.07-.36-4.02-.63-.94-1.67-1.41-3.15-1.41h-2.77c-.18,0-.29,.09-.34,.27"/>
  <path class="cls-1" d="M825.8,460.52l.23-5.7c.04-.18-.05-.27-.27-.27h-7.93c-.21,0-.34,.09-.38,.27l-2.29,5.7c-.13,.4-.41,.6-.85,.6h-4.93c-.51,0-.66-.24-.45-.71l16.16-36.68c.16-.4,.45-.6,.84-.6h5.74c.4,0,.59,.2,.58,.6l-.1,36.68-.05,.21c-.08,.33-.32,.49-.72,.49h-5.04c-.44,0-.63-.2-.57-.6m-5.94-10.91h6.02c.22,0,.33-.09,.34-.27l.64-17.14c0-.11-.04-.17-.12-.17s-.14,.06-.2,.17l-6.89,17.14c-.08,.18,0,.27,.21,.27"/>
  <path class="cls-1" d="M840.84,460.92c-.09-.13-.12-.28-.09-.46l8.14-36.68c.04-.18,.14-.33,.29-.46,.16-.13,.33-.19,.5-.19h5c.18,0,.32,.06,.42,.19,.09,.13,.12,.28,.08,.46l-7.01,31.63c-.04,.18,.04,.27,.22,.27h11.72c.18,0,.32,.06,.42,.19,.09,.13,.13,.28,.09,.46l-.92,4.12c-.03,.18-.14,.34-.28,.46-.16,.12-.33,.19-.51,.19h-17.63c-.18,0-.32-.07-.42-.19"/>
  <path class="cls-1" d="M868.31,460.92c-.09-.13-.12-.28-.09-.46l8.14-36.68c.04-.18,.14-.33,.29-.46,.16-.13,.33-.19,.5-.19h5c.18,0,.32,.06,.42,.19,.09,.13,.12,.28,.08,.46l-7.01,31.63c-.04,.18,.04,.27,.22,.27h11.72c.18,0,.32,.06,.42,.19,.09,.13,.13,.28,.09,.46l-.92,4.12c-.03,.18-.14,.34-.28,.46-.16,.12-.33,.19-.51,.19h-17.63c-.18,0-.32-.07-.42-.19"/>
</svg>