<?xml version="1.0" encoding="utf-8"?>
<svg xmlns="http://www.w3.org/2000/svg" width="1000" height="430" viewBox="0 0 1000 430" fill="none">
<path d="M174.2 116C163.2 161.7 152.3 208.7 141.6 255.7L141.4 256.7L140.3 256.8L118.2 257.9L98.6 258.9H97.5L97.2 257.9C85.8 209.9 74.3 160.3 63 110.5L62.6 108.8L64.4 108.9L98.9 110.6L100 110.7L100.2 111.7C108.1 156.6 112.3 179.5 119.9 220.9C126.9 178.9 130.7 156.4 138.1 113.8L138.3 112.6L139.5 112.7L172.9 114.3L174.5 114.4L174.2 116Z" fill="url(#paint0_linear_554_2055)"/>
<path fill-rule="evenodd" clip-rule="evenodd" d="M280.3 247.9L280.7 249.5L279 249.6L270.1 250L244.3 251.3L243.2 251.4L243 250.3C240.8 240.1 239.7 234.8 237.7 224.9L207.3 225.8C205.2 236.1 204.1 241.7 202 252.4L201.8 253.5H200.8L195.2 253.8L166.8 255.2L165 255.3L165.4 253.6C177.4 207.5 189.6 161.6 201.9 117.1L202.2 116L203.3 116.1L231.9 117.5L242.6 118.1H243.5L243.8 119C255.7 162.6 268 205.9 280.3 247.9ZM222.5 150.3C218.9 167.7 216.8 178.5 213 197.5L222.6 197.4L232 197.3C228.2 178.7 226 167.9 222.5 150.3Z" fill="url(#paint1_linear_554_2055)"/>
<path d="M376.1 217.8L377.7 217.7L377.4 219.3L377.3 220L373.9 243.8L373.7 244.9L372.6 245L338.8 246.7L296.2 248.8L294.8 248.9V247.5V122V120.6L296.2 120.7L314.3 121.6L328.9 122.3L330.2 122.4V123.6V219.1L353.4 218.5L376.1 217.8Z" fill="url(#paint2_linear_554_2055)"/>
<path d="M493.5 131.9V147.1V237.6V238.9H492.3L475.9 239.8L459.5 240.6L458.1 240.7V239.3V195.3L428.2 195.5V240.9V242.2H426.9L402.9 243.4L394.2 243.9H392.8V242.5V126.9V125.5L394.2 125.6L411.5 126.5L426.9 127.2L428.2 127.3V128.6V169.8L443.4 170L458.1 170.1V130.2V128.8L459.5 128.9L492.3 130.5L493.5 130.6V131.9Z" fill="url(#paint3_linear_554_2055)"/>
<path fill-rule="evenodd" clip-rule="evenodd" d="M621.1 241.099L621.7 242.899L619.8 242.799L602.4 241.899L585.1 241.099L584.1 240.999L583.8 239.999C581.7 230.999 580.6 226.299 578.6 217.699L563.4 217.199L548.1 216.799C546.1 224.999 545 229.399 542.9 237.899L542.6 238.899H541.5L524.3 237.999L507.5 237.099H505.7L506.3 235.399C518.4 200.999 530.7 164.799 542.8 127.799L543.1 126.999L544 126.899L583.3 124.899H584.3L584.6 125.799C596.7 162.899 609 201.699 621.1 241.099ZM563.4 154.099C559.8 168.799 557.7 177.899 553.9 193.299L572.8 193.499C569.1 177.699 566.9 168.599 563.4 154.099Z" fill="url(#paint4_linear_554_2055)"/>
<path d="M715.3 218.7L716.7 218.8L716.5 220.2C715.1 230.7 714.4 235.9 713 246.3L712.8 247.5H711.6L680.6 245.9L635.1 243.6L633.9 243.5V242.3V212.5V123.6V122.4L635.1 122.3L667.9 120.6H669.3V122V217.4L715.3 218.7Z" fill="url(#paint5_linear_554_2055)"/>
<path d="M811.9 221.6L813.3 221.7L813.2 223.1L809.6 251.3L809.5 252.5L808.2 252.4C792.8 251.7 781.7 251.1 770.5 250.5C759.4 249.9 748.4 249.3 733.1 248.6L731.9 248.5V247.2V161.5V118.7V117.4L733.1 117.3L765.9 115.7L767.3 115.6V117V220.3C776.3 220.5 782.8 220.7 789.3 221C795.9 221.2 802.6 221.4 811.9 221.6Z" fill="url(#paint6_linear_554_2055)"/>
<path fill-rule="evenodd" clip-rule="evenodd" d="M937.4 258.899L935.6 258.799L925.8 258.299L900.9 257.099L899.8 256.999L899.6 255.999C897.5 244.299 896.4 238.299 894.3 227.099L864 226.199C861.9 236.999 860.8 242.699 858.7 253.799L858.5 254.899L857.3 254.799L844.7 254.199L823.3 253.099L821.7 252.999L822.1 251.499C834.3 206.099 846.6 159.099 858.6 111.899L858.8 110.999L859.8 110.899L899.1 108.899H900.2L900.5 109.899C913.1 159.699 925.4 209.999 936.9 257.199L937.4 258.899ZM879.2 145.699C875.7 164.799 873.5 176.399 869.7 196.599L879.3 196.799L888.8 196.899C885 176.299 882.8 164.499 879.2 145.699Z" fill="url(#paint7_linear_554_2055)"/>
<path d="M466.1 271.6C468.5 272.534 470.733 273.9 472.8 275.7L466.9 282.9C465.5 281.834 464.167 281.034 462.9 280.5C461.567 279.967 460.167 279.7 458.7 279.7C455.7 279.7 453.367 281 451.7 283.6C450.033 286.267 449.2 290.267 449.2 295.6C449.2 300.934 450.067 304.9 451.8 307.5C453.467 310.1 455.8 311.4 458.8 311.4C460.4 311.4 461.9 311.067 463.3 310.4C464.633 309.734 466.133 308.767 467.8 307.5L473.3 314.7C471.433 316.634 469.233 318.2 466.7 319.4C464.1 320.6 461.3 321.2 458.3 321.2C453.833 321.2 449.967 320.2 446.7 318.2C443.367 316.267 440.8 313.367 439 309.5C437.2 305.7 436.3 301.067 436.3 295.6C436.3 290.334 437.233 285.8 439.1 282C440.9 278.134 443.467 275.2 446.8 273.2C450.067 271.2 453.833 270.2 458.1 270.2C461.033 270.2 463.7 270.667 466.1 271.6Z" fill="white"/>
<path d="M517.4 303.7C517.4 307.033 516.7 310.033 515.3 312.7C513.833 315.367 511.7 317.433 508.9 318.9C506.033 320.433 502.567 321.2 498.5 321.2C492.3 321.2 487.6 319.633 484.4 316.5C481.267 313.367 479.7 309.1 479.7 303.7V271.5H492.1V303.3C492.1 306.233 492.6 308.367 493.6 309.7C494.667 311.1 496.3 311.8 498.5 311.8C500.767 311.8 502.4 311.1 503.4 309.7C504.4 308.3 504.9 306.167 504.9 303.3V271.5H517.4V303.7Z" fill="white"/>
<path fill-rule="evenodd" clip-rule="evenodd" d="M558.4 275.6C561.933 278.333 563.7 282.3 563.7 287.5C563.7 293.033 562 297.2 558.6 300C555.267 302.867 550.733 304.3 545 304.3H540.2V320H527.8V271.5H543.8C550.067 271.5 554.933 272.867 558.4 275.6ZM549.1 293.3C550.3 292.1 550.9 290.2 550.9 287.6C550.9 282.933 548.467 280.6 543.6 280.6H540.2V295.1H543.9C546.233 295.1 547.967 294.5 549.1 293.3Z" fill="white"/>
<defs>
<linearGradient id="paint0_linear_554_2055" x1="219.3" y1="108.8" x2="219.3" y2="258.9" gradientUnits="userSpaceOnUse">
<stop stop-color="#EEE92D"/>
<stop offset="0.5" stop-color="#FCDB2A"/>
<stop offset="1" stop-color="#FECA2A"/>
</linearGradient>
<linearGradient id="paint1_linear_554_2055" x1="306.7" y1="116" x2="306.7" y2="255.3" gradientUnits="userSpaceOnUse">
<stop stop-color="#EEE92D"/>
<stop offset="0.5" stop-color="#FCDB2A"/>
<stop offset="1" stop-color="#FECA2A"/>
</linearGradient>
<linearGradient id="paint2_linear_554_2055" x1="435.5" y1="120.6" x2="435.5" y2="248.9" gradientUnits="userSpaceOnUse">
<stop stop-color="#EEE92D"/>
<stop offset="0.5" stop-color="#FCDB2A"/>
<stop offset="1" stop-color="#FECA2A"/>
</linearGradient>
<linearGradient id="paint3_linear_554_2055" x1="512.7" y1="125.5" x2="512.7" y2="243.9" gradientUnits="userSpaceOnUse">
<stop stop-color="#EEE92D"/>
<stop offset="0.5" stop-color="#FCDB2A"/>
<stop offset="1" stop-color="#FECA2A"/>
</linearGradient>
<linearGradient id="paint4_linear_554_2055" x1="623.8" y1="124.899" x2="623.8" y2="242.899" gradientUnits="userSpaceOnUse">
<stop stop-color="#EEE92D"/>
<stop offset="0.5" stop-color="#FCDB2A"/>
<stop offset="1" stop-color="#FECA2A"/>
</linearGradient>
<linearGradient id="paint5_linear_554_2055" x1="772.6" y1="120.6" x2="772.6" y2="247.5" gradientUnits="userSpaceOnUse">
<stop stop-color="#EEE92D"/>
<stop offset="0.5" stop-color="#FCDB2A"/>
<stop offset="1" stop-color="#FECA2A"/>
</linearGradient>
<linearGradient id="paint6_linear_554_2055" x1="887.6" y1="115.6" x2="887.6" y2="252.5" gradientUnits="userSpaceOnUse">
<stop stop-color="#EEE92D"/>
<stop offset="0.5" stop-color="#FCDB2A"/>
<stop offset="1" stop-color="#FECA2A"/>
</linearGradient>
<linearGradient id="paint7_linear_554_2055" x1="976.8" y1="108.899" x2="976.8" y2="258.899" gradientUnits="userSpaceOnUse">
<stop stop-color="#EEE92D"/>
<stop offset="0.5" stop-color="#FCDB2A"/>
<stop offset="1" stop-color="#FECA2A"/>
</linearGradient>
</defs>
</svg>