<?xml version="1.0" encoding="utf-8"?>
<svg xmlns="http://www.w3.org/2000/svg" xmlns:xlink="http://www.w3.org/1999/xlink" id="Layer_1" data-name="Layer 1" viewBox="0 0 2000 2000">
  <defs>
    <style>
      .cls-1 {
        fill: url(#linear-gradient);
      }

      .cls-1, .cls-2, .cls-3, .cls-4, .cls-5, .cls-6, .cls-7, .cls-8, .cls-9, .cls-10 {
        stroke-width: 0px;
      }

      .cls-2 {
        fill: url(#linear-gradient-6);
      }

      .cls-3 {
        fill: url(#linear-gradient-5);
      }

      .cls-4 {
        fill: none;
      }

      .cls-5 {
        fill: url(#linear-gradient-2);
      }

      .cls-6 {
        fill: url(#linear-gradient-7);
      }

      .cls-7 {
        fill: url(#linear-gradient-3);
      }

      .cls-11 {
        clip-path: url(#clippath);
      }

      .cls-8 {
        fill: url(#linear-gradient-9);
      }

      .cls-9 {
        fill: url(#linear-gradient-8);
      }

      .cls-10 {
        fill: url(#linear-gradient-4);
      }
    </style>
    <clipPath id="clippath">
      <path class="cls-4" d="M1408,984.39c-2.88,0-4.32,1.44-4.32,4.32v11.52c0,17.28,10.08,25.93,18.72,31.69,8.64,7.2,14.4,11.52,14.4,24.49v36.01c0,4.32-4.32,8.64-8.64,8.64h-15.84c-4.32,0-8.64-4.32-8.64-8.64v-28.81c0-1.44-1.44-4.32-4.32-4.32h-10.08c-2.88,0-4.32,1.44-4.32,4.32v28.81c0,14.4,11.52,25.93,25.93,25.93h15.84c14.4,0,25.93-11.52,25.93-25.93v-36.01c0-20.16-11.52-30.25-20.16-37.45-8.64-7.2-12.96-10.08-12.96-18.72v-12.96c0-1.44-1.44-4.32-4.32-4.32h-7.2v1.44ZM1153.06,984.39c-14.4,0-25.93,11.52-25.93,25.93v83.54c0,14.4,11.52,25.93,25.93,25.93h27.37c2.88,0,4.32-1.44,4.32-4.32v-8.64c0-2.88-1.44-4.32-4.32-4.32h-27.37c-4.32,0-8.64-4.32-8.64-8.64v-83.54c0-4.32,4.32-8.64,8.64-8.64h15.84c4.32,0,8.64,4.32,8.64,8.64v44.65c0,2.88,1.44,4.32,4.32,4.32h8.64c2.88,0,4.32-1.44,4.32-4.32v-44.65c0-14.4-11.52-25.93-25.93-25.93h-15.84ZM1236.6,984.39c-14.4,0-25.93,11.52-25.93,25.93v105.14c0,2.88,1.44,4.32,4.32,4.32h8.64c2.88,0,4.32-1.44,4.32-4.32v-105.14c0-4.32,4.32-8.64,8.64-8.64h14.4c4.32,0,8.64,4.32,8.64,8.64v105.14c0,2.88,1.44,4.32,4.32,4.32h8.64c2.88,0,4.32-1.44,4.32-4.32v-105.14c0-14.4-11.52-25.93-25.93-25.93h-14.4ZM1314.37,1093.86h0v-40.33c0-4.32,4.32-8.64,8.64-8.64h20.16c4.32,0,8.64,4.32,8.64,8.64v40.33c0,4.32-4.32,8.64-8.64,8.64h-20.16c-5.76,0-8.64-4.32-8.64-8.64M1327.34,984.39c-12.96,0-23.05,10.08-23.05,23.05v5.76c0,1.44,1.44,2.88,2.88,2.88h11.52c1.44,0,2.88-1.44,2.88-2.88v-5.76c0-2.88,2.88-5.76,5.76-5.76h7.2c2.88,0,5.76,2.88,5.76,5.76v8.64c0,5.76-5.76,11.52-11.52,11.52h-5.76c-14.4,0-25.93,11.52-25.93,25.93v41.77c0,14.4,11.52,24.49,25.93,24.49h21.61c14.4,0,25.93-11.52,25.93-25.93v-41.77c0-12.96-5.76-20.16-17.28-23.05,2.88-2.88,5.76-8.64,5.76-14.4v-7.2c0-12.96-10.08-23.05-23.05-23.05h-8.64ZM100.17,931.1c0,103.7,36.01,198.77,96.5,273.66-44.65-86.42-40.33-203.09-40.33-203.09,0,0,12.96-40.33,53.29-102.26-44.65-74.9-69.14-146.91-69.14-146.91-25.93,54.73-40.33,115.23-40.33,178.6M787.21,1066.49c0-4.32,1.44-108.03-21.61-172.84,0,0,2.88-1.44,8.64-4.32,0,0,1.44,0,1.44-1.44,23.05-10.08,77.78-31.69,177.16-31.69,4.32,25.93,7.2,51.85,7.2,77.78,0,92.18-24.49,178.6-74.9,249.18v-1.44c11.52-87.86-10.08-167.08-11.52-174.28l-1.44,1.44c-40.33,30.25-84.98,57.61-84.98,57.61h0ZM581.24,504.76h0c141.15,14.4,262.14,97.94,328.4,217.49h0s-1.44-1.44-4.32-4.32c-20.16-18.72-96.5-84.98-149.8-108.03-38.89,0-70.58,4.32-70.58,4.32,0,0-41.77-61.93-103.7-109.47M418.48,517.72c-8.64,2.88-21.61,5.76-33.13,11.52-40.33,14.4-77.78,36.01-110.91,60.49-33.13,25.93-63.38,54.73-87.86,89.3h0c2.88-2.88,86.42-83.54,128.19-96.5-2.88,4.32-11.52,15.84-12.96,15.84,34.57-15.84,70.58-25.93,100.82-33.13h2.88c-7.2,28.81-11.52,47.53-18.72,76.34h-2.88l-51.85,8.64s-20.16,60.49-21.61,92.18c17.28-47.53,33.13-76.34,33.13-76.34h50.41c54.73,0,141.15,4.32,210.29,20.16,60.49,63.38,93.62,135.39,93.62,135.39h-2.88c-17.28,1.44-120.99,10.08-224.69,31.69h0c-5.76,138.27,7.2,241.98,7.2,241.98,0,0-1.44-1.44-2.88-2.88-14.4-10.08-74.9-54.73-129.63-113.79l-10.08-10.08-25.93-34.57s-7.2-66.26-7.2-125.31c-12.96,53.29-15.84,115.23-15.84,138.27,8.64,18.72,28.81,41.77,43.21,59.05,1.44,1.44,1.44,2.88,2.88,2.88-7.2,86.42-8.64,152.68-4.32,243.42l-2.88,1.44-61.93,21.61s56.17,38.89,95.06,48.97c-17.28-7.2-56.17-38.89-56.17-38.89l24.49-7.2,2.88-1.44c2.88-1.44,7.2-2.88,10.08-2.88,44.65-14.4,115.23-38.89,204.53-74.9,0,0,73.46,38.89,177.16,61.93-1.44,0-2.88,1.44-2.88,1.44-109.47,38.89-172.84,44.65-172.84,44.65,0,0,1.44,0,2.88,1.44,15.84,4.32,90.74,21.61,178.6,10.08-1.44,0-2.88,1.44-4.32,1.44-57.61,28.81-122.43,43.21-191.57,43.21-47.53,0-95.06-8.64-138.27-23.05-2.88-1.44-5.76-1.44-7.2-2.88,1.44,1.44,2.88,2.88,4.32,4.32,5.76,7.2,12.96,14.4,20.16,20.16,100.82,97.94,266.46,195.89,417.7,272.22,165.64,83.54,345.68,142.59,347.12,142.59-59.05-313.99-100.82-665.44-110.91-828.2,239.1-17.28,835.4-8.64,835.4-8.64-63.38-193.01-267.9-511.32-381.69-643.83-46.09-10.08-89.3-20.16-136.83-28.81-381.69-64.82-849.8-82.1-849.8-82.1-41.77,95.06-79.22,207.41-112.35,332.72"/>
    </clipPath>
    <linearGradient id="linear-gradient" x1="-675.67" y1="1065.2" x2="-673.53" y2="1065.2" gradientTransform="translate(1131963.42 -281746.47) rotate(43.61) scale(924.54)" gradientUnits="userSpaceOnUse">
      <stop offset=".08" stop-color="#db9bc5"/>
      <stop offset=".82" stop-color="#e80f6f"/>
    </linearGradient>
    <linearGradient id="linear-gradient-2" x1="1376.31" y1="836.75" x2="1444.11" y2="836.75" gradientUnits="userSpaceOnUse">
      <stop offset="0" stop-color="#371028"/>
      <stop offset="1" stop-color="#010101"/>
    </linearGradient>
    <linearGradient id="linear-gradient-3" x1="1104.08" y1="837.47" x2="1171.78" y2="837.47" xlink:href="#linear-gradient-2"/>
    <linearGradient id="linear-gradient-4" x1="1711.91" y1="837.47" x2="1779.6" y2="837.47" xlink:href="#linear-gradient-2"/>
    <linearGradient id="linear-gradient-5" x1="1533.31" y1="837.47" x2="1612.53" y2="837.47" xlink:href="#linear-gradient-2"/>
    <linearGradient id="linear-gradient-6" x1="1461.29" y1="836.75" x2="1528.99" y2="836.75" xlink:href="#linear-gradient-2"/>
    <linearGradient id="linear-gradient-7" x1="1271.16" y1="836.75" x2="1360.58" y2="836.75" xlink:href="#linear-gradient-2"/>
    <linearGradient id="linear-gradient-8" x1="1628.37" y1="837.47" x2="1696.06" y2="837.47" xlink:href="#linear-gradient-2"/>
    <linearGradient id="linear-gradient-9" x1="1186.18" y1="836.03" x2="1256.76" y2="836.03" xlink:href="#linear-gradient-2"/>
  </defs>
  <g class="cls-11">
    <polygon class="cls-1" points="955.73 -712.33 2694.22 942.62 1042.15 2675.35 -694.9 1020.4 955.73 -712.33"/>
  </g>
  <path class="cls-5" d="M1418.08,769.78h-10.08c-14.4,0-25.93,11.52-25.93,25.93v7.2c0,2.88,1.44,4.32,4.32,4.32h8.64c2.88,0,4.32-1.44,4.32-4.32v-7.2c0-4.32,4.32-8.64,8.64-8.64h10.08c4.32,0,8.64,4.32,8.64,8.64v8.64c0,4.32-4.32,8.64-8.64,8.64h-5.76c-2.88,0-4.32,1.44-4.32,4.32v8.64c0,2.88,1.44,4.32,4.32,4.32h5.76c4.32,0,8.64,4.32,8.64,8.64v38.89c0,4.32-4.32,8.64-8.64,8.64h-15.84c-4.32,0-8.64-4.32-8.64-8.64v-27.37c0-2.88-1.44-4.32-4.32-4.32h-8.64c-2.88,0-4.32,1.44-4.32,4.32v27.37c0,14.4,11.52,25.93,25.93,25.93h15.84c14.4,0,25.93-11.52,25.93-25.93v-38.89c0-7.2-2.88-12.96-7.2-17.28,4.32-4.32,7.2-10.08,7.2-17.28v-8.64c1.44-14.4-11.52-25.93-25.93-25.93"/>
  <path class="cls-7" d="M1144.41,769.78h-12.96c-14.4,0-25.93,11.52-25.93,25.93v8.64c0,1.44,1.44,2.88,2.88,2.88h11.52c1.44,0,2.88-1.44,2.88-2.88v-8.64c0-4.32,4.32-8.64,8.64-8.64h12.96c4.32,0,8.64,4.32,8.64,8.64v83.54c0,4.32-4.32,8.64-8.64,8.64h-15.84c-4.32,0-8.64-4.32-8.64-8.64v-28.81c0-1.44-1.44-2.88-2.88-2.88h-10.08c-1.44,0-2.88,1.44-2.88,2.88v28.81c0,14.4,11.52,25.93,25.93,25.93h15.84c14.4,0,25.93-11.52,25.93-25.93v-83.54c-1.44-14.4-12.96-25.93-27.37-25.93"/>
  <path class="cls-10" d="M1753.68,769.78h-15.84c-14.4,0-25.93,11.52-25.93,25.93v105.14c0,2.88,1.44,4.32,4.32,4.32h8.64c2.88,0,4.32-1.44,4.32-4.32v-105.14c0-4.32,4.32-8.64,8.64-8.64h15.84c4.32,0,8.64,4.32,8.64,8.64v105.14c0,2.88,1.44,4.32,4.32,4.32h8.64c2.88,0,4.32-1.44,4.32-4.32v-105.14c0-14.4-11.52-25.93-25.93-25.93"/>
  <path class="cls-3" d="M1586.6,769.78h-1.44c-7.2,0-12.96,2.88-17.28,7.2-4.32-4.32-10.08-7.2-17.28-7.2h-12.96c-2.88,0-4.32,1.44-4.32,4.32v8.64c0,2.88,1.44,4.32,4.32,4.32h12.96c4.32,0,8.64,4.32,8.64,8.64v17.28c0,2.88,1.44,4.32,4.32,4.32h8.64c2.88,0,4.32-1.44,4.32-4.32v-17.28c0-4.32,4.32-8.64,8.64-8.64h1.44c4.32,0,8.64,4.32,8.64,8.64v83.54c0,4.32-4.32,8.64-8.64,8.64h-15.84c-4.32,0-8.64-4.32-8.64-8.64v-27.37c0-2.88-1.44-4.32-4.32-4.32h-8.64c-2.88,0-4.32,1.44-4.32,4.32v27.37c0,14.4,11.52,25.93,25.93,25.93h15.84c14.4,0,25.93-11.52,25.93-25.93v-83.54c0-14.4-11.52-25.93-25.93-25.93"/>
  <path class="cls-2" d="M1503.06,818.75h-15.84c-2.88,0-5.76,0-8.64,1.44v-24.49c0-4.32,4.32-8.64,8.64-8.64h28.81c2.88,0,4.32-1.44,4.32-4.32v-8.64c0-2.88-1.44-4.32-4.32-4.32h-28.81c-14.4,0-25.93,11.52-25.93,25.93v82.1c0,14.4,11.52,25.93,25.93,25.93h15.84c14.4,0,25.93-11.52,25.93-25.93v-34.57c0-12.96-11.52-24.49-25.93-24.49M1511.7,879.24c0,4.32-4.32,8.64-8.64,8.64h-15.84c-4.32,0-8.64-4.32-8.64-8.64v-33.13c0-4.32,4.32-8.64,8.64-8.64h15.84c4.32,0,8.64,4.32,8.64,8.64v33.13Z"/>
  <path class="cls-6" d="M1334.54,769.78h-1.44c-7.2,0-12.96,2.88-17.28,7.2-4.32-4.32-10.08-7.2-17.28-7.2h-1.44c-14.4,0-25.93,11.52-25.93,25.93v103.7c0,2.88,1.44,4.32,4.32,4.32h8.64c2.88,0,4.32-1.44,4.32-4.32v-103.7c0-4.32,4.32-8.64,8.64-8.64h1.44c4.32,0,8.64,4.32,8.64,8.64v47.53c0,2.88,1.44,4.32,4.32,4.32h8.64c2.88,0,4.32-1.44,4.32-4.32v-47.53c0-4.32,4.32-8.64,8.64-8.64h1.44c4.32,0,8.64,4.32,8.64,8.64v103.7c0,2.88,1.44,4.32,4.32,4.32h8.64c2.88,0,4.32-1.44,4.32-4.32v-103.7c1.44-14.4-11.52-25.93-25.93-25.93"/>
  <path class="cls-9" d="M1670.14,769.78h-15.84c-14.4,0-25.93,11.52-25.93,25.93v83.54c0,14.4,11.52,25.93,25.93,25.93h25.93c2.88,0,4.32-1.44,4.32-4.32v-8.64c0-2.88-1.44-4.32-4.32-4.32h-25.93c-4.32,0-8.64-4.32-8.64-8.64v-83.54c0-4.32,4.32-8.64,8.64-8.64h15.84c4.32,0,8.64,4.32,8.64,8.64v44.65c0,2.88,1.44,4.32,4.32,4.32h8.64c2.88,0,4.32-1.44,4.32-4.32v-44.65c0-14.4-11.52-25.93-25.93-25.93"/>
  <path class="cls-8" d="M1227.95,818.75h0q-1.44,0,0,0h-15.84c-2.88,0-5.76,0-8.64,1.44v-24.49c0-4.32,4.32-8.64,8.64-8.64h30.25c2.88,0,5.76-2.88,5.76-5.76v-7.2c0-2.88-2.88-5.76-5.76-5.76h-30.25c-14.4,0-25.93,11.52-25.93,25.93v103.7c0,2.88,2.88,5.76,5.76,5.76h7.2c2.88,0,5.76-2.88,5.76-5.76v-54.73c0-4.32,4.32-8.64,8.64-8.64h15.84c4.32,0,8.64,4.32,8.64,8.64v54.73c0,2.88,2.88,5.76,5.76,5.76h7.2c2.88,0,5.76-2.88,5.76-5.76v-54.73c-2.88-12.96-14.4-24.49-28.81-24.49"/>
</svg>