<?xml version="1.0" encoding="utf-8"?>
<svg xmlns="http://www.w3.org/2000/svg" xmlns:xlink="http://www.w3.org/1999/xlink" id="Objects" viewBox="0 0 2200 2200">
  <defs>
    <style>
      .cls-1 {
        fill: url(#linear-gradient);
        stroke-width: 0px;
      }
    </style>
    <linearGradient id="linear-gradient" x1="243.88" y1="1115.05" x2="1932.86" y2="1115.05" gradientUnits="userSpaceOnUse">
      <stop offset=".08" stop-color="#f291f1"/>
      <stop offset=".82" stop-color="#d72d62"/>
    </linearGradient>
  </defs>
  <path class="cls-1" d="M1685.52,517.91c-159.5-159.5-371.57-247.35-597.14-247.35s-437.64,87.84-597.14,247.35c-159.5,159.5-247.34,371.57-247.34,597.14s87.84,437.64,247.34,597.14c159.5,159.5,371.57,247.35,597.14,247.35s437.64-87.84,597.14-247.35c159.5-159.5,247.35-371.57,247.35-597.14s-87.84-437.64-247.35-597.14ZM1841,960.2c-65.27,53.48-133.48,132.25-175.06,190.9-26.53,37.41-50.85,76.77-74.44,114.95-26.76,43.29-54.44,88.05-85.18,129.72-68.57,92.91-142.98,153.83-221.17,181.07-68.38,23.83-158.94,26.08-248.46,6.14-74.26-16.53-182.96-56.4-279.05-152.49-79.45-79.45-133.32-177.09-155.8-282.35-18.35-85.94-14.92-175.31,9.44-245.2,27.24-78.18,88.16-152.58,181.06-221.14,41.75-30.81,86.54-58.48,129.87-85.25l.49-.3c37.96-23.47,77.22-47.74,114.33-74.06,45.61-32.34,136.95-97.12,201.63-160.72,147.91,29.18,283.9,101.38,392.9,210.38,107.88,107.88,179.68,242.2,209.44,388.34ZM1631.56,1658.24c-145.09,145.09-338,225-543.19,225s-398.1-79.91-543.19-225c-145.09-145.09-224.99-338-224.99-543.19s79.91-398.1,224.99-543.19c145.09-145.09,338-225,543.19-225,17.09,0,34.08.61,50.98,1.71-54.12,45.9-115.28,89.28-146.46,111.38-35.15,24.93-73.37,48.55-110.32,71.4l-.48.3c-44.63,27.58-90.78,56.09-135.05,88.76-105.5,77.86-175.42,164.47-207.81,257.43-28.82,82.7-33.2,187.03-12.01,286.24,25.56,119.7,86.58,230.48,176.47,320.37,109.07,109.07,232.27,154.29,316.42,173.01,45.64,10.16,91.81,15.21,136.17,15.21,55.75,0,108.65-7.97,153.98-23.77,92.97-32.38,179.59-102.3,257.46-207.82,32.6-44.19,61.11-90.31,88.77-135.05,22.89-37.04,46.55-75.35,71.69-110.79,30.99-43.72,77.68-99.29,125.67-144.67,1.76,21.33,2.7,42.83,2.7,64.48,0,205.19-79.91,398.1-225,543.19Z"/>
</svg>