<?xml version="1.0" encoding="utf-8"?>
<svg xmlns="http://www.w3.org/2000/svg" xmlns:xlink="http://www.w3.org/1999/xlink" version="1.1" id="Layer_1" x="0px" y="0px" viewBox="0 0 12 24" style="enable-background:new 0 0 12 24;">
<style type="text/css">
	.st0{fill:#FFFFFF;}
	.st1{fill:#ACA9A6;}
	.st2{fill:#BCBAB7;}
	.st3{fill:#CCC9C6;}
	.st4{fill:#BBB8B5;}
	.st5{fill:url(#SVGID_1_);}
	.st6{fill:#9A9794;}
	.st7{fill:url(#SVGID_2_);}
	.st8{opacity:0.28;}
	.st9{opacity:0.28;fill:url(#SVGID_3_);enable-background:new    ;}
	.st10{opacity:0.33;}
	.st11{opacity:0.33;fill:#797775;enable-background:new    ;}
	.st12{opacity:0.55;}
	.st13{opacity:0.55;fill:url(#SVGID_4_);enable-background:new    ;}
	.st14{opacity:0.44;}
	.st15{opacity:0.44;fill:url(#SVGID_5_);enable-background:new    ;}
	.st16{opacity:0.44;fill:url(#SVGID_6_);enable-background:new    ;}
	.st17{fill:url(#SVGID_7_);}
	.st18{fill:#EFECE8;}
	.st19{fill:#DAD7D3;}
	.st20{fill:url(#SVGID_8_);}
	.st21{fill:#F6F2EE;}
	.st22{fill:#EBE7E3;}
	.st23{fill:#FFFBF7;}
	.st24{fill:url(#SVGID_9_);}
	.st25{fill:#D2CFCB;}
	.st26{fill:#DEDBD7;}
	.st27{fill:#F2EFEA;}
	.st28{fill:#E7E4E0;}
	.st29{fill:url(#SVGID_10_);}
	.st30{fill:url(#SVGID_11_);}
	.st31{fill:url(#SVGID_12_);}
	.st32{fill:url(#SVGID_13_);}
	.st33{fill:url(#SVGID_14_);}
	.st34{fill:url(#SVGID_15_);}
	.st35{fill:url(#SVGID_16_);}
	.st36{fill:#E1DEDA;}
	.st37{opacity:0.43;}
	.st38{opacity:0.43;fill:url(#SVGID_17_);enable-background:new    ;}
	.st39{fill:#EDE8E4;}
	.st40{fill:url(#SVGID_18_);}
	.st41{fill:url(#SVGID_19_);}
	.st42{fill:url(#SVGID_20_);}
	.st43{fill:url(#SVGID_21_);}
	.st44{fill:url(#SVGID_22_);}
</style>
<g>
	<path class="st0" d="M5.8,11.8C5,10.5,4.2,9.3,3.7,8.1C3.5,7.6,3.4,7.1,3.3,6.7C3,5.4,3.1,4.6,3.7,3.6c0,0,0,0,0-0.1&#xD;&#xA;		c0.3-0.1,0.6-0.3,1-0.3c0.9-0.1,2.4,0.1,3,1.6C8.3,6.5,7,9.6,5.8,11.8z M11.3,2.8c-0.1-0.1-0.3-0.5-0.3-0.6c0,0,0,0,0,0&#xD;&#xA;		c-0.9-1.6-1-1.3-1.5-1.4c0,0,0,0-0.1,0C8.6,0.6,7.5,0.2,6.9,0.1C6.3-0.1,4.8,0.3,3.8,0.4c-0.2,0-0.4,0.1-0.6,0.1&#xD;&#xA;		C2.8,0.7,2.7,0.9,2.5,1.2C2.4,1.3,2.3,1.3,2.2,1.3c0,0,0,0,0,0C1.4,1.6-0.4,3.7,0,6.5c0,0.3,0.1,0.6,0.2,0.8&#xD;&#xA;		c0.7,2.7,3.2,6.4,3.8,7.5c-0.5,1-1.4,2.9-1.7,4.8c0,0.1-0.1,0.5-0.1,0.9c0,0.9,0.2,1.8,0.7,2.4c0,0,0.1,0.1,0.1,0.1&#xD;&#xA;		c0.3,0.3,0.7,0.5,1,0.6c0.5,0.2,0.9,0.1,1.3,0c0.2,0.1,0.3,0.2,0.5,0.2c1.1,0.3,2.3,0.1,2.8-0.2c0.8-0.2,1.1-0.6,1.3-1.3&#xD;&#xA;		c0.2-0.6,0.5-1.8-0.2-3.6c-0.3-0.8-1-2-2.1-3.8l0,0c0.8-1.5,3.1-5.1,3.5-6.2c0-0.1,0-0.1,0.1-0.2C12,7,12.4,4.8,11.3,2.8"/>
	<path class="st1" d="M5.2,16.7c-0.2-0.4-0.8-1.4-0.9-1.6c-1.2,2.2-1.5,4.7-1.5,5.4c0,0.6,0,1.4,0.8,1.7C4.7,20.9,2.7,18.8,5.2,16.7&#xD;&#xA;		z"/>
	<path class="st1" d="M8,9.3C8.3,8,9,6.9,8.1,5C7.3,3.5,6,3,4.7,3.2h0c0.9-0.1,2.4,0.1,3,1.6C8.3,6.5,7,9.6,5.8,11.8&#xD;&#xA;		c0,0.1-0.1,0.1-0.1,0.2c0.6,0.9,1,1.7,1.6,2.6c0,0,0.7-1.1,1-1.6C7.7,11.6,7.8,10.1,8,9.3z"/>
	<path class="st2" d="M11.5,5c0,0,0-0.1,0-0.1v0c0,0,0,0,0-0.1c0-0.2,0-0.4,0-0.5c0-0.1,0-0.2-0.1-0.3c-0.1-0.3-0.4-0.7-0.7-1&#xD;&#xA;		c-0.6-0.7-1.3-1.3-1.3-1.3c0,0-0.1,0-0.1,0.1C8.7,2.1,8.7,2.5,6.5,1.6c-0.3-0.1-0.8-0.1-1.1,0C7.6,3,9.9,3,11.5,5z"/>
	<path class="st3" d="M9.8,10.6c0.1-0.1,0.2-0.2,0.2-0.3c0.1-0.1,0.2-0.2,0.2-0.4c0-0.1,0.1-0.1,0.1-0.2c0.9-1.6,1.1-3.6,1.1-4.7&#xD;&#xA;		c-1.1-3-4.3-1.6-5.3-3.5c0,0-0.8,0-0.8,0c0.1,0.1,0.1,0.1,0.2,0.2C5.9,2.1,6.9,3,7.9,3.2c1,0.2,1.9,0.4,2.7,1.6&#xD;&#xA;		c0.9,1.2-0.1,2.9-0.9,4.6c-0.3,0.7-0.4,1.3-0.4,2c0.1-0.2,0.2-0.4,0.3-0.6C9.8,10.7,9.8,10.7,9.8,10.6z"/>
	<path class="st4" d="M10.7,4.8C9.8,3.6,8.9,3.5,7.9,3.2c-1-0.2-2-1.1-2.4-1.5C5.5,1.7,5.4,1.6,5.4,1.5C4.7,1.6,4.1,2.1,3.7,2.9&#xD;&#xA;		C3.6,3.1,3.5,3.4,3.4,3.7c0.3-0.2,0.8-0.4,1.3-0.5C6,3,7.3,3.5,8.1,5C9,6.9,8.3,8,8,9.3c-0.2,0.8-0.3,2.3,0.4,3.6&#xD;&#xA;		c0.2-0.4,0.5-0.9,1-1.6c0-0.7,0.1-1.3,0.4-2C10.6,7.7,11.5,6,10.7,4.8z"/>
	
		<linearGradient id="SVGID_1_" gradientUnits="userSpaceOnUse" x1="304.3232" y1="-371.4725" x2="306.5345" y2="-365.6957" gradientTransform="matrix(1 0 0 -1 -300 -358)">
		<stop offset="0" style="stop-color:#858380"/>
		<stop offset="1" style="stop-color:#A19F9C"/>
	</linearGradient>
	<path class="st5" d="M5.4,1.5C5.4,1.5,5.4,1.5,5.4,1.5C4.7,1.6,4.1,2.1,3.7,2.9C3.6,3.1,3.5,3.4,3.4,3.7c0.1-0.1,0.2-0.1,0.3-0.2&#xD;&#xA;		c0.3-0.1,0.6-0.3,1-0.3c0.9-0.1,2.4,0.1,3,1.6C8.3,6.5,7,9.6,5.8,11.8c0.6,0.9,0.9,1.5,1.5,2.5c0,0,2.8-3.9,2.8-4&#xD;&#xA;		C11,8.6,11.5,6.6,11.4,5c-0.2-2.6-1.9-3.4-2-3.4c0,0-0.1,0-0.1,0.1C8.7,2.1,8.6,2.6,6.5,1.6C6.3,1.5,6,1.5,5.7,1.5&#xD;&#xA;		C5.6,1.5,5.5,1.5,5.4,1.5"/>
	<path class="st6" d="M4.5,14.9c-1,1.2-2.4,7.9-0.3,7.6C7.6,22.1,5,15.8,4.5,14.9z"/>
	
		<linearGradient id="SVGID_2_" gradientUnits="userSpaceOnUse" x1="305.6747" y1="-357.7043" x2="308.6619" y2="-366.1782" gradientTransform="matrix(1 0 0 -1 -300 -358)">
		<stop offset="0" style="stop-color:#9D9B98"/>
		<stop offset="1" style="stop-color:#797775"/>
	</linearGradient>
	<path class="st7" d="M5.4,1.5C5.4,1.5,5.4,1.5,5.4,1.5C4.7,1.6,4.1,2.1,3.7,2.9C3.6,3.1,3.5,3.4,3.4,3.7c0.1-0.1,0.2-0.1,0.3-0.2&#xD;&#xA;		c0.3-0.1,0.6-0.3,1-0.3c0.9-0.1,2.4,0.1,3,1.6C8.3,6.5,7,9.6,5.8,11.8c0.6,0.9,1,1.8,1.6,2.8c0,0,3-4.8,3-4.8&#xD;&#xA;		c0.9-1.6,1.3-3.6,1.1-4.7c-0.1-1.2-0.4-1.6-0.7-2.1c-0.1-0.2-1.4-1.2-1.4-1.3c0,0-0.1,0-0.1,0.1C8.7,2.1,8.6,2.6,6.5,1.6&#xD;&#xA;		C6.3,1.5,6,1.5,5.7,1.5C5.6,1.5,5.5,1.5,5.4,1.5"/>
	<g class="st8">
		<g class="st8">
			<g class="st8">
				<g class="st8">
					<g class="st8">
						<g class="st8">
							
								<linearGradient id="SVGID_3_" gradientUnits="userSpaceOnUse" x1="308.4034" y1="-364.1818" x2="299.5287" y2="-380.6283" gradientTransform="matrix(1 0 0 -1 -300 -358)">
								<stop offset="0" style="stop-color:#797775"/>
								<stop offset="0.8425" style="stop-color:#F2EFEA"/>
								<stop offset="1" style="stop-color:#F2EFEA"/>
							</linearGradient>
							<path class="st9" d="M6.8,2.3c-0.9,0-1.6,0.3-1.6,0.5c4.2,0.1,4.6,2.9,0.4,9.9c-1.6,2.7-2.2,5.1-2.2,6.7v0.1&#xD;&#xA;								c0,1,0.3,1.7,0.7,2c0.1,0.1,0.3,0.1,0.4,0.1h0c0.7,0,1.3-0.7,0.8-1.5c-0.5-1-0.1-3.1,1.3-5.4C8,12.4,12.8,6,9.8,3.5&#xD;&#xA;								C8.9,2.6,7.8,2.3,6.8,2.3L6.8,2.3z"/>
						</g>
					</g>
				</g>
			</g>
		</g>
	</g>
	<g class="st10">
		<g class="st10">
			<g class="st10">
				<g class="st10">
					<path class="st11" d="M4.8,2.7C5,2.7,5.3,2.6,5.5,2.6c0.3,0,0.5,0,0.8,0c0.5,0,1,0.1,1.5,0.4c0.5,0.2,0.8,0.6,1.1,1&#xD;&#xA;						C9,4.1,9.1,4.4,9.2,4.6C9.3,4.8,9.4,5,9.4,5.3c0.2,0.9,0.1,1.9-0.1,2.8C9.1,9.1,8.8,10,8.4,10.8c-0.4,0.9-0.8,1.7-1.3,2.6&#xD;&#xA;						l-0.7,1.2l-0.7,1.2c-0.4,0.8-0.9,1.7-1.1,2.5c-0.1,0.2-0.1,0.4-0.2,0.7c-0.1,0.2-0.1,0.4-0.1,0.7c0,0.5,0,0.9,0.2,1.3l-0.1,0&#xD;&#xA;						c-0.3-0.4-0.4-0.9-0.5-1.4c0-0.5,0-1,0.1-1.4c0.1-0.5,0.3-0.9,0.4-1.4c0.2-0.4,0.4-0.9,0.6-1.3c0.8-1.7,1.8-3.4,2.6-5&#xD;&#xA;						C8,10.2,8.2,9.7,8.4,9.3C8.6,8.9,8.7,8.5,8.9,8c0.3-0.9,0.4-1.8,0.3-2.7c0-0.2-0.1-0.4-0.2-0.7C8.9,4.4,8.8,4.2,8.7,4&#xD;&#xA;						c-0.2-0.4-0.6-0.7-1-1C7.3,2.8,6.8,2.7,6.3,2.6c-0.2,0-0.5,0-0.7,0C5.3,2.6,5,2.7,4.8,2.7L4.8,2.7z"/>
				</g>
			</g>
		</g>
	</g>
	<g class="st12">
		<g class="st12">
			<g class="st12">
				<g class="st12">
					<g class="st12">
						<g class="st12">
							
								<linearGradient id="SVGID_4_" gradientUnits="userSpaceOnUse" x1="304.2491" y1="-379.6393" x2="304.2491" y2="-361.2458" gradientTransform="matrix(1 0 0 -1 -300 -358)">
								<stop offset="0" style="stop-color:#9D9B98"/>
								<stop offset="1" style="stop-color:#F2EFEA"/>
							</linearGradient>
							<path class="st13" d="M2.3,20c0,1.4,0.7,2.2,1.2,2.5c0.2,0.1,0.5,0.2,0.8,0.2h0.1c0.1,0,0.3,0,0.4,0c0.8-0.2,1.5-1,1.5-2.4&#xD;&#xA;								v-0.1c0-0.6-0.1-1.3-0.3-2c-0.1-0.3-0.7-1.5-0.8-1.7C4.9,16,4.3,15,4.2,14.7C3.2,16.8,2.3,19.3,2.3,20"/>
						</g>
					</g>
				</g>
			</g>
		</g>
	</g>
	<g class="st14">
		<g class="st14">
			<g class="st14">
				<g class="st14">
					<g class="st14">
						<g class="st14">
							
								<linearGradient id="SVGID_5_" gradientUnits="userSpaceOnUse" x1="310.7086" y1="-372.4683" x2="306.1719" y2="-358.9247" gradientTransform="matrix(1 0 0 -1 -300 -358)">
								<stop offset="0" style="stop-color:#9D9B98"/>
								<stop offset="1" style="stop-color:#F2EFEA"/>
							</linearGradient>
							<path class="st15" d="M3.7,2.9C3.6,3.1,3.5,3.4,3.4,3.7c0.1-0.1,0.2-0.1,0.3-0.2c0.3-0.1,0.6-0.3,1-0.3&#xD;&#xA;								c0.9-0.1,2.4,0.1,3,1.6C8.3,6.5,7,9.6,5.8,11.8c0.6,0.9,1.1,1.8,1.6,2.7c0,0,2.9-4.7,3-4.7C11.3,8.1,12.1,5,10.7,3&#xD;&#xA;								c-0.5-0.7-1.2-1.3-1.2-1.3c-0.1,0-0.2,0-0.3,0.1C8.7,2.1,8.9,2.3,6.7,1.5C6.5,1.4,6.3,1.4,6.1,1.4C5.1,1.4,4,2.2,3.7,2.9"/>
						</g>
					</g>
				</g>
			</g>
		</g>
	</g>
	<g class="st14">
		<g class="st14">
			<g class="st14">
				<g class="st14">
					<g class="st14">
						<g class="st14">
							
								<linearGradient id="SVGID_6_" gradientUnits="userSpaceOnUse" x1="310.2423" y1="-380.4512" x2="303.3483" y2="-359.8698" gradientTransform="matrix(1 0 0 -1 -300 -358)">
								<stop offset="0" style="stop-color:#44433E"/>
								<stop offset="1" style="stop-color:#F2EFEA"/>
							</linearGradient>
							<path class="st16" d="M6.1,1.5C5.4,1.5,4.6,2,4.3,2.4C4,2.7,3.5,3.4,3.4,3.7c0.3-0.2,0.8-0.4,1.3-0.5c0.9-0.1,2.4,0.1,3,1.6&#xD;&#xA;								C8.3,6.5,7,9.6,5.8,11.8c0,0.1-0.1,0.1-0.1,0.2c-0.1,0.2-1.5,2.6-1.5,2.8c-0.8,2.3-1.7,4.6-1.7,5.3c0,1.2,0.5,2.6,1.8,2.6&#xD;&#xA;								h0.1c0.1,0,0.3,0,0.4,0c1.3-0.2,1.6-2.1,1.4-3.1c0,0-0.4-1.6-0.4-1.6c0,0,2.5-4.6,2.7-4.9c0.2-0.4,2-3.2,2-3.2&#xD;&#xA;								c0.9-1.6,1.2-3.6,1.1-4.7c0-0.4-0.5-1.7-0.8-2c-0.6-0.7-1.4-1.3-1.5-1.2C8.7,2.1,8.7,2.3,6.5,1.6C6.4,1.5,6.3,1.5,6.1,1.5&#xD;&#xA;								L6.1,1.5z"/>
						</g>
					</g>
				</g>
			</g>
		</g>
	</g>
	
		<linearGradient id="SVGID_7_" gradientUnits="userSpaceOnUse" x1="305.8765" y1="-360.8165" x2="305.8765" y2="-369.8644" gradientTransform="matrix(1 0 0 -1 -300 -358)">
		<stop offset="0" style="stop-color:#F2EFEA"/>
		<stop offset="1" style="stop-color:#F2EFEA"/>
	</linearGradient>
	<path class="st17" d="M4.7,3C4.6,3,4.2,3.1,3.9,3.2L3.8,3.4L3.7,3.5c0.3-0.1,0.6-0.3,1-0.3c0.9-0.1,2.4,0.1,3,1.6&#xD;&#xA;		C8.3,6.5,7,9.6,5.8,11.8c0,0-0.1,0.1-0.1,0.1c0.2,0.1,0.3,0.3,0.3,0.3c0-0.1,0.1-0.1,0.1-0.2c1.2-2.3,2.4-5.6,1.7-7.3&#xD;&#xA;		C7.6,4.2,7.2,3.7,6.6,3.4c0,0-0.3-0.1-0.3-0.1c0,0-0.1,0-0.1,0c-0.1,0-0.3-0.1-0.3-0.1C5.7,3,5.5,3,5.4,3C5.3,3,5.1,3,5,3&#xD;&#xA;		C4.9,3,4.8,3,4.7,3"/>
	<path class="st18" d="M7.4,14.3C7.3,14.1,7.2,14,7.2,14c0-0.1-0.1-0.1-0.1-0.2c-1.3-2.2-2.7-4-3.4-5.8C3.5,7.6,3.4,7.1,3.3,6.7&#xD;&#xA;		C3,5.4,3.1,4.6,3.7,3.6c0.5-1,2-2.3,2.9-1.9c1.9,0.8,2.1,0.4,2.5,0.1c0,0,0,0,0.1,0c0,0,0.1,0,0.1,0C14.1,5.2,8.9,11.9,7.4,14.3z&#xD;&#xA;		 M4.4,22.4c-0.1,0-0.3,0-0.4,0c-0.2,0-0.4-0.1-0.6-0.2C3.2,22,3,21.8,2.9,21.5c-0.3-0.8-0.2-2.5,1.4-6.3c0.2,0.3,0.3,0.7,0.4,0.8&#xD;&#xA;		c0.9,1.8,1.2,3.4,1.2,4.3C5.7,21.6,5.1,22.3,4.4,22.4L4.4,22.4z M11.3,2.8c-0.1-0.1-0.3-0.5-0.3-0.6c0,0,0,0,0,0&#xD;&#xA;		c-0.9-1.6-1-1.3-1.5-1.4c0,0,0,0-0.1,0C8.6,0.6,7.5,0.2,6.9,0.1C6.3-0.1,4.8,0.3,3.8,0.4c-0.2,0-0.4,0.1-0.6,0.1&#xD;&#xA;		C2.8,0.7,2.7,0.9,2.5,1.2C2.4,1.3,2.3,1.3,2.2,1.3c0,0,0,0,0,0C1.4,1.6-0.4,3.7,0,6.5c0,0.3,0.1,0.6,0.2,0.8&#xD;&#xA;		c0.7,2.7,3.2,6.4,3.8,7.5c-0.5,1-1.4,2.9-1.7,4.8c0,0.1-0.1,0.5-0.1,0.9v0c0,0.9,0.1,1.8,0.7,2.4c0,0,0.1,0.1,0.1,0.1&#xD;&#xA;		c0.3,0.3,0.7,0.5,1,0.6c0.5,0.2,0.9,0.1,1.3,0c0.2,0.1,0.3,0.2,0.5,0.2c1.1,0.3,2.3,0.1,2.8-0.2c0.8-0.2,1.1-0.6,1.3-1.3&#xD;&#xA;		c0.2-0.6,0.5-1.8-0.2-3.6c-0.3-0.8-1-2-2.1-3.8l0,0c0.8-1.5,3.1-5.1,3.5-6.2c0-0.1,0-0.1,0.1-0.2C12,7,12.4,4.8,11.3,2.8"/>
	<path class="st19" d="M9.3,11.5c-0.1,0.1-0.2,0.4-0.5,0.7c-0.6,0.9-1.1,1.6-1.4,2.1c0.1,0.2,0.4,0.6,0.5,0.7c0,0,0,0,0-0.1l0,0&#xD;&#xA;		c0.1-0.1,0.1-0.2,0.2-0.3C8,14,9,11.9,9.3,11.5z"/>
	<path class="st4" d="M6.9,0.4C6.5,0.2,6,0.3,5.5,0.3C5.3,0.4,5,0.4,5,0.4s0.7,0.2,1.3,0.4c0.4,0.1,1,0.4,1.8,0l0,0&#xD;&#xA;		C7.7,0.7,7.3,0.6,6.9,0.4z"/>
	
		<linearGradient id="SVGID_8_" gradientUnits="userSpaceOnUse" x1="302.9008" y1="-360.4923" x2="305.9409" y2="-358.3777" gradientTransform="matrix(1 0 0 -1 -300 -358)">
		<stop offset="0" style="stop-color:#FAF6F2"/>
		<stop offset="1" style="stop-color:#FFFBF7"/>
	</linearGradient>
	<path class="st20" d="M4.5,0.6C4.3,0.7,4.2,0.7,4.1,0.8C2.7,1.5,2.3,2.2,2.3,2.3c0,0.2-0.1,0.4-0.1,0.7c0.3,0.1,1.5-0.1,2.3-0.7&#xD;&#xA;		c0.1-0.1,0.2-0.2,0.3-0.2C4.8,2,4.8,2,4.9,2c0,0,0,0,0,0c0.5-0.4,1-1.4,1.5-1.1c0,0,0.1,0,0.1,0.1c-0.1,0-0.1-0.1-0.2-0.1&#xD;&#xA;		C6,0.6,5.6,0.5,5.2,0.5C5,0.5,4.7,0.5,4.5,0.6z"/>
	<path class="st21" d="M2.5,1.4C2.4,1.5,2.4,1.7,2.3,1.9c0,0.1,0,0.3-0.1,0.4c0.9-1,1.7-1.4,1.8-1.5c0.1,0,0.4-0.2,0.5-0.3&#xD;&#xA;		c-0.9,0.2-1.5,0.6-2,0.8C2.5,1.3,2.5,1.4,2.5,1.4z"/>
	<path class="st22" d="M7.1,1.8C5.7,1,4.9,2,4.9,2c0,0,0,0,0,0c-0.5,0.4-1,1-1.2,1.6c0.5-1,2-2.3,2.9-1.9c2,0.9,2.1,0.3,2.7,0&#xD;&#xA;		C8.8,1.9,8.5,2.5,7.1,1.8z"/>
	<path class="st23" d="M9.1,1.8C8.2,2.2,7.5,1.4,6.6,0.9c0,0-0.1,0-0.1-0.1C5.8,0.5,4.7,2.2,4.7,2.2C4.9,2,5.7,1,7.1,1.8&#xD;&#xA;		C8.5,2.5,8.7,2.1,9.1,1.8c0,0,0.1-0.1,0.1-0.1S9.1,1.8,9.1,1.8L9.1,1.8z"/>
	<path class="st18" d="M4.4,2.3C3.6,2.9,2.4,3.1,2.1,3C2,4.1,1.7,5.6,2,7.3c0.1,0.7,0.3,1.5,0.4,2.3C2.1,7.1,2,4.2,4.4,2.3z"/>
	<path class="st18" d="M3.2,0.5C2.8,0.7,2.7,0.9,2.5,1.2C2.4,1.3,2.3,1.3,2.2,1.3c0.1,0,0.2,0,0.2-0.1C2.7,1.2,2.9,1.2,3.2,1&#xD;&#xA;		C3.4,1,3.7,0.8,4,0.7c0.2-0.1,0.6-0.2,0.8-0.3C5,0.4,5.5,0.3,5.6,0.3c0,0,0.2,0,0.3,0C5.8,0.3,3.5,0.4,3.2,0.5z"/>
	
		<linearGradient id="SVGID_9_" gradientUnits="userSpaceOnUse" x1="302.2156" y1="-358.819" x2="305.8309" y2="-358.819" gradientTransform="matrix(1 0 0 -1 -300 -358)">
		<stop offset="0" style="stop-color:#B0AEAB"/>
		<stop offset="1" style="stop-color:#FAF6F2"/>
	</linearGradient>
	<path class="st24" d="M5.8,0.3c0,0-2.2,0.1-2.5,0.2C2.8,0.7,2.7,0.9,2.5,1.2C2.4,1.3,2.3,1.3,2.2,1.3c0.1,0,0.1,0,0.2-0.1&#xD;&#xA;		C2.7,1.2,2.9,1.2,3.2,1C3.4,1,3.7,0.8,4,0.7c0.2-0.1,0.6-0.2,0.8-0.3C5,0.4,5.5,0.3,5.6,0.3C5.6,0.3,5.8,0.3,5.8,0.3&#xD;&#xA;		C5.8,0.3,5.8,0.3,5.8,0.3"/>
	<path class="st25" d="M9.1,23.1c0,0,0,0.1-0.1,0.1c-0.1,0.1-0.2,0.3-0.3,0.4c0.8-0.2,1.1-0.6,1.3-1.3C9.2,23.1,9.1,23.1,9.1,23.1z"/>
	<path class="st26" d="M7.3,23.3c-0.6-0.2-1.1,0.2-1.4,0.5c1.1,0.3,2.3,0.1,2.8-0.2c0.1-0.1,0.2-0.3,0.3-0.4&#xD;&#xA;		C8.7,23.7,7.9,23.6,7.3,23.3z"/>
	<path class="st22" d="M5.4,22.5c0.3-0.6,0.5-1.6,0.4-2.1c-0.1,1.2-0.7,1.9-1.4,2.1c-0.1,0-0.3,0-0.4,0c-0.2,0-0.4-0.1-0.6-0.2&#xD;&#xA;		c0,0-0.1,0-0.1-0.1c-0.5-0.1-1-0.6-1.1-1.1c0,0,0,0,0,0c0,0.1,0,0.2,0,0.3l0,0c0,0.3,0.1,0.5,0.2,0.7C3,23,4.8,23.8,5.4,22.5z"/>
	<path class="st27" d="M4.4,22.4c-0.1,0-0.3,0-0.4,0c-0.2,0-0.4-0.1-0.6-0.2c-0.1-0.1-0.3-0.2-0.4-0.3c-0.5-0.5-0.8-1.3-0.8-1.9l0,0&#xD;&#xA;		v0v0v0c0,0.2,0,0.3,0,0.5v0c0,0.3,0,0.7,0.1,1c0,0,0,0,0,0c0.5,1,2,1.9,3,0.3C5.1,22.1,4.7,22.4,4.4,22.4z"/>
	<path class="st28" d="M10.9,2.2c-0.9-1.6-1-1.3-1.5-1.4c-0.8,0-1.7,0.6-2.8,0.1C8.1,1.8,9.4-0.1,10.9,2.2&#xD;&#xA;		C10.9,2.2,10.9,2.3,10.9,2.2C10.9,2.3,10.9,2.2,10.9,2.2C10.9,2.2,10.9,2.2,10.9,2.2z"/>
	
		<linearGradient id="SVGID_10_" gradientUnits="userSpaceOnUse" x1="311.4031" y1="-360.9125" x2="306.6217" y2="-358.127" gradientTransform="matrix(1 0 0 -1 -300 -358)">
		<stop offset="0" style="stop-color:#FFFBF7"/>
		<stop offset="0.527" style="stop-color:#FFFBF7"/>
		<stop offset="1" style="stop-color:#B4B2AF"/>
	</linearGradient>
	<path class="st29" d="M9.2,1.7C9.3,1.7,9.3,1.7,9.2,1.7c0.4-0.2,1.1-0.3,1.7,0.5C10,0.8,9.2,1,8.3,1.1C7.8,1.2,7.2,1.3,6.6,0.9&#xD;&#xA;		C7.4,1.4,8.4,2.2,9.2,1.7"/>
	<path class="st3" d="M4.1,23.6c0.4-0.2,0.7-0.5,1-0.9c-0.7,0.6-2.3,0.4-2.8-1.2C2.4,22,2.6,22.5,3,22.9c0,0,0.1,0.1,0.1,0.1&#xD;&#xA;		C3.4,23.3,3.8,23.5,4.1,23.6z"/>
	<path class="st27" d="M6.9,0.1C6.3-0.1,4.8,0.3,3.8,0.4c-0.2,0-0.4,0.1-0.6,0.1c0.6-0.1,0.6,0,2.3-0.2c0,0,0.2,0,0.3,0&#xD;&#xA;		c0.4,0,0.8,0,1.1,0.2C7.3,0.6,7.7,0.7,8,0.8c0.4,0,0.9,0,1.3,0C8.6,0.6,7.5,0.2,6.9,0.1z"/>
	
		<linearGradient id="SVGID_11_" gradientUnits="userSpaceOnUse" x1="303.2488" y1="-358.3943" x2="309.281" y2="-358.3943" gradientTransform="matrix(1 0 0 -1 -300 -358)">
		<stop offset="0" style="stop-color:#CCC9C6"/>
		<stop offset="1" style="stop-color:#FAF6F2"/>
	</linearGradient>
	<path class="st30" d="M6.5,0C5.8,0,4.6,0.3,3.8,0.4c-0.2,0-0.4,0.1-0.6,0.1c0.6-0.1,0.6,0,2.3-0.2c0,0,0.2,0,0.3,0&#xD;&#xA;		c0.4,0,0.8,0,1.1,0.2C7.3,0.6,7.7,0.7,8,0.8c0.3,0,0.5,0,0.8,0c0.2,0,0.3,0,0.5,0C8.6,0.6,7.5,0.2,6.9,0.1C6.8,0,6.7,0,6.5,0L6.5,0&#xD;&#xA;		z"/>
	<path class="st22" d="M8,0.8L8,0.8C7.3,1.1,6.8,0.9,6.4,0.8c0.1,0,0.1,0.1,0.2,0.1c1.1,0.4,2-0.1,2.8-0.1c0,0,0,0-0.1,0&#xD;&#xA;		C8.9,0.8,8.5,0.8,8,0.8z"/>
	<path class="st23" d="M9.3,18.8c-0.7-3-2.3-4.9-3.7-6.4C4.4,11,3.8,9.6,3.5,8.3c0,0.3,0.1,0.6,0.1,0.9c0.3,1.8,1,4,3.1,6.4&#xD;&#xA;		C8.6,17.8,9.1,18.1,9.3,18.8z"/>
	<path class="st22" d="M11,2.3C11,2.3,11,2.3,11,2.3c0,0.1,0.2,0.3,0.2,0.4c0.4,0.8,0,1.4-0.1,1.5c0.5,1.7,0,3.7-0.9,5.5&#xD;&#xA;		c-0.4,0.8-0.4,1.5-0.5,2c0,0,0,0,0,0c0.7-1.2,1.3-2.4,1.5-2.9c0-0.1,0-0.1,0.1-0.2c0.7-1.6,1.1-3.7,0-5.7C11.2,2.8,11.1,2.5,11,2.3&#xD;&#xA;		z"/>
	<path class="st26" d="M9.2,1.7c0.5,0.4,0.9,0.8,1.2,1.2c-0.1-0.7-0.3-1.4-0.9-1.3C9.4,1.7,9.4,1.7,9.2,1.7C9.3,1.7,9.3,1.7,9.2,1.7&#xD;&#xA;		z"/>
	<path class="st3" d="M11.1,2.6c0,0-0.4-0.5-0.6-0.7C10.3,1.7,10,1.6,9.7,1.6c-0.3,0-0.4,0.1-0.4,0.1c0,0,0,0,0,0&#xD;&#xA;		c0.9-0.2,1,0.6,1.2,1.2c0.3,0.4,0.5,0.8,0.6,1.2C11.1,4.1,11.5,3.4,11.1,2.6z"/>
	<path class="st25" d="M5.9,23.8c0.4-0.3,0.7-0.6,1.1-0.6c-0.3,0-1.4,0.2-1.6,0.4C5.6,23.7,5.7,23.8,5.9,23.8z"/>
	<path class="st18" d="M9.6,20.8c0-0.3,0-0.5-0.1-0.8c-0.1-0.5-0.3-1-0.6-1.4c-1.1-1.5-3.8-4.2-4.5-6.3c0.2,1.3-0.1,2.9,0.4,3.7&#xD;&#xA;		c0.2,0.2,0.4,0.5,0.6,0.7c1.4,1.5,3,2.4,2.9,4.6c0,1.1-0.4,1.6-1,2.1c0,0,0,0,0.1,0c0.6,0.2,1.4,0.4,1.7-0.1&#xD;&#xA;		C9.4,22.5,9.6,21.8,9.6,20.8z"/>
	<path class="st28" d="M8.4,21.4c0.4-2.8-1.4-4.3-3-6c-0.2-0.2-0.7-0.4-0.5,0c0.9,1.4,1.5,2.7,1.7,3.2c0.9,3.2-0.1,4.2-1.2,5&#xD;&#xA;		c0.2-0.2,1.3-0.4,1.6-0.4c0.1,0,0.1,0,0.2,0c0.5-0.4,0.8-0.7,1-1.3c0-0.1,0.1-0.2,0.1-0.3C8.3,21.6,8.4,21.5,8.4,21.4z"/>
	<path class="st27" d="M7.1,19.4c-0.4-1.5-1.3-3.8-3-5.9c0,0.1-0.2,0.5-0.3,0.8c0.1,0.2,0.2,0.3,0.3,0.4c0.1,0.2,0.1,0.3,0.2,0.4&#xD;&#xA;		c0.2,0.3,0.3,0.7,0.4,0.8c0.9,1.8,1.2,3.4,1.2,4.3c0.1,1.2-0.6,2.6-1.7,3.2c0.5,0.2,0.9,0.1,1.3,0C6.3,23.3,8,22.6,7.1,19.4z"/>
	
		<linearGradient id="SVGID_12_" gradientUnits="userSpaceOnUse" x1="301.9018" y1="-359.2332" x2="301.3414" y2="-369.6624" gradientTransform="matrix(1 0 0 -1 -300 -358)">
		<stop offset="0" style="stop-color:#FFFBF7"/>
		<stop offset="1" style="stop-color:#FFFBF7"/>
	</linearGradient>
	<path class="st31" d="M1.4,2.2C0.3,3.7,0,6,0.5,7.2C1,8.8,1.3,9.6,2.7,11.7c0.1,0.2-0.7-3-0.9-3.8c-0.2-0.7-0.7-3.7,0.4-6&#xD;&#xA;		c0.1-0.2,0.2-0.5,0.4-0.7C2.1,1.5,1.7,1.8,1.4,2.2"/>
	<path class="st3" d="M5,1.5c-0.5,0.2-1,0.6-1.3,1C3.3,2.9,3,3.4,2.8,3.8c-0.4,1-0.4,2.1-0.3,3.1C2.7,8,3.1,9,3.3,10&#xD;&#xA;		c0.1,0.5,0.2,1.1,0.2,1.6c0,0.5-0.1,1.1-0.3,1.6c0.1-0.5,0.2-1.1,0.1-1.6c0-0.5-0.1-1.1-0.2-1.6c-0.1-0.5-0.3-1-0.5-1.5&#xD;&#xA;		C2.4,8,2.3,7.5,2.2,7C2.1,6.4,2.1,5.9,2.1,5.3c0-0.3,0.1-0.5,0.1-0.8C2.3,4.3,2.4,4,2.5,3.8c0.2-0.5,0.6-1,1-1.3C4,2,4.4,1.7,5,1.5&#xD;&#xA;		z"/>
	<path class="st3" d="M3.8,14.3C3.9,14,4,13.7,4,13.4c0-0.3,0-0.6,0-0.9c0-0.6-0.1-1.2-0.2-1.8c-0.1-0.6-0.2-1.2-0.3-1.8&#xD;&#xA;		C3.4,8.3,3.4,7.7,3.3,7.1l0.6,3.6c0.1,0.6,0.2,1.2,0.2,1.8c0,0.3,0,0.6,0,0.9C4,13.7,4,14,3.8,14.3z"/>
	<path class="st3" d="M2.2,2C2.1,2.4,1.9,2.7,1.9,3.1C1.8,3.5,1.7,3.9,1.7,4.3c-0.1,0.8-0.1,1.6,0,2.4C1.8,7.5,2,8.3,2.2,9.1&#xD;&#xA;		c0.1,0.4,0.2,0.8,0.3,1.2c0.1,0.4,0.2,0.8,0.2,1.2c0-0.4-0.1-0.8-0.2-1.2C2.3,9.8,2.2,9.5,2.1,9.1C1.8,8.3,1.6,7.5,1.5,6.7&#xD;&#xA;		c0-0.4-0.1-0.8-0.1-1.2c0-0.4,0-0.8,0.1-1.2c0.1-0.4,0.1-0.8,0.2-1.2C1.9,2.7,2,2.3,2.2,2z"/>
	<path class="st26" d="M1.4,2.3C1.2,2.6,1.1,3,1,3.4C0.9,3.7,0.8,4.1,0.7,4.5C0.6,5.2,0.6,6,0.7,6.7C0.8,7.4,1,8.2,1.3,8.9&#xD;&#xA;		c0.2,0.3,0.3,0.7,0.5,1c0.2,0.3,0.4,0.7,0.6,1c-0.1-0.1-0.3-0.3-0.4-0.5c-0.1-0.2-0.2-0.3-0.3-0.5C1.6,9.8,1.5,9.6,1.4,9.4&#xD;&#xA;		C1.3,9.3,1.2,9.1,1.1,8.9C0.8,8.2,0.6,7.5,0.5,6.7C0.5,6,0.5,5.2,0.6,4.4c0.1-0.4,0.2-0.7,0.3-1.1C1,3,1.2,2.6,1.4,2.3z"/>
	<path class="st3" d="M2.3,2.3c0.4-0.5,0.9-1,1.4-1.3C4,0.8,4.3,0.6,4.6,0.5c0.1,0,0.2-0.1,0.4-0.1c0,0,0.1,0,0.1,0&#xD;&#xA;		c0.1,0,0.2,0,0.3,0c0.1,0,0.2,0,0.3,0.1c0.6,0.2,1.2,0.6,1.8,0.9C7.7,1.5,8,1.7,8.3,1.8c0.2,0,0.3,0.1,0.5,0.1&#xD;&#xA;		c0.2,0,0.3-0.1,0.5-0.1C9.1,1.8,9,1.9,8.8,1.9c-0.2,0-0.3,0-0.5,0C7.9,1.8,7.6,1.6,7.3,1.5C6.8,1.2,6.2,0.8,5.6,0.6&#xD;&#xA;		c-0.1,0-0.2,0-0.2-0.1c-0.1,0-0.2,0-0.2,0c-0.2,0-0.3,0-0.5,0.1C4.3,0.7,4,0.9,3.8,1C3.5,1.2,3.2,1.4,3,1.6C2.7,1.8,2.5,2,2.3,2.3z"/>
	<path class="st4" d="M9.2,1.7c0.1-0.1,0.3-0.2,0.5-0.2c0.2,0,0.4,0,0.5,0.1c0.3,0.1,0.5,0.3,0.7,0.6c0,0,0,0,0,0.1c0,0,0,0,0,0&#xD;&#xA;		c0.2,0.3,0.3,0.6,0.3,0.9c0,0.3-0.1,0.7-0.3,0.9c0.2-0.3,0.2-0.6,0.2-0.9c0-0.3-0.1-0.6-0.3-0.9c-0.2-0.3-0.4-0.5-0.7-0.7&#xD;&#xA;		c-0.1-0.1-0.3-0.1-0.5-0.1C9.6,1.6,9.4,1.6,9.2,1.7z"/>
	<path class="st3" d="M4.2,13.4c0.2,0.7,0.4,1.4,0.8,2c0.2,0.3,0.4,0.6,0.6,0.9l0.3,0.4L6,17c0.1,0.1,0.1,0.2,0.2,0.2&#xD;&#xA;		c0.2,0.3,0.4,0.6,0.5,0.9c0.2,0.3,0.3,0.7,0.4,1c0.1,0.3,0.2,0.7,0.2,1c0,0.4,0,0.5,0,0.9c0-0.4,0-0.5-0.1-0.9c0-0.3-0.1-0.7-0.2-1&#xD;&#xA;		c-0.1-0.3-0.3-0.7-0.4-1c-0.2-0.3-0.3-0.6-0.6-0.9C6,17.2,6,17.1,5.9,17.1l-0.2-0.2c-0.1-0.1-0.2-0.3-0.3-0.4&#xD;&#xA;		c-0.2-0.3-0.4-0.6-0.6-0.9C4.5,14.8,4.3,14.1,4.2,13.4z"/>
	<path class="st25" d="M4,11.5C4,12,4.2,12.5,4.3,12.9c0.2,0.5,0.3,0.9,0.6,1.3c0.4,0.9,1,1.7,1.7,2.4C6.8,16.8,7,17,7.1,17.2&#xD;&#xA;		c0.2,0.2,0.3,0.4,0.5,0.6c0.3,0.4,0.5,0.9,0.6,1.3c0.2,0.8,0.3,1.6,0.1,2.4c0,0.2-0.1,0.3-0.1,0.5c0.1-0.5,0.2-1,0.1-1.4&#xD;&#xA;		c0-0.5-0.1-1-0.2-1.4c-0.1-0.5-0.4-0.9-0.6-1.3c-0.1-0.2-0.3-0.4-0.5-0.6c-0.2-0.2-0.4-0.3-0.5-0.5c-0.7-0.7-1.3-1.5-1.7-2.4&#xD;&#xA;		c-0.2-0.4-0.4-0.9-0.5-1.4c-0.1-0.2-0.1-0.5-0.2-0.7C4,12,4,11.8,4,11.5z"/>
	<path class="st23" d="M10.1,10.3c0.3-0.5,0.5-1,0.7-1.5c0.2-0.5,0.4-1,0.5-1.6c0.1-0.5,0.2-1.1,0.3-1.6c0-0.3,0-0.5,0-0.8l0-0.2&#xD;&#xA;		l0-0.2l0-0.1c0,0,0-0.1,0-0.1L11.3,4c0.3,0.5,0.3,1.1,0.3,1.6c0,0.3,0,0.6-0.1,0.8c0,0.3-0.1,0.5-0.2,0.8c-0.1,0.5-0.3,1.1-0.5,1.6&#xD;&#xA;		C10.7,9.3,10.5,9.8,10.1,10.3z"/>
	
		<linearGradient id="SVGID_13_" gradientUnits="userSpaceOnUse" x1="303.659" y1="-374.4797" x2="310.2635" y2="-374.4797" gradientTransform="matrix(1 0 0 -1 -300 -358)">
		<stop offset="0" style="stop-color:#DAD7D3"/>
		<stop offset="1" style="stop-color:#FAF6F2"/>
	</linearGradient>
	<path class="st32" d="M3.7,10.1c0-0.1,0-0.1,0-0.1S3.7,10,3.7,10.1z M3.7,14.2c0.1,0.1,0.1,0.2,0.1,0.2c0,0,0,0.1,0.1,0.1&#xD;&#xA;		c1.9,3.1,4.9,5.4,3.2,7.8C7,22.6,6.8,22.8,6.5,23c0.3-0.2,0.5-0.2,0.8-0.2c0.2,0,0.4,0.1,0.6-0.2c0.1-0.1,0.1-0.2,0.2-0.4&#xD;&#xA;		c0-0.1,0.1-0.2,0.1-0.3c0,0,0.9,1.2,1.8,0.3c0.3-0.9,0.4-2.3-0.9-3.9c-1.5-1.7-2.5-1.9-3.7-3.9c-1-1.6-1.6-3.8-1.7-4.4&#xD;&#xA;		C3.9,10.7,4.4,13.3,3.7,14.2"/>
	
		<linearGradient id="SVGID_14_" gradientUnits="userSpaceOnUse" x1="303.4684" y1="-365.6828" x2="303.2765" y2="-361.7867" gradientTransform="matrix(1 0 0 -1 -300 -358)">
		<stop offset="0" style="stop-color:#BBB8B5"/>
		<stop offset="1" style="stop-color:#FAF6F2"/>
	</linearGradient>
	<path class="st33" d="M1.9,3C1.6,4.1,1.4,5.7,1.7,7.4c0.1,0.7,0.7,2.3,0.8,3.1C2.2,8.1,0.9,3.3,5,1.5C4,1.8,2.1,3.1,1.9,3"/>
	
		<linearGradient id="SVGID_15_" gradientUnits="userSpaceOnUse" x1="305.983" y1="-360.0347" x2="305.983" y2="-380.9732" gradientTransform="matrix(1 0 0 -1 -300 -358)">
		<stop offset="0" style="stop-color:#DAD7D3"/>
		<stop offset="0.5124" style="stop-color:#FFFBF7"/>
		<stop offset="1" style="stop-color:#EEEBE7"/>
	</linearGradient>
	<path class="st34" d="M6.5,0C5.8,0,4.6,0.3,3.8,0.4c-0.2,0-0.4,0.1-0.6,0.1C2.8,0.7,2.7,0.9,2.5,1.2C2.4,1.3,2.3,1.3,2.2,1.3&#xD;&#xA;		c0,0,0,0,0,0C1.4,1.6-0.4,3.7,0,6.5c0,0.3,0.1,0.6,0.2,0.8c0.7,2.7,3.2,6.4,3.8,7.5c-0.5,1-1.4,2.9-1.7,4.8c0,0.1-0.1,0.5-0.1,0.9&#xD;&#xA;		c0,1,0.1,1.8,0.7,2.4c0,0,0.1,0.1,0.1,0.1c0.3,0.3,0.7,0.5,1,0.6h0c0.5,0.2,0.9,0.1,1.3,0c0.2,0.1,0.3,0.2,0.5,0.2&#xD;&#xA;		c1.1,0.3,2.3,0.1,2.8-0.2c0.8-0.2,1.1-0.6,1.3-1.3c0.2-0.6,0.5-1.8-0.2-3.6c-0.3-0.8-1-2-2.1-3.8l0,0c0.8-1.5,3.1-5.1,3.5-6.2&#xD;&#xA;		c0-0.1,0-0.1,0.1-0.2c0.7-1.6,1.1-3.7,0-5.7c-0.1-0.1-0.3-0.5-0.3-0.6c0,0,0,0,0,0c-0.9-1.6-1-1.3-1.5-1.4c0,0,0,0-0.1,0&#xD;&#xA;		C8.6,0.6,7.5,0.2,6.9,0.1C6.8,0,6.7,0,6.5,0L6.5,0z M7.2,14c0-0.1-0.1-0.1-0.1-0.2c-1.3-2.2-2.7-4-3.4-5.8C3.5,7.6,3.4,7.1,3.3,6.7&#xD;&#xA;		C3,5.4,3.1,4.6,3.7,3.6c0.5-1,2-2.3,2.9-1.9C7.5,2.1,8,2.2,8.4,2.2c0.3,0,0.5-0.2,0.7-0.4c0,0,0.2-0.1,0.2-0.1&#xD;&#xA;		c0.5,0.4,0.9,0.8,1.2,1.2c2.6,3.6-1.7,9.2-3.1,11.3C7.3,14.1,7.2,14,7.2,14z M4,22.4c-0.2,0-0.4-0.1-0.6-0.2&#xD;&#xA;		C3.2,22,3,21.8,2.9,21.5c-0.3-0.8-0.2-2.5,1.4-6.3c0.2,0.3,0.3,0.7,0.4,0.8c0.9,1.8,1.2,3.4,1.2,4.3c-0.1,1.2-0.7,1.9-1.4,2.1&#xD;&#xA;		c-0.1,0-0.2,0-0.2,0C4.1,22.4,4.1,22.4,4,22.4"/>
	
		<linearGradient id="SVGID_16_" gradientUnits="userSpaceOnUse" x1="305.983" y1="-358.8063" x2="305.983" y2="-379.7448" gradientTransform="matrix(1 0 0 -1 -300 -358)">
		<stop offset="0" style="stop-color:#DAD7D3"/>
		<stop offset="0.5124" style="stop-color:#E0E0E0"/>
		<stop offset="1" style="stop-color:#EEEBE7"/>
	</linearGradient>
	<path class="st35" d="M6.5,0C5.8,0,4.6,0.3,3.8,0.4c-0.2,0-0.4,0.1-0.6,0.1C2.8,0.7,2.7,0.9,2.5,1.2C2.4,1.3,2.3,1.3,2.2,1.3&#xD;&#xA;		c0,0,0,0,0,0C1.4,1.6-0.4,3.7,0,6.5c0,0.3,0.1,0.6,0.2,0.8c0.7,2.7,3.2,6.4,3.8,7.5c-0.5,1-1.4,2.9-1.7,4.8c0,0.1-0.1,0.5-0.1,0.9&#xD;&#xA;		c0,0.9,0.1,1.8,0.7,2.4c0,0,0.1,0.1,0.1,0.1c0.3,0.3,0.7,0.5,1,0.6h0c0.5,0.2,0.9,0.1,1.3,0c0.2,0.1,0.3,0.2,0.5,0.2&#xD;&#xA;		C6.3,24,6.6,24,7,24c0.7,0,1.4-0.2,1.7-0.4c0.8-0.2,1.1-0.6,1.3-1.3c0.2-0.6,0.5-1.8-0.2-3.6c-0.3-0.8-1-2-2.1-3.8l0,0&#xD;&#xA;		c0.8-1.5,3.1-5.1,3.5-6.2c0-0.1,0-0.1,0.1-0.2c0.7-1.6,1.1-3.7,0-5.7c-0.1-0.1-0.3-0.5-0.3-0.6c0,0,0,0,0,0c-0.9-1.6-1-1.3-1.5-1.4&#xD;&#xA;		c0,0,0,0-0.1,0C8.6,0.6,7.5,0.2,6.9,0.1C6.8,0,6.7,0,6.5,0L6.5,0z M7.2,14c0-0.1-0.1-0.1-0.1-0.2c-1.3-2.2-2.7-4-3.4-5.8&#xD;&#xA;		C3.5,7.6,3.4,7.1,3.3,6.7C3,5.4,3.1,4.6,3.7,3.6c0.5-1,2-2.3,2.9-1.9C7.5,2.1,8,2.2,8.4,2.2c0.3,0,0.5-0.2,0.7-0.4&#xD;&#xA;		c0,0,0.2-0.1,0.2-0.1c0.5,0.4,0.9,0.8,1.2,1.2c2.6,3.6-1.7,9.2-3.1,11.3C7.3,14.1,7.2,14,7.2,14z M4,22.4c-0.2,0-0.4-0.1-0.6-0.2&#xD;&#xA;		C3.2,22,3,21.8,2.9,21.5c-0.3-0.8-0.2-2.5,1.4-6.3c0.2,0.3,0.3,0.7,0.4,0.8c0.9,1.8,1.2,3.4,1.2,4.3c-0.1,1.2-0.7,1.9-1.4,2.1&#xD;&#xA;		c-0.1,0-0.2,0-0.2,0C4.1,22.4,4.1,22.4,4,22.4"/>
	<path class="st36" d="M6.3,20.7c0-1.1-0.2-2.2-0.6-3.2c-0.4-1-0.9-2-1.5-3C3.9,14,3.6,13.5,3.3,13c-0.3-0.5-0.6-1-0.9-1.5&#xD;&#xA;		c-0.6-1-1.1-2-1.5-3c0.2,0.5,0.5,1,0.8,1.5c0.3,0.5,0.6,1,0.8,1.5c0.6,1,1.2,1.9,1.8,2.9c0.6,1,1.1,2,1.5,3&#xD;&#xA;		c0.2,0.5,0.3,1.1,0.4,1.6C6.3,19.6,6.3,20.1,6.3,20.7z"/>
	<g class="st37">
		<g class="st37">
			<g class="st37">
				<g class="st37">
					<g class="st37">
						
							<linearGradient id="SVGID_17_" gradientUnits="userSpaceOnUse" x1="306.8109" y1="-379.9934" x2="304.0569" y2="-367.8323" gradientTransform="matrix(1 0 0 -1 -300 -358)">
							<stop offset="0" style="stop-color:#FAF6F2"/>
							<stop offset="0.5292" style="stop-color:#E6FFFF"/>
							<stop offset="0.6773" style="stop-color:#FFFBF7"/>
							<stop offset="0.901" style="stop-color:#EBE7E3"/>
							<stop offset="1" style="stop-color:#CCC9C6"/>
						</linearGradient>
						<path class="st38" d="M1.8,10c0.3,0.5,0.6,1,0.8,1.5c0.1,0.2,0.2,0.4,0.4,0.6c0.4,0.5,0.7,1.1,1.2,1.6c2,2.4,3.2,4.8,2.3,7.2&#xD;&#xA;							c-0.2,0.4-0.1,0.6,0.1,0.6h0c0.6,0,2-1.4,2-3.4V18c0-1.4-0.7-3.1-2.7-4.9C2.8,11,1,8.6,1,8.6C1.2,9.1,1.5,9.6,1.8,10"/>
					</g>
				</g>
			</g>
		</g>
	</g>
	<path class="st27" d="M4.3,15.2c-0.1-0.2-0.1-0.3-0.2-0.4c-0.5,1-1.4,2.9-1.7,4.8c0,0.1-0.1,0.5-0.1,0.9c0,0.1,0,0.1,0,0.2&#xD;&#xA;		c0.3,1.1,0.7,1.3,0.9,1.3C3,21.8,3,21.7,2.9,21.5C2.6,20.7,2.7,19,4.3,15.2z"/>
	<path class="st39" d="M9.8,18.7c-0.3-0.8-1-2-2.1-3.8l0,0c0,0-0.7-1-0.7-1c-1.3-2.2-2.7-4-3.4-5.8C3.5,7.6,3.4,7.1,3.3,6.7&#xD;&#xA;		c0,0,0,0,0,0c0,0,0,0,0,0c0.1,0.4,0.1,0.9,0.2,1.6c0.3,1.3,0.9,2.7,2.1,4.1c1.4,1.6,2.9,3.5,3.7,6.4c0.1,0.4,0.2,1.2,0.3,2&#xD;&#xA;		c0.1,0.9-0.1,1.6-0.5,2.3c0,0,0.2,0.3,0.9-0.5c0.1-0.1,0.1-0.1,0.1-0.2C10.3,21.7,10.6,20.5,9.8,18.7z"/>
	
		<linearGradient id="SVGID_18_" gradientUnits="userSpaceOnUse" x1="302.739" y1="-360.8118" x2="300.831" y2="-364.3477" gradientTransform="matrix(1 0 0 -1 -300 -358)">
		<stop offset="0" style="stop-color:#791426"/>
		<stop offset="0.5347" style="stop-color:#AF1C3B"/>
		<stop offset="1" style="stop-color:#791426"/>
	</linearGradient>
	<path class="st40" d="M0.9,4.4c0,0.5,0.4,0.9,0.9,0.9c0.5,0,0.9-0.4,0.9-0.9S2.4,3.5,1.9,3.5C1.3,3.5,0.9,3.9,0.9,4.4z M2,4&#xD;&#xA;		C1.9,4,1.8,3.9,1.8,3.8c0,0,0,0,0,0c0.2,0,0.3,0.1,0.4,0.1C2.2,4,2.2,4,2,4C2.1,4,2,4,2,4L2,4z M1.2,4.2c0.1-0.1,0.2-0.3,0.3-0.3&#xD;&#xA;		c0,0,0,0.1,0,0.1C1.6,4.1,1.5,4.2,1.2,4.2C1.3,4.2,1.3,4.2,1.2,4.2z M1.7,4.6L1.6,4.4c0,0,0-0.1,0-0.1l0.2-0.2c0,0,0.1,0,0.1,0&#xD;&#xA;		l0.2,0.1c0,0,0,0,0,0.1l0,0.2c0,0,0,0-0.1,0.1L1.7,4.6C1.8,4.7,1.8,4.7,1.7,4.6C1.8,4.7,1.7,4.7,1.7,4.6L1.7,4.6z M2.3,4.5&#xD;&#xA;		c0-0.1,0.1-0.2,0.2-0.2c0,0.1,0,0.1,0,0.2c0,0.1,0,0.2-0.1,0.3C2.4,4.6,2.3,4.6,2.3,4.5L2.3,4.5z M1.2,4.6C1.2,4.6,1.3,4.6,1.2,4.6&#xD;&#xA;		c0.2,0,0.3,0.1,0.3,0.2c0,0.1,0,0.1-0.1,0.1C1.3,4.8,1.2,4.7,1.2,4.6z M1.8,5.1c0-0.1,0.1-0.2,0.2-0.2c0.1,0,0.2,0,0.2,0.1&#xD;&#xA;		C2.1,5,2,5.1,1.8,5.1C1.8,5.1,1.8,5.1,1.8,5.1"/>
	
		<linearGradient id="SVGID_19_" gradientUnits="userSpaceOnUse" x1="302.4195" y1="-360.6391" x2="300.5112" y2="-364.1753" gradientTransform="matrix(1 0 0 -1 -300 -358)">
		<stop offset="0" style="stop-color:#791426"/>
		<stop offset="0.5347" style="stop-color:#AF1C3B"/>
		<stop offset="1" style="stop-color:#791426"/>
	</linearGradient>
	<path class="st41" d="M2,2.8l0.2,0.4L2.6,3L2.4,2.6L2,2.8z"/>
	
		<linearGradient id="SVGID_20_" gradientUnits="userSpaceOnUse" x1="303.3031" y1="-361.1159" x2="301.3951" y2="-364.6518" gradientTransform="matrix(1 0 0 -1 -300 -358)">
		<stop offset="0" style="stop-color:#791426"/>
		<stop offset="0.5347" style="stop-color:#AF1C3B"/>
		<stop offset="1" style="stop-color:#791426"/>
	</linearGradient>
	<path class="st42" d="M1.4,6l0.3,0.3L2.1,6L1.7,5.7L1.4,6z"/>
	
		<linearGradient id="SVGID_21_" gradientUnits="userSpaceOnUse" x1="303.9315" y1="-388.6797" x2="311.033" y2="-370.57" gradientTransform="matrix(1 0 0 -1 -300 -358)">
		<stop offset="0" style="stop-color:#791426"/>
		<stop offset="0.5347" style="stop-color:#AF1C3B"/>
		<stop offset="1" style="stop-color:#791426"/>
	</linearGradient>
	<path class="st43" d="M7.8,20.9c0,0-0.1,0.1-0.1,0.2c0,0.1,0,0.2,0,0.2c0,0-0.1,0-0.1,0c0,0,0,0.1,0,0.1c0,0,0,0.1,0,0.1&#xD;&#xA;		c-0.1,0-0.1,0.1-0.2,0.2c0,0,0,0,0,0.1c0-0.1-0.1-0.1-0.1-0.2c0-0.1-0.1-0.1-0.1-0.1c0,0,0,0,0,0c0,0,0,0,0,0.1c0,0,0,0,0,0&#xD;&#xA;		c0,0,0,0-0.1-0.1c0,0,0,0-0.1,0c0,0-0.1,0-0.1,0.1c0,0,0,0,0,0.1c-0.1,0-0.1,0-0.1,0c0,0,0,0,0,0.1c0,0,0,0.1,0,0.1&#xD;&#xA;		c0,0.1,0,0.2,0,0.2c0,0,0.1,0,0.2,0c0.1,0,0.1-0.2,0-0.2c0,0,0,0-0.1,0c0,0,0,0,0,0.1c0,0,0,0.1,0,0.1c0,0-0.1,0-0.1,0&#xD;&#xA;		c0,0,0-0.1,0-0.2c0,0,0-0.1,0-0.1c0.1,0,0.1,0,0.2,0c0,0,0.1,0.1,0.1,0.1c0,0.1-0.1,0.3-0.1,0.4c0,0.1,0.1,0.2,0.2,0.2&#xD;&#xA;		c0,0,0.2,0,0.2,0c0.1,0,0.2,0,0.3-0.1C8,22.2,8,22,8.1,21.9c0-0.1,0.1-0.1,0.1-0.1c0,0,0.1,0,0.1,0.1c0,0,0,0.1,0,0.1&#xD;&#xA;		c0,0.1,0,0.1-0.1,0.1c0,0-0.1,0-0.1,0c0,0,0-0.1,0-0.1c0,0,0,0,0.1,0c0,0,0,0-0.1,0c-0.1,0-0.1,0.2-0.1,0.2c0,0.1,0.1,0.1,0.1,0.1&#xD;&#xA;		c0.1,0,0.1-0.1,0.1-0.2c0,0,0-0.1,0-0.1c0,0,0,0,0.1,0c0,0,0,0,0,0c0-0.1-0.1-0.1-0.1-0.1c0,0,0,0,0-0.1c0-0.1,0-0.1,0-0.1&#xD;&#xA;		c0,0,0,0-0.1,0c0,0-0.1,0-0.1,0c0,0,0,0,0,0c0,0,0,0,0-0.1c0,0,0,0,0,0c0,0,0,0,0,0c0,0-0.1,0-0.1,0.1c-0.1,0-0.1,0.1-0.2,0.2&#xD;&#xA;		c0,0,0,0,0-0.1c0-0.1,0-0.1,0-0.2l0-0.1c0,0,0,0,0,0c0-0.1,0-0.1,0.1-0.2c0,0-0.1-0.1-0.1-0.1c0-0.1,0-0.2,0-0.3&#xD;&#xA;		C7.9,20.9,7.9,20.9,7.8,20.9C7.9,20.8,7.8,20.8,7.8,20.9C7.8,20.8,7.8,20.8,7.8,20.9L7.8,20.9z M6.1,21.9c0,0,0-0.1,0-0.2&#xD;&#xA;		c-0.1,0-0.1,0.1-0.1,0.1c0,0.1,0,0.1-0.1,0.2c0,0-0.1,0-0.1-0.1c-0.1,0.1-0.1,0.2,0,0.3c0.1,0.1,0.1,0.2,0.2,0.3&#xD;&#xA;		c0.1,0.1,0.2,0.2,0.2,0.3c0,0.1-0.1,0.2-0.2,0.3c-0.1,0.1-0.2,0.1-0.3,0.1c0,0,0,0,0,0c0,0,0.1,0,0.2,0c0.4-0.1,0.6-0.3,0.5-0.6&#xD;&#xA;		c0-0.1-0.2-0.3-0.2-0.4c0-0.1-0.1-0.2-0.1-0.3c0-0.1,0.1-0.2,0.3-0.2c0.1,0,0.2,0.1,0.2,0.2c0,0.1,0,0.1-0.1,0.1c0,0-0.1,0-0.1,0&#xD;&#xA;		c0,0,0-0.1,0-0.1c0,0,0,0,0,0c-0.1,0-0.1,0.1-0.1,0.1c0,0.1,0.2,0.2,0.4,0.1c0.1-0.1,0.2-0.2,0.1-0.3c0-0.1-0.1-0.2-0.2-0.2&#xD;&#xA;		c0,0,0,0,0,0c0-0.1,0-0.1,0.1-0.1c0,0,0,0,0,0C6.2,21.7,6.2,21.8,6.1,21.9L6.1,21.9z M6.9,22.3c-0.1,0-0.2,0.1-0.2,0.2&#xD;&#xA;		c0,0,0.1,0,0.1,0c0.1,0,0.1,0,0.1,0.1c0,0,0,0.1-0.1,0.2c-0.1,0.1-0.2,0.1-0.3,0.2c-0.1,0.1-0.1,0.2-0.1,0.2c0,0.1,0.1,0.2,0.1,0.2&#xD;&#xA;		c-0.2,0.2-0.4,0.4-0.6,0.5c0.1,0,0.1,0,0.2,0c0.2-0.2,0.4-0.3,0.6-0.5c0.2,0.1,0.3,0.1,0.5,0c0.1-0.1,0.1-0.2,0.2-0.2&#xD;&#xA;		c0-0.1,0.1-0.1,0.1-0.2c0-0.1,0.1-0.2,0.2-0.2c0.1,0,0.1,0,0.1,0.1c0,0,0,0,0,0c0-0.1,0.1-0.1,0.1-0.2c0-0.1,0-0.2,0-0.2&#xD;&#xA;		c-0.1,0-0.1-0.1-0.2,0c0,0-0.1,0.1-0.1,0.1c0,0.1-0.1,0.1-0.1,0.2c-0.1,0.1-0.2,0.2-0.3,0.3c0.1-0.1,0.1-0.2,0.2-0.3&#xD;&#xA;		c0-0.1,0.1-0.2,0.1-0.3c0,0,0,0,0,0c0,0,0,0,0,0c-0.1,0.1-0.3,0.3-0.4,0.4c0,0,0,0,0,0c0-0.1,0.1-0.2,0.1-0.2c0,0,0,0,0.1-0.1&#xD;&#xA;		c0.1-0.1,0.1-0.1,0.1-0.2c0-0.1,0-0.2-0.1-0.2c0,0-0.1,0-0.1,0C7,22.3,7,22.3,6.9,22.3L6.9,22.3z M5.5,22.5c-0.1,0-0.2,0-0.2,0&#xD;&#xA;		c0.3,0.2,0.4,0.4,0.5,0.7c0.1,0,0.1-0.2,0.1-0.4c0-0.2-0.1-0.3-0.3-0.4c0,0,0,0,0,0c-0.1,0-0.1-0.1-0.2-0.1&#xD;&#xA;		C5.4,22.4,5.5,22.5,5.5,22.5L5.5,22.5z M8.6,22.9C8.6,22.9,8.6,22.9,8.6,22.9c-0.1,0-0.3-0.1-0.5,0c-0.1,0.1-0.2,0.3,0,0.4&#xD;&#xA;		c0,0,0.1,0,0.1,0c0.1,0,0.1-0.1,0.1-0.1c0,0,0,0,0,0c0,0,0,0,0,0c-0.1,0.1-0.1,0.1-0.1,0.1c0,0,0-0.1,0-0.2C8.3,23,8.4,23,8.5,23&#xD;&#xA;		c0.1,0,0.1,0.1,0,0.2c-0.1,0.1-0.1,0.2-0.3,0.3c-0.1,0-0.2,0.1-0.3,0.1c-0.1,0-0.1,0-0.2,0c-0.1,0-0.2,0-0.3,0&#xD;&#xA;		C7.3,23.6,7,23.8,6.9,24c0,0,0.1,0,0.1,0c0-0.1,0.1-0.1,0.2-0.1c0.2-0.1,0.4-0.2,0.5-0.2c0.1,0,0.3,0,0.4,0c0.1,0,0.2,0,0.2,0&#xD;&#xA;		c0.1,0,0.2-0.1,0.3-0.2c0,0-0.1,0-0.1,0c0.1-0.1,0.2-0.2,0.3-0.4c-0.1,0-0.1,0.1-0.2,0.1c0-0.1,0.1-0.1,0.1-0.2c0-0.1,0-0.1,0-0.2&#xD;&#xA;		C8.7,22.8,8.6,22.9,8.6,22.9L8.6,22.9z M6,23.4c-0.1,0.1-0.1,0.2,0,0.2c0,0,0,0,0.1,0.1c0.1-0.1,0.1-0.1,0.2-0.1&#xD;&#xA;		c0.1-0.1,0.2-0.2,0.2-0.3c0,0,0-0.1,0-0.1C6.2,23.2,6.1,23.3,6,23.4z M5.3,23.4c-0.1,0-0.1,0-0.2,0C5.1,23.4,5.2,23.5,5.3,23.4&#xD;&#xA;		c-0.1,0.1-0.1,0.1-0.2,0.2c0.3,0,0.5,0.1,0.8,0.3C5.9,23.7,5.6,23.4,5.3,23.4C5.3,23.4,5.3,23.4,5.3,23.4L5.3,23.4z M6.6,23.8&#xD;&#xA;		c0,0.1-0.1,0.1-0.2,0.1c0.1,0,0.2,0,0.3,0c0,0,0,0,0,0c0.1,0,0.1-0.1,0.2-0.1c0,0,0.1-0.1,0.1-0.1c0,0,0.1-0.1,0.1-0.1&#xD;&#xA;		C6.9,23.6,6.7,23.7,6.6,23.8L6.6,23.8z M7.7,23.8c-0.2,0-0.4,0.1-0.6,0.2c0.3,0,0.6-0.1,0.9-0.1C8,23.8,7.9,23.8,7.7,23.8&#xD;&#xA;		C7.8,23.8,7.7,23.8,7.7,23.8"/>
	
		<linearGradient id="SVGID_22_" gradientUnits="userSpaceOnUse" x1="303.9426" y1="-366.6322" x2="312.2388" y2="-386.5692" gradientTransform="matrix(1 0 0 -1 -300 -358)">
		<stop offset="0" style="stop-color:#791426"/>
		<stop offset="0.5347" style="stop-color:#AF1C3B"/>
		<stop offset="1" style="stop-color:#791426"/>
	</linearGradient>
	<path class="st44" d="M5.8,14.6C5.8,14.6,5.8,14.6,5.8,14.6L5.8,14.6c0,0.1,0,0.1,0.1,0.2C6,14.9,6,15,6.1,15.1&#xD;&#xA;		c0,0-0.1,0.1-0.1,0.1c0.1,0,0.1,0.1,0.2,0.1c0.1,0.1,0.2,0,0.2,0c0,0,0,0,0-0.1c0,0,0,0,0.1,0c0,0,0.1,0,0-0.1c0,0-0.1-0.1-0.1-0.1&#xD;&#xA;		c0,0,0-0.1,0-0.1c-0.1,0-0.1,0-0.1,0.1c0-0.1-0.1-0.1-0.2-0.2C6,14.7,5.9,14.7,5.8,14.6C5.9,14.6,5.9,14.6,5.8,14.6L5.8,14.6z&#xD;&#xA;		 M6.8,15c0,0.1,0.1,0.2,0.2,0.3c0-0.1,0-0.1,0-0.2c0,0,0-0.1,0-0.1C6.9,15,6.9,14.9,6.8,15C6.8,14.9,6.8,14.9,6.8,15&#xD;&#xA;		C6.8,14.9,6.7,14.9,6.8,15L6.8,15z M7.4,15c0,0-0.1,0-0.1,0.2c0,0-0.1-0.1-0.1-0.1c0,0,0,0,0,0c0,0.1,0,0.1,0,0.2&#xD;&#xA;		c0.1,0.1,0.1,0.2,0.2,0.3c0.1,0.2,0.3,0.4,0.2,0.6c0,0,0,0,0,0c0,0,0,0,0,0c0.1-0.1,0.2-0.2,0.1-0.3c-0.1-0.1-0.3-0.3-0.4-0.5&#xD;&#xA;		c0-0.1,0-0.1,0-0.2c0-0.1,0.1-0.1,0.2-0.1c0,0,0.1,0,0.1,0c0.1,0.1,0.1,0.1,0.1,0.2c0,0,0,0.1-0.1,0c0,0-0.1,0-0.1-0.1&#xD;&#xA;		c0,0,0-0.1,0-0.1c-0.1,0-0.1,0-0.1,0c0,0.1,0.1,0.2,0.2,0.2c0.1,0,0.2,0,0.2-0.1c0-0.1,0-0.2-0.1-0.2c0,0-0.1-0.1-0.1-0.1&#xD;&#xA;		c0,0,0-0.1,0-0.1c0,0,0,0,0,0c-0.1,0-0.1,0-0.2,0.1C7.5,15.1,7.5,15.1,7.4,15C7.5,15,7.5,15,7.4,15C7.4,15,7.4,15,7.4,15L7.4,15z&#xD;&#xA;		 M6.6,15.2C6.6,15.2,6.6,15.2,6.6,15.2c0,0.1,0.1,0.2,0.2,0.2c0.1,0.1,0.3,0.2,0.4,0.3c0,0,0,0,0,0.1c-0.1-0.1-0.2-0.1-0.3-0.2&#xD;&#xA;		c-0.1-0.1-0.2-0.1-0.3-0.1c0,0,0,0,0,0c0,0.1,0.1,0.2,0.1,0.2C6.8,15.8,6.9,15.9,7,16c0,0,0,0,0,0c-0.1-0.1-0.2-0.2-0.3-0.3&#xD;&#xA;		c0-0.1-0.2-0.3-0.3-0.2c0,0,0,0.1,0.1,0.2c0.1,0.1,0.1,0.1,0.2,0.1c0,0.1,0,0.1,0.1,0.2C6.9,16,6.9,16,7,16.1c0,0,0,0,0.1,0.1&#xD;&#xA;		c0,0.1,0.1,0.1,0.2,0.2c0.1,0,0.1,0,0.2,0c0,0,0.1,0,0.1-0.1c0-0.1,0.1-0.2,0-0.3c0,0-0.1-0.1-0.1-0.1c0,0,0,0-0.1-0.1&#xD;&#xA;		c0-0.1-0.1-0.1-0.1-0.2c-0.1-0.1-0.1-0.1-0.2-0.1c-0.1-0.1-0.1-0.1-0.2-0.2C6.7,15.2,6.7,15.2,6.6,15.2C6.6,15.2,6.6,15.2,6.6,15.2&#xD;&#xA;		L6.6,15.2z M6.1,15.8c0,0.1,0.2,0.1,0.2,0.1c0,0,0.1-0.1,0.1-0.1c0,0,0.1,0,0.1,0c-0.1-0.1-0.3-0.1-0.4-0.1&#xD;&#xA;		C6.1,15.7,6.1,15.7,6.1,15.8L6.1,15.8z M6.3,15.9C6.3,15.9,6.3,16,6.3,15.9c0,0,0,0.1,0,0.1c0,0-0.1,0-0.1,0c0,0,0,0-0.1,0&#xD;&#xA;		c0,0,0,0.1,0,0.1c0,0,0,0,0.1,0c-0.1,0.1-0.1,0.2-0.1,0.2c0,0,0.1,0,0.1,0c0,0,0.1,0.1,0.1,0.1c0.1,0.1,0.2,0.1,0.2,0.1&#xD;&#xA;		c0.1,0,0.1-0.1,0.1-0.2c0-0.1-0.1-0.2-0.2-0.2c0,0-0.1,0-0.1,0.1c0,0,0.1,0,0.1,0c0,0,0.1,0.1,0.1,0.1c0,0,0,0.1,0,0.1&#xD;&#xA;		c-0.1,0-0.2,0-0.2-0.1c0,0,0-0.1,0-0.1c0-0.1,0-0.2,0.1-0.2c0.1,0,0.1,0,0.2,0c0.1,0.1,0.3,0.3,0.5,0.4c0.1,0.1,0.3,0,0.3-0.1&#xD;&#xA;		c0,0,0,0,0,0c0,0,0,0,0,0c-0.2,0.1-0.4-0.1-0.6-0.2c-0.1-0.1-0.2-0.2-0.4-0.2C6.5,16,6.4,15.9,6.3,15.9C6.3,15.9,6.3,15.9,6.3,15.9&#xD;&#xA;		z M8,16c-0.1,0.1-0.2,0.2-0.1,0.4c0,0,0.1,0.1,0.1,0.1c0.1,0.2,0.3,0.3,0.4,0.4c0.1,0.1,0.2,0.2,0.3,0.3c0.2,0.2,0.2,0.5,0.2,0.5&#xD;&#xA;		C9,17.6,9.1,17.4,9,17.2C9,17,8.9,16.9,8.8,16.9c-0.1-0.1-0.2-0.1-0.3-0.2c-0.1-0.1-0.2-0.2-0.2-0.3c0-0.1,0.1-0.1,0.2-0.1&#xD;&#xA;		c0,0,0,0,0.1,0c0-0.1-0.1-0.1-0.2-0.2C8.3,16,8.2,16,8.1,16C8.1,16,8.1,16,8,16L8,16z M7.8,16.7c0.2,0.2,0.3,0.5,0.4,0.7&#xD;&#xA;		c0.1,0.1,0.1,0.2,0.2,0.3c0,0,0.1,0,0.1,0.1c0,0,0.1,0,0.1,0.1c0.3,0.5,0.5,0.9,0.7,1.4c0,0,0,0,0,0.1c-0.1,0.1,0,0.2,0,0.3&#xD;&#xA;		c0.1,0.1,0.2,0.2,0.2,0.2c0-0.1,0-0.2,0-0.3c0-0.1,0-0.2,0-0.2c0,0-0.1-0.1-0.1-0.1c0,0-0.1,0-0.1-0.1c-0.2-0.5-0.4-0.9-0.7-1.4&#xD;&#xA;		c0,0,0-0.1,0-0.1c0-0.1,0-0.2,0-0.3c-0.1-0.2-0.3-0.4-0.5-0.5C8.1,16.8,8,16.7,7.8,16.7C7.9,16.6,7.8,16.6,7.8,16.7&#xD;&#xA;		C7.8,16.6,7.8,16.6,7.8,16.7L7.8,16.7z M7.4,16.8c-0.1,0.1-0.1,0.2-0.1,0.3c0,0.1,0.1,0.2,0.2,0.3c0,0,0-0.1,0-0.1&#xD;&#xA;		c0-0.1,0.1-0.1,0.2-0.1c0.1,0,0.2,0.1,0.2,0.2c0.1,0.1,0.1,0.3,0.2,0.4C8,17.9,8.1,18,8.2,18c0.1,0,0.2,0,0.3,0c0,0-0.1,0-0.1-0.1&#xD;&#xA;		c-0.1-0.1-0.2-0.2-0.3-0.3c-0.1-0.2-0.2-0.4-0.3-0.5c-0.1-0.1-0.2-0.2-0.3-0.3c-0.1-0.1-0.1-0.1-0.2-0.1&#xD;&#xA;		C7.4,16.7,7.4,16.7,7.4,16.8L7.4,16.8z M6.4,17.9c-0.1,0-0.2,0-0.2,0c0,0.1,0,0.2,0.1,0.2c0.1,0.1,0.1,0.1,0.2,0.2&#xD;&#xA;		c0,0-0.1,0-0.1,0.1c0.1,0.2,0.2,0.2,0.4,0.2c0.2,0,0.3-0.1,0.5-0.1c0.2,0,0.4-0.1,0.6,0c0.2,0.1,0.3,0.2,0.3,0.4&#xD;&#xA;		c0,0.2,0,0.3-0.1,0.4c0,0,0,0,0,0c0-0.1,0.1-0.2,0.1-0.2c0.1-0.5-0.2-0.8-0.7-0.8c-0.2,0-0.3,0-0.5,0c-0.1,0-0.3,0-0.4-0.1&#xD;&#xA;		c-0.1-0.1-0.2-0.3-0.1-0.5c0.1-0.1,0.2-0.1,0.3-0.1C7,17.7,7,17.8,7,17.9C7,17.9,7,18,7,18c0,0-0.1,0-0.1,0c0,0,0,0,0,0&#xD;&#xA;		c0,0.1,0,0.2,0.1,0.2c0.1,0,0.3-0.1,0.3-0.3c0-0.2-0.1-0.3-0.2-0.3c-0.2-0.1-0.3,0-0.4,0.1c0,0,0,0,0,0c-0.1-0.1-0.1-0.1-0.2-0.2&#xD;&#xA;		C6.2,17.6,6.3,17.7,6.4,17.9L6.4,17.9z M7.2,18.1c0.2,0,0.3-0.2,0.3-0.4c-0.1-0.1-0.2-0.2-0.3-0.3C7.3,17.7,7.4,17.9,7.2,18.1z&#xD;&#xA;		 M9.2,18.4c0.1,0.1,0.1,0.2,0.1,0.3c0.2-0.1,0.3-0.3,0.2-0.4c0-0.1-0.1-0.2-0.1-0.3c0-0.1-0.1-0.1-0.1-0.2c0-0.1-0.1-0.1-0.1-0.2&#xD;&#xA;		C9.1,17.9,9.1,18.1,9.2,18.4L9.2,18.4z M8.6,18.8c0,0.1,0.2,0.2,0.3,0.1c0,0,0.1,0,0.1,0c0-0.1-0.1-0.2-0.1-0.3&#xD;&#xA;		c-0.1-0.2-0.2-0.3-0.4-0.4c0,0-0.1,0-0.2,0C8.5,18.4,8.6,18.6,8.6,18.8L8.6,18.8z M7,18.7C7,18.8,7,18.8,7,18.7&#xD;&#xA;		c0,0.1-0.2,0.2-0.2,0.3c0.1,0,0.1,0,0.2,0c0,0.1-0.1,0.2-0.1,0.2c0.4-0.4,0.8-0.4,1.2-0.3c0-0.1-0.3-0.3-0.5-0.3&#xD;&#xA;		c-0.1,0-0.1,0-0.2,0C7.3,18.6,7.1,18.6,7,18.7z M9.5,18.9c0.1,0,0.2-0.1,0.3-0.1c0,0,0,0,0-0.1c0,0,0-0.1-0.1-0.1&#xD;&#xA;		C9.7,18.7,9.6,18.8,9.5,18.9z M9.6,19.1C9.5,19.1,9.5,19.1,9.6,19.1c0.1,0.1,0.2,0.2,0.2,0.3c0.1,0,0.1-0.1,0.2-0.2&#xD;&#xA;		c0,0,0.1,0.1,0.1,0.1c0-0.1-0.1-0.2-0.1-0.3c0,0,0,0-0.1,0C9.8,19,9.7,19.1,9.6,19.1L9.6,19.1z M8.1,19.6&#xD;&#xA;		C8.2,19.6,8.2,19.6,8.1,19.6c0,0.1,0,0.2-0.1,0.2c0,0,0.1-0.1,0.2-0.1c0,0.1,0,0.1,0.1,0.1c0.1-0.4,0.4-0.6,0.7-0.9c0,0,0,0-0.1,0&#xD;&#xA;		C8.7,19.1,8.3,19.3,8.1,19.6L8.1,19.6z M9.1,19.4c-0.1,0.1-0.2,0.2-0.3,0.3c-0.1,0.1,0,0.2,0,0.3c0.1-0.1,0.2-0.2,0.2-0.3&#xD;&#xA;		c0.1,0,0.1,0,0.2,0c-0.1-0.1-0.1-0.3,0-0.4c0,0,0,0,0,0C9.2,19.3,9.2,19.3,9.1,19.4L9.1,19.4z M9.8,19.5c0.1,0.1,0.1,0.2,0.1,0.2&#xD;&#xA;		c0,0,0.1,0.1,0.2,0c0,0,0.1,0,0.1-0.1c0,0,0-0.1,0-0.1c-0.1,0-0.1,0-0.1,0C10,19.6,9.9,19.5,9.8,19.5C9.8,19.5,9.8,19.5,9.8,19.5&#xD;&#xA;		L9.8,19.5z M9.2,20c0,0.1-0.1,0.1-0.1,0.1c0,0.1,0.1,0.1,0.2,0.1c0.1,0,0.1,0,0.1-0.1c0-0.1,0-0.2,0-0.2c0,0,0-0.1,0-0.1&#xD;&#xA;		C9.3,19.8,9.2,19.9,9.2,20L9.2,20z M9.9,20.1c0.1,0,0.2,0,0.2-0.1c-0.1,0-0.1,0-0.2-0.1c0,0-0.1-0.1-0.2-0.1&#xD;&#xA;		C9.7,19.9,9.8,20,9.9,20.1L9.9,20.1z M9.4,20.1c0,0.1,0,0.1-0.1,0.2c0.1,0,0.1,0,0.2,0c0.1,0,0.1-0.1,0.1-0.1&#xD;&#xA;		c0-0.1-0.1-0.2-0.2-0.2C9.5,19.9,9.4,20,9.4,20.1L9.4,20.1z M9.8,20.3C9.8,20.3,9.8,20.3,9.8,20.3L9.8,20.3&#xD;&#xA;		C9.8,20.3,9.8,20.3,9.8,20.3c0.1,0,0.1,0,0.1-0.1c0-0.1-0.1-0.2-0.2-0.2C9.7,20.2,9.7,20.2,9.8,20.3"/>
	<path class="st2" d="M2.9,13.9L3,13.8l-0.4-0.6l-0.1,0.1l0.1,0.2L2,13.9L2.1,14l0.7-0.4L2.9,13.9z M3.5,14.6l-0.7,0.1l0.4-0.5&#xD;&#xA;		L3.1,14l-0.8,0.4l0.1,0.1L3,14.2l0,0l-0.5,0.6l0.1,0.1l0.8-0.1l0,0l-0.6,0.3l0.1,0.1l0.8-0.4L3.5,14.6z"/>
</g>
</svg>